<svg id="protoWorld" xmlns="http://www.w3.org/2000/svg" viewBox="0 0 1680 840">
  <defs>
    <style>
      .cls-1 {
        fill: #282c34;
      }

      .cls-2, .cls-3 {
        fill: #333842;
      }

      .cls-2 {
        stroke: #21252b;
        stroke-miterlimit: 10;
      }

      .cls-3 {
        opacity: 0.2;
      }
    </style>
  </defs>
  <title>protoTM2</title>
  <rect id="_2x1bg" data-name="2x1bg" class="cls-1" width="1680" height="840"/>
  <g id="Tellus_Mater" data-name="Tellus Mater">
    <path id="Renovatio" class="cls-2" d="M1239.21,1648.73a1.75,1.75,0,0,1,0,1.22c.52-.65,1.21-.4,1.8-.55.23-.05.46-.22.68,0s0,.54-.06.78a2,2,0,0,1-.37.52c-.22.28-.29.53.18.56s.68.43,1.22.28.68.61.82.93c.27.65.65.73,1.14.47.94-.5,1.8.28,2.72.1.16,0,.17.29.26.41.22.32.48.75,1,.21a1.53,1.53,0,0,1,1.09-.42.86.86,0,0,0,.72-1.38.54.54,0,0,1,.14-.8c.44-.39.83-.95,1.48-.82.32.07.23.61.36.88.67,1.37,0,2.23-.84,3.25a4.84,4.84,0,0,1-1.42,1.36c-.57.32-.58,1-.7,1.56a1.25,1.25,0,0,1-1.17,1.08,3,3,0,0,1-3-.73,11.33,11.33,0,0,1-1.85-1.51c-.16-.22-.38-.19-.54,0-.47.65-1.12.51-1.81.56a4.38,4.38,0,0,0-2.94,1,5.3,5.3,0,0,1-1.24.81.64.64,0,0,1-.91-.11c-.12-.14-.28-.53-.58-.28a.74.74,0,0,0-.15.94,5.12,5.12,0,0,0,2.54,3.05c.81.35,1,.86.6,1.77a3.17,3.17,0,0,1-1.65,1.95,1.1,1.1,0,0,1-1.21-.15,13,13,0,0,0-2.45-1.69,3,3,0,0,1-1.13-1.32.51.51,0,0,1,0-.61,5.82,5.82,0,0,0,.8-3c0-.59-.3-.89-.75-.82a3.11,3.11,0,0,1-2.32-.83,3.08,3.08,0,0,0-1.34-.63c-.39,0-.63-.35-.35-.73.16-.22.06-.34,0-.5s-.49-.43-.11-.7a1.06,1.06,0,0,1,1-.19,3.9,3.9,0,0,0,2.79-.09,1.24,1.24,0,0,1,1.54.2.55.55,0,0,0,.75.15,5,5,0,0,1,1.62-.85c.13,0,.26-.11.22-.26-.36-1.28.93-1.49,1.44-2.19.1-.14.37-.23.26-.42-.71-1.23.57-1.71.93-2.53Zm52.62,59.39a12.69,12.69,0,0,1-1.64-1.86,1.13,1.13,0,0,0-1.71-.18c-.21.2-.42.49-.69.43-.88-.2-1.21.34-1.53,1a5,5,0,0,1-.72,1.2,3.06,3.06,0,0,0,.15,4.19,7.24,7.24,0,0,0,1.8,1.55c.44.27.79.76,1.25.38a1.21,1.21,0,0,0,.36-1.6c-.42-.76-.13-1.3.45-1.89.82-.82,1.53-1.75,2.28-2.64Zm-67.71-29.81c-1.45.2-2.31,1.47-3.57,2-.11,0-.17.26-.21.4a3.24,3.24,0,0,0,.1,1.28c.08.66-.19,1.17-.89,1.08-1.21-.17-2.37.32-3.57.17a.86.86,0,0,0-.62.11,1.32,1.32,0,0,1-1.58.07,1.12,1.12,0,0,0-1.25,0c-1,.92-1.43,1.06-2.56.44-.62-.34-1.15-.86-1.79-1.13s-1.11-.18-1.53-.73c-.19-.25-.89-.33-.9.29a19,19,0,0,0,0,2.38c0,.59-.06,1.39.93,1.55.33,0,.21.52,0,.8s-.25.47-.08.48c.72,0,.48.67.71,1,.11.17.34.44,0,.46s-.62.54-.89,0c-.44-.88-.76-.39-1.24,0-.77.63-1.5,1.53-2.75.91a7,7,0,0,0,.39,2.56,1.79,1.79,0,0,1-.46,1.72c-1.21,1.37-1.92,3.08-3,4.49-.5.62-.32,1.54-.87,2-1.11.94-1.94,2.19-3.28,2.87a2,2,0,0,0-1.2,1.46c-.05.77-.23,1.2-1.22,1,.32.38.77.67.41,1.09a1.81,1.81,0,0,1-1.57.49c.15-.58.31-1.06.87-1.29a.32.32,0,0,0,.06-.55c-.45-.21-.24-.48-.18-.77s.22-.39,0-.51a13.52,13.52,0,0,0-3-1,.46.46,0,0,0-.25.11,8.64,8.64,0,0,0-1.65,1.23c-.56.63-.54,1,.13,1.55a2.75,2.75,0,0,0,.8.48c1.14.29,1.21,1.5,1.92,2.16a.28.28,0,0,1,.07.26c-.5,1.13.47,1.34,1.11,1.54,1,.31,1.08-.79,1.59-1.24s-.07-.63-.32-1c.8.28,1.26.12,1.34-.66,0-.45.17-.56.57-.26s.81.18.61-.35c-.14-.35,0-.41.17-.46a1,1,0,0,1,.7,0c.26.13.11.4,0,.56-.35.4-.1.57.19.9a12.73,12.73,0,0,1,1.75,1.9c.35.59.65,1.45,1.63,1.48.29,0,.32.39.34.69.06.67-.6,1.29-.5,1.7.26,1.06-.38,1.84-.51,2.76a1.84,1.84,0,0,0,.47,1.56c.79,1,2.14,1.24,3,2.21a.88.88,0,0,0,1.11.21c.54-.35,1.2-.26,1.75-.6a.88.88,0,0,1,1.35.27c.18.3.5.33.79,0,.71-.7,1-.4,1.51.38s.62,1.74,1.92,1.52a1.44,1.44,0,0,1,1.34.85c.37.95,1.27,1.3,2,1.83.15.11.4.33.59.15.46-.44.77.16,1.19.13.61,0,.71.43.57,1,0,.19.14.33.29.45a4.68,4.68,0,0,1,1.65,3c.08.46-.34.66-.25,1.12a1.23,1.23,0,0,1-1.29,1.49c-.76,0-1.53-.21-2.25-.31-1-.15-2.45-1-2.47-2.11,0-1.32-1.7-1.55-1.38-2.83,0,0-.14-.16-.21-.16-.64,0-.79-.49-1-.95-.09-.2-.23-.46-.46-.17-.39.5-.68.11-1,0s-.67-.47-1.1-.12a1.22,1.22,0,0,0-.47,1.24c.11.55.63.36,1,.51.55.24,1.53-.16,1.61.62.12,1.14.8,2.35-.2,3.49-.62.7-.37,2,.45,2.18s.68.73.63,1.18a5.27,5.27,0,0,0,.25,2,1,1,0,0,0,1.22.86,5.85,5.85,0,0,1,4.51,1.46c.56.49,1.39.58.71,1.55-.05.07.09.28.16.42a2.66,2.66,0,0,0,2.49,1.66c.46,0,.77.07.86-.51.06-.39.25-1,.6-.89s.68.77,1,1.18-.29.73.19.9a.89.89,0,0,0,1-.39c.13-.16.49-.65.72-.14.38.82.71.81,1.22.14s1.5-1,1.28-1.79c-.47-1.7.64-2.5,1.61-3.43a2.4,2.4,0,0,1,1.54-.59c.23,0,.33,0,.41.23.15.44-.22.11-.27.2-.21.34-.2.75.23.81a10,10,0,0,1,2.52.82.43.43,0,0,0,.58-.17,1.93,1.93,0,0,0,.15-1.86c-.24-.49-1.58-.83-1.65-.46-.23,1.41-.73.19-1.22.25a1.39,1.39,0,0,1,1.43-.53c1,.09,1,0,.69-1s-1.35-1.6-1.23-2.76c.07-.74-.52-1.27-.67-2,0-.27-.19-.68.24-.61s.54-.1.67-.48a1.23,1.23,0,0,1,.78-.87c1.61-.32,2.67-1.58,3.79-2.51a3.39,3.39,0,0,1,3.59-.66c-.06-.45-.46-.8-.12-1.2.4,0,.19.46.49.6.62.29.48.73.18,1.24a1.56,1.56,0,0,1-1.07.8c-1.09.21-1.78,1.17-2.82,1.47a.34.34,0,0,0-.17.54.34.34,0,0,0,.56.09c.67-.55.93-.22,1.16.45.08.22.19.44.26.68.25.92,1,.5,1.58.63a1.13,1.13,0,0,0,1.42-1.08,2.73,2.73,0,0,1,1-2c1-1,1.51-1,2.07.19.67,1.5,2,1.81,3.41,2.52,0-.51,0-.85,0-1.18,0-1.52.57-2.14,2.11-2.16.47,0,1,0,1.41,0s1-.78.89-.81c-.86-.25,0-.59-.07-.84s.27-.77.15-1.19a2.64,2.64,0,0,1,.32-2.1c.41-.72.63-1.45-.42-1.95.3-.29.8-.41.71-.77-.06-.21-.46-.43-.73-.48a2.09,2.09,0,0,1-2-2,1.06,1.06,0,0,0-.2-.43c-.63-1-.52-1.59.54-2.11a7,7,0,0,0,1.61-1.21c.52-.48.68-.33.94.17.08.15,0,.63.44.35s.31-.41,0-.74c-.61-.64-.46-1,.44-1.11.44-.08,1-.2,1-.69a3,3,0,0,1,1.09-2.48c.92-.94.31-2.2.15-3.31-.1-.68.32-.95.74-1.25s.66.16.91.37.56.57.59.46c.19-.68.86-.6,1.24-.94.12-.11.16-.37.39-.31s.28.34.24.55c-.09.63.33,1,.58,1.54.32.64,1,.48,1.5.54s.47-.49.5-.87a.64.64,0,0,1,.55-.62c.43-.13,1.17-.57,1.14-.71-.25-.92.34-1.36.83-1.92s1.07-.79,1.69-.15a.82.82,0,0,0,1.13.17,1.3,1.3,0,0,1,1.67.4c.26.35.65.36.78.16.3-.46.79-.52,1.17-.8a.76.76,0,0,0,.45-.8,1.64,1.64,0,0,1-1.4.27c1.35-.08,1.72-1.27,2.63-1.74a.42.42,0,0,0-.07-.8c-.8-.27-.86-1.19-1.51-1.61-.15-.09-.22-.6.34-.56.79.06.73-.34.42-.84a1.63,1.63,0,0,0-1.63-.82c-.37,0-.77,0-.76-.46,0-.85-.21-1.27-1.14-1-.11,0-.31-.07-.41-.17a4.64,4.64,0,0,1-1.41-1.94,29.79,29.79,0,0,0-1.95-5.43,4.87,4.87,0,0,0-.9-1.4c-.35-.36-.63-.65-1,0-.14.22-.42.39-.65-.05s-.61-.56-.83-.3c-.55.63-1.14.47-1.79.36a1,1,0,0,0-1,.33c-.46.5-.89.06-1-.28-.28-.61.57-1.75,1.27-1.82.12-.23-.78-1.13.42-.64.22.08.4,0,.45-.2s-.19-.33-.4-.4c-.78-.3-1.63-.53-1.72-1.6a.76.76,0,0,0-.53-.62c-1-.33-1.32-1.38-2.18-1.83-.14-.06-.22-.31-.25-.48-.25-1.51-1.42-2.54-2-3.86-.14-.3-1-.84-1.2-.4-.39.69-1.17.87-1.54,1.55-.13.24-.71.9-1.17.24a5.7,5.7,0,0,0-1.1-1,1.05,1.05,0,0,1-.41-1.3c.11-.3.11-.58-.18-.75s-.78-.24-1,0c-.46.56-1.14,1-1.33,1.74a2.72,2.72,0,0,1-1.4,1.72,2,2,0,0,0-1,1,2.18,2.18,0,0,0-2.55-1.61c-.47.18-.94.34-1.29-.05a1.22,1.22,0,0,1,0-1.24,1.24,1.24,0,0,0-.9-1.68,13.24,13.24,0,0,1-2.91-1.23c-1.14-.76-2-.51-2.66.68a1.44,1.44,0,0,1-1,.82c-.42.08-1,.08-1,.65s-.29,1.29.62,1.53a.62.62,0,0,1,.4.76c-.26,1.06-1.36,1.13-2.07,1.62-.37.26-.7-.4-1-.69-1.06-1.19-1.5-1.13-2,.37,0,.11-.09.26-.18.31-.69.36-.47.93-.18,1.33s.18.7-.15,1C1225.12,1678.18,1225.12,1678.18,1224.12,1678.31Zm17.88,37a1.12,1.12,0,0,1,.8,1.15c0,.48-.48.76-1,.89l-.63.16c-.59.14-.79.4-.35,1,.2.24.5.56.06.87a.69.69,0,0,1-1-.29c-.06-1.18-1.25-1.86-1.26-3.09,0-.52,0-.68.53-.82a6,6,0,0,0,2.48-1,1.75,1.75,0,0,1,.58-2.16c.7-.46.34-1.21.56-1.8s.14-.84.83-.54c.36.16.85-.12,1.27-.15,1.53-.12,3.1.13,4.57-.55.26-.11.54,0,.42.37-.19.6-.25,1.3-.91,1.65-1,.51-1.49,1.5-2.33,2.17a1.81,1.81,0,0,1-1.56.52c-.39-.07-.65-.22-.58.41s-.24.66-.72.34a2.27,2.27,0,0,0-2.1-.25C1241.33,1714.67,1241.26,1715,1242,1715.29Zm-15.1-16c-.11.25-.25.59-.59.24a.92.92,0,0,0-1.41.07,1.66,1.66,0,0,0-.62,1.73,8,8,0,0,1,.35,1.15,1.52,1.52,0,0,1-.49,1.59c-.68.6-1.16,1.34-.46,2.28a1,1,0,0,1,0,.91c-.1.37-.32.6-.6.11a1,1,0,0,0-.92-.53c-1.24.25-1.79-.74-2.6-1.28-.29-.19-.22-.48-.3-.73a.87.87,0,0,0-.7-.56c-1.49.25-1.23-1-1.51-1.74-.11-.31-.07-.44-.5-.4a.81.81,0,0,1-.82-.62.85.85,0,0,1,.49-1,1.62,1.62,0,0,0,.73-2.29c-.1-.21-.43-.48,0-.72s.69-.27.86,0c.38.64,1,.48,1.51.57a14.25,14.25,0,0,0,4.47-.29c.52-.08.73-.67,1-1.08s.69-.85,1.18-.67.29.82.34,1.25a2.52,2.52,0,0,1-.24.89C1227,1698.27,1227.23,1698.55,1226.9,1699.29Zm-5.8-12.07c-.34-.64-.18-1.15.51-1.16.48,0,.5-.22.65-.54s.39-.89,1-.89a.67.67,0,0,0,.73-.75c0-.5.43-.88.72-1.28.15-.22.53-.34.65-.14.67,1.07,2,1.09,2.86,1.87a2.64,2.64,0,0,1,.78,2.63c-.08.69-.28,1.46,1,1.29-.3.21-.76,0-.64.37.23.69-.34.81-.65,1.16a1.91,1.91,0,0,0-.24,1.79c.1.39.24.76.31,1.16.2,1.12.22,1.12-.83.92a5.63,5.63,0,0,0-.91-.18c-.86,0-1.23-.33-.86-1.21.23-.54-.47-.68-.51-1.12,0-.21-.27-.53-.22-.58,1-.89.71-2.33,1.45-3.32.19-.27.68-.33.46-.88-.31-.77-.82-1-1.65-.6a5.23,5.23,0,0,0-.83.59.41.41,0,0,0-.13.31c.06.15.18.25.35.08s.37-.09.51.13a.45.45,0,0,1,0,.6c-.17.19-.35.33-.65.18a4.3,4.3,0,0,0-1-.42c-.42-.07-.92-.12-.91.58,0,.42-.28.33-.51.24a1.5,1.5,0,0,0-1.14,0A5.44,5.44,0,0,0,1221.1,1687.22Zm36.44,1.3c.06.61-.54.83-1.06.91-.34.06-.63.14-.71.48-.18.77-.63.72-1.2.48a5.54,5.54,0,0,0-3-.6c-.88.11-1.25-.46-1-1.3.18-.66-.2-1.06-.59-1.46-.16-.16-.39-.28-.34-.52a1.36,1.36,0,0,0-1.23-1.87.29.29,0,0,1-.18-.38.19.19,0,0,1,.32,0c.31.37.79.23,1.18.39.94.39,1.5-.51,1.93-1,.56-.66,1-.11,1.5-.16s.48.46.5.85c0,.55.3.8.89,1a22,22,0,0,1,2.7,1.26.45.45,0,0,1,.29.48A2.6,2.6,0,0,0,1257.54,1688.52Zm-48,7.84c-.77.08-.72-.73-.88-1.19s.89-1.74,1.2-1.63c.86.28.87,1,.89,1.92C1211.13,1696.53,1210.11,1696.3,1209.57,1696.36Zm29.48,27.63c-.2.07-.3-.18-.31-.37s.14-.38.4-.39.39.16.48.4S1239.24,1723.92,1239.05,1724Zm28.51-17.22a.58.58,0,0,0-.91.33c-.21.81-1.05,1.22-1.22,2,0,.18-.27.31-.34.24a1.29,1.29,0,0,0-1.86-.06s-.15-.09-.24-.13c-.53-.3-.76,0-.69.46.14.87-.31,1.19-1,1.51-.34.16-.7.16-1,.33-1,.49-1.29.36-1.8-.64-.09-.18-.16-.41-.35-.4a.5.5,0,0,0-.49.48c0,.73-.46.81-1,.87s-.84.32-.68.86,0,.61-.42.76a6.35,6.35,0,0,1-1.28.52c-.87.19-1.39,1.54-.76,1.75,1.09.37.65,1.12.79,1.79.18.91-.26,1.85,0,2.68a40,40,0,0,1,1.46,4.62c.16.85-.23,1.48-1.07,1.33-1.16-.2-1.82.52-2.59,1.2-.61.54-.31.92,0,1.41.06.1,0,.3-.08.44a8,8,0,0,0-.46,2,1.05,1.05,0,0,1-1,1,3.44,3.44,0,0,0-3,2.16c-.2.5-.45.58-1,.51a3.79,3.79,0,0,1-2.68-1.83c-.42-.64-.88-.48-1.39-.25s-.74.9-1.33,1.22-.75.61-1.08.21a1.37,1.37,0,0,0-1.46-.37,15.23,15.23,0,0,1-1.67.17,1.5,1.5,0,0,0-.86.43,5.39,5.39,0,0,0-1.57,3.18,2,2,0,0,0,.44,2.05c1.08.73,1.28,1.3.39,2.37-.32.39-.76.66-1,1.15s.1,1.25.52,1.11c1.27-.42,2.66-.37,3.85-1a1,1,0,0,1,.89-.11c.64.28,1.41-.43,2,.29,0,0,.28-.07.42-.13a1,1,0,0,1,.72-.15c1.84.53,3.25-1,5-1.06.3,0,.62-.36,1-.23.18.06.37,0,.38-.17,0-.64.43-.77.91-1a6,6,0,0,1,2.83-1.11,4.34,4.34,0,0,0,1.95-.33,6.48,6.48,0,0,1,2.3-1,1.73,1.73,0,0,0,1.44-.91c.51-1,1.68-1.4,2.26-2.42.42-.74,1.6-1,1.26-2.25,0-.13.12-.35.23-.49a8.08,8.08,0,0,0,1.49-3.53,2.38,2.38,0,0,1,.61-1.2c.87-1,1.69-2.1,2.51-3.17a1.64,1.64,0,0,1,1.82-.47c.27.16.53.31.76.06s.75-.79.51-1c-.71-.64-.26-1.33-.32-2a3.93,3.93,0,0,0-1.31-2.67c-.43-.4-1.33-.85-.72-1.81.17-.26-.19-.24-.41-.24-.7,0-.88-.4-.61-1a1.24,1.24,0,0,1,1-.79c.75-.08,1.42-.19,1.29-1.2,0-.08.22-.2.35-.28,1.2-.71,2-2.7,1.32-3.92-.5-.87,0-1,.48-1.3s.88-.5.55-1.16a.31.31,0,0,1,.31-.45c.41.07.53-.19.72-.44a.69.69,0,0,1,1.17-.1c1.33,1.23,2.85,1.06,4.4.49.31-.12.88-.27.88-.41,0-1.08,1-1,1.55-1.51.31-.29.85-.53.67-1a3.79,3.79,0,0,1,.32-2.71,1.57,1.57,0,0,0-.19-1.6,18.32,18.32,0,0,1-1.84-2.86.67.67,0,0,0-1.09-.27c-.89.71-1,2-1.91,2.66-.08,0,0,.35.05.53.17,1-.26,1.44-1.23,1.43-.58,0-1.27-.21-1.54.63a.27.27,0,0,1-.38.18c-.76-.36-1.07.2-1.36.7-.49.84-1.48,1.35-1.4,2.59,0,.34-.28.76.08,1.16a2.45,2.45,0,0,0-2.86.4c-.14.13-.63,0-.41.44.12.23.39.4.79.11C1268.13,1706.92,1267.9,1707,1267.56,1706.77Zm-1,11.67c-.26.14-.29.59-.11,1s.43,1.23-.51,1.45c-.34.08-.45.38-.57.68a1.45,1.45,0,0,1-1.15,1.08c-.42.06-.51.49-.52.86a2.68,2.68,0,0,0,.12,1,1.11,1.11,0,0,1-.76,1.56,11.17,11.17,0,0,0-1.78.94,1.36,1.36,0,0,1-1.89-1.26c.14-1,.09-2.07,1.1-2.72a.57.57,0,0,0,.19-.41c0-.45.14-.67.7-.53s.93.05.87-.73a2.63,2.63,0,0,1,1.18-2.45,3.79,3.79,0,0,1,2.3-.42c.66.07,1-.33.83-1C1266.74,1717.8,1267.33,1718,1266.56,1718.44Zm10.15,23.63a1.71,1.71,0,0,0-.8.73c-.14.18-.35.49-.6.22-.61-.67-1-.08-1.48.13.18.4.56.22.76.41s.18.21.16.3-.21.24-.23.23c-.91-.65-1.25,0-1.94.54s-1.77,1.07-2.63,1.71c-1.33,1-2.84,1.71-4.27,2.56a.65.65,0,0,1-.62.09c-1-.56-1.26,0-1.45.89-.1.44-.17,1.08-.69,1.2a5.73,5.73,0,0,0-3.72,1.88.55.55,0,0,1-.29.22c-1.69.26-2.74,1.78-4.36,2.17a.75.75,0,0,0-.24.15c-1.44,1.24-2,1.28-3.57.22a.62.62,0,0,0-.67-.11,2.34,2.34,0,0,1-1.61.26.67.67,0,0,0-.81.6,1.07,1.07,0,0,1-1.05,1.06,1.92,1.92,0,0,0-1.6,1.6c-.17.75.5.88.78,1.25.63.85,1.08,1.87,2.47,2a5.12,5.12,0,0,1,2.8.84,2.42,2.42,0,0,0,1.86.6c.43,0,.65.26.79.66a6.38,6.38,0,0,0,.59,1.27c.11.17.35.53.56.39.58-.37,1.37-.61,1.49-1.4.07-.43.24-.39.55-.47a13.56,13.56,0,0,0,1.68-.7c-.36-.83.49-1.27.6-1.94a.55.55,0,0,1,.73-.5,4.53,4.53,0,0,0,3.14-.72,1.11,1.11,0,0,0,.62-1.71.93.93,0,0,1,.24-1.25c.94-.74,1-1,0-1.72-.57-.47-.6-1-.11-1.44s.67-1.63,1.82-1.38c.11,0,.38-.19.41-.33.2-.78.62-.5,1.14-.37s1.36.65,1.87.15c.73-.73,1.86-1.33,1.75-2.6-.1-1,.55-1,1.11-.92,1,.17,1.4-.3,1.53-1.15a1.16,1.16,0,0,1,.77-1,1,1,0,0,0,.65-.5c.27-.87,1-.88,1.72-1,.23,0,.51.06.7-.16a4.45,4.45,0,0,0-.28-2c-.87-.13-.06-.54-.15-.79Zm-17.92,15c.19.24.47.44,0,.76-.25.18,0,.39.13.55a1.06,1.06,0,0,1,0,1.38c-.34.43-.68.81-1.34.52-.46-.2-.63.24-.47.48.6.91-.3,1.4-.59,2-.16.33-1,0-1.33-.37s.1-.81.37-.87c.69-.13.69-.49.54-1a.88.88,0,0,1,.24-.87c.37-.34.5-.53,0-.82-.27-.15-.22-.45,0-.65a5,5,0,0,0,1-1.84c.18-.48.67-.39,1.06-.35s.35.28.17.5S1258.66,1756.85,1258.79,1757ZM1195,1688.5a6,6,0,0,0,.68.75c.37-.47,1.3-.48,1.31-1.09,0-.94.62-.72,1-.69.76,0,1.57.4,1.77-.78,0-.1.19-.17.24-.28.38-1,1.52-1.74.74-3a.37.37,0,0,1,.11-.5c.2-.16.23.1.35.15.41.17.9.31,1.16-.16a1.71,1.71,0,0,1,1.45-.85,1.94,1.94,0,0,0,1.56-1.88c.07-.67-.41-1.34,0-2a2.81,2.81,0,0,0,.56-1.75,1,1,0,0,1,.34-.74,20.25,20.25,0,0,1,3.65-2.87c.47-.3.92-1.44.64-1.88s-.92-.27-1.38-.25a2,2,0,0,0-1.24.6,3.31,3.31,0,0,1-3.15.89c-.36-.08-.84-.09-1,.3-.39.88-1.21,1.5-1.52,2.41a7.3,7.3,0,0,1-3.35,3.84c-1.22.76-2.56,1.39-3,3a.5.5,0,0,1-.56.4c-.74-.07-1,.46-1,1a8,8,0,0,0-.26,1.87A5.75,5.75,0,0,0,1195,1688.5Zm2.32,38.59c-.67.28-1.06,0-1.58-.31a3.51,3.51,0,0,0-1.39-.5c-1.43-.11-1.23-1.43-1.63-2.29-.28-.6.29-.85.66-1.18s1.16-.88.85-1.69a1.16,1.16,0,0,1,.19-1.2c.25-.35.53-1,0-1.16-1.2-.49-1-1.66-1-2.4,0-1.56-1.15-1.93-2-2.69a.31.31,0,0,0-.42-.05.27.27,0,0,0-.11.4c.39.6,0,.67-.48.85a1.79,1.79,0,0,0-1.32,1.74,18.65,18.65,0,0,0,.69,4.91,1.74,1.74,0,0,0,.61.88c.5.42,1.06.83,1.12,1.57s-.16,1.5.17,1.9c.58.69-.11,1.05-.1,1.55,0,.25.08.49.08.74a1.85,1.85,0,0,1-.13,1c-.42.67-.18,1.1.51,1.37a2.74,2.74,0,0,1,1.71,1.84,1.24,1.24,0,0,0,.85.93,9.1,9.1,0,0,1,4,2.9c.64.68,1.23,1.23,2.38.75.67-.28.72-.53.58-1-.22-.84-.45-1.66-1.58-1.74-.22,0-1.06-.32-.51-.75s.23-.83.05-1.15c-.65-1.18-.18-2.62-.93-3.76,0,0,0-.06,0-.09C1198.75,1727.76,1197.92,1726.86,1197.36,1727.09Zm19.05,21.52a8.8,8.8,0,0,0,1.91,2.26c.49.39,1,.91,1.63.65a1.13,1.13,0,0,0,.46-1.57c.22.15.29.19.36.25s.13.1.12.14c-.22,1.31.89,1.7,1.62,2.34.37.33.69.81,1.13,1,1.48.5,3,.89,4.52,1.31a.68.68,0,0,0,.68-.22,18,18,0,0,0,1.81-3.8c0-.32.28-.63,0-1a12.33,12.33,0,0,1-1.12-1.92,1.63,1.63,0,0,0-2.58-.57,7.64,7.64,0,0,1-2,.94c-.32.17-.85.09-.67-.51.34-1.14-.8-1-1.25-1.4s-.78.32-1,.81c-.29-.63-.57-1.19-1.29-1a1.7,1.7,0,0,0-.91,1.88.51.51,0,0,1-.12.65c-.53.59-1,.43-1.52,0s-1-.73-1.63-.29Zm3.4-88.95c.34-.72-.85-2-2-2.31a2.24,2.24,0,0,1-1.21-.65,2.2,2.2,0,0,0-1.76-.7,5.09,5.09,0,0,1-2.47-.34,1,1,0,0,0-1.51.39,6,6,0,0,0-.71,2.27c0,1-.33,1.82-.41,2.71-.45-.18-.81-.34-1.19-.47-.22-.06-.43-.07-.43-.38a.57.57,0,0,0-.45-.63c-.33,0-.37.36-.5.58-.48.87-.75,1.87-1.75,2.39a.92.92,0,0,0-.34,1.17,1,1,0,0,0,1,.53c.24,0,.49.1.73.11a5.12,5.12,0,0,0,2.24-.29c1-.39,1.83-1.38,3.07-1.3a2.5,2.5,0,0,0,2.35-.83c.17-.22.5-.2.79-.18a1.17,1.17,0,0,0,.78-.18,3,3,0,0,1,3.67.27A4,4,0,0,1,1219.81,1659.66Zm3.38,6.08c.29-.54.46-.93,1.12-1a.86.86,0,0,0,.65-1.09.87.87,0,0,0-1-.83c-.61,0-1.25-.11-1.75.44-.13.15-.42.38-.62.06-.3-.49-.44-.09-.71,0-1.07.53-2.05,1.52-3.41.76a.36.36,0,0,0-.49.1,4.1,4.1,0,0,1-2.36,1,1.31,1.31,0,0,0-.92.58c-.66,1-1.06,2.1-2.22,2.67-.33.16-.31.77-.06,1s.46-.22.7-.33.17-.44.47-.38a3,3,0,0,1,.66,1.62c-.75.75.11.82.44.89a5.82,5.82,0,0,1,1.58.45.92.92,0,0,0,1.23-.29,2.91,2.91,0,0,0,.78-1.44,8,8,0,0,1,1-2.21c.7-1.24,1.49-.38,2.25-.38.19,0,.38,0,.58,0C1222.49,1667.69,1222.79,1666.52,1223.19,1665.74Zm-26.29,79.94a7.86,7.86,0,0,0-1.27,2.45,5,5,0,0,0,1,4.75c.33.4.69.75.47,1.37a.85.85,0,0,0,.18,1c.52.43,1,.93,1.45,1.39a2.06,2.06,0,0,0,1.85.37c.26,0,.61-.36.47-.59-.4-.64-.59-1.41-1-2-.83-1.18-1-2.57.08-3.48.73-.6.4-1.85,1.52-2.06,0,0,0-.12,0-.18-.11-.79.13-1.7-.87-2.16a1.74,1.74,0,0,1-.68-.76,1.47,1.47,0,0,0-1.69-.85C1197.72,1744.77,1197.32,1745.13,1196.9,1745.68Zm55.57-80.16a.57.57,0,0,1-.54-.06c-.64-.52-1.34-.28-2-.16s-1.24.32-1.29,1-.35,1.53.49,2.12a1.62,1.62,0,0,1,.88,1.77c-.08.39.34,1.14.77.92.77-.41,1.11,0,1.56.4a1.87,1.87,0,0,0,2.74-.35,3.23,3.23,0,0,1,2.57-1.42c.91,0,.67-.45.56-.85s-.47-.8-.63-1.24a2.47,2.47,0,0,0-1.65-1.84c-.82-.2-1.74-.63-2.34.47,0,.1-.27.12-.54.22C1253.24,1665.79,1253.43,1665.24,1252.47,1665.52Zm27.4,11.22c0-.89-.8-1.66-.44-2.66.07-.19-.29-.3-.4-.46-.53-.71-1.49-1.17-.92-2.43.4-.9-.21-1.52-.95-1.28a2,2,0,0,1-1.91-.94c-.36-.9-.64-.94-1.32-.27a1.17,1.17,0,0,0-.22,1.36c.15.52.73,1.16.34,1.56a3.44,3.44,0,0,0-.71,2c-.38,1.63,0,2.53,1.58,3a10.74,10.74,0,0,0,2,.41,8.88,8.88,0,0,1,1.55.3C1279.3,1677.45,1279.86,1677.17,1279.87,1676.74Zm-98.85,21c.32.06.71,0,1.08.06s.42,0,.44-.42.31-1.22,1.15-.81c.43.21.73,0,1-.31a1.23,1.23,0,0,1,.73-.52c.35,0,.49-.3.61-.68a25.68,25.68,0,0,1,.61-2.75c.47-1,.13-1.55-.88-2.19-.5-.32-1.08-.53-1.31-1.2a.76.76,0,0,0-1-.34c-.37.14-.64.36-.55.84s-.16.71-.28,1.06c-.37,1.06-1,2-.81,3.27,0,.21,0,.5-.24.53-1.24.14-1.16,1.09-1.25,1.84S1180.22,1697.6,1181,1697.75Zm59.1,64.77c-.55-.22-1.16-.54-1.78.12-.95,1-1.62,1.09-2.34.24-.38-.44-.53-.38-1-.1a1.08,1.08,0,0,1-1.58-.07,1,1,0,0,0-1.56-.08c-.14.11-.31.33-.42.31-.28-.07-.54-.27-.59.22s0,.7.45.81c.25.07.46.06.31.47a2,2,0,0,0,1.14,2.1,5.8,5.8,0,0,0,3.88,0c1-.31,2.1-.82,3.21-.13.35.23.63-.15.63-.45s0-.53.33-.67a.59.59,0,0,0,.21-.88,1.11,1.11,0,0,1-.11-1C1241.17,1762.68,1240.44,1762.66,1240.12,1762.52Zm33.42-79.22a6.29,6.29,0,0,1-1-3.16c0-.92-.48-1.28-1.39-1.23a1,1,0,0,1-.67-.26c-.39-.31-.79-.61-1.2-.88-1-.65-1.71-.33-1.84.84a7.11,7.11,0,0,0,.51,2.59,3,3,0,0,0,1,1.93c.36.24.29,1.14,1.07,1.25,0,0,0,.22,0,.34-.08.89.24,1.23,1.15.94a3.32,3.32,0,0,1,.84,0c1.36-.09,1.67-.43,1.67-1.9A1.88,1.88,0,0,0,1273.54,1683.3Zm-62,75.19a1.46,1.46,0,0,0,1.54-.43,2,2,0,0,1,1.93-.75c.88.11.9-.41.73-.86-.63-1.62-1.44-3.06-3.55-3a1.57,1.57,0,0,1-1.44-.89c-.36-.75-1-.77-1.66-.54a5.2,5.2,0,0,0-1.68.88c-.18.14-.69-.2-.75.37a1,1,0,0,0,.56,1,13.05,13.05,0,0,1,2.35,1.87,6.79,6.79,0,0,0,1.59,1.44.33.33,0,0,1,.11.43C1210.91,1758.34,1211.32,1758.46,1211.53,1758.49Zm-21.61-77.34c.43.09,1,.09,1.15-.49s.41-1.15-.17-1.65c-.26-.23-.89-.24-.66-.81s.74-.29,1.16-.28h.56c.85,0,1.64-.15,2-1.06a1.58,1.58,0,0,0-.69-2.2c-1.31-.91-2.46-1.61-4-.75-.53.28-.85.56-.38,1.12s.34.62-.14,1a2.48,2.48,0,0,0-.82,1.53c-.1.69.62,1.19.44,1.5-.48.81.11,1.43.09,2.17A3.34,3.34,0,0,1,1189.92,1681.15Zm56.86,69.35c-1.47.75-2.72,1.91-4.51,2-.7.06-.83.89-1,1.51a.24.24,0,0,0,.26.31,7.92,7.92,0,0,0,2-.23c.88-.32,1.13-.32,1.66.52a1,1,0,0,0,1.22.47c.45-.12.83-.33.78-1a.78.78,0,0,1,.84-.9,2,2,0,0,0,2-1.26,2,2,0,0,1,.72-1c.27-.19.3-.72-.09-.7-.65,0-1.19-.41-1.79-.29A3.8,3.8,0,0,0,1246.78,1750.5Zm-24.86-73.26a1.94,1.94,0,0,0,1.75-.14c.78-.59.58-1.44.44-2.1-.19-.94-2.12-1.07-2.77-.21a3.1,3.1,0,0,1-2.08,1.47c-1.25.21-1.55,1.12-1,2.12.37.62.55,1.24,1.45,1,.11,0,.26.18.4.19a3.38,3.38,0,0,0,1.33-.15c-.32-.81.67-1.63-.11-2.35C1221.65,1677,1221.75,1677.21,1221.92,1677.24Zm53.16,50.65c-.33-.21-.61,0-.88.16a6.07,6.07,0,0,0-1.57,1.38.79.79,0,0,0-.14,1c.25.4.14.63-.09,1a2.25,2.25,0,0,0,.61,2.82c.64.45,1.2,0,1.77-.16.34-.08.36-.49.2-.8a1.23,1.23,0,0,1,.24-1.6.91.91,0,0,0,.11-.9c-.22-.67.2-1.35-.12-1.93C1275.36,1728.41,1275.41,1728.11,1275.08,1727.89Zm-14.94,14.35c-.05-.31-.13-.54-.5-.52s-.46.23-.57.53c-.17.49,0,1.08-.43,1.5-.9,1-.33,2.11-.43,3.18a.43.43,0,0,0,.62.36,9.56,9.56,0,0,0,3.83-2.76C1261.26,1744.18,1260.36,1743.56,1260.14,1742.24ZM1186,1727.77c-.47,0-.85-.67-1.36-.15s0,1,.16,1.24c.63.63,1,1.21.55,2.09,0,.07,0,.25.12.32,1,.8,1.64,2,3,2.36.2,0,.44.14.35.44s.14.42.41.41.74,0,.87-.37-.23-.38-.45-.51a23.32,23.32,0,0,1-2.8-2.49c1-.29,1.21-.72,1-1.51-.39-1.29-.84-1.59-1.85-1.21C1185.84,1728.11,1186.2,1727.76,1186,1727.77Zm-4.74-12.12a1,1,0,0,0-.2-1c-.52-.52-1-.94,0-1.47.31-.15.2-.68,0-1-.07-.15-.3-.26-.38-.1-.53,1.09-1,.5-1.42,0a.63.63,0,0,0-.43-.13,2.94,2.94,0,0,0-2.22,1.75c-.13.49.07.83.55.86a2.53,2.53,0,0,0,.91,0c.5-.13,1,0,.69.74-.16.42.2.56.42.55a4.61,4.61,0,0,1,1.27.15C1180.8,1715.87,1181.13,1715.93,1181.21,1715.65Zm-.43-4.12c.18.19.43.59.83.39a1,1,0,0,0,.66-1,1.23,1.23,0,0,1,.21-1c1.09-1.22,1.07-1.23.26-2.6-.26-.44-.56-.56-1-.3-1,.62-2,1.28-1.88,2.73A4,4,0,0,0,1180.78,1711.53Zm4.51-36.56a.85.85,0,0,0-1,.42c-.21.36.22.54.38.76a7.43,7.43,0,0,1,1.22,3.13c.06.3.12.83.65.72s.6-.53.45-1a1.39,1.39,0,0,1,.39-1.7c.66-.49.35-1.28.73-1.85.14-.23-.29-.44-.39-.39-.68.34-1.28-.36-1.84-.12A2.45,2.45,0,0,1,1185.29,1675Zm.55,50.76a3.9,3.9,0,0,0-1.09-3.1c-.22-.19-.47-.39-.71-.06-.45.64-1.21,1.21-.64,2.18a.77.77,0,0,1,.08.62c-.26.61.14.61.52.63a7,7,0,0,0,.87,0C1185.09,1725.77,1185.88,1726.52,1185.84,1725.73Zm62.92-51.17c.14.14.14.58.5.34a.68.68,0,0,0,.4-.73c-.08-.75-.47-1-1.2-1.13C1248.44,1673.61,1248.33,1674.14,1248.76,1674.56Zm-32.18,73.91c.35-.54,0-.9-.36-1.2s-.51,0-.72.19-.1.58,0,.85c.17.43.59.21.9.3Zm-5-23c-.27-.27-.78,0-1,.28-.42.66.66.51.66,1C1211.25,1726.22,1212.06,1725.87,1211.59,1725.43Zm13.93-40.17a.7.7,0,0,0-.79-.62c-.18,0-.69,0-.57.36a.73.73,0,0,0,.88.59C1225.15,1685.48,1225.55,1685.66,1225.52,1685.26Z" transform="translate(-174.97 -1174.5)"/>
    <path id="Athentha" class="cls-2" d="M1148.11,1675.61c-.07,0,0-.12,0-.19s-.06-.24-.26-.17-.27.14-.23.33c.08.35-.16.5-.4.62a2.44,2.44,0,0,1-.28.14,1.68,1.68,0,0,1-1.16-.24c-.3-.15-.62-.25-.91-.42-.12-.07-.24,0-.37,0a2.85,2.85,0,0,0-.78.73c-.07.09-.18.14-.26.23a.83.83,0,0,0-.19.26c-.08.16-.17.16-.32.07a3.9,3.9,0,0,1-1.32-1.5,2.17,2.17,0,0,1-.34-1.24c0-.12,0-.25,0-.37a1.13,1.13,0,0,0-.14-.6c-.21-.45-.38-.92-.62-1.35s-.31-.84-.53-1.24a1,1,0,0,1-.07-.35,6,6,0,0,1,.07-1.27,1.34,1.34,0,0,1,.38-.71,1,1,0,0,0,.19-.42.11.11,0,0,0,0-.08c-.1-.09,0-.15,0-.23a.56.56,0,0,0,.09-.31,3.77,3.77,0,0,0,0-.95.68.68,0,0,0-.26-.44.08.08,0,0,1,0-.06.23.23,0,0,0-.26-.19c-.16,0-.16-.14-.21-.24s0-.11.11-.15a1.39,1.39,0,0,0,.36-.44,4.41,4.41,0,0,1,.44-.6,2.5,2.5,0,0,0,.28-.71c.1-.24.1-.53.31-.71a3.79,3.79,0,0,0,.47-.51c.13-.15.31-.08.47-.07a3.58,3.58,0,0,1,.35.09,1.46,1.46,0,0,0,.88-.3,3.09,3.09,0,0,0,.45-.36,1.35,1.35,0,0,1,.72-.29.53.53,0,0,0,.36-.09c.11-.09.36,0,.47.11a5.35,5.35,0,0,0,1,.86c.12.08.26,0,.38.12a2.14,2.14,0,0,1,.68.55.23.23,0,0,0,.19.09,4.33,4.33,0,0,0,.62,0,.87.87,0,0,0,.46-.19c.12-.08.18,0,.24.08a3.46,3.46,0,0,0,.46.73,2.36,2.36,0,0,1,.44.79.65.65,0,0,0,.16.29.82.82,0,0,1,.22.47,4.35,4.35,0,0,0,.23.78c.11.33.13.69.22,1a.94.94,0,0,1-.2.84,4.94,4.94,0,0,0-.35.64.36.36,0,0,0,0,.35.27.27,0,0,1,0,.26,2.1,2.1,0,0,1-.25.57,4.76,4.76,0,0,1-.31.47c0,.06-.14.06-.22.09a3.91,3.91,0,0,1-.59.26c-.24,0-.33.29-.36.51a4.55,4.55,0,0,0,.07.9c0,.13.17.2.28.28a1.14,1.14,0,0,0,.3.18.36.36,0,0,1,.23.4c0,.43,0,.86,0,1.29a1.53,1.53,0,0,0,.07.29,1.46,1.46,0,0,1,0,.59c0,.06-.07.1-.13.13a1.86,1.86,0,0,1-.92.27C1148.34,1675.33,1148.22,1675.48,1148.11,1675.61Zm-16-10.37a.55.55,0,0,0-.37-.6,3.73,3.73,0,0,1-.65-.41.54.54,0,0,0-.46-.07l-.48.13c-.17.06-.36,0-.53.08a.42.42,0,0,1-.27,0,.63.63,0,0,0-.62.05.23.23,0,0,1-.14,0,.06.06,0,0,0-.06,0,.55.55,0,0,0,0,.7,7.63,7.63,0,0,1,.48.68.62.62,0,0,1,.14.41,8.18,8.18,0,0,0,0,1,.57.57,0,0,1-.09.36.57.57,0,0,0-.08.26,5.89,5.89,0,0,0,0,.84c0,.09,0,.17,0,.25s.12.43.22.64.13.23.33.13c0,0,.07-.06.1-.07s.21-.22.35-.29.26-.09.38-.16c.27-.17.6-.29.69-.65l0-.07a4.49,4.49,0,0,0,.49-1,12.63,12.63,0,0,0,.45-1.48,1.77,1.77,0,0,0,.08-.56A2.08,2.08,0,0,1,1132.12,1665.24Zm2,5.13c-.25,0-.5.09-.75.08a1.59,1.59,0,0,0-.89.28.8.8,0,0,1-.47.15.48.48,0,0,0-.33.2,1.14,1.14,0,0,0-.19.55,2.5,2.5,0,0,0-.16.89.2.2,0,0,1,0,.11,1.54,1.54,0,0,0,0,.74c0,.1.1.14.2.1a.21.21,0,0,1,.2,0,.59.59,0,0,1,.26.45c0,.11.06.19.16.22a.83.83,0,0,0,.69,0c.25-.13.52-.2.66-.48s.23-.38.33-.58a1.58,1.58,0,0,1,.6-.75.16.16,0,0,0,0-.24.15.15,0,0,1,0-.23.38.38,0,0,0,.07-.44,1.94,1.94,0,0,1-.14-.79C1134.43,1670.35,1134.43,1670.37,1134.11,1670.37Z" transform="translate(-174.97 -1174.5)"/>
    <path id="Alterion" class="cls-2" d="M978.28,1755.68c-.21,0-.1.19-.23.24s-.14-.05-.35-.07c-.5,0-.33.06-.45.39s-.25.34-.63.27l-.19-.1c-.18-.05-.22.08-.42-.05a.4.4,0,0,1-.2-.56c.12-.24.53-.15.6-.28s-.07-.15,0-.22a1.07,1.07,0,0,1,.12-.27s.15,0,.19-.09.11-.49.11-.38c0-.21-.19-.39-.35-.59s-.26-.2-.63-.24c-.2,0-.42-.16-.64-.09s-.26.15-.49.18a.32.32,0,0,0-.35,0,1,1,0,0,0-.13.28c-.22.17-.31.14-.6.17a1.26,1.26,0,0,0-.55.12c-.08,0-.26.36-.4.29s0-.21-.11-.3-.15-.08-.17-.11a2,2,0,0,1-.25-.77c-.08-.5-.06-.23.29-.43a1.07,1.07,0,0,0,.3-.55.92.92,0,0,0-.17-.41s-.23-.16-.21-.12c-.14-.35.13-.32.32-.55s.05-.18,0-.36c0,0,.07-.15,0-.18s-.16-.05-.22-.19,0-.25,0-.45v-.21a.12.12,0,0,0-.14-.12s-.12,0-.14,0,.15-.28.23-.35a2.87,2.87,0,0,1,.65-.34c.17-.06.34,0,.49-.15s.09-.09.18-.31-.08-.14.08-.34a1.34,1.34,0,0,1,.28-.18,2.51,2.51,0,0,0,.84-.64,2.12,2.12,0,0,1,.48-.6c.15-.1.68-.16.78-.27.31-.35-.67-.91-.87-1.1a1.91,1.91,0,0,1-.45-.71c0-.24.13-.45-.15-.63a3,3,0,0,0-1.08-.14c-.18,0-.32.25-.62.09s-.25-.38-.41-.58-.5-.24-.22-.52l.29-.15a.39.39,0,0,1,.18-.18,1.08,1.08,0,0,1,.29.13.39.39,0,0,0,.25-.25c.11-.24,0-.11,0-.29s.58-.4.66-.49.16-.23.26-.35.21,0,.19-.39c0-.14-.16-.59.14-.56.09,0,0,.16,0,.19.25.09.32.12.54,0a1.41,1.41,0,0,0,.29-.31c.07-.1-.05-.15.1-.25s.27,0,.41,0a1,1,0,0,0,.56-.2c.15-.11,0-.21.26-.18s.31.31.31.44c0,.28-.23.42-.39.59s-.22.19-.16.38a.8.8,0,0,0,.41.4,1,1,0,0,0,.46-.2c.22-.26,0-.18,0-.4-.18-.84.55-.14.73-.48.1-.18-.29-.36-.15-.5s.37.19.42.22.11.21.32.25c.06,0,.06,0,.1,0-.14,0,.33,0,.27,0,.15-.06.09,0,.22,0s.11-.28.19-.36c.23-.23.41-.14.67-.17s.16-.05.31-.07.5.08.61-.07-.07-.5-.12-.64-.17-.14-.18-.17a.88.88,0,0,0,0-.26c-.17-.1-.56.12-.2-.12.19-.13.34,0,.55-.09s.11-.12.2-.14.3,0,.44,0,.13-.14.24-.12.11.14.18.19c.23.14.09.17.39,0a3.65,3.65,0,0,1,1.43-.5c.31,0,.4.12.69.18s.24-.08.46-.1a.75.75,0,0,1,.26,0c.07,0,.07.12.16.13s0-.15.06-.17.22,0,.2,0l.29,0s0,.13.11.14.05-.19.09-.21.11.17.2.16,0-.12.1-.13l.21,0s.25-.12.18-.13c.1,0,0,.19.14.16s.44-.57.74-.54.1.25.29.23.08-.33.17-.4.2.21.26.21.26-.27.3-.23-.2.27,0,.4.1-.3.18-.37.42.21.55.16.18-.23.27-.26a1.89,1.89,0,0,0,.74.18c.3,0,.53-.31.88-.24.1,0,.18.08.29.1s.29,0,.48.12.13,0,.18.09-.07.17,0,.21.22,0,.33.13.24.23.38.34c.31.22.25.22.43.56s.5.37.37.68c-.06.16-.31.18-.31.36s.32.39.38.53.18.25,0,.32-.22-.17-.34-.16-.44.56-.31.74c0,0,.23,0,.29.06.3.18.19.31.21.56,0,0-.1,0-.1.11s.11.18.12.3c0,.38-.47.61-.75.84l-.34.3s-.1,0-.12.06-.09.13-.16.22-.36.42-.35.6.18.18.24.33c.13.33-.19.71.28.61.22,0,.2-.2.43-.1a1.86,1.86,0,0,1,.48.49c.11.34-.35.52-.47.77s.13.78-.19,1.1a.28.28,0,0,1-.37,0c-.15-.11,0-.38,0-.39s-.38,0-.32,0c-.11,0-.11.16-.16.25s-.09.42-.09.43c.06,1,1.06.15,1.27.62.07.17-.15.23-.12.36s.12,0,.15.08c.09.2.29.33.33.46s.07.6,0,.66c.14-.08-1-.21-.61.15,0,0,.57-.08.4.09s-.56,0-.74,0-.18.16-.31.18-.25-.07-.34,0c-.3.13,0,.15.07.29.27.44.72.79.63,1.31a9,9,0,0,1-.66,1.62,1.85,1.85,0,0,0-.1.64c0,.08-.08.1,0,.22s.36.15.45.27c.35.44-.27.88-.65.76-.06,0,0-.17-.08-.18s-.09.1-.24.17a1.75,1.75,0,0,0-.39.28c-.11.07-.84.2-.84.37,0,.35,0,0-.24.1s-.45.26-.67.32-.29,0-.43,0-.12.19-.19.23-.29,0-.39.1-.1.22-.16.29a2.15,2.15,0,0,1-.64.42l-.27.07c-.07.08,0,.23,0,.31s-.66.84-.84.36c-.12-.3.46-1,.62-1.3s.37-.36.44-.6a2.49,2.49,0,0,0,0-.82c0-.21-.15-.25-.19-.42s0-.21,0-.34c-.07-.29-.11,0-.08,0s0,.12-.1.11-.14-.33-.14-.35.27-.57.11-.59-.26.3-.41.29-.36-.38-.39-.52c-.1-.56.51-.77.82-1.1s.14-.18.16-.43c0,0,0-.39,0-.4s0-.14,0-.19c0-.24-.24-.46,0-.69s.17,0,.31,0-.06-.25-.06-.24-.07-.35,0-.27c0-.07.13-.08,0-.15s-.28,0-.3.09c-.17.47.6.11,0,.42-.2.09-.23.07-.37.21s-.07.3-.26.26a3.06,3.06,0,0,0,.31-.55c0-.15-.07-.17-.07-.27s.27,0,.24-.22-.4-.1-.46-.1a1.3,1.3,0,0,0-.59,0c-.08,0-.09.25-.14.27s-.09-.14-.19-.13a.62.62,0,0,0-.39.25c-.27.34,0,.24.12.4a1,1,0,0,1,.11,1.07c-.11.15-.34.17-.47.29s-.14.48-.28.65-.32.18-.48.33a3.64,3.64,0,0,1-.34.34c-.28.2-.31.29-.6.18,0,0,0-.16-.1-.19s-.19,0-.25,0-.24,0-.17-.29.32-.4.37-.69a1.66,1.66,0,0,0,0-.77c-.23-.29-.58.3-.61.52s.14.44,0,.77c-.57,1.07-.15-.11-.57-.13s-.29.49-.35.69c-.11.39-.42.29-.66.46s-.53.68-1,.83a1.08,1.08,0,0,1-.64,0c.09,0-.19,0-.2,0s0-.2,0-.2,0-.15-.14,0,0,.36-.28.46-.23-.07-.3.1S978.53,1755.56,978.28,1755.68Zm-6.14,2.74V1758l-.17-.18a.31.31,0,0,1,.16-.18.16.16,0,0,0,.13-.19.87.87,0,0,1-.1-.24c0-.13.29-.18,0-.33s-.2.27-.26.38-.36.32-.31.55S972,1758.66,972.14,1758.42Zm17.5-1.49c.13-.42-.39-.28-.5-.06s.13.3-.15.38.08-.29-.2-.15.26.72.43.5C989,1757.33,989.57,1757.17,989.64,1756.93Zm-11.29-1c.19.06.29-.17.46-.21s.82.28.87.22a3.08,3.08,0,0,1-.12-.42c-.1-.07-.18.11-.26.11s-.19-.1-.27-.09-.56.2-.75.13S978.17,1755.88,978.35,1755.94Zm8.47-4.37c-.15.07-.29.94-.1.94S987,1751.47,986.82,1751.57Zm-.48,7.24c-.06-.44-.41-.07-.45.1S986.37,1759,986.34,1758.81Zm1.81-.92c.06.35.32.15.26-.12S988.09,1757.56,988.15,1757.89Zm-16-7.59c-.16,0-.52.22-.24.27S972.44,1750.36,972.16,1750.3Zm.13,6c-.09,0-.45.42-.14.42C972.29,1756.74,972.41,1756.36,972.29,1756.32Zm7.51-.92c.17-.07,0-.13,0-.19s.1-.14,0-.16-.16,0-.16.17S979.67,1755.46,979.8,1755.4Zm7.07,3.26c0-.11-.38-.2-.44-.15s.2.22.27.21A.18.18,0,0,0,986.87,1758.66Zm-14.65,0c-.24,0,.16.68.2.36C972.42,1759,972.28,1758.64,972.22,1758.65Zm9.41-5.22c0,.28.21.11.24-.07S981.62,1753.23,981.63,1753.43Zm-6.14-7.36s.23.32.21.08S975.43,1746,975.49,1746.07Zm94.78-1.14c-1.11-.32-2.07.61-3.11,1s-.78-.81-1.53-1.66-2.7.12-3.61-.06a9.82,9.82,0,0,1-3-.86,4.79,4.79,0,0,0-3.4,0c-.29.12-.63.23-1,.34a3.37,3.37,0,0,0-2,1.53,5.15,5.15,0,0,1-2.85,2,6.71,6.71,0,0,0-2.93,1.82,2.09,2.09,0,0,1-1.47.8,14,14,0,0,1-3.67.31,16.31,16.31,0,0,1-3.27-.55c-.5-.18-1-.3-1.38.12a.49.49,0,0,1-.55.08,6.58,6.58,0,0,0-4.2.42,4.27,4.27,0,0,0-2.46,1.59.69.69,0,0,1-.53.25,1,1,0,0,0-.73.35c-.58.78-1.43,1.31-2,2.07-.28.36-.59.68-1.07.52s-.17-.59-.14-.9c.06-.81-.28-1.06-1-.73a3,3,0,0,0-1.8,2.8c0,.69-.11,1.11-1,.92-.45-.08-.9.14-.82.7a2.86,2.86,0,0,1-1.14,2.39c-1.07,1.12-2.44,2-3.24,3.38a13,13,0,0,1-1.4,2.2.88.88,0,0,0-.1,1.12,3.8,3.8,0,0,0,2.69,1.93c1,.11,2,.43,2.83-.48.16-.17.57-.2.5.22a2.36,2.36,0,0,0,.35,1.49.62.62,0,0,1-.07.77c-.26.22-.52,0-.75-.15a2.63,2.63,0,0,0-.94-.59.75.75,0,0,0-.71.08c-.22.21-.1.46,0,.69a5.7,5.7,0,0,1-1.67,5.45,1.1,1.1,0,0,0-.21,1.19c.12.44.54.3.83.3a1.65,1.65,0,0,1,1.16.46,1.59,1.59,0,0,0,1.15.45,1.49,1.49,0,0,1,1.59,1.09c.07.17.1.36.31.37.63,0,1.2.32,1.84.35a10.12,10.12,0,0,1,3.88,1,1,1,0,0,1,.62,1,2.4,2.4,0,0,0,.52,1.75,1.11,1.11,0,0,1,.16,1.11,8.86,8.86,0,0,0-.73,4.28,1.28,1.28,0,0,1-.38.94c-.73.91-.53,2.14-1.07,3.12-.15.27.13.61.34.87a.55.55,0,0,1,0,.81c-.54.53-.39,1,0,1.6s.66,1.16,1.36,1.42c.38.14.57.55.77.9a9,9,0,0,1,.75,1.94c.1.34.29.42.59.55a26.53,26.53,0,0,1,3.35,1.16,41.05,41.05,0,0,0,4.22,2c.42.18.58.27.34.71s-.41.9,0,1.24a15.25,15.25,0,0,0,2.58,1.89c.57.29.69.49.49,1-.14.37-.32.84.18,1s.4.39.31.72a.44.44,0,0,0,.15.54.39.39,0,0,0,.49-.06c.4-.62.86-.33,1.36-.15a2.12,2.12,0,0,0,.94,0,1.24,1.24,0,0,1,1.13.27c.72.9,1.63.63,2.53.58.14,0,.3-.06.44-.06.29,0,.35.16.2.39a2.38,2.38,0,0,1-.31.33c-.54.59-.49.83.25,1.11a16.48,16.48,0,0,1,2.2.87c.56.3.49.53.23.91s-.43.41-.5.72a9.06,9.06,0,0,0-.46,3.27c.06.49.09,1,.57,1.21s.79-.06,1.11-.35.73-.3.81.27a8.32,8.32,0,0,0,1.55,3.12c.4.62.71.59,1.26,0,.11-.11.2-.38.39-.26,1,.62,1.85-.19,2.78-.17a.51.51,0,0,0,.54-.65.67.67,0,0,0-.9-.43,1.89,1.89,0,0,0-.48.21c-.6.44-1.07.26-1.58-.22a1.77,1.77,0,0,1-.42-2.1,1,1,0,0,1,1-.74.82.82,0,0,1,.91.71c.22,1.29,1.15,1.61,2.25,1.71a1,1,0,0,1,.87.49c.56.9.65.9,1.17-.07.56,1.45,1.34,1.81,2.78,1.35a3.42,3.42,0,0,1,1.31-.28.5.5,0,0,1,.53.4c.23.85.68,1,1.44.54a3.13,3.13,0,0,1,1.18-.37c.79-.18,1.63.22,2.35-.2,1-.59,2.33-.8,2.62-2.25.06-.28.35-.47.6-.65a.66.66,0,0,1,.89,0,2.8,2.8,0,0,0,3.39-.29,4.41,4.41,0,0,1,2.8-1.06c.56,0,.68-.26.38-.71s-.46-.63-.12-1a2.89,2.89,0,0,0,.45-2.28c0-.3,0-.49.29-.53s.56.08.53.39c-.1.93.41.75,1,.59a1,1,0,0,1,.58,0,3.89,3.89,0,0,0,2.29,0,.48.48,0,0,1,.41.07c.75.75,1.71.38,2.58.5a.81.81,0,0,0,1-.81.85.85,0,0,0-.79-1,1.94,1.94,0,0,1-1-.49,1.7,1.7,0,0,0-.86-.42c-.73-.12-.87-.43-.47-1s.84-1.29,1.28-1.92a1.85,1.85,0,0,0,.37-1.19c0-.82-.07-1.64-.1-2.47,0-.41.09-.83.54-.84,1.14,0,1.37-.75,1.66-1.65.24-.73.41-1.67,1.34-1.95s1.58-1.08,2.48-1.44a1,1,0,0,0,.33-.4c.31-.57.11-1-.55-1a.58.58,0,0,1-.57-.37c-.64-1.3-1.19-1.54-2.62-1.21a3.62,3.62,0,0,1-1.26.21c-.7-.08-.94-.43-.67-1.07a2.39,2.39,0,0,0,.26-1.08,1.12,1.12,0,0,1,.54-1,13.74,13.74,0,0,0,1.79-1.71,1,1,0,0,0-.68-1.7,11.23,11.23,0,0,0-2.17,0,1.3,1.3,0,0,1-1.44-.61,2.82,2.82,0,0,0-2.65-1.37c-.41,0-.45-.12-.28-.41a5.39,5.39,0,0,0,.58-1.38,2.36,2.36,0,0,0-.71-2.12c-1-.45-1.08-1-.31-1.71.32-.29.48-.6.25-1-.41-.69-.79-1.43-1.66-1.64-.37-.08-.43-.3-.47-.63-.16-1,.6-1.57,1.19-2.2,1.17-1.23,2.07-2.55,1-4.32,1.11.06,1.54-.5,1.27-1.57-.16-.62-.37-1.12-1.08-1.26a.31.31,0,0,1-.29-.39,2.72,2.72,0,0,0,.78-.11c1-.57,2.25-.45,3.21-1.16a1,1,0,0,1,.57-.08,1.58,1.58,0,0,0,1.73-1.78,2.11,2.11,0,0,1,.34-1.26,2,2,0,0,0-.46-2.82c-.2-.16-.4-.3-.59-.46s-.18-.19-.13-.33a.26.26,0,0,1,.32-.12c1.3.27,1.91-.53,2.4-1.52.15-.31.29-.61,0-.91a.71.71,0,0,0-.82-.18,2.25,2.25,0,0,1-1.47-.08c-.51-.15-.55-.4-.25-.81a2.12,2.12,0,0,0,.58-1.2,4.06,4.06,0,0,1,.54-2.21c.19-.28,0-.58-.07-.87-.06-1.47-.68-2.92-.12-4.4a4.52,4.52,0,0,0,.27-1c.15-1.2-.2-1.59-1.42-1.57a4.27,4.27,0,0,0-1,.13c-1.33.31-2.56.35-3.54-.84a1.53,1.53,0,0,0-1.94-.47c-.64.25-1.33-.07-2-.08-.23,0-.29-.21-.34-.42-.23-.94-.44-1.09-1.4-1a6.16,6.16,0,0,0-1,.21,2,2,0,0,1-2.5-1.31,5,5,0,0,0-.37-.82c-.24-.42-.62-.64-1.06-.37-1.2.72-2.51.47-3.79.54A4.89,4.89,0,0,1,1070.27,1744.93Zm-17.45,22.86a6,6,0,0,1-1.25.21,7.73,7.73,0,0,0-1.93.51c-1.1.3-1.88,1.11-2.85,1.42a24,24,0,0,1-2.86,1,1.68,1.68,0,0,1-.74,0c-.18,0-.43-.19-.57-.12-1.26.63-2.28-.21-3.39-.51a1.1,1.1,0,0,0-.92.11,2.34,2.34,0,0,1-1.49.44,5,5,0,0,1-2.9-1.2c-.4-.27-.22-.8.29-1a1.79,1.79,0,0,1,1.44.24c.48.27.92.35,1.32-.15a.93.93,0,0,1,1.1-.19,1.13,1.13,0,0,0,1.46-.53,26.75,26.75,0,0,0,1.94-2.55.6.6,0,0,1,.75-.37,5.59,5.59,0,0,0,1.82.12c.09,0,.22,0,.27,0,.62-.59.81-.47.76.38,0,.3.31.2.46.09a1.44,1.44,0,0,1,2.06.24c.48.45,1,.23,1.53,0a2.17,2.17,0,0,1,3,.53,1,1,0,0,0,.71.37c.31,0,.51.14.51.5A.52.52,0,0,1,1052.82,1767.79Zm2.28,52.9c-.47.21-1,.36-.58,1.06.12.21-.1.41-.32.53a.38.38,0,0,1-.48,0c-.24-.2.1-.32.09-.51a.6.6,0,0,1,.07-.36c.38-.45.35-.81-.38-1.11.55-.18.93-.34,1.34-.43.24-.06.52,0,.6.29S1055.31,1820.6,1055.1,1820.69Zm14.21-49.44a.67.67,0,0,1,.72.76.86.86,0,0,1-.87.85c-.51.05-.55-.3-.55-.67S1068.73,1771.26,1069.31,1771.25Zm-4.81,42.56c-.86,1.07-1.57,2.29-2.93,2.85l-.44.14a7.91,7.91,0,0,1-2.5-1.07.52.52,0,0,1-.19-.67,2.09,2.09,0,0,1,.68-1,1.6,1.6,0,0,0,.81-1.5c0-.46.27-.47.59-.27.52.33.92.48.91-.4,0-.36.29-.46.57-.43.84.12,1-.41,1.08-1.06,0-.12,0-.25,0-.37,0-.43.06-.88.59-.87s.72.46.73,1a3.42,3.42,0,0,1-.3,1.22,1.32,1.32,0,0,0,.26,1.58A.64.64,0,0,1,1064.5,1813.81Zm5.61-34.71a.62.62,0,0,1-.36.46c-1.19.38-1.49,1.62-2.31,2.37a.66.66,0,0,0,0,.94,1.47,1.47,0,0,1,.24,1.28c-.34,1.5-.14,2,1.28,2.57.66.27.76.69.49,1.14-.73,1.14-.62,2.64-1.67,3.63a.78.78,0,0,0,0,1.09c.26.33.58.16.89,0,.62-.24.83-.11.8.56a12,12,0,0,0,.06,2.08,1,1,0,0,1-1.37,1.12,1.45,1.45,0,0,0-1.51.2c-.48.38-.88.19-.79-.41.14-1-.32-2,.43-2.92a.19.19,0,0,0,0-.07c-.42-1.24.26-2.66-.67-3.79a1.37,1.37,0,0,1-.35-1,1,1,0,0,0-.81-1.09,7,7,0,0,1-2.68-1.23c-.33-.31-.51-.5-.34-.89a5.77,5.77,0,0,1,2.06-2.49,1.12,1.12,0,0,0,.63-1.13c-.09-1.22,2.39-3.26,3.58-3,.94.23,1.32,0,1.26-1.09a2.34,2.34,0,0,0-.14-2.28.69.69,0,0,1,.33-.9c.45-.18.55.22.69.5.33.65.92.58,1.5.6a1.49,1.49,0,0,1,1.59,1.07c.15.47.08.83-.5.79A2.06,2.06,0,0,0,1070.11,1779.1Zm3.67,23.32a.55.55,0,0,1-.8.08c-.49-.4-1-.7-1.54-1-.69-.46-.44-1.19-.5-1.87a3.25,3.25,0,0,0-.39-2c-.41-.74-.21-1,.58-1.24.38-.1.75-.26,1.13-.38a1.12,1.12,0,0,1,1.13.13.73.73,0,0,1,.29.66c0,.28-.3.26-.52.31a1.45,1.45,0,0,0-.9,2.4c.53.68.71,1.59,1.53,2.07C1074.08,1801.71,1074,1802.13,1073.78,1802.42Zm2,1.66c-.48,0-1.55-.63-1.53-.91a1.18,1.18,0,0,1,1-1,1.68,1.68,0,0,1,1.09,1.45A.54.54,0,0,1,1075.81,1804.08Zm-58.18-5.72a1.41,1.41,0,0,1,.77-1.53.6.6,0,0,0,.21-.21,7.49,7.49,0,0,1,2.65-2.74c.31-.24.52-.41.91-.17s.85.57.78,1.15c0,.35-.26.17-.43.07-.46-.27-.56-.11-.5.37.08.63.27,1.27-.32,1.82-.25.23.07.38.27.46a7,7,0,0,1,3.27,2.73.62.62,0,0,0,.89.25,1.33,1.33,0,0,1,.81-.11c.55.09,1,.27.65,1a1.07,1.07,0,0,0,.34,1.34c.47.38.59,1,1,1.42a.32.32,0,0,1,0,.41c-.14.16-.28,0-.4,0-.48-.33-.76,0-1,.32a3.33,3.33,0,0,1-2.79,1.15c-1.27,0-2-.31-2.12-1.7-.08-.69-.56-1.32-.06-2a.53.53,0,0,0,0-.5,3.17,3.17,0,0,0-2.19-1.1C1018.32,1801,1017.63,1800.43,1017.63,1798.36Zm71.83-9.47c-1.3,0-2-.64-2-1.69a2.6,2.6,0,0,0-.33-1.13,1.78,1.78,0,0,1,1.33-2.81,4.76,4.76,0,0,0,1-.27,1.47,1.47,0,0,1,1.73.06c.21.18.47.08.72,0a1.79,1.79,0,0,1,1.65.47c.43.37.73.86,1.14,1.26a.86.86,0,0,1-.12,1.28,15,15,0,0,1-2.67,2.25A7.57,7.57,0,0,1,1089.46,1788.89Zm7.57-9.57a4.09,4.09,0,0,1,2,2.45c.11.33,0,.48-.26.71-.51.41-1.06.78-1.54,1.23a1.52,1.52,0,0,1-2.36,0,5.23,5.23,0,0,0-1.72-1.41.58.58,0,0,1-.37-.59,8.6,8.6,0,0,0-.27-2.14c-.22-1,.34-1.67,1.42-1.69h2.31c.39,0,.67-.06.76-.52s.39-.76.86-.59.52.64.31,1.06S1097.93,1779.15,1097,1779.32Zm-9.58,3.58c-1.34,0-1.2-.06-1.15-1.28a6.19,6.19,0,0,1,.73-2.82c.27-.51.14-1.26.41-1.87s.55-.93,1.14-.93.63.58.9,1c.78,1.09.41,2.49,1.12,3.59.28.45-.29,1.52-1,1.75S1088.23,1783.09,1087.45,1782.9ZM1017,1803.13c1.24.1,3.45,1.14,3.58,2.82,0,.47.18,1-.34,1.27s-.78-.14-1.07-.44a2.52,2.52,0,0,0-1.44-.87.59.59,0,0,1-.38-.22,5.22,5.22,0,0,0-1.6-1.83c-.25-.17-.19-.45.15-.56A3.13,3.13,0,0,1,1017,1803.13Zm50.14-18.76a.65.65,0,0,1-.69.55c-.31,0-.59-.16-.59-.45,0-.47.45-.45.77-.51S1067.06,1784.09,1067.11,1784.37Z" transform="translate(-174.97 -1174.5)"/>
  </g>
  <rect id="bounds_TellusMater" class="cls-3" x="771.5" y="444" width="358" height="235"/>
</svg>
