<svg id="protoWorld" xmlns="http://www.w3.org/2000/svg" viewBox="0 0 1680 840">
  <defs>
    <style>
      .cls-1 {
        fill: #282c34;
      }

      .map-terrenus {
        fill: #98c379;
        stroke: #21252b;
        stroke-miterlimit: 10;
      }

      .map-terrenus-bounds {
        fill: #333842;
        opacity: 0.2;
      }
    </style>
  </defs>
  <title>protoTerrenus</title>
  <rect id="bounds_Terrenus" class="map-terrenus-bounds" x="1138.5" y="140" width="424" height="391"/>
  <path id="Terrenus" class="map-terrenus" d="M1331.8,1394.42c0-.34-3.19,0-2.49,1.63C1330.55,1399,1331.64,1396.09,1331.8,1394.42Zm31.94-5.21c1.17,1.32-2.33-4.9-2.52-3.33a1.38,1.38,0,0,0,0-1,1,1,0,0,0,1.23-.18,6.47,6.47,0,0,0-1.09-1.82c-.18.18-1.93-2.7-2.79-3.4.16.13.27-1.39,0-1.79-.86-1.34-1.28-5-1.1-7.62.1-1.27.93-1.47.5-2.8-.56-1.73-3.31-2.56-4.73-3.4-3.36-2-5.78-2.74-9.42,0-2.65,2-2.81,5.59-5,8-.41.46-2.13.86-2.94,1.9a6.69,6.69,0,0,0-1,5.17c0-.14.65.62.55.56-.44-.72-.54.82-.77.54a16.18,16.18,0,0,1,1.5,3.68c0,1.17-3.69,4.48-.32,5.77,1.27.49,1.76-1.79,3.6-.65,1.48.92.1,1.47.14,1.59.16.48-.54.53-.23,1.25.18.44,1.18.25,1.1.06.73,1.82,1.27-.68,2.22-1.26.65-.4,3.62-.41,4.07,0s.19,1.84.08,2.16c.35-1,1,2.63.83,2.34a8.78,8.78,0,0,0,1.63,1c1.51.76,2.27.38,3.75-.32.35-.16,1.64-1.37,1.79-1.14-.1-.16,0-.77-.4-.51C1355.08,1394,1365,1390.65,1363.74,1389.21Zm3.76-10.9c-.32,0-.42-.47-1.09-.38-1,.13.9,1.52.79,1.16a.56.56,0,0,1-.26-.56.88.88,0,0,0,.41.44Q1367.94,1378.69,1367.5,1378.31Zm4.82-9.71c-1.18-.86-2.68.24-3.16,1,1.22-2-2.88-.44-2.21-.44-.79,0-.48.55-1.28.75,2.39-.59,2.71,2.16,4.84,1.31C1370.85,1371.13,1373.18,1369.2,1372.32,1368.6Zm32.48,233.12c-.19-.06-.64-1.67-1.41-1.93s-2.74.92-3,1.64c-.55,1.89,2.47,2.93,1.74,3.92-.08.11,1,.15.67-.24,0-.06.57,1.11.66.55.12-.79.37.14.81-.32C1404.47,1605.18,1405.58,1602,1404.8,1601.72Zm52,67c0-2-.85-.17-1.69-.46,0,0-2.17-.91-1.62-1-.36.08-3.48,1.87-2.92,2.48a.64.64,0,0,1,.71.46c-.31.87-1.54.18-1,1.58a2.73,2.73,0,0,0,1.73,1.2c.85.25.38.51,1.69.08.88-.3,3.77-2.76,2.42-2.4C1456.15,1670.56,1456.52,1668.64,1456.83,1668.74Zm7.62-12.35c.07-.65-2.46-3.29-2.68-3.31a44.13,44.13,0,0,0-1.83,5.27C1461,1661.73,1464.16,1659.27,1464.45,1656.39Zm26,5.25c0-.52-1.46-3.55-2.31-3.59a10.72,10.72,0,0,0-5.6,1.58c-1,.65-3.28,4-3.33,4-.5.24-2.11-.23-2.76-.11.39-.07-.12.84-.36,1-.63.27-3.43.21-3.61,1.71a14.19,14.19,0,0,0,1.39,4.2c.59.78,2.15,1.16,3,1.4,1.74.5,3.74.44,5.61,1.06-.47-.15,3.54,2,3.15.85a.66.66,0,0,0,.31,1,1.24,1.24,0,0,1,.17-.27c0,.22,2.71-.77,2.71-.77,0-.19.14-1.83.56-1.83C1489.37,1671.78,1490.46,1663.09,1490.4,1661.64Zm40.62,39.48c-1-.71-.62-3-1.85-3.39-.41-.13-2.55,1.47-2.74,1.83-.8,1.51-.17.55.49,2.1s.14,1.89,2,1.58C1529.68,1703.12,1532.07,1701.86,1531,1701.12Zm11.56,2.08c-.13-1.31-2.62-1.9-2.31-3.54.11-.59,1.89-1.57,1.89-1.88a.51.51,0,0,0-.78-.09c-2.1-.92-2.86.57-3.52,3-.06.23,1.92,1.13,2.26,1.66C1539.89,1702,1542.91,1706.75,1542.58,1703.2Zm109.6-30.47a6.81,6.81,0,0,0-3-.81c-.27.11.36.72.42.7-.2.05-.9,0-1,0-.72.39.74,2.78.05,2.68C1650.11,1674.64,1652.18,1674.22,1652.18,1672.73Zm16.69-9.38q0-.45-.09-.9c-.16-.2-1.76,1-1.88,1.28C1666,1666.21,1669.07,1664.14,1668.87,1663.35Zm.85,13.77c0-.06-.91-.92-.91-.73,0-3.07.46-3.19-2.21-2.81-1.25.18-3.15.81-3.56,2.29-.1.35,1.52,2.65,1.69,2.75a7.78,7.78,0,0,0,1.28.57c.17.07,1.75.79,1.67.78C1667.85,1680,1670,1677.57,1669.72,1677.12Zm33.39-231.75c-.32-.28-1.79-1.8-1.72-1.78-.83-.24-4.16.63-4.16,1.53a12.54,12.54,0,0,0,1.64,2c.09,1.7-1.9,1-1.18,2.53C1698.87,1452.12,1703.31,1445.54,1703.11,1445.37Zm-130.91,85c-.31-1-2.63-1-2.64,0S1572.39,1531,1572.2,1530.36Zm0,0c-.31-1-2.63-1-2.64,0S1572.39,1531,1572.2,1530.36Zm0,0c-.31-1-2.63-1-2.64,0S1572.39,1531,1572.2,1530.36Zm0,0c-.31-1-2.63-1-2.64,0S1572.39,1531,1572.2,1530.36Zm0,0c-.31-1-2.63-1-2.64,0S1572.39,1531,1572.2,1530.36Zm0,0c-.31-1-2.63-1-2.64,0S1572.39,1531,1572.2,1530.36Zm0,0c-.31-1-2.63-1-2.64,0S1572.39,1531,1572.2,1530.36Zm0,0c-.31-1-2.63-1-2.64,0S1572.39,1531,1572.2,1530.36Zm0,0c-.31-1-2.63-1-2.64,0S1572.39,1531,1572.2,1530.36Zm0,0c-.31-1-2.63-1-2.64,0S1572.39,1531,1572.2,1530.36ZM1708,1425.25c2.67-2.42-2.22-4.82-3.47-5.51-1.55-.86-4.13-1.07-5.43-2.2-1.47-1.29-.32-.66-.57-2-.18-1,.18-1.7-.25-2.59-.7-1.44-1.56-1.28-2.49-2.43-2-2.47-2.43-6-2-8.8.32-2.25,1.45-4.67.78-6.7-.43-1.32-1.6-.55-1.84-1.38-.88-3,1.89-4.94-.07-8.11-1-1.69-2.51-2.86-3.32-4.53a9.68,9.68,0,0,1-.71-3.77c-.08-.68-3.24-1.22-3.67-1.57-1.39-1.15-2-2.79-3.15-4.18a31.45,31.45,0,0,0-4.4-4,25.48,25.48,0,0,1-3.86-3.49c-.49-.62-1.21-2.86-1.63-3.14-2.14-1.41-6.23.11-9-1.23-2-1-3.78-2.52-5.83-3.29-1.85-.7-4.6-.66-6.31-1.71s-1.22-2.68-3-3.68c-1-.56-3.35-.21-4.55-.42-3.81-.66-9.85-.76-13.1-2.82-1.74-1.11-1.59-2.92-3.07-3.9-.75-.51-2.15.94-2.42-.4-.09-.42,1.12-.32,1-.8-.33-1.29-3.31.47-3.84.62-3,.87-4.66.22-7.38-1.18-2.3-1.17-3.42-1.7-5.94-1.7a30.67,30.67,0,0,0-4.35,0c.16-.26,1.19-.67,1.1-1.17-.29-1.57-2.58-.55-3.15-.65.22,0-3.66-1.52-2.63,0,.2.29.84,1.37.81,1.31a2.42,2.42,0,0,0,.52.23c0,.1-1.13.91-1,1-1.32-.94-.85-2.58-2.57-3.3-1.89-.79-3.75.29-5,0-.21,0,.08-1.31-.27-1-.81.66-3.07,3.69-4.07,3.44a.91.91,0,0,1-.21-.59,44.13,44.13,0,0,1-5.56,1.72c-4,0-7,.21-10.89,1.75-3.06,1.23-4,2.48-7.29.89-2.08-1-4.08-4.26-6.21-4.36-2.91-.14-4.48,3.35-7.69,2.3s-5.05-4.34-8.51-4.84a8.86,8.86,0,0,0-6.89,2.38c-.89,1-4.41,7.83-6,6.93-.08-.26-.15-.52-.22-.77-1.22,0-1.94,3.63-1.6,3.48-.81.37-.54.29-1.65,0,.49.11-2.66-1.93-2.36-1.6-.55-.59,3.32-2.08,3.27-2.53a.84.84,0,0,1-.65-.93c.65-.8,2.58-.57,3.13-1.28.76-1-4.74-2.68-5-2.86-2.57-1.62-2.82-4-4.07-6.11-1.4-2.32-8.29-4-10.72-2.48s-2.43,5.52-5.06,7.12c-2,1.22-2.81.54-5.06.24-1-.13-4-.91-4.91-.64-2.58.83-1.63,2.75-2.27,5-.89,3-2.22,5.43-2.45,8.89s.52,4.84,2.14,7.53c2,3.41,1.26,3.58-.69,6.75-.72,1.16-1.6,2.06-1.5,3.46s2.29.78.21,2.67c-1.66,1.52-5.91-.09-7.82-.55-1.17-.28-2.13-.53-3.22-.87.08,0-2.89-.67-2.42-.71-2,.17-2,2.08-3.65,3.68a12.52,12.52,0,0,1-2.52,1.62c-1.25.26-.59-1.08-1.35-1-.4,0-.81.67-1.37.53a6.6,6.6,0,0,1-1.41-.19c-2.51,0-4.41-.47-5.91,1.65-1.07,1.5-.06,3-2.77,3.27a5.48,5.48,0,0,1-4.74-2.41c-1.58-2.18-2.18-4.42-4.53-6.54-1.45-1.31-2.74-1.36-1.52-3.81.67-1.34.93.49,1.49-.25s-.07-1.07.16-1.57c.4-.86-.5-1.75.82-2.39s1.08,1.86,1.86,1.28c1.19-.89,1.12-3.82,1.7-5,.83-1.62,2.06-.57.64-2.35-1-1.24-2.72-.68-4-1.43a17.75,17.75,0,0,1-2.9-2.29,1.54,1.54,0,0,1-1.32-1,1.58,1.58,0,0,1,.62-1.23c.12.32-1.39-3.22-1.43-2.72,0,0,.68-1.33.49-1.32.31,0,2.44,1.09,2.49,1,.53-1.28-.64-3.89-.74-4.66-.07-.59.6-1.41.67-1.31-.09-.13-2-1.44-2-.57a.57.57,0,0,1,.17.54c-1,.46-3.13,1.34-4.45,1.86-2.15.85-2.8.14-5-.51-1.31-.38-4.27-.26-5.34-.81-.82-.42-1.21-2.45-2.31-2.38-.63,0-1.46,1.41-1.94,1.85s-2,1.07-2.08,1.54c-.21.84,1,.66,1,1.16a14,14,0,0,0,.79,3.6c0,.06,1.55,1.89,1.58,1.83-.51,1.17-3.61,2.31-4.4,2.08-1.17-.35-2.34-2.3-3.29-3.08-.51-.42-2.55-1.33-2.67-1.5-1.42-1.87-.6-4.32-4.05-4.21-2.34.07-1.79,1-2.88,2.6-.46.71-1.25,1.21-1.62,1.72,1.07-1.47.78,5,.73,4.68.16,1.09.82,2,1,3,.37,2-.75,2.26-1.25,4-1,3.57,1.29,3.88,3.46,6.64,1.43,1.81,2.84,5.28.6,7.21-1.22,1-1.78.26-3.16.35-1.6.09-2.28.9-3.48,1.19-3.15.76-2.42-1.94-5-2.84-1.46-.5-5,1.78-6.62,2.89-1.42,1-2.52,2.64-3.78,3.82-1.77,1.67-3.34,1.88-5,3-4.83,3.13-.07,8.72.76,12.93a9.37,9.37,0,0,0,2.43,5.23,11.8,11.8,0,0,0,2.7,1.75c.47.19.65.87,1.27,1s.8-.82,1.47-.7c2.89.5,2.62,2,4.64,4.28s5.5,5.69,5.9,8.77c.44,3.39-2.07,4.55-4.8,3.24s-2.45-2.74-5.19.16c-2.27,2.41-3.12,5.8-6.53,5.9-3.67.11-6.25-2.18-9.06-4.12-3.16-2.18-5-5.25-7.88-7.44-1.45-1.08-2.58-.23-3.45-.55-.21-.08-1.42-.74-1.86-.89a5.07,5.07,0,0,1-1.93.08c-1-.37-1.65-2.27-2.83-2.82-1-.46-1.92-.1-2.83-.41-.62-.21-1.1-1.3-1.77-1.2-1.21.18-2,3.72-2.74,3.61s-1.48-4.34-1.76-4.89c-1-1.88-3.07-4.26-5.14-4.72-3.93-.88-4.77,3.37-8.88,2.34-3.48-.87-4.61-1.88-3.88,1.77.28,1.38-3.64,1.35-4.07,1.69-.9.72-1.06,3.68-1,4.45.26,2,2.24,3.32,2.11,5.28-.27,4.1-1.6,1.84,1.06,4.67,1,1,1.12,3,2.1,3.85s2.44.65,3.16,1.72.24,3.39,1.18,5.5c2,4.38,5,8.35,6.56,12.93,1.48,4.3-2.24,3.46-2.85,7.34-.29,1.86.62,1.37.81,2.76,0-.37.57,3,.12,2.12,0-.06.08,1.23.09,1.29.08.91,1.07-.34,1.33,0,1,1.44-2.77,3.51-2.8,3.37-.37-1.75,2.64-1.58.39-3-1.46-.91-5.57.2-6.47,1.43-.26.36.9.77.65,1.53-.43,1.31-1.39,1.38-1.29,3.13,0,.29,1.12,1.11,1.25,1.49s-.77,1-.68,1.46.87.28.85.88c0,1.29-.9,1.13-.24,2.42a12.4,12.4,0,0,0,3.81,2c0-.67,1-1.45,1-1.11.57,3.8-4.34,3,.3,6.36,2.32,1.7,4.41,4.18,6.43,2.67.4-.29,2,1.06,2.14,1.26,1,1.3.46,3.76.46,5.49,0,1.21-.35,3.94.8,4.53.52.27,3-.7,3-1.16a.7.7,0,0,1-.41-.58,1.63,1.63,0,0,0,.69-.41c-.44.17,3.24,4.9,3.29,5.28.27,2-2.35,3.82-3.11,5.33a7.31,7.31,0,0,0-.66,4.18c.19,1,1.54,2.27,1.48,2.92-.12,1.32-1,.33-1.31,1.37-.32,1.27.54,2.7.09,4-.87,2.48-4.49,6.29-6.77,7.94l-2.53,1.42c-1-.06-1.09-1.39-2-1.45s-1.33,1-2.42,1.16c-2.36.44-3.52-.74-5.17,1.6-1,1.37-1.83,5-2.26,6.63-.07.24-.83,3.79-.91,3.67a10.94,10.94,0,0,0,1.74,1.08c.4.27,1.44,0,2,.35s.12,1.69.82,2,2.55-.82,3.64-.4c.77.31.87,1.61,2.06,1.88,1.49.34,2-1.11,3-1.2.51,0,1.32-.73,1.25.68,0,.92-1.67,1.25-1.75,2.5,0,.6,1.22,2.24,1.46,2.79.8,1.8.1,3,.3,4.59.25,2,1.54,2.46,2.32,4.18a17.33,17.33,0,0,0,1.35,2.67c.19.3,1.59.13,2.11.92-.21-.32.1,3,.1,2.83,0,.68.46,1.08.3,2-.13.73-2,3-2.48,3.66a39.61,39.61,0,0,0-2.86,4,17.48,17.48,0,0,0-2.14,6.67c-.31,2.79.11,2.62,1.72,4.6,1.25,1.53,3.64,3.71,3.25,5.44-.34,1.51-3.54,3.16-4.41,4.52-1.2,1.89-1.88,5.19-.49,7.2a17.29,17.29,0,0,0,2.33,1.37c-.07.16-.14.32-.2.48.54.61,2.58,1.24,3.35,2.12,1.13,1.28,2.27,4.11,4.31,4.16,2.5.06,3.42-2.35,4.46-3.86,1.49-2.19,3.75-2.92,6.11-4,5.06-2.43,11.92-.76,17.25-.52,1.3.06,3.43,1,4.55-.41.65-.79,0-1.7.15-1.85,1.07-1.36.39-.07,1.25-.36,2.55-.85,2.13.39,4.53.68s4.06-2.71,5.42-4c2.74-2.7,3.51-1.48,3.48-5,0-3.24-3-6.24-1.61-8.9,1.69-3.17,4.76-4,7.72-4.92,3.36-1,4.37-4.69,8.37-4.62,1.92,0,3.39,1.2,5.18,1.63s3.75.14,5.53.78c2.92,1.06,6.15,3.73,9.53,3.36.65-.08,1.27-1.27,1.94-1.49,1.14-.38,2.13-.15,3.25-.66,2.1-1,4.13-2.52,6.26-3.56a25.23,25.23,0,0,1,6-2.48c2.39-.48,4.42,0,6.11-1.84.5-.54.88-2.1,1.37-2.85,1.16-1.77,3.23-3,3.51-5.28,0-.3-1.91-9.42-1.5-9.27-.19-.07-.7.64-.61,0a1.28,1.28,0,0,1,.81-.42c0-.59-1.49-1-.82-1.59.06-.06,1.47-.56,1.29-.15a.8.8,0,0,0,.36,1c-.12-.12-.24-.25-.37-.36.85-1.56.88,2.16.59,1.62A12.19,12.19,0,0,0,1467,1548c.74.94,4,3.93,4.16,5.09a23.41,23.41,0,0,0,.32,2.55c-.14-.19,1.26,1.39,1.3,1a3.09,3.09,0,0,0-.28-.77c.13-.22,1.83,1.74,1.82,1.68a.82.82,0,0,1-.28-.76c2-.33-.09,4.79,0,5.16s.43.32.61,0c.4.54-.43,3.52-.11,3.84a.45.45,0,0,0,.51-.27c.45.92-.57,1.89-1,2.69a8.51,8.51,0,0,0-1,3c0-.09.56,2,.69,1.35-.24,1.18-1.42,2.09-1.66,3.29-.07.36-.4,7.26.27,7.43.26-.11.51-.23.75-.35.06,0-1,1-.67,1.4s.48.22.64-.17c.33-.15-.13,1.46.41,1.1a1,1,0,0,1,.48-.54c.41.09-.06,3.86-.28,4.56-.35,1.12-1.59,1.89-1.81,2.61.1-.3,2.81,5.26,2.17,5.2a.5.5,0,0,1,.75,0c.18.34-.71,1.25.21,1.36a1.07,1.07,0,0,0,.64-.72,6,6,0,0,0,1.42.2c-.28-.2-.44,1.29.1.88-.67.5-1.94-.21-2.55-.12-.92.12,1.25,3.7,1,3.77.54-.13-.14-.71.26-.85-.34.12,1.67,2.22,1.16,2.93-.15-.17-.31-.33-.47-.49-2.1,1.3,1.23,2,1.33,2.17a8,8,0,0,1,.78,2.43c-.1,0,1.54,0,1,.47s-2,1.86-1.62,3,2.26.34,2.43,1a4.07,4.07,0,0,1-.56-.54c.13-.67,1.94,1.19,2,1.2a.54.54,0,0,1,0-.69c-.12,0,3.33,2.42,3.56,2.95.72,1.61-1.37,2.15,1.16,2.71a.61.61,0,0,1-.58.52c-.25,1.23,5.35-1.83,5.62-1.84,1.58,0,2.66,1.83,3.94,2.75a1.72,1.72,0,0,0,.86-.25c.18.11-.28,5.55.24,4.86.1-.13-.49-.88.22-.69.87.25-.39,1.28.23,1.59a12.7,12.7,0,0,0,3.33.83,21.9,21.9,0,0,1,7.3,3.19,19.22,19.22,0,0,1,2.47,1.86c.46.41.45,1.73.91,1.94,3,1.4,3-2.59,4.16-2.59-1.32,0,3.31,3.93,3.11,2.14,0,.15,2.09,4.37,2,4.36s1.61-.27,1.16.27a2.13,2.13,0,0,0-.55.44c.39.39,2.43,2.36,2.52,2.84,0,.3-.69,2.69-.55,2.58a.81.81,0,0,0-.6.28,1.49,1.49,0,0,1,1,0,3.13,3.13,0,0,0-.12.68c-.11-.21,1.87,1.59,1.81,1,0-.35,0,.93.26.44s-3.73,1.73-1.93,2.59a.8.8,0,0,0,.55-.67c-.92-.42,1.19,6.72,1.28,6.89.24.46,1.22.6,1.47,1.07.15.29,0,.71.23,1.29.11.24.89,3.26.68,3.24a1.06,1.06,0,0,0,.62-.59c0,.24-.07.49-.09.73a1.81,1.81,0,0,1,.69-.1c.1-.06-.13,2.94,0,3.21a2.44,2.44,0,0,1,.66,0,2.25,2.25,0,0,0-.36.24c1,.54.12,2.73.53,4.24a10,10,0,0,1,.29,1.32c-.11-.9.94,3.27.23,3-.23-.1,1.09,0,.8.06s-.47,0-.48.34c0,.84,2.26,2.81,1,4.1.41-.42,1.37.84,1.71.65-.13.06.12,4.31.11,4.34.06-.62.89.47.77.45,1,.18,5.57-3.49,5.47-3.56.41.3,1.77,2.54,3,1.55l-1.27-.49c-.21-.42,3-5.62,4.17-5.06a2.58,2.58,0,0,0-.78-.16c.08,0,3.93-2.32,4-2.39.75-.48-.27-.59.15-1.29-.12.21,2.41,0,2.32,0a2.33,2.33,0,0,1,.45,1c-.33-.1,2.48-.84,2.24-.73,1.87-.85,2.77-2,4.39-3.39,1.15-1,3.85-2.66,5.46-3.81a11.86,11.86,0,0,0,2.32-1.66c.35-.38-.09-1.06.21-1.49s1.15-.5,1.23-.62c.55-.81,1.17-2.36,2-2.71a1.58,1.58,0,0,1,0-.89c-1.21.78,6.76,3,6.52,2.88,1.52,1,1.66,3.76,4.29,4,.86.07,4.4-1.39,5.42-1.92.47-.23,1.47-.36,1.8-.77s-.91-1.35-.86-1.39c.23,0,.47-.1.7-.13,1.09-1.42.1-3,.83-4.1.23-.35-.52-2.84-.73-3.18a1.19,1.19,0,0,0-.42.28c-1-.69,3.32-5,4.15-4.82,1.43.37,1.64,4.07,2.72,4.31,1.68.38,5.85-2.72,8.09-4.23,3.74-2.5,7.79-6.44,12.12-5.64,5,.93,9.3,3.64,14.27,2.39.46-.12,1,.72,1.72.4.34-.17.63-1.21,1.09-1.52.69-.45.59-.67,1.57-1.11,1.14-.5,3.72-.13,3-2.28-.18-.55-2.11-1.43-1.17-3.38.21-.44,2.41-1.94,3.3-1.86,1.38.11.89.9,2,1.23.56.17,1.5-.57,2-.32-.25-.13.8,1,.63.67a1.52,1.52,0,0,1-.61.42c0-.23.51.54.52.84,0-.4-1,.54-.69,0-.46.84,1.81,3.61,2.68,3.17a.64.64,0,0,1-.13-.44c.93-.1.85.57,1.91,0,.23-.12,1.79-1.42,2-1.65s2.9-2.42,2.61-2.64a1.46,1.46,0,0,1-.77-.21s3-6.64,4-5.67.56.74,1.77,1c.42.1.94-1.06.76-1,.79-.29,1.54,1.8,1.9,1.73,2-.37,1.56-.94,3.58.35,1.61,1,3.14,2.39,4.7,3.22a12,12,0,0,0,2.8,1.14c1.54.18,1.91-1.31,2.76-1.52a.62.62,0,0,0,1,0,12.9,12.9,0,0,1,1-3.06,32.15,32.15,0,0,0,2.12-2.69,17.92,17.92,0,0,0,1-2.72,33.49,33.49,0,0,1,3.47-6.34c.84-1.23,2.67-2.44,2.71-3.69,0-1-1-1.75-1.1-2.51-.1-.58.33-1,.28-1.4-.52-3.77-2.23-5.11-4.84-7.87-1.1-1.17-1.24-.43-1.73-1.71a16.19,16.19,0,0,1-.27-3.16,71.5,71.5,0,0,1,1.63-7.25c.35-1.63,1.07.21.77-2-.11-.77-1.35-2.15-1.67-2.94-.62-1.55,0-1.59-.91-2.87-.56-.75-1.21-.3-1.67-.6s-.88-1.54-2.2-2.2a7.69,7.69,0,0,1-2.47-1.43c-2.53-2.55-2-7.58-5.53-8.76-1.5-.51-2.36,0-3.55-1a9.47,9.47,0,0,1-1.07-3.13c0-.7.8-1.42.76-2.28-.06-1.14-1-1.47-1.27-2.47-.31-1.3-.53-2,.45-3.36,1.16-1.6,3.46-2.15,4.3-4.17.58-1.38,0-.86.18-1.9.26-1.48-.63-1.26.32-2.76a9.81,9.81,0,0,1,3.4-2.65c2.28-1.16,6.83-3.33,8.29-5.61a2.4,2.4,0,0,1,.89-2.11,12.67,12.67,0,0,1,4.11.29c1.58,2.31,2.31,1.66,4.59,3.15,2.53,1.66,1.53,4.06,4.47,2a10.74,10.74,0,0,0,3.2-3.68c.46-1.48-1.11-1.57-.07-3,.71-1,1.92,2.92,1.3-1.23-.27-1.83-.53-2,.09-3.18.46-.86,1.58-.58.56-2.68a4.35,4.35,0,0,1-1.7-1.53,7.51,7.51,0,0,1,.38-2.68,4.92,4.92,0,0,0,.94,0,4.89,4.89,0,0,1-.48-.2c1.51-.61-.3-.13,0-.41,1.09-1.07,1.55,0,1.31-1.42-.06-.35-2.48-2.18-2.77-2.57-.89-1.17-2.5-4.17-2.24-5.69.13-.75,1.83-2.69,2.06-3.25.52-1.2,0-1.57,1.3-2.67.36-.3,2.35-1.74,2.74-1.41a1.08,1.08,0,0,1-.58.11,1.36,1.36,0,0,1,.87-.26c-.62.5-2-2.06-2-2.38.08-1.15,2.39-2.56,3.41-2.19s.91,2.06,2-.32c.39-.83-.43-.91-.42-1.54s.41-1.52.36-2.1c0,.1-1.7-.44,0-1s.72,1.61,2.68.07,1-4.67.83-6.07,1-.44-.82-2.3c-1.15-1.15-3.09-1.92-4.38-2.65-1.6-.9-4.07-1.63-4.48-3.23-.26-1,.5-1.9.24-2.78-1-3.38-1,2-2.75.93-.14-.08-.18-1.55-.53-1.43-1.2.41-.64,1.86-.31,2.58.44.94,2.94,2.43,3,2.4-.58.85-3,.73-3.93,1.53-.77.64-1.55,3.19-2.38,3.47-.29.09-4.17-3.6-4.16-3.69,0-.48,1.94-1.38,1.6-1.92.14.22-6.14-.94-4.48-2.17,1.18-.88,3.47-.73,4.38-.69-.41,0,3.65-.31,3.15.2,1.89-1.94-2.94-1.55-3.36-2.25-.83-1.38.88-4.2,1.86-5,1.36-1.11,6-.79,4.48-3.91.24.5-3.46-.9-3.66-1a20.69,20.69,0,0,1-1.85-1c-1.63-1.47,7.08-6,7.29-6.74.25-1-.75-2-.23-3.53a13.21,13.21,0,0,1,2.67-3.74c.26-.26,6.11-4.36,3.22-5.2-1.49-.43-1.47,2.45-3.35.58-2.13-2.1,1.64-3,1.73-4.93.07-1.47-1.57-2.35-1.85-3.57-.15-.66.19-5,.82-5.68,1.07-1.18,1.39-.07,2.65-.61s2.43-2.37,3.46-3.26c1.31-1.12,2.64-2.13,3.95-3.24.34-.29,3.15-3.49,2.42-3.45-1.84.09.3-2-.06-2a1,1,0,0,0-.39.18A.52.52,0,0,1,1708,1425.25Zm-191.44,33.3a13.92,13.92,0,0,1-2.17,4.32,20.16,20.16,0,0,0-1.78,2.28c-.41.9-.32,2.88-.52,3.41a.47.47,0,0,1-.73.1c.89-.13-.78,3.84-.8,3.85-.61.69-5.84,2.56-5.83,2.5.06-1.59-2.25-1.41-4.19-1.77-1-.18-3.82-1.35-4.68-1.18-.39.08-3.36,2.16-2.68,2.54a.79.79,0,0,1,.91.63c-.35.93-1-.33-1.35.12-1.26,1.64,4,1.44,3.66,3.57.15-.92-4.3,1.84-4,1.84-.27,0-.45-2.65-1.31-2.75-.34,0-1.25,2-1.43,2.36-1.56,2.8-2.74,6.6-4.88,9.17-1.76,2.12-5.92,3.75-8.07,1.53-.57-.59-.82-2.89-1.4-3.77s-1.23-1.11-1.91-2.07-2.2,3.4-1.49,3.29c-.53.08-1.89-1.35-1.76-1.67s1.15.63,1-.32c-.45-2.63-3.08-4-5.08-5.32-1.3-.84-2.32-3-3.73-3.74s-1.33-.12-2.61-.14-2.14,1.31-2.32-1c0-.16,1.68-4.16.86-4.4-5.52-1.65,6.74-4.57,6-7.49-.14-.56-.62.06-.81-1.13-.08-.48,0-2-.16-2.39-.79-2.31-2-1.21-.41-4,.45-.78,1.39-1.82,1.78-2.43s1-1.65,1.37-2.35c1-1.85-.39-1.66,1.91-3.07.24-.15,3-.94,3-.93l-.09.68c.66.83,3.17-.19,3.72-.08s1.44,1.06,1.12.93c-.12,0,4.7.09,4.2.63,1.26-1.36,2.63-.81,4.55-2,1.47-.89,2.24-3.35,4.59-2.73a10.57,10.57,0,0,1,2.58,2.35c.12.17-.26,1.12.37,1.66,1.22,1,.8-.57,1.35-.51.71.08.3,1.69.46,2.07s-.66,1.36-.45,1.63c.4.49,1.57-.19,1.68-.11-.21-.14,3,1,2.38,1.37a1.26,1.26,0,0,1,.36-.76,4.58,4.58,0,0,0,.1.63c-.26-.08.75-.85.72-.81.41-.48.18-1.67,1.73-1.38.58.11,1.34,1.19,1.71,1.61s1.07,1.53,1.7,2.24,1.88,3,2,3.15c1.74,1.7,3.15-3.72,2.4-3.62-.37.06-.93,1.34-1.53,1.27-1.27-.15.55-1.47.79-1.62,1.47-.9.7-.6,1.76.38a8.73,8.73,0,0,1,2.91.24c.77.45.48,1.49,1.17,1.94,1,.64,1-.23,1.44-.06-.26-.09,1.23.39,1.1.15C1515.76,1457.36,1516.41,1458.94,1516.54,1458.55Zm42.43-6.8c-.56-.69-.43-.92-1.26-1.54-.44-.32-1.16,1.29-1.41.63-.12-.32-.81-3.48-1.62-2.64.83-.86.8-1.36-.08-2.65-1.09-1.6-.19-.37-1.29-.75-.83-.28-1-.58-1.75-.4.42-.1-2.09,2.21-2.26,1.06,0-.17,1.82-2.06,1-2-1.22,0-1.76.86-2.65,1-1.92.39-3.19-.26-4.88-.28-.77,0-1.16.93-1.76,1s-1.24-1-1.78-1c-.89,0-1.49,1.84-2.48,1-1.56-1.3,2.29-2.41,2.75-2.52,1.24-.3,2.48.06,3.91-.19s2.8-1.48,4.26-1.64a27.83,27.83,0,0,1,3,.21,6.07,6.07,0,0,1,1.71-.2c.85.1.34,1.19,1.14,1.4,1.35.35,2.84-1.34,4.23.17s-.52,2.37-.25,4c0-.1,1.62,2.41,1.37,2.33,0,0,.95-.82,1.64-.67a20.16,20.16,0,0,1,2,.58c1.59.66,2.19.81,3,3,.78,2,2.18,4.39,2.28,6.58,0,1,.32,1.5-.24,2.41-.15.25-2.34,2.16-2.15.82.06-.4,1-1.83,1-2-.38-2.09.33-1.11-1.91-.41C1566.9,1458.33,1559,1451.8,1559,1451.75Zm23.34,72.07c-.53-.23-1.55.58-1.82,1-.43.66,1.23.79,1.14,1.41s-.73-.41-.68.56-.45,1.84-.21,3.08,1.26.64,1.52,1.66c-.25-1-2.76,2.76-2.89,3.38.05-.21-.1,7.81-1.58,6.8a.61.61,0,0,0,.32-.38c-.2.2,1.33,3.1,1.26,3.89-.16,1.86-1.86,3-3.11,4-1.41,1.18-2.59,3.39-4.57,3.33a13.17,13.17,0,0,1-2.9-1.8.89.89,0,0,0,.27.4,13.34,13.34,0,0,1-2.79-1.76,3.1,3.1,0,0,1-.45-2.64c-.07.41,2-5.21.47-3.71,0,0-.45,2.25-1.17,1.16-.46-.7.31-4.17.75-3.55-.41-.57-.44-1.22-1-1.81-.23-.24-1,.71-1.09.63-.36-.44-.16-1.11-.61-1.75-1.27-1.83-3.19-4.38-2.85-6.8.26-1.81,2.61-3.34,2.62-5.22,0-.86-1.32-2.56-1.64-3.52-1.14-3.47,1-4.87,3-7.79-.12.16-.61-.81-.2-1.47.8-1.32,1-1,1.93-1.68.35-.26,3.5-2,4-1.9,2.31.68,1.89,6,3.84,7.8,1.14,1.06,3.14,1.49,4.34,2.25S1581.11,1523.29,1582.31,1523.82Zm32.3,48.51c-.79,1.51-3,2.19-4.45,2-.47-.06-5-1.66-4.52-2.11a1.89,1.89,0,0,1,.71.11c1-.54,2.72-5.89,5.47-3.48a1.48,1.48,0,0,1-.37.21C1612.05,1568.34,1614.83,1571.91,1614.61,1572.33Zm40.78,31a10.68,10.68,0,0,1-1.84,3.46.83.83,0,0,0-.3-.41c-.65.12.14,1.32,0,1.57.2-.3-4.31-2-4.15-1.68-.54-1-1-3.4-3-4.35-2.65-1.25-5.28-.12-4.11-3.27.33-.87,2.35-3.14,3.57-3.28,2.38-.28,2.39,1,3.93,2.33,0,0,4.42,1.72,2.8,2.53a1.11,1.11,0,0,1-.66-.34c-.71-.19,2.59,1.42,2.26.85C1654,1601.1,1655.4,1603.31,1655.39,1603.37Zm-83.5-73.24c-.63-.33-2.82,0-2,.52C1570.22,1530.88,1572.84,1530.66,1571.89,1530.13Zm.31.23c-.31-1-2.63-1-2.64,0S1572.39,1531,1572.2,1530.36Zm0,0c-.31-1-2.63-1-2.64,0S1572.39,1531,1572.2,1530.36Z" transform="translate(-174.97 -1174.5)"/>

</svg>
