<svg xmlns="http://www.w3.org/2000/svg" viewBox="0 0 1000 1000">
  <defs>
    <style>
      .cls-1 {
        fill: #21252b;
      }

      .cls-2, .cls-3 {
        fill: #333842;
        stroke: #abb2bf;
        stroke-miterlimit: 10;
      }

      .cls-3 {
        stroke-width: 0.92px;
      }
    </style>
  </defs>
  <title>soloAlterion1.1</title>
  <g id="bg">
    <rect class="cls-1" width="1000" height="1000"/>
  </g>
  <g id="Alterion">
    <path id="body" class="cls-2" d="M577.65,476.78c-2.72.45-6.49.35-6.51,4.28,0,2.46,2.39,3.86,5,3.85a5.56,5.56,0,0,0,5.88-4.7C581.5,477.87,580.08,476.37,577.65,476.78Zm0,0c-2.72.45-6.49.35-6.51,4.28,0,2.46,2.39,3.86,5,3.85a5.56,5.56,0,0,0,5.88-4.7C581.5,477.87,580.08,476.37,577.65,476.78Zm0,0c-2.72.45-6.49.35-6.51,4.28,0,2.46,2.39,3.86,5,3.85a5.56,5.56,0,0,0,5.88-4.7C581.5,477.87,580.08,476.37,577.65,476.78Zm0,0c-2.72.45-6.49.35-6.51,4.28,0,2.46,2.39,3.86,5,3.85a5.56,5.56,0,0,0,5.88-4.7C581.5,477.87,580.08,476.37,577.65,476.78Zm0,0c-2.72.45-6.49.35-6.51,4.28,0,2.46,2.39,3.86,5,3.85a5.56,5.56,0,0,0,5.88-4.7C581.5,477.87,580.08,476.37,577.65,476.78Zm0,0c-2.72.45-6.49.35-6.51,4.28,0,2.46,2.39,3.86,5,3.85a5.56,5.56,0,0,0,5.88-4.7C581.5,477.87,580.08,476.37,577.65,476.78Zm0,0c-2.72.45-6.49.35-6.51,4.28,0,2.46,2.39,3.86,5,3.85a5.56,5.56,0,0,0,5.88-4.7C581.5,477.87,580.08,476.37,577.65,476.78Zm0,0c-2.72.45-6.49.35-6.51,4.28,0,2.46,2.39,3.86,5,3.85a5.56,5.56,0,0,0,5.88-4.7C581.5,477.87,580.08,476.37,577.65,476.78Zm0,0c-2.72.45-6.49.35-6.51,4.28,0,2.46,2.39,3.86,5,3.85a5.56,5.56,0,0,0,5.88-4.7C581.5,477.87,580.08,476.37,577.65,476.78Zm0,0c-2.72.45-6.49.35-6.51,4.28,0,2.46,2.39,3.86,5,3.85a5.56,5.56,0,0,0,5.88-4.7C581.5,477.87,580.08,476.37,577.65,476.78Zm0,0c-2.72.45-6.49.35-6.51,4.28,0,2.46,2.39,3.86,5,3.85a5.56,5.56,0,0,0,5.88-4.7C581.5,477.87,580.08,476.37,577.65,476.78Zm0,0c-2.72.45-6.49.35-6.51,4.28,0,2.46,2.39,3.86,5,3.85a5.56,5.56,0,0,0,5.88-4.7C581.5,477.87,580.08,476.37,577.65,476.78ZM826,619.54a5.06,5.06,0,0,1-4.86-3.16c-5.43-11-10.05-13-22.21-10.21-3.49.89-6.89,2.1-10.62,1.7-5.92-.65-7.94-3.57-5.67-9,1.21-3,2.35-5.83,2.19-9.16-.25-3.73,1.7-6.32,4.54-8.51,5.67-4.13,10.29-9.32,15.15-14.43,2.35-2.51,3.89-5.67,2.44-9.24s-4.63-5-8.19-5.18c-6.08-.25-12.32-.65-18.32.24-5.67.89-8.92-.65-12.24-5.19-5.43-7.46-12.48-12.64-22.45-11.59-3.49.32-3.81-1-2.35-3.49a47.56,47.56,0,0,0,4.94-11.67c1.46-5.51-2.19-16.21-6.08-18-8.35-3.81-9.16-8.11-2.59-14.43,2.67-2.51,4.05-5.11,2.1-8.35-3.48-5.84-6.72-12.08-14-13.86-3.16-.73-3.65-2.59-4.05-5.35-1.3-8.84,5.1-13.29,10.13-18.64,9.89-10.46,17.51-21.56,8.59-36.56,9.41.49,13.05-4.3,10.78-13.37-1.37-5.19-3.16-9.49-9.16-10.62a2.71,2.71,0,0,1-2.43-3.33c2.19-.32,4.79,0,6.57-1,8.51-4.78,19.13-3.81,27.23-9.81,1.14-.81,3.25-.65,4.87-.65,9.8-.4,14.43-5,14.59-15.07a18.18,18.18,0,0,1,2.91-10.7c5.76-8.51,4.14-17.51-3.89-23.91-1.7-1.3-3.4-2.52-5-3.89-.73-.73-1.54-1.63-1.06-2.76s1.71-1.22,2.68-1.05c11,2.35,16.21-4.46,20.35-12.89,1.29-2.6,2.43-5.11.24-7.7-1.86-2.27-4.54-2.27-7-1.46-4.3,1.46-8.27.57-12.4-.73-4.38-1.3-4.7-3.41-2.11-6.89,2.35-3,4.78-6.24,4.86-10.13.25-6.65.81-13,4.62-18.73,1.54-2.35-.48-4.86-.65-7.37-.48-12.41-5.75-24.73-1-37.29a39.44,39.44,0,0,0,2.27-8.59c1.3-10.21-1.7-13.54-12-13.3a38.72,38.72,0,0,0-8.1,1.06c-11.27,2.67-21.64,3-30-7.13-4.14-5-9.57-6.81-16.46-4-5.35,2.11-11.26-.56-16.94-.64-1.94,0-2.43-1.79-2.84-3.57-1.94-7.94-3.72-9.24-11.83-8.59a62.29,62.29,0,0,0-8.67,1.78c-9.89,2.35-17.67-1.7-21.16-11.11a43.16,43.16,0,0,0-3.16-6.88c-2-3.57-5.27-5.44-9-3.17-10.13,6.08-21.23,4-32.1,4.62a41.34,41.34,0,0,1-18.7-.53c-9.38-2.73-17.55,5.14-26.32,8.77s-6.66-6.81-13-14.07-22.85,1.06-30.6-.49c-7.15-1.42-12.06-1.17-25.68-7.29s-28.75,0-28.75,0c-2.51,1.05-5.35,1.94-8.27,2.91-7.13,2.36-13.37,6.08-17.18,13-5.35,9.49-15.08,13.54-24.16,17.19-9.48,3.73-18.24,7.54-24.8,15.4a17.83,17.83,0,0,1-12.4,6.81c-10.38,1.05-20.19,4.21-31.13,2.59-9.32-1.38-18.8-1.46-27.72-4.62-4.22-1.54-8-2.59-11.67,1-1.3,1.3-2.84,1.3-4.7.73-12.33-3.81-24.24-.48-35.59,3.57-7.7,2.76-16.13,5.59-20.83,13.46-.89,1.45-2.76,1.86-4.46,2.1-2.43.25-4.78,1.06-6.16,2.92-4.94,6.65-12.16,11.11-17.18,17.59-2.35,3-4.95,5.76-9,4.38-4.46-1.46-1.46-5-1.22-7.62.49-6.89-2.35-9-8.59-6.16-10.21,4.54-14.51,13.21-15.24,23.67-.32,5.83-.89,9.4-8.18,7.86-3.81-.73-7.62,1.13-7,5.92,1.14,9-4.13,14.34-9.64,20.18-9.08,9.56-20.67,16.7-27.4,28.69-3.56,6.41-7,13-11.91,18.65-2.35,2.67-3,6.48-.81,9.48,5.59,8,11.91,15.08,22.77,16.29,8.51,1,16.94,3.65,24-4.05,1.29-1.46,4.78-1.7,4.21,1.86-.81,4.79.89,8.6,2.92,12.65,1.05,2,1.46,4.78-.57,6.48-2.19,1.87-4.38.08-6.32-1.21-2.59-1.79-4.7-4.38-7.94-5-2-.4-4.3-.89-6.08.65-1.87,1.78-.81,4-.17,5.92,2,6.32,1.63,16.78-.24,22.69-2.84,8.92-6.08,17.35-13.86,23.43-3.16,2.43-2.67,6.73-1.78,10.13,1,3.73,4.54,2.51,7,2.51,3.89-.08,7,1.46,9.81,3.9a13.46,13.46,0,0,0,9.72,3.8c6.81-.32,11.19,3,13.46,9.25.57,1.45.89,3.08,2.67,3.16,5.27.32,10.14,2.67,15.57,2.91a84.68,84.68,0,0,1,32.83,8.19c3.64,1.7,5.75,4.7,5.26,8.59-.73,5.68,1.3,10.38,4.38,14.84,2.11,3,2.76,5.91,1.38,9.4-4.62,11.67-7.54,23.59-6.16,36.23.32,3.16-1.38,5.68-3.24,8-6.16,7.7-4.46,18.07-9.08,26.42-1.22,2.27,1.13,5.19,2.92,7.38s2.35,4.62.08,6.81c-4.62,4.54-3.33,8.91-.25,13.61s5.6,9.81,11.51,12c3.25,1.22,4.87,4.62,6.49,7.62a75.21,75.21,0,0,1,6.4,16.45c.81,2.84,2.43,3.57,5,4.63,9.24,3.89,19.45,4.7,28.37,9.88,11.43,6.65,23.58,12,35.74,17.35,3.57,1.54,4.87,2.27,2.84,6-1.86,3.4-3.48,7.62.08,10.54,7,5.75,13.94,11.83,21.89,16,4.78,2.44,5.83,4.14,4.13,8.76-1.21,3.08-2.67,7.13,1.54,8.83,3.65,1.46,3.41,3.25,2.6,6.08-.41,1.62-.49,3.49,1.29,4.54,1.46.81,3.33.73,4.14-.48,3.4-5.27,7.29-2.84,11.51-1.3a16.7,16.7,0,0,0,8,.24c3.73-.65,7.7.08,9.57,2.35,6.08,7.62,13.78,5.27,21.39,4.87,1.22-.09,2.52-.49,3.73-.49,2.43,0,3,1.38,1.71,3.32a20.31,20.31,0,0,1-2.6,2.76c-4.62,5-4.21,7.05,2.11,9.4s12.64,4,18.64,7.38c4.7,2.59,4.14,4.54,1.95,7.7-1.38,2.11-3.65,3.48-4.22,6.16-1.94,9.16-5.43,17.91-4,27.64.57,4.13.81,8.1,4.86,10.29,3.89,2.11,6.73-.48,9.41-3,3.64-3.4,6.16-2.51,6.89,2.27,1.54,10.3,7.86,18.08,13.13,26.43,3.4,5.27,6,5,10.62.48,1-1,1.7-3.24,3.32-2.18,8.27,5.18,15.72-1.63,23.59-1.46,2.92.08,5.51-2.27,4.54-5.51-1.06-3.41-4.06-4.71-7.62-3.65a14,14,0,0,0-4.06,1.78c-5.1,3.73-9.07,2.19-13.37-1.86-5.76-5.27-5.84-11.11-3.57-17.84,1.38-4.29,4.3-6.08,8.51-6.24s7.14,2,7.79,6c1.86,10.94,9.72,13.62,19,14.51,3.08.24,5.6,1.3,7.38,4.13,4.7,7.62,5.51,7.62,9.89-.56,4.7,12.24,11.35,15.32,23.51,11.43,3.56-1.14,7.13-2.76,11.1-2.36,2.27.17,3.81.82,4.54,3.41,2,7.13,5.76,8.59,12.16,4.54,3.16-2.11,6.56-2.35,10.05-3.16,6.65-1.54,13.78,1.86,19.86-1.7,8.51-5,19.78-6.73,22.21-19.05.49-2.35,3-4,5.1-5.52,2.6-1.86,5.19-2.18,7.54-.16,8.11,6.89,21,3.73,28.7-2.43,7.62-6,13.7-8.43,23.75-9,4.7-.24,5.75-2.18,3.16-6-1.87-2.68-3.89-5.35-1-8.43,5.18-5.68,4-12.65,3.81-19.3-.09-2.51-.33-4.13,2.43-4.45,2.35-.25,4.78.64,4.54,3.24-.9,7.94,3.4,6.4,8.1,5a9.48,9.48,0,0,1,4.95-.24c6.48,1.78,12.8,2.43,19.37.32a4.11,4.11,0,0,1,3.49.65c6.32,6.33,14.5,3.16,21.8,4.22,4.21.65,7.7-2,8.1-6.89s-2.27-7.62-6.72-8.35a16.1,16.1,0,0,1-8.35-4.22,14.35,14.35,0,0,0-7.3-3.48c-6.16-1-7.37-3.65-4-8.92,3.49-5.51,7-10.94,10.86-16.29a15.71,15.71,0,0,0,3.08-10.05c-.24-7-.56-13.94-.81-20.91-.16-3.49.73-7.06,4.54-7.14,9.65-.16,11.59-6.4,14.11-14,2-6.16,3.4-14.1,11.34-16.54s13.38-9.07,21-12.15c1.13-.49,2-2.11,2.75-3.41C833.26,623.19,831.56,620,826,619.54ZM460.88,339.81c-3.48.73-7.05,1.71-10.54,1.71-6,.16-11,2.91-16.37,4.37-9.32,2.52-16,9.41-24.15,12s-15.73,6.65-24.24,8a12.46,12.46,0,0,1-6.24-.16c-1.54-.4-3.65-1.54-4.87-1-10.61,5.35-19.29-1.78-28.69-4.3-2.84-.73-5.35-.73-7.78.89a20,20,0,0,1-12.65,3.73c-9.56.25-17.1-5.1-24.56-10.13-3.4-2.35-1.86-6.81,2.43-8.19s8.44-.08,12.24,2c4.06,2.35,7.79,3,11.19-1.22,2.59-3.08,5.92-2.75,9.32-1.62,5.35,1.79,9.32.33,12.32-4.54,4.87-7.7,12.49-13.21,16.46-21.56,1.13-2.35,3.73-4.21,6.32-3.16,5.19,2,10.3.73,15.48,1.06.73.08,1.87.32,2.27-.08,5.27-5,6.89-4,6.41,3.16-.17,2.59,2.67,1.7,3.89.81,6.56-4.87,12-3.08,17.5,2,4.06,3.81,8.68,1.95,13-.24,10.38-5.27,17.27-4.05,25.29,4.46a8.37,8.37,0,0,0,6,3.16c2.68.08,4.38,1.13,4.38,4.21C465.18,338.19,463.39,339.33,460.88,339.81ZM480.25,788c-4.05,1.7-8.18,3-4.94,8.91,1,1.79-.89,3.49-2.67,4.54-1.3.81-2.92,1.22-4.14.17-2-1.71.89-2.76.81-4.38,0-1,0-2.35.57-3,3.24-3.81,3-6.89-3.24-9.4,4.7-1.54,7.94-2.92,11.34-3.65,2-.49,4.46-.24,5.11,2.43C483.66,785.87,482,787.17,480.25,788Zm120.37-418.9c3.81,0,6.33,2.43,6.08,6.48-.24,4.54-3.16,6.65-7.37,7.13s-4.62-2.51-4.62-5.67C594.71,372.88,595.68,369.16,600.62,369.08ZM559.85,729.62c-7.29,9.08-13.29,19.45-24.8,24.15-1.38.57-2.76.89-3.73,1.22-8.1-1.54-14.75-5.35-21.24-9.08a4.45,4.45,0,0,1-1.54-5.67c1.38-3.41,2.6-6.89,5.76-8.92,4.62-3.08,7.13-6.89,6.81-12.65-.25-4,2.35-4,5-2.35,4.38,2.84,7.78,4.14,7.7-3.4,0-3,2.43-3.89,4.87-3.57,7.13,1,8.59-3.48,9.16-9,.08-1.06.16-2.11.16-3.17-.08-3.64.48-7.45,4.94-7.37s6.16,3.89,6.24,8.1c.09,3.65-1.37,7.06-2.59,10.38-1.86,5-2,9.4,2.27,13.37C561.23,723.94,562.12,726.7,559.85,729.62Zm47.5-294c-.4,1.62-1.38,3.41-3,3.89-10.13,3.17-12.64,13.7-19.61,20-2.43,2.18-1.87,5.43.16,8a12,12,0,0,1,2,10.78c-2.83,12.73-1.13,17,10.87,21.8,5.59,2.27,6.48,5.84,4.13,9.65-6.16,9.65-5.19,22.37-14.1,30.8-2.84,2.68-1.79,6.41.4,9.24s4.95,1.3,7.54.25c5.27-2,7-1,6.81,4.7a107.63,107.63,0,0,0,.49,17.67,8.86,8.86,0,0,1-11.6,9.48c-4.86-1.62-8.59-1.54-12.8,1.7-4,3.16-7.46,1.54-6.73-3.48,1.22-8.27-2.67-17.35,3.65-24.81a1.69,1.69,0,0,0,.24-.56c-3.57-10.46,2.19-22.54-5.75-32.1a11.6,11.6,0,0,1-2.92-8.19c.24-5.11-2.43-7.62-6.89-9.24-7.78-2.92-16.13-4.21-22.7-10.46-2.75-2.59-4.29-4.21-2.84-7.53a49.2,49.2,0,0,1,17.43-21.08c3.81-2.59,5.68-4.86,5.35-9.56-.81-10.38,20.27-27.64,30.32-25.21,7.94,1.94,11.18-.41,10.7-9.24,3.81-5.68,1.78-12.4-1.22-19.29-1-2.44-.4-6.25,2.84-7.62,3.73-1.54,4.62,1.86,5.83,4.21,2.76,5.51,7.79,4.95,12.65,5.11,7.21.08,11.75,3.16,13.54,9.08,1.21,4,.64,7-4.3,6.72C616.51,419.49,609.86,424.6,607.35,435.62Zm31.13,197.54c-2,2.19-4.62,2.43-6.81.65-4.14-3.33-8.67-5.92-13-8.84-5.84-3.89-3.73-10.13-4.22-15.88a27.54,27.54,0,0,0-3.32-16.78c-3.4-6.24-1.78-8.76,4.95-10.46,3.24-.89,6.32-2.27,9.56-3.24s6.65-1.46,9.56,1c1.63,1.46,2.84,3.24,2.44,5.59s-2.52,2.27-4.38,2.68c-10.05,2.19-14,12.24-7.62,20.34,4.46,5.76,6,13.46,13,17.51C641,627.16,640.67,630.73,638.48,633.16Zm17.18,14c-4,.25-13.13-5.27-13-7.7.17-4.13,4.95-8.91,8.68-8.67s9.48,7.46,9.24,12.24C660.36,645.56,658.58,647.1,655.66,647.18Zm-78-170.4c-2.72.45-6.49.35-6.51,4.28,0,2.46,2.39,3.86,5,3.85a5.56,5.56,0,0,0,5.88-4.7C581.5,477.87,580.08,476.37,577.65,476.78Zm0,0c-2.72.45-6.49.35-6.51,4.28,0,2.46,2.39,3.86,5,3.85a5.56,5.56,0,0,0,5.88-4.7C581.5,477.87,580.08,476.37,577.65,476.78Zm0,0c-2.72.45-6.49.35-6.51,4.28,0,2.46,2.39,3.86,5,3.85a5.56,5.56,0,0,0,5.88-4.7C581.5,477.87,580.08,476.37,577.65,476.78Zm0,0c-2.72.45-6.49.35-6.51,4.28,0,2.46,2.39,3.86,5,3.85a5.56,5.56,0,0,0,5.88-4.7C581.5,477.87,580.08,476.37,577.65,476.78Zm0,0c-2.72.45-6.49.35-6.51,4.28,0,2.46,2.39,3.86,5,3.85a5.56,5.56,0,0,0,5.88-4.7C581.5,477.87,580.08,476.37,577.65,476.78Zm0,0c-2.72.45-6.49.35-6.51,4.28,0,2.46,2.39,3.86,5,3.85a5.56,5.56,0,0,0,5.88-4.7C581.5,477.87,580.08,476.37,577.65,476.78Zm0,0c-2.72.45-6.49.35-6.51,4.28,0,2.46,2.39,3.86,5,3.85a5.56,5.56,0,0,0,5.88-4.7C581.5,477.87,580.08,476.37,577.65,476.78Zm0,0c-2.72.45-6.49.35-6.51,4.28,0,2.46,2.39,3.86,5,3.85a5.56,5.56,0,0,0,5.88-4.7C581.5,477.87,580.08,476.37,577.65,476.78Zm0,0c-2.72.45-6.49.35-6.51,4.28,0,2.46,2.39,3.86,5,3.85a5.56,5.56,0,0,0,5.88-4.7C581.5,477.87,580.08,476.37,577.65,476.78Zm0,0c-2.72.45-6.49.35-6.51,4.28,0,2.46,2.39,3.86,5,3.85a5.56,5.56,0,0,0,5.88-4.7C581.5,477.87,580.08,476.37,577.65,476.78Zm0,0c-2.72.45-6.49.35-6.51,4.28,0,2.46,2.39,3.86,5,3.85a5.56,5.56,0,0,0,5.88-4.7C581.5,477.87,580.08,476.37,577.65,476.78Z"/>
    <g id="waters">
      <path id="unknown3" class="cls-2" d="M465.26,335.27c-.08,2.92-1.87,4.06-4.38,4.54-3.48.73-7.05,1.71-10.54,1.71-6,.16-11,2.91-16.37,4.37-9.32,2.52-16,9.41-24.15,12s-15.73,6.65-24.24,8a12.46,12.46,0,0,1-6.24-.16c-1.54-.4-3.65-1.54-4.87-1-10.61,5.35-19.29-1.78-28.69-4.3-2.84-.73-5.35-.73-7.78.89a20,20,0,0,1-12.65,3.73c-9.56.25-17.1-5.1-24.56-10.13-3.4-2.35-1.86-6.81,2.43-8.19s8.44-.08,12.24,2c4.06,2.35,7.79,3,11.19-1.22,2.59-3.08,5.92-2.75,9.32-1.62,5.35,1.79,9.32.33,12.32-4.54,4.87-7.7,12.49-13.21,16.46-21.56,1.13-2.35,3.73-4.21,6.32-3.16,5.19,2,10.3.73,15.48,1.06.73.08,1.87.32,2.27-.08,5.27-5,6.89-4,6.41,3.16-.17,2.59,2.67,1.7,3.89.81,6.56-4.87,12-3.08,17.5,2,4.06,3.81,8.68,1.95,13-.24,10.38-5.27,17.27-4.05,25.29,4.46a8.37,8.37,0,0,0,6,3.16C463.56,331.14,465.26,332.19,465.26,335.27Z"/>
      <path id="unknown2" class="cls-2" d="M660.61,643.05c-.25,2.51-2,4.05-5,4.13-4,.25-13.13-5.27-13-7.7.17-4.13,4.95-8.91,8.68-8.67S660.85,638.27,660.61,643.05Zm-22.05-17.27c-7-4-8.51-11.75-13-17.51-6.4-8.1-2.43-18.15,7.62-20.34,1.86-.41,4-.24,4.38-2.68s-.81-4.13-2.44-5.59c-2.91-2.51-6.24-2-9.56-1s-6.32,2.35-9.56,3.24c-6.73,1.7-8.35,4.22-4.95,10.46a27.54,27.54,0,0,1,3.32,16.78c.49,5.75-1.62,12,4.22,15.88,4.38,2.92,8.91,5.51,13,8.84,2.19,1.78,4.78,1.54,6.81-.65C640.67,630.73,641,627.16,638.56,625.78Zm-37.94-256.7c-4.94.08-5.91,3.8-5.91,7.94,0,3.16.32,6.16,4.62,5.67s7.13-2.59,7.37-7.13C607,371.51,604.43,369.08,600.62,369.08Zm31.54,44.58c-1.79-5.92-6.33-9-13.54-9.08-4.86-.16-9.89.4-12.65-5.11-1.21-2.35-2.1-5.75-5.83-4.21-3.24,1.37-3.89,5.18-2.84,7.62,3,6.89,5,13.61,1.22,19.29.48,8.83-2.76,11.18-10.7,9.24-10.05-2.43-31.13,14.83-30.32,25.21.33,4.7-1.54,7-5.35,9.56a49.2,49.2,0,0,0-17.43,21.08c-1.45,3.32.09,4.94,2.84,7.53,6.57,6.25,14.92,7.54,22.7,10.46,4.46,1.62,7.13,4.13,6.89,9.24a11.6,11.6,0,0,0,2.92,8.19c7.94,9.56,2.18,21.64,5.75,32.1a1.69,1.69,0,0,1-.24.56c-6.32,7.46-2.43,16.54-3.65,24.81-.73,5,2.68,6.64,6.73,3.48,4.21-3.24,7.94-3.32,12.8-1.7a8.86,8.86,0,0,0,11.6-9.48,107.63,107.63,0,0,1-.49-17.67c.24-5.68-1.54-6.73-6.81-4.7-2.59,1-5.35,2.51-7.54-.25s-3.24-6.56-.4-9.24c8.91-8.43,7.94-21.15,14.1-30.8,2.35-3.81,1.46-7.38-4.13-9.65-12-4.78-13.7-9.07-10.87-21.8a12,12,0,0,0-2-10.78c-2-2.59-2.59-5.84-.16-8,7-6.33,9.48-16.86,19.61-20,1.62-.48,2.6-2.27,3-3.89,2.51-11,9.16-16.13,20.51-15.24C632.8,420.71,633.37,417.63,632.16,413.66Zm-56.07,71.25c-2.56,0-5-1.39-5-3.85,0-3.93,3.79-3.83,6.51-4.28,2.43-.41,3.85,1.09,4.32,3.43A5.56,5.56,0,0,1,576.09,484.91Z"/>
      <path id="unknown1" class="cls-2" d="M559.85,729.62c-7.29,9.08-13.29,19.45-24.8,24.15-1.38.57-2.76.89-3.73,1.22-8.1-1.54-14.75-5.35-21.24-9.08a4.45,4.45,0,0,1-1.54-5.67c1.38-3.41,2.6-6.89,5.76-8.92,4.62-3.08,7.13-6.89,6.81-12.65-.25-4,2.35-4,5-2.35,4.38,2.84,7.78,4.14,7.7-3.4,0-3,2.43-3.89,4.87-3.57,7.13,1,8.59-3.48,9.16-9,.08-1.06.16-2.11.16-3.17-.08-3.64.48-7.45,4.94-7.37s6.16,3.89,6.24,8.1c.09,3.65-1.37,7.06-2.59,10.38-1.86,5-2,9.4,2.27,13.37C561.23,723.94,562.12,726.7,559.85,729.62Z"/>
    </g>
    <path id="magnus" class="cls-2" d="M850.46,464.24c-4.37,3.46-9,6.62-13.09,10.4-6.55,6.09-13.61,6.24-20-.32-4.4-4.54-8.42-9.47-14.57-11.92a5,5,0,0,1-3.16-5.06c.22-6.16-.95-12.09-2.24-18.1-1.91-8.9,2.81-14.16,12-14.3,6.54-.11,13.08-.09,19.63,0,3.23,0,5.62-.5,6.41-4.41.73-3.64,3.29-6.44,7.29-5,4.34,1.55,4.41,5.44,2.6,9-2.43,4.75-2.27,11.53-9.86,13,9,4.73,14.09,11.85,17.15,20.76C853.61,461,853,462.24,850.46,464.24Z"/>
    <path id="isra" class="cls-2" d="M772.85,462.66c-6.22,2.16-12,6.71-18.54,5.11-11.36-.2-10.21-.48-9.79-10.8a52.66,52.66,0,0,1,6.19-23.9c2.32-4.35,1.21-10.68,3.49-15.82,1.92-4.35,4.68-7.89,9.63-7.89s5.39,4.88,7.66,8.05c6.58,9.17,3.51,21,9.45,30.39C783.37,451.63,778.51,460.7,772.85,462.66Z"/>
    <path id="mi_sral" class="cls-2" d="M814.36,494.82c-7.22,6.74-14.18,14.25-22.62,19-6.41,3.63-14.92,3.54-20.44,4.69-11-.06-16.86-5.44-17.28-14.34a22.71,22.71,0,0,0-2.79-9.58c-6-11.64-1.51-20.89,11.25-23.76a44.81,44.81,0,0,0,8.5-2.32c5.07-2.26,9.83-3.53,14.63.54,1.82,1.54,4,.69,6.09.21,5.41-1.27,10,.54,14,4,3.64,3.17,6.23,7.31,9.72,10.7S817.48,491.91,814.36,494.82Z"/>
    <path id="hunter_s-association" class="cls-2" d="M184.67,673.83c-4.06,2.18-6.64-1.23-9.13-3.75-3.46-3.49-7-6.67-12.19-7.35a4.72,4.72,0,0,1-3.17-1.9,44.12,44.12,0,0,0-13.58-15.45c-2.08-1.46-1.59-3.8,1.25-4.73a24.76,24.76,0,0,1,9.31-1.46c10.55.86,29.27,9.61,30.37,23.88C187.84,667.07,189.05,671.48,184.67,673.83Zm73.5-25.8c-3.14-3.71-4.17-8.81-8.09-12-3.76-3-4.82-7-2.89-11.33,2.61-6-.87-7.45-5.57-8.21a11,11,0,0,0-6.8.89c-3.16,1.55-5.52.84-7.56-2.16-7-10.3-15.89-18.46-27.69-23.08-1.75-.69-4.39-2-2.3-3.91,5-4.64,3.41-10.08,2.73-15.4-.52-4.07.34-5.45,4.22-3.18,1.47.86,3.33,2.4,3.67-.57.56-4.93-2.87-7.39-6.64-9.74-3.31-2.05-5.09-.61-7.68,1.45-8.53,6.78-18,12.57-22.51,23.21a4.38,4.38,0,0,1-1.79,1.75c-5.35,3.2-7.44,7.86-6.45,13,0,17.58,5.76,22.46,22.19,19.72,4.68-.79,16.43,5.14,18.49,9.31.7,1.39,1.17,3.06.34,4.26-4.17,6-.17,11.38.51,17.22,1.38,11.79,7.27,14.65,18,14.45,9.53-.17,17.59-2.19,23.61-9.79,2.47-3.11,4.81-5.45,8.92-2.67,1,.69,2.21,1.66,3.35.34A2.71,2.71,0,0,0,258.17,648Z"/>
    <path id="xangri-la" class="cls-3" d="M338.13,114.54l-10.67,15.78s16,28.94,17.23,28.94,37.41-9.44,37.41-9.44l7.72-29.13Z"/>
  </g>
</svg>
