<svg xmlns="http://www.w3.org/2000/svg" viewBox="0 0 1000 1000">
    <rect class="map-background" x="0" y="0" width="1000" height="1000"/>
    <g class="map-bg-grid">
      <rect class="map-bg-gridline" x="0" y="0" width="1000" height="1000"/>
      <line class="map-bg-gridline" x1="0" y1="875" x2="1000" y2="875"/>
      <line class="map-bg-gridline" x1="0" y1="750" x2="1000" y2="750"/>
      <line class="map-bg-gridline" x1="0" y1="625" x2="1000" y2="625"/>
      <line class="map-bg-gridline" x1="0" y1="500" x2="1000" y2="500"/>
      <line class="map-bg-gridline" x1="0" y1="375" x2="1000" y2="375"/>
      <line class="map-bg-gridline" x1="0" y1="250" x2="1000" y2="250"/>
      <line class="map-bg-gridline" x1="0" y1="125" x2="1000" y2="125"/>
      <line class="map-bg-gridline" x1="875" y1="0" x2="875" y2="1000"/>
      <line class="map-bg-gridline" x1="750" y1="0" x2="750" y2="1000"/>
      <line class="map-bg-gridline" x1="625" y1="0" x2="625" y2="1000"/>
      <line class="map-bg-gridline" x1="500" y1="0" x2="500" y2="1000"/>
      <line class="map-bg-gridline" x1="375" y1="0" x2="375" y2="1000"/>
      <line class="map-bg-gridline" x1="250" y1="0" x2="250" y2="1000"/>
      <line class="map-bg-gridline" x1="125" y1="0" x2="125" y2="1000"/>
    </g>
</svg>
