<svg xmlns="http://www.w3.org/2000/svg" viewBox="0 0 1000 1000">
  <defs>
    <style>
      .cls-1 {
        fill: #21252b;
      }

      .cls-2 {
        fill: #333842;
      }

      .cls-3 {
        fill: #98c379;
        stroke: #21252b;
        stroke-miterlimit: 10;
        stroke-width: 0.15px;
      }
    </style>
  </defs>
  <title>soloWorldMini</title>
  <g id="bg">
    <rect class="cls-1" width="1000" height="1000"/>
  </g>
  <g id="world">
    <rect id="_2x1bg" data-name="2x1bg" class="cls-2" y="875" width="250" height="125"/>
    <path id="genesaris" :style="getStyle('genesaris')" d="M58.33,931.4c-.09,1.72,1.54,2.27-.66,2.74-.81.17-2.53.46-3-.33C53.26,931.51,58.37,930.94,58.33,931.4Zm-43.07,1.9c-1.52,0-.36-2-.26-2.24.3-.8-.21-2.32,1.41-1.79.18.06,1,1,1,1.21-.08.65-.66.39-1,.71-.07.08-.84-.17-.93.3-.14.76,1,.44,1.12.87C16.69,932.57,15.54,933.31,15.26,933.3Zm74.58,31.45c1.32.84,3.48-.42,4.64.61.41.36.93,1.67.52,2.19-.22.29-.65.07-1,.18s-1,.06-1.37.11c-.74.11-1.36.51-2.11.17-.56-.25-2.33-2.14-1.68-2.86.24-.28.79.63,1,.34s-.51-.39-.38-.61Zm-1.42-.31c0,.68.58.12.65.14C89.36,964.62,88.39,963.57,88.42,964.44ZM98.55,953c-2-.16-2.74-2.92-2.54-4.49s.45-4.76-1.08-6c-1-.81-1.32-.16-2.29-.64a11.84,11.84,0,0,1-1.74-2.09,8,8,0,0,1-1.43-2.61c-.64-1.65-.52-.89-1.82-1.37-1-.35-.93-.76-1.74-.3-.26.15-.37.78-.56,1a4.88,4.88,0,0,1-1.57.84c-.92.47-1.29.81-2.12.41s-1.66-1.4-2.7-1.87-1.76-1.18-2.65-1.61c-.25-.13-.6.26-1,.09s-1-.8-1.46-1.08a6.78,6.78,0,0,0-1.93-.89c-.68,0-.93.67-1.53.74s-1-.43-1.4-.27-.42,1.22-.88,1.22-1.14-3.55-1.77-3.63c-.34,0-.4.64-.65.68a8.1,8.1,0,0,0-1.36.3,5.65,5.65,0,0,0-2.45,1.24c-.79,1-1,2.13-.07,2.76.73.49,1.48.29,2.08,1.08a6.39,6.39,0,0,1,.42,2.9c-.54.61-.94-.28-1.58.07s-.53.58-.84,1.08-.62,2.14-1,2.51a4.92,4.92,0,0,1-1.84.74c-.23.06-.45.46-.74.54-.1,0-.31-.36-.58-.24-1.25.54-1.29,1.44-2.68,1.73-2.06.43-1.3-.67-.75-1.95a6.31,6.31,0,0,1,1.42-2.35c.48-.5,2.12-1.6,1.55-2.25-.37-.42-2,.15-2.4.18-2.35.18-1.08-.65-2.45-1.34-.55-.28-2.18.58-2.13.65-.22-.27,1-1.4.05-1.6-.7-.15-.32.94-.65,1.05-1.22.43.41.36-1-.06-.67-.21-1-1-1.9-.9-.24,0-.55.35-.68.4,0,0-.76.51-.82.56-.62.5-.14.43-.93.86-1.47.78-1.61,0-2.92-.55a3.39,3.39,0,0,0-2.58,0c-1.38.49-.77,1.74-1.77,2.39-.31.21-1.44.37-1.71.11-.57-.54.06-.68.37-1.13s.75-.15,1-.4a6.41,6.41,0,0,0,.86-2c0-1.24-1.08-.83-1.85-.78s-1.7,0-2.4.11-1.47.75-2.28.72c-1.6-.07-1.63-1.37-1.83-2.52-.09-.5-.26-1-.32-1.52,0-.3.29-.78.25-.93-.11-.48-1.62-.22-1.85-.3-.68-.27-.27-.48-.77-.84s-2.19,1.63-2.29,1.7c-.5.33-1.36.33-1.53,1.19s.58.65.76,1.38-.11.7-.05,1.28a7.64,7.64,0,0,0,1,2.91c.24.44.09.72.5,1.06.63.52,1.41.17,1.86.77,0,0,.5,1.81.58,2s.57,1.11.68,1.25c.46.57,1.25.8,1.73,1.29.75.75.69.65.94,1.87a9.2,9.2,0,0,0,1.62,3.75,24,24,0,0,0,3,3.91c.43.4,2.09.9,2,1.54-.08,1.22-1.47.41-2,.14a1.6,1.6,0,0,1-.71.19.75.75,0,0,1-.41-.89l-.81-.56a7.7,7.7,0,0,1-1.41-.42,3,3,0,0,1-1.4-1.26c-.13-.23.24-.56,0-.85s-.79-.48-1.09-.75a9.72,9.72,0,0,1-.79-.8c-.18-.22,0-.72-.45-1-.78-.48-2.77.81-2.19,1.5.23.28.32-.23.53-.06,0,0,0,1.75,0,1.74-.55-1.27-2-1.11-2.89-2.55-.32-.52-.61-1.77-1.1-2.16a6.87,6.87,0,0,0-1.59-.55c-.24-.09-.41-.33-.65-.43.07,0-1-.2-.87-.07-.35-.31-.38-1-.67-1.38s-2-1.23-2.2-.72a8.43,8.43,0,0,0,.66,1.92A18.79,18.79,0,0,0,18.57,950c.32.18,1,0,1.05,0,1.49,1.38-1,2.17,0,3.59.72,1,1.53.29,2.34.51s1.2.92,1.65,1.73a5.24,5.24,0,0,1,.5,1.76c0-.39-.44,2.55.08,2-.14.14-.8-.5-.75,0a6.24,6.24,0,0,0,1.13,2.55c.08.12,1.13,1.3,1.15,1.31.28.1,1.12-.36,1.25-.2.77,1-1.59.91.29,1.8.54.25,1.3.13,1.93.5.31.18,1,1.08,1.44,1.08s2.31-1.57,2.42-1.4c0,0-1,1.76-1,1.91-.3,1.09-.37,1.08.43,1.89s1.31.87,1.79,1.76.25,1.46,1.18,1.55,1.16-1.2,1.75-1.67c1-.8.85-.43,2.11-.51.26,0,.58-.49.85-.53s.66.13,1,.1a4.19,4.19,0,0,1,2.39.39c.46.16,0,.43.75.52a14.8,14.8,0,0,0,1.71-.64,3.74,3.74,0,0,1,1.82.21c1.53.42,3.42,2.08,5.15.54.8-.71.34-1.57,1.58-1.45.48,0,.8.43,1.18.68.63.42.13.65,1.09.81.67.11,1.15-.64,1.88-.07s.39.92,1,1.43a2.15,2.15,0,0,0,1.75.38c.33,0,1.16-.49,1.43-.48.73,0,1.36.79,2,1.09a2.5,2.5,0,0,0,2.06.44c.35-.06.46-.4.65-.45s1.37,0,1.41,0c1.62-1-2.12-.87-2.62-1.33-1.32-1.23,2.73-.84,3.45-.8a35.69,35.69,0,0,0,4.6.19c.7-.06,1.57-.85,2.13-.82.82.06,1.29,1.06,2.27,0,.43-.45-.43-1.26.73-1.58.52-.14.59.67,1,.69,1.36.06.38-.08,1.32-.47a5.66,5.66,0,0,1,2.06-.23c1.26,0,2.41.87,2.75-1a12.43,12.43,0,0,0-.36-2.17c-.32-.9-1.13-.85-1.46-1.06a3.18,3.18,0,0,1-1.23-1.1c-.22-.44-.08-1-.38-1.39-.16-.19-.66,0-.9-.17a13.35,13.35,0,0,1-1.21-1.28c-1.13-1.37-.21.2-.75-.72a13.08,13.08,0,0,0-.42-1.55c.65-.67,2.26,1.08,2.67,1.26a16.67,16.67,0,0,1,2.62.91c.71.47,1.64,2.35,2.27,2.47l1.84-1c.51-.29.89-.88,1.46-1.11s1.07.05,1.54-.13a3.5,3.5,0,0,0,1.57-1.43c.5-.91.29-.79.14-1.82-.4-2.75.56-.43,2.1-1.14.59-.26,1.08-1.46,1.57-1.91C97.76,954.54,100,953.14,98.55,953ZM43,959.79c-1.15.92-3.67-1-2.39-2.17C41.71,956.62,44.47,958.61,43,959.79Zm11.83-9.16c0,.15-5.56,1.87-5.77,1.22-.13-.42,2.24-1.54,2.75-1.65S55,949.93,54.83,950.63ZM76,939.85c.88-.68,2.41-.22,1.51.94S75.45,940.3,76,939.85Zm-8-2.69c.46-.46.72-.37,1.18-.77.22-.18.46-1.39,1.17-1.38.1,0,.68,1.1.82,1.25.5.56,1.06.28,1.36,1.11a1.84,1.84,0,0,1-.46,1.93c-1.21.73-1.72-.58-2.51-1.18l-.33-.6c-.28-.32-.51-.3-.67.07C68.76,937.66,67.48,937.79,68.09,937.16Zm1.22,31.23c-1.18.63-.58-1.46-.18-1C69.13,967.36,69.3,968.4,69.31,968.39Zm9.39-12.74c-.26.33-.15,1-.45,1.35a6.5,6.5,0,0,1-1.16.73c-.77.56-1,1.27-2.29,1.15-.41,0-.69-.59-1.11-.7-.24,0-.75.3-1,.31s-.91-.25-1-.26-.48.34-1,.23A13.88,13.88,0,0,1,69.23,957c-.35-.42-.71-.12-.69-.8,0,.5,1.22-1.09,1.12-1,.77-.42,1.68-.29,2.39-.75s1.32-2.35,2-2.63c0,1.13.33,1.54,1.52,1.41.36,0,1.45-.71,1.64-.65.63.17-.24,1.35-.15,1.56s.32.17.45.38S79.3,954.9,78.7,955.65Zm2.51-15.74c-.63.45-2.23,1.79-1.83-.06S82.2,939.2,81.21,939.91Zm3.85.33c-.56-.16.42-1.83.83-1.77.21,0,.28,1.57.3,1.51C86,941,86.24,940.6,85.06,940.24Zm.74,2.92a.59.59,0,0,1-.52,0C84.43,941.82,88.58,942.85,85.8,943.16Zm2.26,9.21c-.21-.15-1.71-.15-1.8-.44s1.25-.52,1.45-.46C88.34,951.64,88.46,952.63,88.06,952.37Zm1.55-1c-.49-.13-.21-1.18,0-1.32C90.4,949.61,89.9,951.41,89.61,951.34Zm.57,2.23a.69.69,0,0,1-.27.6C89.19,954.17,90.31,953.25,90.18,953.57Zm.92-4.48c-.13.61-1.35-.35-1.29-.33C89.7,948.73,91.24,948.39,91.1,949.09Zm-65,1.57c-1-.23-1.41-1.66-.13-1.95S26.79,950.74,26.13,950.66Zm-9.73-5.19c.77,0,.1.58.11.63S15.47,945.48,16.4,945.47Zm-.56-.33a.53.53,0,0,1-.32.5C14.84,945.54,15.86,944.48,15.84,945.14Zm60.31,33.47c-2.3.21-7.43-1.16-5.11-4.5,1.32-1.91.95.16,1.21.94a2.55,2.55,0,0,0,2.2,1.78c.63.07,2.55-.25,2.86-.93s-1-1.87,0-1.95,1.47,2.44,1.26,3A3.78,3.78,0,0,1,76.15,978.61Z"/>
    <path id="orisia" :style="getStyle('orisia')" d="M103.7,944.55s.74.35.83.26c.34-.39-1.23-.75.14-.95a1.4,1.4,0,0,1,1.6,1.14c0,.09-.3,1.82-.35,2a2.82,2.82,0,0,1-.88,1.62,1.43,1.43,0,0,1-2.19-1.69c.19-.64.67-.59.84-1.27C103.81,945.23,102.76,944.55,103.7,944.55Zm-.28,3.12c.13.29.24.28.34,0C103.63,947.42,103.52,947.43,103.42,947.67Zm-3.51-1.54a.38.38,0,0,0-.1-.36c-.8-.32-.88,3.06.27,3.65.76.38.5.08,1.36-.17a4.63,4.63,0,0,1,1.11-.07c.67-.63-1.44-1.47-1.49-1.5S99,946.32,99.91,946.13Z"/>
    <path id="kadia" :style="getStyle('kadia')" d="M118.32,961.67v-.23C118.22,961.38,118.26,961.75,118.32,961.67Zm0-.32s-.07.07,0,.07S118.36,961.36,118.35,961.35Zm0,.35s0,.11,0,.06S118.34,961.7,118.33,961.7Zm.91-.44c-.1,0-.16.13-.28.11s0-.21,0-.21-.23-.22-.21-.21-.17.21-.38.16c-.56-.14.34-1,.52-1.19s-.68-.44-.58-.5a1.54,1.54,0,0,0,.35-.42c.1,0,.2-.13.33-.11s-.17.24,0,.27.15-.23.15-.24.4.06.47,0-.16-.15-.09-.16a9.57,9.57,0,0,1,1.44-.22c.52.08.51.2.5.55,0,.1-.06,1-.07,1s0-.1-.11-.06a.2.2,0,0,0,0,.11c.18,0,.32.34.2.35s0,0,0,0-.16,0-.19,0,.18.61,0,.74a3.84,3.84,0,0,1-.9.46c-.07,0,.26-.62.11-.65-.32,0,.25-.45,0-.55,0,0-.06.17-.14.15s.07-.16.07-.16c-.05-.26-.32.32-.32.32a.37.37,0,0,1-.26-.07C120,960.77,119.34,961.21,119.24,961.26Z"/>
    <path id="alterion" :style="getStyle('alterion')" d="M133,959.65a.7.7,0,0,0-.46.16.26.26,0,0,1-.23-.25,7.28,7.28,0,0,0-1-.14c-.7,0-1,.36-1.62.69a3.17,3.17,0,0,1-1.75.28,1.73,1.73,0,0,0-1,.3c-.17.1-.48.53-.65.48s0-.2,0-.26-.7.9-.83,1-.81.66-.71,1,.63.14.88.2c0,0,.11.35.07.38s-.24-.2-.36-.1-.21,1.19-.23,1.15c.06.14.8.33,1,.4.79.36.83.47.67,1.37-.06.36-.28.68-.19,1,.13.56.62.72,1,1a3.32,3.32,0,0,1,1.11,1c.2.23.11.24.3.36s.91.19.89.21a.4.4,0,0,0-.1.15c0,.16.41.14.46.33s-.18.44-.15.6.22,0,.32.15.22.46.42.53.64-.1.61-.2-.41.14-.48-.14c-.13-.49.18-.17.32-.14.54.09.74.45,1.32.5s.84-.29,1.32-.5c.18-.09.73,0,.92-.21.07-.07.07-.66.15-.67s.66.3.9.23c.65-.19,0-.25-.12-.56a3.05,3.05,0,0,1,.62-1.38c.25-.25.61-.19.48-.55s-.49-.12-.57-.22-.08-.11-.08-.45a.5.5,0,0,0,.31-.42.28.28,0,0,0-.3-.09c-.11-.11-.66-.15-.78-.29s0-.37,0-.52a5.28,5.28,0,0,1-.34-.91c0-.21.27-.6.3-.88.17,0,.23-.07.19-.23a2.43,2.43,0,0,1-.2-.25,1.59,1.59,0,0,0,.91-.37c.2-.32-.14-.73-.1-.83s.63-.12.42-.38-.2.14-.3-.34a5.07,5.07,0,0,0,0-.79c0-.81,0-.67-.82-.82a7.38,7.38,0,0,1-1.23-.29c-.19-.07-.12-.31-.36-.35S133.31,959.74,133,959.65Zm-2.61,3.42c-.09,0-3.06.83-2.86.19,0,0,1.55-.62,1.68-.63S130.56,963,130.4,963.07Zm.34,7.92c-.06,0-.13.31-.21.24s.2-.2,0-.3S131,970.87,130.74,971Zm2.13-7.4q.23.12,0,.24C132.72,963.84,132.74,963.59,132.87,963.59Zm-.72,6.37c-.14.18-.6.78-.88.29-.11-.19.22-.41.28-.53-.05.11.56-.46.48-.46C132.13,969.26,132.18,969.91,132.15,970Zm.84-5.19c-.1.4-.41.34-.37.87,0,.22.27.2.27.44s-.39.51-.24.7.55-.13.26.4c-.07.13-.35.31-.52.22s.05-.66,0-.82c-.12-.49-.65-.66-.64-1s.64-.67.76-.85.26-.16.3-.19-.14-.4,0-.48.59.38.57.42C133.32,964.68,133.08,964.38,133,964.77Zm.55,3.49c-.28.3-.53-.62-.49-.73s.52-.4.47-.12-.3,0-.21.41C133.34,967.94,133.65,968.13,133.54,968.26Zm.3.24c-.34,0-.12-.24-.13-.26S134.17,968.49,133.84,968.5Zm-8.71-.85c-.06-.31.84-.92.8-.53s-.28.27.34.82c.08.07.84.3.55.64s-.73.1-1-.12c0,0-.09-.34-.14-.42C125.5,967.77,125.13,968.22,125.13,967.65Zm10.75-1.42c-.58,0-.43-.91.19-.9C137.05,965.35,136.53,966.1,135.88,966.23ZM137,964.8c.68.35-.15,1.07-.58.44-.08-.12-.16-.47-.06-.6l.77-.23C137.32,964.47,137.1,964.78,137,964.8Zm-1.44.53c-.34,0-.08-1.2.28-.93S136.13,965.47,135.58,965.33Zm-10.55,3c.26,0,.83.59.4.61C125.29,969,124.54,968.33,125,968.36Zm7.51-2.81c-.06.11-.13.11-.19,0S132.52,965.46,132.54,965.55Z"/>
    <path id="athentha" :style="getStyle('athentha')" d="M144.66,949.27s-.59.18-.68.15a1.21,1.21,0,0,1-.54-.9c-.05-.41,0-1,.38-1.23a.88.88,0,0,1,1.25.7c0,.3-.29.39-.34.59C144.65,949,145,948.92,144.66,949.27Zm-2.39-1.55c0-.12-.65-.34-.46.36C142,948.59,142.25,948.23,142.27,947.72Zm.3.77c-.23,0-.67.33-.34.5S142.64,948.49,142.57,948.49Z"/>
    <path id="renovatio" :style="getStyle('renovatio')" d="M158.3,945.25v.18s.31-.14.37-.07-.13.15.23.36a1,1,0,0,0,.63.21,3.46,3.46,0,0,0,.72-.39c.23.27-.2.64-.36.82-.34.35-.24.26-.69.23-.11,0-.28-.17-.42-.18s-.37.07-.44.07-.66.21-.62.18c-.19.16,1.09,1.19,0,1.13-.82,0-.27-.73-.42-1s-.59-.14-.68-.4c-.19-.52.57-.15.81-.23S158.06,945.25,158.3,945.25Zm7.88,8.89a.58.58,0,1,0-.92.71c.19.3.32.3.52.19C165.66,955.11,166.18,954,166.18,954.14ZM156,949.68c-.68.09-.36.54-.68.71a8.14,8.14,0,0,1-1.34.16c-.59-.11-.7-.72-.73.16,0,.16.21.37.26.55,0-.1-.7.19-.77.16a2.58,2.58,0,0,1-.56,1.55c-.13.15-.73.9-.89.87.12.14.11.24-.17.24.19-.73-.66-.71-.61-.19s1.11.77.78.34c.2.07.39-.32.51-.26.33.17.42.87.49,1.19.21.92.34.68,1.14.85.25.06,2.38,1.19,1.56,1.75-.63.42-.84-.77-1.2-.93a.85.85,0,0,0-.36,0c-.36.21.31.3.32.35.06.35,0,.6.08.89.16.59.22.29.63.6.2.15.41.56.59.66s.37-.17.45-.14.33.41.52.32.72-1.22.83-.91c.21.61.79-.14.18,0l-.13-.07a.78.78,0,0,1,.34-.09c.09-.15-.35-.72-.3-.92a1.94,1.94,0,0,1,1.35-.69.19.19,0,0,1,0-.18c.46,0-.47.75-.51.7a1.72,1.72,0,0,0,.62.25c.21-.05.13-.43.37-.48s.49.34.73.46c0-.72.42-.23.66-.63a2.26,2.26,0,0,0,0-.93c0-.13-.41-.34-.4-.62,0-.49.51-.29.56-.33s.16-.3.17-.3c.15-.22.14-.63.25-.81s.24-.47.56-.38,0,.45.37.37c.06,0,.25-.36.31-.39a1.59,1.59,0,0,1,.54-.2c.12,0,1,0,.4-.12.75,0,.1-.49.14-.67a.44.44,0,0,1,.16-.06c0-.12-.57-.41-.62-.46-.4-.45-.32-1.16-.84-1.32-.13-.05-.66.12-.72,0s.28-.39.29-.43c0,.13-1.11-1.34-1.07-1.32-.18-.09-.37.2-.41.18s-.32-.36-.42-.42-.65.52-.72.66c-.07-.39-.4-.12-.57-.25s0-.31-.14-.44a.71.71,0,0,0-1.13.21c-.09.13.3.19.09.35a.79.79,0,0,1-.36.11c.24-.23-.47.08-.35,0-.19.08.06.26-.06.38C156.22,949.68,156.15,949.64,156,949.68Zm2.68,5.53c.06,0-.14.58-.17.6s-.34-.42-.34-.5.48-.54.54-.59.08-.26.21-.35a6.58,6.58,0,0,1,.94,0c-.22.66-.79.57-1.23.72C158.6,955.12,158.62,955.18,158.72,955.21Zm-2.26-2.39c0,.06-.29.11-.4.3a5.6,5.6,0,0,1-.12,1c-.18.07-.86-.53-.93-.67s-.27-.71,0-.85c-.08.05,1.58-.13,1.34-.22C156.33,952.34,156.44,952.85,156.46,952.82Zm-.87-1.81a2.69,2.69,0,0,1,.55-.69c.52-.09.6.87.79.85-.29.2,0,.64-.17.81-.33.37-.45-.51-.45-.59s.22-.34.23-.51-.43-.07-.39,0,.24,0,.12.12S155.62,951.07,155.59,951Zm5.45.2c0,.4-.91.25-1,.14s-.29-.94-.36-.78.67-.14.74-.12A1.23,1.23,0,0,1,161,951.21Zm-7.18,1.17c-.25,0-.09-.47,0-.42A.22.22,0,0,1,153.86,952.38Zm4.41,4.14Zm4.27-2.58c.19.12-.77.38-.72.36-.11.06,0,.26-.22.29s-.33-.11-.47-.1-.67.7-.69.78c-.1.46.39,1.12.18,1.56,0-.12-.45.46-.39.39-.29.32-.1.36-.5.62a.38.38,0,0,1-.73,0c-.14,0-.36.19-.5.2-.81,0-.71,0-.84.79,0-.23.17.8-.08.53.22.23.25.05.65,0a5.1,5.1,0,0,0,3.13-1.08c.43-.44.47-1.1.9-1.53s.6-.17.6-.75c0-.33-.48-.63-.45-.85s.33-.21.39-.34.14-.66.27-.79c.42-.43.65,0,1.2-.31.33-.2.68-1.28.07-1.45-.27-.07-.23.17-.45.36l-.3.29c-.14.13-.85.47-.56.79-.17-.12-.33,0-.48.08C162.58,953.81,162.71,954,162.54,953.94Zm-.15,1.75c-.11.06-.58,1.82-1,1.18s1.06-1.2,1-1.33C162.46,955.59,162.46,955.63,162.39,955.69Zm1.52,3.53-.43.16a.18.18,0,0,1,.14.11,12.81,12.81,0,0,1-1.67.9,7.22,7.22,0,0,1-1.65,1c-.36.09-.41-.27-.82.08s-.35.38-.06.69a3.5,3.5,0,0,0,1,.38c.46.14-.06.32.45.09.28-.13.25-.35.43-.47s.5-.08.68-.36c.3-.47-.08-.69.47-1.06.06,0,.23.1.33,0s.15-.3.26-.39l.45-.38C163.7,959.81,164.27,959.52,163.91,959.22Zm-2.68,2.24c.2.25-.41,1-.53.75C160.69,962.19,160.89,961,161.23,961.46Zm-9.54-10.26c.33.5.84-.8.88-.83s.26.14.44-.13.12-.37.24-.58,1-1,.62-1.13c-.55-.25-1.33.94-1.59,1.21S151.22,950.5,151.69,951.2ZM152,957a.81.81,0,0,1-.62-.25c-.21-.36.16-.3.15-.57s-.12-1.43-.46-1.2c-.57.41,0,1,.08,1.55s-.12.75.33,1.26C153.45,959.94,152.09,957,152,957Zm2.86,3.22c.07.12.82.68.59.2.3.2,1.54,1.44,1.54.15,0-.84-.49-.34-.85-.38-.13,0-.26-.53-.44-.16-.23-.5-.3.21-.35.22S155,960.09,154.89,960.2Zm.5-13.31s-1.38-1.4-1.51.2c.11,0-.41-.23-.31-.22-.14,0-.77.81.32.61.4-.07,1.09-.58,1.48-.27Zm.51.91c.66-1.25-2,.32-1.76.55.06.06.14-.11.18-.1.29,0,0,.71.64.29.15-.09.32-.41.46-.52S155.74,948.11,155.9,947.8Zm-3.93,12a1.11,1.11,0,0,0,0,1.29c.11.15.12.35.39.38s0-.12.06-.36c0,0,0-.44,0-.52s.23-.23.23-.32C152.68,960,152.25,959.38,152,959.76Zm8.31-12c-.3.09-.52-.2-.59.29,0,.25.36.53.52.57,1,.28,1.15-1.09.15-.71C160.43,947.8,160.41,947.75,160.28,947.76Zm4.11,1.68c0-.45-.34-1.18-.78-1.27-.09,0-.23.71-.2.81S164.37,949.79,164.39,949.44Zm-14.8,3.15c.45.08,1.29-.88.61-1.23S149.52,952.57,149.59,952.59Zm8.84,9.69a5.62,5.62,0,0,0-1,0c-.29.12-.49-.09-.26.35C157.61,963.47,159.06,962.54,158.43,962.28Zm5-11.86c-.21-.39-.09-.49-.47-.69s-.52,0-.33.53a3.16,3.16,0,0,0,.28.45C163,950.76,163.66,950.85,163.44,950.42Zm-9.28,11.26c1.16.17.29-1-.3-1C153,960.76,153.94,961.65,154.16,961.68Zm-3.24-11.58c.4.08,0-.4.05-.44s.46.07.49-.13-.15-.79-.64-.51C150.48,949.21,150.62,950.05,150.92,950.1Zm8.51,10.38c-.22.12-.85.27-.8.56,0-.18.77.13.75.14C159.82,961.05,160.42,960,159.43,960.48Zm-3.72-11c.34.07.49-.35.15-.45-.17-.05-.7.44-.71.52C155.12,950.27,156,949.57,155.71,949.52Zm8,7.58c-.3-.19-.73,1-.18,1C163.73,958,163.82,957.2,163.67,957.1Zm-2.24,2.15c0-.14-.65,1.59.38.34A.42.42,0,0,1,161.43,959.25Zm-11.1-2.17c-.73,0,.53,1.14.61.95a5.12,5.12,0,0,0-.49-.45C150.84,957.46,150.36,957.08,150.33,957.08Zm-.71-1.81,0-.53s-.69-.06-.62.28C149,955,149.58,955.41,149.62,955.27Zm-.07-.62c.2.2.37-.44.34-.52C149.73,953.77,149.22,954.3,149.55,954.65Zm.68-5.47c-.3-.09.1.77.18.75a2.87,2.87,0,0,0,.23-.7C150.55,949.14,150.35,949.21,150.23,949.18Zm.08,7.6c0-.79-.54-.27-.36-.1C149.93,956.66,150.32,957,150.31,956.78Zm9.42-7.66c.14.13.22-.19,0-.23Zm-4.82,11.06c.06-.09-.06-.25-.16-.15S154.83,960.24,154.91,960.18Zm-.75-3.45c-.3-.29,0,.32,0,.2A.24.24,0,0,0,154.16,956.73Zm2.09-6c0-.17-.22-.09-.2,0S156.26,950.87,156.25,950.72Z"/>
    <path id="terrenus" :style="getStyle('terrenus')" d="M172.16,907.19c0-.06-.48,0-.38.24C172,907.87,172.13,907.43,172.16,907.19Zm4.78-.78c-.75-.85-.47-4.61-2.61-3.92-1,.31-1.6,2-1.66,2.69-.11,1.13.39,1,.63,1.6.07.17.87-.28,1.11-.18s-.12.77.38.83A6.34,6.34,0,0,0,176.94,906.41Zm.56-1.64C177.07,904.8,177.62,904.88,177.5,904.77Zm.72-1.45c-.19-.14-.57.09-.8.09C176.48,903.41,178.92,903.81,178.22,903.32Zm4.86,34.89c-1.17-.38-.08.36-.33.56C182.68,938.83,183.61,938.38,183.08,938.21Zm7.79,10c0-.31-1.09-.14-1,.37C190.15,949.56,191,948.27,190.87,948.25ZM192,946.4a1.39,1.39,0,0,0-.4-.5C191,945.84,191.85,948.05,192,946.4Zm3.89.78c0-.64-3.44.17-2.26,1.42a6.82,6.82,0,0,0,1.71.47C195.93,948.78,195.93,947.85,195.9,947.18Zm6.08,5.91c-.73-.53-.27,0-.74-.08C201.05,953,202.45,953.42,202,953.09Zm1.73.31a5,5,0,0,1-.06-.81c-.24-.28-.8.2-.5.55C203.22,953.23,203.75,953.85,203.71,953.4Zm16.4-4.56a1.11,1.11,0,0,0-.44-.12c.11,0-.27.48-.08.51A.66.66,0,0,0,220.11,948.84Zm2.5-1.4c0-.43-.4.22-.27.23A.31.31,0,0,0,222.61,947.44Zm.13,2.06s-.14-.14-.14-.11V949c-.21-.35-1.35.45-.6.74C222.1,949.77,223.05,950,222.74,949.5Zm5-34.69c-.14-.12-.88-.54-.88,0a4.48,4.48,0,0,1,.07.68C227.11,915.83,227.78,914.85,227.74,914.81Zm-19.6,12.72c0-.15-.39-.15-.39,0S208.17,927.63,208.14,927.53Zm0,0c0-.15-.39-.15-.39,0S208.17,927.63,208.14,927.53Zm0,0c0-.15-.39-.15-.39,0S208.17,927.63,208.14,927.53Zm0,0c0-.15-.39-.15-.39,0S208.17,927.63,208.14,927.53Zm0,0c0-.15-.39-.15-.39,0S208.17,927.63,208.14,927.53Zm0,0c0-.15-.39-.15-.39,0S208.17,927.63,208.14,927.53Zm0,0c0-.15-.39-.15-.39,0S208.17,927.63,208.14,927.53Zm0,0c0-.15-.39-.15-.39,0S208.17,927.63,208.14,927.53Zm0,0c0-.15-.39-.15-.39,0S208.17,927.63,208.14,927.53Zm0,0c0-.15-.39-.15-.39,0S208.17,927.63,208.14,927.53Zm20.32-15.73a15.19,15.19,0,0,1-2.11-2.85c-.18-.73,0-1.55-.15-2.18a4.48,4.48,0,0,0-1.19-2.4c-.46-.53-1.35-1.92-1.95-2.21-.93-.44-2.17-.5-3.16-.93a6,6,0,0,0-1.79-.7c-.39-.07-2-.57-2.13-1l.15-.12c.09.35-3.07-.57-3.22-.33.21-.33-.3-.37-.66-.38-.13,0,.09.31.16.33l-.15.15c-.25-.18-1-.81-1.18-.64a2.71,2.71,0,0,1-1.48.68,10.55,10.55,0,0,1-1.89.38c-.67,0-.93-.4-1.52-.5s-.92.3-1.39.21c-.78-.15-1-1-1.85-.65-.3.11-1.3,1.49-1.38,1.2-.43,0-.12,1.06-.84.29-.1-.11.81-.64.86-.71s-1.89-1.81-2.43-1.79c-.87,0-.83.82-1.48,1.19-.38.22-1-.32-1.31-.11-1.24.8-.21,2.79-.21,3.72,0,1.59-.84,1.16-1.88,1.26s-1.85.54-3,.77c-.31.06-.23.55-.82.4a6.34,6.34,0,0,1-1.24-1.47,3.67,3.67,0,0,1,.4-1,1.07,1.07,0,0,1,.28.19c1.19-.89-.21-1.06-.48-1.47,0-.08-.78-1.1-.45-1.11l.38.14a.76.76,0,0,0-.31-.94,14.5,14.5,0,0,1-2.2.12c-.4,0-.3-.55-.8,0-.29.33.46.88.36,1.11-.47,1.08-1.89-1.06-2.3-.95-.67.2-.47,1.69-.38,2.2.25,1.39,1.28,2.34-.78,2.41-.58,0-.56-.38-1.42,0a2.92,2.92,0,0,0-1.54,1.93c-.12,1.46,1.05,1.7,1.71,2.23.47.37,1.58,1.46,1.29,2.09-.15.33-1,.09-1.4.26-1.13.47-.92,1.21-2.34.26-.61-.4-1.1-.87-1.69-1.19-.13-.07-.8-.42-.88-.43a5.22,5.22,0,0,1-.67-.27c-.4-.14-.26.5-.54.45s-.63-1.26-1.27-1.4c0,0-1.78.4-1.69.24-.92,1.75-.4,2.23.6,3.94a9.37,9.37,0,0,1,1.08,2.4c0,.51-.46.67-.43,1.1a1.81,1.81,0,0,0,.36.93c.19.29-.45.41-.42.5a.37.37,0,0,1,.18-.29c.17-.42-1,.09-1.05.16-.17.28,0,.57.05.83s.76,1.21.71.84c.14,1-.26.36.54,1.33.09.12.64.17.83.41.38.45-.24,1.82.63,1,.54-.2,0,2.66,0,2.81-.17.58-.12,1-.67,1.5s-.81.2-1.06.33c-.84.4-2.09,1-1.35,2.11.37.55,1.29.36,1.84.36-.68,0,.74,2.61.75,2.68.25,1.21-1.12,2-.86,3.35.09.45.72.57.72,1.11,0,.36-.75.51-.75,1,0,.84.12.77.57,1.23.91.92.68.56,1.58.22s.76-.66,1.74-.8c.63-.09,1.32.22,1.93.14s2.17-.56,2.53-1.18c.47-.82-.25-1.45.46-2.32s2.18-.85,3.1-.63c1.43.34,1.75.6,3.08,0,.93-.44,1.88-.59,2.49-1.35s0-2.3.21-2.48a.14.14,0,0,1,.24.13c.11.11,1.49,2.06,1.47,2,.11.38-.37,3.8-.27,3.75-.07,0-.1.39.13.27,0,0-.4,2,.16,2.05.08,0,.17-.18.31-.08-.06,0-.06.1,0,.13a.82.82,0,0,1-.38,0,1.26,1.26,0,0,0,.14.57.22.22,0,0,0,0-.13c.19-.07.33,1.56.33,1.57s1.7,1,1.19,1.06c.12-.55,2.26,0,1.6.83-.06.07.84.26,1.13.45s.85.78,1,.85c.4.16.38-.38.63-.38.45,0,1.4,1.55,1.06,1.93a1.22,1.22,0,0,1,.44.32s-.57.25-.29.38c.24-.08.9,2.7,1,3.17a2.75,2.75,0,0,0,.41,1.15c.14.2-.05.61.19.74-.19-.1,1.48-.48,1.27-.3-.64-.23,1.08-1.29,1.29-1.41.61-.33,2.5-1,2.74-2.14.66-.42,1.7,1.91,2.65.5.1-.16-.18-2.07.59-1.87.94.24-.06.63,1.22.29.58-.15,1-.89,1.58-1,1.33-.33,2.42.76,3.59-.1.57-.42-.24-1,.85-.95.47,0,.46.07.34.29-.33.6.72.33.82.29.54-.21.33-.61.55-.81,1.26-1.13.81.12,2.39.2,1,0,2.41-1.64,2.52-2.82.07-.89-.91-1.33-1.11-2s.37-1.23.31-1.77c-.12-1-1.44-2-2-2.74s-.61-.15-.76-1.13,0-.76.54-1.58c.42-.63,1.43-2.24,2.41-2.15.65.07.86.93,1.5.81.34-.07.62-.87.67-.9s-.07-2.08,0-1.89a6.86,6.86,0,0,1-.54-1.23c0-.07.5-1.64.87-1.32-.14,0-.12,0,0,0-.11.09-.28-.34-.19-.48s.61-.17.54-.08c.15-.2.26-.58.06-.76.35.31.81-.74.66-1.15s-2.08-1-1.57-1.65c-.34.43-.25,0-.37.08-.46.16.36.79.39.75s-1,.75-.94.74c-.7.24-.43-.91-.38-.83s-.88-.18-.67-.33,1,0,1.12-.07-.68-.2-.46-.75c.15-.37,1.11-.5.91-.92s-.83.11-.76-.55c0-.28.86-.55,1-.77s.6-1.94.84-1.87c-.65-.19-.21.21-.38-.4a2.93,2.93,0,0,1,.08-1.68S228.77,911.7,228.46,911.8Zm-28.65,5a6,6,0,0,1-1.16,2.24c-.55.32-2.42-.57-2.2.26a.22.22,0,0,1-.21,0c-.13.17.59.32.55.53,0-.08-.6.28-.6.28a1,1,0,0,0-.19-.41c-.22,0-.9,1.77-1.24,1.9-.88.34-1-.18-1.41-.82-.08-.12-.32.5-.22.49a.42.42,0,0,1-.27-.25c.16-.4-.74-1-1.17-1.4s-.76.49-.61-.83c0-.47.62-.41.86-1,.15-.37-.2-.92,0-1.42.51-1.46,1-.78,2-.9.45-.06,1.51-.66,1.82-.61s.37.49.65.52,0,.5,0,.55c.19.24.89,0,.81,0s.75.55.83.58c.77.27.07-.14.57-.21a.79.79,0,0,1-.22.19C198.1,916.44,200,916.29,199.81,916.78Zm6.35-1s-1.53-1.5-1.45-.94a.45.45,0,0,0,.16-.31c-.34,0-1.8.45-2,.26s1.86-.64,2-.63a2.36,2.36,0,0,1,1.21.51c-.36-.23.85.93.67.65a2.07,2.07,0,0,1,.44,1.91s.27-.56.11-.49S206.47,916.15,206.16,915.77Zm3.49,10.78c-.41-.18,0,1.06,0,1.15s-.92,1.36-.67,1.53c.06,0,.11,1.65-1,1.56-.67,0-.68-.67-.6-1.3,0-.17-.2.2-.26.12s-.44-1.21-.44-1.21a8.68,8.68,0,0,1-.08-2.7c.08-.27.56-1.16.95-1.19C208.22,924.45,208.78,926.17,209.65,926.55Zm4.84,7.26c-.37.71-1.23-.12-1.34,0C212.8,933.82,215,932.82,214.49,933.81Zm6.1,4.65a3,3,0,0,1-.32.69,5.45,5.45,0,0,1-1.68-1.39c.16-1.29,1.55.3,1.44.19C220.2,938,220.65,938.21,220.59,938.46Zm-12.5-11c-.09,0-.42,0-.3.08S208.24,927.58,208.09,927.5Zm0,0c0-.15-.39-.15-.39,0S208.17,927.63,208.14,927.53Zm0,0c0-.15-.39-.15-.39,0S208.17,927.63,208.14,927.53Z"/>
  </g>
</svg>
