<svg xmlns="http://www.w3.org/2000/svg" viewBox="0 0 1002 1002">
  <defs>
    <style>
      .cls-1 {
        fill: #21252b;
      }

      .cls-2, .cls-4 {
        fill: none;
      }

      .cls-2 {
        stroke: #333842;
        stroke-width: 2px;
      }

      .cls-2, .cls-3 {
        stroke-miterlimit: 10;
      }

      .cls-3 {
        fill: #333842;
        stroke: #abb2bf;
      }
    </style>
  </defs>
  <title>soloOrisia</title>
  <g id="bg">
    <rect class="cls-1" x="1" y="1" width="1000" height="1000"/>
  </g>
  <g id="grid">
    <g id="grid-2" data-name="grid">
      <rect class="cls-2" x="1" y="1" width="1000" height="1000"/>
      <line class="cls-2" x1="1" y1="876" x2="1001" y2="876"/>
      <line class="cls-2" x1="1" y1="751" x2="1001" y2="751"/>
      <line class="cls-2" x1="1" y1="626" x2="1001" y2="626"/>
      <line class="cls-2" x1="1" y1="501" x2="1001" y2="501"/>
      <line class="cls-2" x1="1" y1="376" x2="1001" y2="376"/>
      <line class="cls-2" x1="1" y1="251" x2="1001" y2="251"/>
      <line class="cls-2" x1="1" y1="126" x2="1001" y2="126"/>
      <line class="cls-2" x1="876" y1="1" x2="876" y2="1001"/>
      <line class="cls-2" x1="751" y1="1" x2="751" y2="1001"/>
      <line class="cls-2" x1="626" y1="1" x2="626" y2="1001"/>
      <line class="cls-2" x1="501" y1="1" x2="501" y2="1001"/>
      <line class="cls-2" x1="376" y1="1" x2="376" y2="1001"/>
      <line class="cls-2" x1="251" y1="1" x2="251" y2="1001"/>
      <line class="cls-2" x1="126" y1="1" x2="126" y2="1001"/>
    </g>
  </g>
  <g id="Layer_33" data-name="Layer 33">
    <path class="cls-3" d="M469.73,706.46c2.15-1.54,2.31-1,2.32-1.81s-.13-2.69,0-4.11-.69-1.77-1.46-2.27-1.12-.12-1.81-.54-.23-1.23-.5-2.23-2-.42-2.62-.46a5.56,5.56,0,0,1-2.61-1.62,18.45,18.45,0,0,0-3.92-2.5c-1.16-.57-.39-1.19-.08-1.69a10,10,0,0,0,.38-3c.12-1.27-.27-1.46-1.23-2a27,27,0,0,1-3.23-1.61,4.44,4.44,0,0,1-1.61-2.85c-.23-1.5-1-.19-2.27-1.54s-2-1.23-3-1.88a3.94,3.94,0,0,1-1.2-2.5,5.57,5.57,0,0,0-2.54-2.39c-1.34-.69.08-2.11-.38-3.88s-.15-2.43-.54-3.5a14.56,14.56,0,0,0-2-3.54,7.92,7.92,0,0,1-1.31-2.19c-.46-1-.15-1.39-1.42-3.39s-2-2-2.23-3-.46-1.38-1.85-2.69-.23-1.46-.23-2.69.39-1.27,1-1.58,1.23-2,1.65-2.81a10,10,0,0,0,.81-3.42,5.39,5.39,0,0,1,.19-2.08c.23-.54,1.73-.54,3-.77s.81-.84,1.2-2.15,1.61.11,3.3,0,2.89-.12,3.08-.73,1-.43,1.27-1.35-1.38-1.23-2-1.58a12,12,0,0,1-1.42-1.11,34.86,34.86,0,0,0-3.5-2.08c-2.12-1.19-2.36-2.91-3-4s.51-1.85.28-2.31-2.43-.23-3,.23-1.93,1.54-3.05,1.21-.54-.92-.57-2.21,1.08-1.89,1.23-2.41a23.26,23.26,0,0,1,1.41-2.18c.41-.71-.82-1.77-1.66-2.69s-.52-1.43-.7-2.08.59-1.12,1.52-1.82-.18-1-.41-1.74-1.05-.9-1.93-1.26-.69-.74-1.53-1a19.07,19.07,0,0,0-2.93,0,7.3,7.3,0,0,0-2.54.55c-.69.24-1.15-.55-2.38-1.24s-1.39.54-2.69.69a22.62,22.62,0,0,1-3.46.54c-1.08-.08,0-1.08,0-1.85s-1.16-1.38-1.93-1.77-1.46-1.54-2-1.15-1.15,2.23-2.54,2.31.16-1.7.16-2.47-.93-1.46-1.69-1.84a2,2,0,0,1-.85-2.23c.15-1,1.61-1.93,1.61-2.54a18.65,18.65,0,0,1,1.54-3.62c.46-1-.61-2.07-2.07-3.3s-1.77-1.54-1.93-2.47.85-1.76,1.16-2.3,1.46-2,1.84-2.62-.69-2.54-1.15-3.77-2.54-.23-3.46-.48-.62.33-1.54-.9-1.62.54-3.44.84-1-.84-.87-1.3a12.53,12.53,0,0,0,.85-4.08,22.61,22.61,0,0,1,0-3.31c0-.77-1.77-2.69-3.15-3.61s-.85-.93-1.62-2.08,1-.92,1.46-1.69-.15-2.16-1.15-3.46-1.08.84-2.62.3-.23-1.46-.77-2.84-1.84-1.46-3.08-1.93a8.58,8.58,0,0,0-4.61-.15c-1.31.38-3.54-1-6.39-2.38s-4.38.92-5.92,1.38-2.54-1.31-2.54-2.15a6.81,6.81,0,0,0-1.3-3.31c-.77-1.08-2.24.31-3.39.54s-1.54,1.23-2.08,3.07-1.53,2.77-2.53,2.54-1.62-1.54-2.54-2.54-2.46-.46-3.46-1a15.67,15.67,0,0,1-2.85-2.07c-.77-.7-2.46,1-3.92.77s-2.54.53-3.85.92-2.08,2-2.85,3.15a2.85,2.85,0,0,1-3.61,1.39,4.64,4.64,0,0,0-3.31,0c-.85.15-1.31,1.23-2.69,1.15s-.39-.54-1.85-.84-4.69.23-6.15-.16-1.16,0-1.16,1.31-.3,1.46-.92,3.23-.69,1.62-1.69,2.23-1.62.85-2.23,1.23-.92,1.69-1.77,2.23-3.15,1.54-4.54,1-2.92.16-4.15.77-2,1.69-3.39,1.62-1.23.23-2.23,1.77-7,2.61-7.77,2.61-1,.92-1.54,2.16-1.46.76-2.77.71-2.23-.56-3.92-.79-2.84.61-3.61.77a5.18,5.18,0,0,1-3.47-1.31c-.61-.77-2.92-1.23-3.92-1.69s-2.15.61-3.15.69-1.23-1.31-1.23-1.92-1.08-1.77-1.85-3.16-1.77-1.07-2.46-1.61-3,.46-4.69,1.71-1.46-.17-2.46-1-1,.46-1.7.69-4.15.62-5.69,0,.08-2.54,0-3.84a4.43,4.43,0,0,0-1.61-2.77c-.7-.77-.62-1.85-.62-3.62s-1.92-1.77-2.46-2.08-1.23.39-2.16,0-.76-2.07-1.15-3.07-1.85-1.46-2.46-3.69-1.54.23-2.85,0a32.25,32.25,0,0,1-4.23-1c-.92-.36-.31-1.42-.46-2.57s-1.44-2.13-2.56-2.74-2.46,1-3.14,1.84a19.52,19.52,0,0,1-4.66,3.08c-1.64.82-2.25.1-4.1,0s-1.85-.82-1.85-1.54a16.44,16.44,0,0,0,.21-3.49c-.21-1.43-.82-1.43,1.84-3.28s3.08-.1,3.9-1.43,1.23-2.77,1.95-4.11a44.5,44.5,0,0,1,2-4.1c1.23-2.05.92-2.26-.62-3.9s-1.64-1.23-2.05-3.07-.41-4-.61-4.82-1.64-2.26-2.05-3.39-4-2.56-6.14-2.77-1.56-1.13-1.56-2.77a7.63,7.63,0,0,1,.82-3.18,9.87,9.87,0,0,0,.72-3.79,3.57,3.57,0,0,0-1.74-2.87,12.68,12.68,0,0,1-2.77-2.26,6,6,0,0,0-3.39-2.46c-2.15-.72-1.74-.41-3.17-1.44s.1-1.84.51-3.59,1-1.43,1.54-1.95,1.12-2.66,1.64-3.79,1.74-1.64,3.07-2.56.31-3.08,0-4.72-1.43-1.23-2.15-2.67a8.19,8.19,0,0,0-3-3c-1-.72-3.29-2.16-3.08-3.18s1.33-1.95,1-2.67-.71-1-1.84-1.6-2.36.57-3.08,0-2.36-.35-3.79,0-2.36-1-2-1.85-1.85-1.54-2.26-2.15-2.46-.1-3.49,0-1.53-1.74-1.53-2.26-.82-1.23-1.13-1.84.2-1.75,0-2.88-1.54-3-2.43-4.2-1.26-1.44-.65-2.87-1.43-1.23-3.11-2.05-.68-3.18,0-4.93.14-1,2-1.64.52-1.84,1.34-3.48.3-2.06,0-3.8a11.1,11.1,0,0,1,0-3.38,9.76,9.76,0,0,0-2.26-4.11,3,3,0,0,1-.92-3.38c.2-1.13-3.9-3.49-3.9-3.49-.61-.36-1,.31-1.49.57s-.2.87,0,1.38-1.07,1.54-1.43,2.51-1.29,1.08-2.11,2-2,.52-3.12.67a12.56,12.56,0,0,0-4.06,1.33,40.14,40.14,0,0,1-2.77,3c-1.07.82-1.12,2.1-1.28,3.79s1.85,2.93,1.08,3.9-1.64,2.67-2.51,3.08-1.54,2.05-2.46,4.25-1.39,3-1.85,4.05a4.92,4.92,0,0,0-.41,3.08c.15,1.49.67,1.8.46,3.54s-1.18.87-2.2,2.05-.47,4.26-.26,5,2.31,2.05,3.59,2.51.2,2.15.2,2.82-.66,1.44-1.43,2.21,0,2.05.05,3.94-.87.57-2.62,1.34-.41,3.07-1.53,4.1-.57,2.41-.67,3.85-.16,4-.26,4.51-.82,1.54-1,2.15,1.13,1.44,1.33,2.21-1.13.61-2,.82-1.69,1.95-2.77,2.41a11.77,11.77,0,0,0-3.28,2.51,2.56,2.56,0,0,1-2.46.82c-.92-.05-2.36.72-3.38.82s-1.49,1.49-2.06,2.16a6.5,6.5,0,0,1-3.28,1.33c-1.18.2-3.23,1.69-3.9,1.69a23.34,23.34,0,0,0-2.66.46c-.93.16-.57,2.21-1.18,2.88s-.67,1.43-1.23,2.92-1.13,1-1.9,1.18-.82,1.28-1.08,2.2-.3,2.87-.61,3.7-1.64,1.33-2.36,1.58-.62.62-.72,1.59.26,1.44-.51,2.88-.62,1.74-1.9,2.61-.72,2.72-1.74,3.23-1.13,1.18-1.64,1.69a5.4,5.4,0,0,0-1.34,2.77,12.82,12.82,0,0,1-.56,3.59c-.62,1.64-2.87.93-3.75,1.23s-1.48.41-2.3.77-3.54,5.18-4.11,5.44-1,1.28-1.38,3.28.15,2.82-.21,3.8a6.06,6.06,0,0,0-.51,1.89,6.89,6.89,0,0,0,0,3c.16.56,2.57,2.51,2.82,3.33s-.25,1.28-.66,2.51,1.07.77,1.48,1.18,2.47,3.9,2.82,4.31-.3,1.08-.82,2a10.57,10.57,0,0,1-2.1,2.26c-.92.92-1.38,1.54-2.41,1.54s-.56.15-1.28,1.18-.1,7.23,0,8.15.72,1.59.92,2.92,1.13,1.13,2.31,1.49,1.49,1.44,2.1,2.26,0,.77-.77,2.36.67,1,1.44,1.74a9.06,9.06,0,0,0,2.51,1.44c.87.41,2.87-.83,3.49-1.13a5.42,5.42,0,0,1,2.2-.08c1,.15.16,1.42-.07,2.31s.92,2.07,1.5,3.34,1.81,1.81,2.31,2.93,1.3,1,1,2.19-.31,1.27-1,1.61-.43,2.47-.27,4.12-.89,2.08-1,3.15,1.34.7,1.81,1.08a3.36,3.36,0,0,1,.8,1.92c.12.7-.42.85-1.23.73a1.15,1.15,0,0,0-1.42,1.12,30.12,30.12,0,0,1-.31,4.35c-.31,1.07-.08,1.57-1,2.84s-2.65,1.16-3.5,2.16-.11,2.19-.5,3.15a1.6,1.6,0,0,0,.58,2.15c.73.47,3.54.62,4.58,1.08s2-.92,3.57-1.35,1.62,1.16,2.16,1.93a5.62,5.62,0,0,1,.53,3.07c0,.93-.61,1.27-1.19,1.66s.77,1.38,1.43,2.08.69,1.19,1.73,2.53,2.73,1,4.07,1.58a4.46,4.46,0,0,0,2.81.23,3.66,3.66,0,0,1,2,.16c.81.26.54,1.42.11,2.07s-2.26.81-2.65,2.27.46,2.27.46,2.85,1.62,2.34,2.85,3.54a8.93,8.93,0,0,0,4.77,2c1.31.11,3.69,1.3,4.31,1.46s3.15-.69,3.71-.69,1-.77.21-2.24,1.15-1.26,1.84-1.53a10.16,10.16,0,0,0,1.81-1.16,3.32,3.32,0,0,1,2.66.35c1,.54,1.77,1.5,2.65,2.08a10.61,10.61,0,0,1,2.08,2c.42.5,2.8,1.54,4.11,2.58s1.69.81,2,2.31-.23,1.46-.73,2.08a4.17,4.17,0,0,0-1,2.15c-.38,1.42-.46,3.46-1,4s1,1.46,1.12,2,.07,1.15,1.57,1.73,2.77-.08,4,0,1.26.77,1.46,1.81,1.61,1.5,2.23,1.88a28.36,28.36,0,0,1,3.31,2.39c1.23,1.08,1.88,2,1.76,3.23s.89,1.23,1.74,2.81,1.34,1.38,1.92,2,3.23,2.73,3.92,3.26-.73,1.24-1.34,1.66-.7,1.54-.85,2.54.46,1.92.35,2.8.69,1.35,1.42,1.85,1,.77,1,2.12,1.15,1.8,1.46,2.11,1.42.62,2.35,1.16.92,2.07,1.11,3.3,1.39,1.35,2.31,1.89,2.65-.08,3.58,0a7.2,7.2,0,0,1,3.42.92c.92.66,3.23.43,5,.73s1.46-.88,2-1.3.85-.43,1.31.15-.31,1.85-.35,2.85,1.42,1.8,1.58,2.92,1.57,1.34,2.61,1.92a4.35,4.35,0,0,1,1.62,3.39c0,1,.42,1.3.84,1.92s1.77.42,3.66.65a8.56,8.56,0,0,1,3.19,1.2c.85.3,1.46.38,2.35.73s.88.65,1.34,1.27.31,1.61.39,2.3,1.38,2,2.11,3,.12,1.54-.23,1.85a2.15,2.15,0,0,0-.42,1.61c0,.62,1.08,1,2,2s.65,1,2.12,1.08,1.19-1,1.65-1.08,1.85.39,2.31-.34.84-2,1.27-2.66,1.65-.88,2.34-1,.54-1.77.81-2.65a6,6,0,0,1,1.19-2.08c.31-.31,2.2-.23,3.5-.15s1.58-.73,1.89-1.23,1.31-.85,1.65-1.19,1.27,1.15,1.5,1.88,1.58.38,3,.85,3-.27,4.81.11,1.81-.58,2.77-1,.23-1.88.5-2.34,1.92,0,2.73,0a18.85,18.85,0,0,0,3.11-.39c.62-.15,1.85,0,3.7-.27s1.61.66,2.54,1.39a2.09,2.09,0,0,1,1,1.88,4.72,4.72,0,0,0,1.34,2.15c.62.74,1.93-.07,2.66-.57s1.42.15,2.61,0,4.31,2.34,5,2.73a20.66,20.66,0,0,0,2,1,10.26,10.26,0,0,0,3.23.46c1.69.11.81.27,1.35.88s1.5,0,2.46-.08-.12-1.61,0-2.07,2.85-.73,3.46-1.19,1.73-.39,2.46-.74,1.62.39,2.08.85,3.15.58,4.77.77,3.54-.19,4-1a5.38,5.38,0,0,1,1.77-1.54c.5-.35,2.42,0,3.46-.08a21.59,21.59,0,0,0,3.35-.73c.73-.23,1.15,1.46,1,2.39s.53,1.23,1.46,2.3a10.94,10.94,0,0,0,2.5,1.93c.65.5,3.46-.81,5.27-1.08s4.46.58,4.69,0,2.46-1.19,3-1.88.73-2.08,1.3-2.85,2.35-.88,3.08-1.77,1.89-2.46,2.31-3,2-1.35,3.08-2.27,1-.81.73-1.58a5.29,5.29,0,0,0-2.23-2.3c-1.27-.89.42-1.93.61-3.16s2-.88,3.23-1.42a2.13,2.13,0,0,0,1.23-2.16c.08-.69,1.77-2,2.46-2.42s2.81-1.58,3.93-2.34,1.65-.5,2.92-1.81,3.15-1.08,4.58-1.69a2.78,2.78,0,0,0,1.46-2.66,1.75,1.75,0,0,0-1-1.73c-.73-.38-.73-1.35-.93-2.35s1.08-1,1.62-2.23a7.1,7.1,0,0,1,2.69-2.84c1.16-.81,1.66-1.23,1.89-2a10.23,10.23,0,0,0,.07-3.58c-.15-1.65,1.81-1.65,3.23-2.81a26.89,26.89,0,0,0,2.77-2.46c.85-.84,2.5-.61,4-.46s2-.12,2.62-.88a22.67,22.67,0,0,0,1.88-3.12c.19-.38,1,.77,1.46,1.88s2.23.35,3.39.5a1.76,1.76,0,0,0,2-.92,3.72,3.72,0,0,1,2.42-1.34,4.88,4.88,0,0,0,2.54-.62c.38-.42,1.81.35,2.65.23s1.85,1.12,2.54,1.73,1.23,2.58,1.46,3.23,1.77.81,2.77.93a23.93,23.93,0,0,0,3.16-.2,17.65,17.65,0,0,1,2.77.23c.73.08,1,.58,2.07.89s1.31-.42,1.93-.81a4.36,4.36,0,0,1,2.3-.11,11.62,11.62,0,0,1,3.08,1.76c1.15.85.35,1.89.23,2.31a2,2,0,0,1-1.31,1.43c-.92.34-.77.57-1,1.15s1.15,1.81,1.92,2.65,1.54,1.2,2.15,1.81a6.49,6.49,0,0,0,2.39,1.19,1.58,1.58,0,0,1,1,1.5c0,.73.34,1,.65,2.08a5.18,5.18,0,0,0,.81,1.58c.23.5.92.92,2.73,1.5s1.85.19,2.27-.08,1.27,0,2.08-.19a4.89,4.89,0,0,1,2.57-.08c.77.27.39,1.08-.19,1.27s.12,1.08.31,2.54,2.08,1.34,2.15,2,1.2,1.34,2,2.11-.15,1-.73,1.19-.5,1.12-1.42,1.93a2.08,2.08,0,0,0-.81,2.11c0,.89,2,1.73,3.16,2.16a8.06,8.06,0,0,0,3.15.23,4.35,4.35,0,0,1,2.73.84c1,.66,1.62.27,2.46.12a7.55,7.55,0,0,1,2.81.15c.61.2,1.5,2.27,2,2.73s2.19-.69,2.46-1a6.37,6.37,0,0,1,2.16-1.19c1-.34,3.5,1.19,4.42,1.35s1.73,0,1.81-.39a9,9,0,0,1,1.3-1.84c.47-.58.27.19,1.31.73s-.15.81-1,1.38-.07,1.43.62,1.58.84.27,1.38,2.08,1.81,1.11,2.89,1.15,1.84-.12,3.61,0,.69-2.62.66-3.73-1-1.39-1.58-2-1.65-1.08-2.46-1.89-.19-1,.54-1.27,1.5-3,.77-3.07-.77-.85-.85-1.81S467.58,708,469.73,706.46Zm-111.88-94c-.81.58-.62.73-1.73,1.46s-1.81,1.5-1.66,1.81-.54.85-1.08,1.19a1.39,1.39,0,0,0-.84,1.58,7.88,7.88,0,0,1-.89,3.23c-.27.54-.69.77.47,1.46s2.38,1,2.88,1.85,1.5,1.38,1,1.92-2.23,1-2.46.43-.27-.5-1.16-.73a2.38,2.38,0,0,0-1.8.34,2,2,0,0,1-2.24.19c-1.3-.61-1.42-1.23-1.46-1.69s.08-.81-1.07-1.11-1.58-1.54-2.27-1-.62,1.23-1.43,1a4.83,4.83,0,0,1-1.8-1.16,1.62,1.62,0,0,0-2,.16c-.54.38-.39.77-1.31,1.23s-2,.88-2.62.46-2.26-.69-1.23-1.12,2-.92,1.27-1.8a8.89,8.89,0,0,0-2-1.62c-.57-.42-1.79-1.22-.54-2.31a7.49,7.49,0,0,0,1.77-1.73c.47-.73,1-1.27.73-2s-.5-1.31-.84-2.11-.81-1.58.15-1.89,2.35-.23,2.77-1.15.69-1.19,1.39-1,2.07,1.23,2.88,1.15,1.27-.54,2.12-.54a2.65,2.65,0,0,1,1.92.85,4.34,4.34,0,0,0,1.5,1.27,5.79,5.79,0,0,0,2,.07c.88,0,2.07.35,2.84-.27a9.9,9.9,0,0,1,2.23-1.38c.85-.38,1.35-.65,2-.35a10.35,10.35,0,0,1,2.85,1.77A1,1,0,0,1,357.85,612.42Z" transform="translate(1 1)"/>
    <path class="cls-3" d="M902.9,224.85c.13-.77-.13-1.12,0-2s-.38-.76-.53-1.53-.54-.81-.93-1.35a3.4,3.4,0,0,0-1.07-1.12c-.43-.23-.62-.92-.81-1.34s-.62-.77-1.66-1.27-1-.08-2.07-.85-.35-.88-.73-1.11-1-.62-1.46-.85-.12-.77,0-1.5-.38-.77-.53-1.34a4.92,4.92,0,0,1,0-1.54c0-.39.5-.43.57-.77a5.21,5.21,0,0,1,.43-1.54c.26-.42.73-.77.65-1.19s0-.85,0-1.5,0-1.27,0-2.27-.31-.85-.46-1.12.07-1-.39-1.57-1.07-1-1.42-1.43a9.12,9.12,0,0,1-.88-1.54c-.43-.77-.77-.53-1.24-.69a3.67,3.67,0,0,1-1.46-.5c-.57-.42-1.23-.19-1.73-.27s-1,.27-1.54.27-.34-.69-1.15-1.34-.58-.66-.58-1.16.12-.38.46-.61a1.48,1.48,0,0,0,.74-1.12,10.39,10.39,0,0,0,0-1.85,1.41,1.41,0,0,0-.74-1.34c-.5-.27-.25-1.26-.51-2.13s-.77-.72-1.69-.76a12.53,12.53,0,0,0-1.95,0,4.67,4.67,0,0,1-2-.51,3.81,3.81,0,0,1-.46-1.34c-.15-.71-.1-.92-.59-1.28s-.18-.92,0-1.33-.46-1.28-.87-1.59-.56-.77-1.28-1.44.72-1.07.77-1.38.41-.62.56-1.23.36-.62.47-1a12.19,12.19,0,0,0,0-1.84c0-.76-.57-.82-.47-1.44s.41-.82.46-1.33-.76-.72-1.43-1.23-.72-.57-1.39-1a4.27,4.27,0,0,1-1.28-1.38c-.51-.72.62-.31.82-1.08s-.15-.77-.56-1.49.26-1.33,0-2.41-.57-.25-1.33-.3-.93.1-1.49-.21a5.12,5.12,0,0,1-1.39-1.13,5.08,5.08,0,0,0-1.74-1.48,2.23,2.23,0,0,1-1.54-1.54c-.2-.77-.72-.52-1.38-.57s-1.23,1.23-1.85,1.64-.92.93-1.44,1.29-.46,1.38-.61,2.3.26,1.39,0,1.9-1.13.46-2,.46-1,.05-1.74.05-.72.82-1.18,1.13-1.49-.1-2.57,0-.92.87-1.38,1.39-1.18.15-2.46.2-1.08.67-1.64.92a2.38,2.38,0,0,1-2.06.11c-.72-.36,0-.87-.15-2s.41-1.49,0-2.26-.62-1.18-.87-1.74a4.35,4.35,0,0,0-2-1.64c-.62-.21-.82.77-1.44,1s-1.23.36-2,.62-1.07.87-2.2.25-1.49-.25-2.31-.1-1.43.36-1.68.21a2,2,0,0,1-.16-1.85,4.74,4.74,0,0,0-1.23-4.49c-.83-.95-1,1-1.54,1.21s-1.54.1-2.36.36-.82.51-1.69.41-1.8-.05-3.13-.26-2.11.1-3.23-.1-.82.36-1.29.61-.66.72-1.59,1.29,0,1.28,0,2.1a2.18,2.18,0,0,1-.51,1.49,4.74,4.74,0,0,1-1.08,1.17,9.41,9.41,0,0,1-1.69,1.59c-.66.36-.25,1-.92,1.85s-.46,1-1.26,1.59-.18,2.67,0,3.44-.67.46-1.34,0-.35-1-.56-1.33a7.76,7.76,0,0,1-1.38-1.9,2,2,0,0,0-.93-1.29c-.51-.36-.87-.25-1.54-.77a16.41,16.41,0,0,0-1.48-1.12c-.72-.47-.93-.16-1.44-.16a3.32,3.32,0,0,1-1.49-.36c-.56-.25-1.28-.1-1.89-.46s-.57-.15-1.18-.1-1.13.2-1.8.2a4.39,4.39,0,0,0-1.59.36c-.41.16-.92.67-1.49,1A3,3,0,0,1,791,166a3.86,3.86,0,0,0-2,.76,14.73,14.73,0,0,1-1.54,1.08c-.67.31-1.13,0-1.84-.15a9.42,9.42,0,0,0-2.41.15c-.77,0-.93-.31-1.18-.31s-.77.52-1.24.52-.76.61-1.12,1-.41.31-1.23.67-1,0-2.16,0h-1.79a3,3,0,0,1-1.8-.31c-.56-.36-.77-.82-1.28-1s-1.28-.26-1.69-.41a1.85,1.85,0,0,1-1.08-1.13c-.26-.67-.77-.67-1.28-1.13a3.66,3.66,0,0,1-.87-1.23c-.36-.62.1-.92,0-1.75s0-.56-.67-.92-.67,0-1.38-.46-.88-.67-1.34-.77a2,2,0,0,1-1.38-.77c-.51-.61-.51-.66-.87-1.08a8.46,8.46,0,0,0-1.64-1.07,3.56,3.56,0,0,1-1.34-1.36c-.25-.55-1,0-2.1,0s-1.28,0-1.9,0a1.5,1.5,0,0,1-1.43-.71c-.47-.67-1.08.1-2,0s-.49-.16-.9-.67-.59-.67-.54-1.18.36-.56.46-1a3.14,3.14,0,0,0,0-1.43c-.1-.52-.3-.62-1.07-1s-.47-.36-.67-.82-1-.25-1.71-.46-.29-.41-.08-1-.06-.62,0-1.18-.25-.62-.76-.77-.72-.67-1.08-1.34-.77-.46-1.34-.75-1,0-1.38,0a11.28,11.28,0,0,0-1.79,0,1.7,1.7,0,0,1-1.44-.41c-.51-.35-.72-.66-1.18-.82s0-.66,0-1.33-.31-.82-.46-1.18a3.51,3.51,0,0,0-.77-1c-.26-.26-.82,0-1.44,0s-1-.52-1.28-.79-1.23-.14-1.79,0-1.23-.85-1.85-1.11-.72.41-1.33.55a5.65,5.65,0,0,1-2.05,0c-.57-.1-.57.31-1.39,1.29s-1,0-1.79,0-1.44.06-3,0c-1-.05-.92.1-1.69-.21a11.41,11.41,0,0,0-2.46-.56c-1.13-.21-.82.92-1.34,1.43a5.93,5.93,0,0,1-1.69,1.08,5.8,5.8,0,0,1-1.49.77c-.77.2-.41.61.26.72s.46,1.28.56,1.84-.46.62-1.12,1-.16.46-1,.87-1.28.1-1.9,0-.41.77-.66,1.74-1.08,1.85-1.64,1.85a2.89,2.89,0,0,1-2-.87c-.72-.67-1.18-1.13-1.8-1.13s-.77.41-1.18,1-1.13.67-1.64.93a4.71,4.71,0,0,0-1.33,1.64,5.25,5.25,0,0,1-1.44,1.33,13.56,13.56,0,0,0-1.79,1.59c-.41.46-.77.41-1.44.46a1,1,0,0,1-1.08-.41,9.46,9.46,0,0,1-1-1.64c-.41-.72-1-.61-1.64-.72s-1.18.57-1.8,1.13a4.78,4.78,0,0,1-1.69,1.13c-.67.26-1.08,1.18-1.49,1.49a2.42,2.42,0,0,0-1.18,1.79,2.93,2.93,0,0,1-1.12,2,4.48,4.48,0,0,0-1.13,1.9c-.16.56-.11,1.08-.72,1.59a2.09,2.09,0,0,0-.72,1.64,1.37,1.37,0,0,0,1.08,1.13c.51,0,.87.72,1.59.87s.82.41,1.74.87.62.82.87,1.18,1.23.26,1.7.26.82-.21,1.48-.77,1.39.56,1.08.92,0,1.54-.1,2.41-.93.77-1,1.23a19.35,19.35,0,0,1-.1,2.36c-.21.57-.36.31-.87.87s.77,1.08,1.18,1.59a4.75,4.75,0,0,1,.61,1.34c.16.31,1.39.56,2.1.61s.88-.46,1.29-1.23,1.59-.05,1.84-.1a13.2,13.2,0,0,1,1.59-.26c.36,0,.67,1,.72,1.39s1.23.72,1.59,1.13,1.18.3,1.8.35.76,1.75,1,2.11a6.52,6.52,0,0,0,.87,1.69c.62.77.72.15,1.18.31a8.35,8.35,0,0,0,2,.46c.57,0,.72-.31,1.18-.62s.77-1.38,1.44-1.38.46,1.13.46,1.54a3.58,3.58,0,0,1-.41,1.74,15,15,0,0,0-.67,2c-.2.41-.51,1-.92,1.69a2.93,2.93,0,0,0-.05,2.1c.1.47.71.93.82,1.39a7.91,7.91,0,0,1-.21,2.36,2.59,2.59,0,0,0,.41,2,1.62,1.62,0,0,0,1.49,1c.56.05,1.18-.46,1.69-.36s.26,1-.36,1.23-.51.93-.25,1.59,1,.82,1.23,1.08,1,0,1.23-.15a3.19,3.19,0,0,1,1.54-.31c.46.1.77.67,1.33,1s.26,1-.41,1-1,.67-1.33.72a1.92,1.92,0,0,1-1.34-.82c-.25-.41-.61-.57-1.38-.57s-.62.82-1,1a5.77,5.77,0,0,1-1.43.1c-.62,0-.67.46-1,1.33s.57,1.18.62,1.49a13.71,13.71,0,0,1,.2,1.85,1.23,1.23,0,0,1-.82,1.18c-.46.2-.61,2.2-.61,3s.15,1.23.15,1.74.05,1.18,0,2.16-.41.92-.87,1.13.31,1.38.56,1.84,1,.82,1.24,1.44,0,1.18.2,1.54a3,3,0,0,0,1.54,1.07c.61.21.72-.51,1.38-1.12s.93-.06,1,.15a8.37,8.37,0,0,1,.46,1.74c0,.52-.46.62-.82.93s-.41,1-1,1.18-.51.61-1.07,1.07,1,1.54,1.48,1.8a5.89,5.89,0,0,0,2.47.61c1,0,.82-.51,1.12-.66s1.08-.31,1.49-.52.77-.15,1.59.31.51,1.18.67,1.74a19.81,19.81,0,0,1,.87,2c.15.77-.05.82-.51,1.8s.51,1,1.48,1.69,1.18,0,1.7-.05.71-.05,1.66.26a13.85,13.85,0,0,1,1.93.92c.82.36,1.33-.62,2.2-.56s2.67.3,3.28.41a6.09,6.09,0,0,1,1.54.71,4.56,4.56,0,0,1,1.9,1.85,2.51,2.51,0,0,0,2,1.28,4.07,4.07,0,0,0,1.49.16c.3,0,.36,1.59,1.28,2.41s1-.31,1.49-.47.92.77,1,1.18-.51,1-.82,1.7-1.18,1.12-1.69,1.53-1.18.72-1.59,1.08,0,1,0,1.95a1.79,1.79,0,0,1-.57,1.44c-.2.3-.66,1.28-1.12,1.89s.46,1.08.56,1.44.62,1.64.72,2.1a2.76,2.76,0,0,0,.72,1.34,10.21,10.21,0,0,0,3,.56c1,0,.82.61.82.92a12.13,12.13,0,0,0,.46,1.44c0,.25.16.31,1.18,1.23s.77.77,1.08,1-.31.77-.46,1.08a4.54,4.54,0,0,0-.26,1.85c0,.92.57.51.77.87s-.46.87-.67,1.33a16.07,16.07,0,0,1-.87,1.64c-.36.62-1.84.16-2.51.06a14.52,14.52,0,0,1-1.74-.26c-.47-.15-.67-.46-1-.92s-.92-.67-1.74-1.13-.72-.93-.93-1.64-.82-.93-1.23-1.44-1.43-.61-1.89-1.18-.93-.56-1.8-.82-1.49.21-2,.26-.66,1.07-1.28,1.43-.92.87-1.79,1.39-.26,1.48,0,2a4.71,4.71,0,0,1,.41,1.54c0,.25-.47.82-.72,1.07s-.21,1.44-.51,1.75,0,1.07.15,1.69,1.59.92,2.67,1.85-.41.2-1.39.2a7.47,7.47,0,0,1-2.13-.15c-.89-.21-2.79-.36-3.3.15s-1,0-1.75-.2a12.53,12.53,0,0,0-2.15-.62c-.87-.15-1.23.92-2,.87s-2.51-.15-2.87-.2a2.66,2.66,0,0,1-1.44-.62c-.67-.51-1-.1-1.74-.26s-.82.62-1.13.83a6.65,6.65,0,0,1-1.85.35.9.9,0,0,1-1.07-.66c0-.26.15-.36.66-1.13s-.51-1-1.18-1.39a9.62,9.62,0,0,1-1.28-.76c-.51-.36-.61-.16-1.28.05a1,1,0,0,1-1.13-.88c.1-.25.57-.61.82-.92s0-.92-.2-1.23a3.65,3.65,0,0,0-2.46-.61c-1.24,0-1.24-.06-1.49-.47s-1-.05-2-.35a2.84,2.84,0,0,0-2.26.51c-.41.2-.2,1.13-.31,1.84s-1,.31-1.84.72a15.61,15.61,0,0,1-1.59.82,3.37,3.37,0,0,0-1.23,2c-.16.72.46,1,1.13,1.44s.05.56-.57,1.08-1-.47-2.51-.47-1.08.36-1.54.26a4.1,4.1,0,0,1-1.85-.72,3.63,3.63,0,0,0-1.18-.82,6,6,0,0,0-2.15-.05c-.72,0-1.08.56-2,1.08s-1.38-.21-2-.46a6.85,6.85,0,0,1-1.38-1.23,7.22,7.22,0,0,0-1.59-1.39c-.62-.26-.72-.87-.82-1.44s-.62-1-1.59-1.33-1.34.21-1.8.1-1.13-.77-1.33-.87-2.67,0-3.54-.31a7.2,7.2,0,0,1-1.59-.56c-.51-.26-1.49.51-1.92.23a1.94,1.94,0,0,0-1.34-.26,1.49,1.49,0,0,1-1.15.54,1.93,1.93,0,0,0-1.13.18,4.71,4.71,0,0,1-2.05.21c-.95-.08-.15-.77-.1-1s.51-.59.82-.84.15-.7.2-1.21a5.31,5.31,0,0,0-.12-1.64,1.58,1.58,0,0,0-.75-1.15,1.41,1.41,0,0,1-.38-1.23c0-.29.31-.62.46-.82a2.24,2.24,0,0,0,.13-1.44,7.42,7.42,0,0,0-.54-1.23c-.13-.36-.51-.44-.77-.72s.23-.59.23-1-.44-.54-.74-.85-.13-.72-.23-1.05a4.27,4.27,0,0,1-.16-1.13c0-.28.44-.46.57-.61s.74-.57.92-.82-.62-.44-1.05-.72-1.49.13-1.95,0-.56-.44-.64-.77a3.78,3.78,0,0,1,0-1c0-.33,0-.72,0-1s-.49-.67-.77-.93,0-.64.05-1-.49-.36-.92-.46-1.08.18-1.21.1a9.17,9.17,0,0,0-2.13,0c-1.41,0-1.38,0-1.76-.23s-.34-.67-.59-1-.47-.25-.8-.61-.38-.59-.87-.7-1.41.16-2,0-.46.83-.57.88-.79,0-.66-.39-.64-.25-1.23-.38a9.28,9.28,0,0,1-1.49-.64c-.33-.13-.38.59-1,.64s-.93.54-1.18.72a9.36,9.36,0,0,1-1.21.82c-.41.18-.79-.34-1.08-.59a3.18,3.18,0,0,0-1.25-.65c-.54-.15-.93.11-1.34,0s-.56-.31-.92-.82-.59-.18-.84-.51a2.78,2.78,0,0,0-1.34-.62c-.43-.13-1,.23-1.23.44s-.49.48-.72.33-.25-.38-.64-.41a7.3,7.3,0,0,1-1.61-.41,4.25,4.25,0,0,1-1.26-.95c-.33-.38-.87,0-1.31.13s-.59.49-.92.64a2.78,2.78,0,0,1-1.15.21,5.22,5.22,0,0,1-1.65-.31c-.69-.23-1.12.31-1.74.38s-.61-.18-1-.36-.54.34-.9.8a3.74,3.74,0,0,0-.61,1.2c-.11.31-.44,1.08-.72,1.77s-.31.29-.82.23-.57,1.11-.67,1.44a10.74,10.74,0,0,1-1,1.67,8.45,8.45,0,0,0,0,2.12c0,.44.51.42.89.16s2.85.13,3.52.28.43.54.53,1.28,0,.9.06,1.46.87.49,1.23.72,1.64-.15,1.87-.15,1.59.43,2.15.43-.07.72-.51.93-.46.43-.85.69-.74.54-.77.79,1.16.18,1.36.39a2.94,2.94,0,0,0,1.08.49,17.78,17.78,0,0,0,1.85.25,12,12,0,0,1,1.84.05c.64.16-.15,1.11-.25,1.47a9.92,9.92,0,0,0-.11,1.46c-.07.84,0,.79-.1,1.36s-.64.66-1.9.74a8.59,8.59,0,0,1-1.51,0c-.61,0-.64.23-.74.64a23.14,23.14,0,0,0-.11,2.46,3.07,3.07,0,0,1-.79,2.13c-.51.74.2.69.56,1.36a7.54,7.54,0,0,0,.82,1.38c.31.36,1.11.52,2,1s.49.49,1,.92a1.47,1.47,0,0,1,.69,1.05,5,5,0,0,0,.81,1.5c.5.75,1,.5,1.83.79a5,5,0,0,0,1.44.36,4.12,4.12,0,0,0,1.5-.23,1,1,0,0,1,1.15.4c.2.24,1,.12,1.46.2s1.16.19,1.62.3,1.08-.34,1.54-.61a7,7,0,0,1,2.11-.42c1-.16,1.23.27,2,.27s.46.3.88,1.07a5,5,0,0,1,.77,1.58,9.63,9.63,0,0,1,0,1.42c0,.62.19.66.5,1.35s1,.54,1.42.77.73.65,1.62,1.15,1,.16,1.19.19a6.3,6.3,0,0,1,1.69,1.58c.31.5-.11,1.27-.38,1.65a8.75,8.75,0,0,0-.54.93c-.16.27.19,1.07.19,1.54s0,.65,0,1.77a7,7,0,0,0,.12,2.57c.23.39.34.35,1.27.89a3.84,3.84,0,0,1,1.3.92c.66.62.2,1.35.39,1.85s.84,1.46,1,1.88.73.81,1.11,1.08a5,5,0,0,0,1.39.54,1.67,1.67,0,0,1,1.19,1.15,3.8,3.8,0,0,0,1,1.85,8.78,8.78,0,0,1,1.46,2.07c.5.89,1.08,1.58,1.58,2.31s.61.58,1.15,1.19,1,.93,1.43,1.5a19.39,19.39,0,0,1,1.19,2,4.15,4.15,0,0,0,1.38,1.27c.43.35.43.85.35,1.46s-.65,1-1,1.35a10.07,10.07,0,0,0-.88,1.46c-.35.5,0,1.08.19,1.58a1.2,1.2,0,0,1,0,1.42c-.39.73-.23,1.77-.42,2.38s.07.5.34,1.2.73.07,1.31.42a8.14,8.14,0,0,1,1.5,1.12c.5.46.19.8-.31,1s-.65.81-.77,1.43a5,5,0,0,1-.84,1.77,15.93,15.93,0,0,1-1.12,1.42,8.46,8.46,0,0,0-.85,1.69,1.46,1.46,0,0,0,.12,1.35c.19.46.38.31,1.15,1s-.27.61-1,1.07a2.33,2.33,0,0,1-1.77.43c-.84,0-.38.42-.77,1.23a3,3,0,0,1-.88,1.27c-.46.46-.31,1-.27,1.61a1.27,1.27,0,0,1-.83,1.16c-.34.18-.29.51,0,1.15s.2.28.74.95.46.38.74.69a9,9,0,0,1,.93,1.26c.35.56.35.41,1.1,1s.43,1.13.51,1.46a4.37,4.37,0,0,1-.18,1.56c-.13.52-.43.72-.84,1.29s-.31.71-.57,1.1a9,9,0,0,0-.87,1.1c-.23.46.2.95.05,2s-.28.87-.1,1.41,1,1.13,1.18,1.41a4.07,4.07,0,0,0,.92,1.1,1.45,1.45,0,0,1,.56.75,4.46,4.46,0,0,1,0,1.82c-.07.79-.28.95-.48,1.1a7.61,7.61,0,0,1-1.49.46c-.15,0-.26.72-.49,1.21s-1.23.05-1.69.05-1.28.2-1.59-.08a4.54,4.54,0,0,0-.79-.69c-.41-.26-.64.44-1.23.05s-1.08.33-1.44.62-.62,1.33-.92,1.71a12.12,12.12,0,0,1-1.23,1.57,3.77,3.77,0,0,0-.82,1.08,4.88,4.88,0,0,1-1.47,1c-.64.39-.2.77-.07,1.8a6.25,6.25,0,0,1,.18,1.94c-.11.72-.47.77-.62,1.26a13.94,13.94,0,0,0,.15,3.33c.13.57-.43,1.34-.69,1.75a7.23,7.23,0,0,1-1.23,1.13,2.71,2.71,0,0,1-1,.74c-.61.33-1.28,1.56-1.54,1.74a6.6,6.6,0,0,0-1,1.95c-.25.72-.61.54-1.12.72a4,4,0,0,1-2,0c-.9-.15-.67.13-1.08.39a3.38,3.38,0,0,1-1.39.51,6,6,0,0,1-1.41,0,3.8,3.8,0,0,1-1.43-.87,1.53,1.53,0,0,0-1.57-.38,7.51,7.51,0,0,0-1.92,1.07,12.19,12.19,0,0,1-1.28,1.18c-.82.62-.67.31-1.15.67s-.26,1-.31,1.69-.05,1-.16,1.85a2,2,0,0,1-.89,1.54c-.49.41-.7.56-1.16.94a5.87,5.87,0,0,1-1.92.8c-.23,0-.82.77-1.18,1.59a4.54,4.54,0,0,1-.79,1.25c-.24.34-.67.59-.93,1s-.61.64-1.72,1.13a3.88,3.88,0,0,1-2.1.2c-.46,0-.77.18-.82.59a2.25,2.25,0,0,1-.79,1.31c-.49.44-.29,2.15-.18,2.46s.61.87.56,1.13a5.05,5.05,0,0,0,.15,1.74c.09.5.11.64.11.68s0,0,.1.2c.21.51.67.66,1.38.76s.62.21,1.24.62a10.55,10.55,0,0,1,1.53,1.44c.26.25,1.23,1,1.39,1.38s-.26.77-.46,1.95,0,1.38-.16,2.2a5.18,5.18,0,0,1-.92,1.85c-.41.72-.56,1-.87,1.49a15.05,15.05,0,0,1-1.39,1.59,3.4,3.4,0,0,1-1.07,1c-.67.41-.62,1.13-.93,1.49s-.2,1.08-.41,1.38,0,1.29-.25,1.85.15,1,.25,1.49.72.66.77,1.07-.87.67-1.54,1.18a3.7,3.7,0,0,1-2,.82,3.42,3.42,0,0,0-1.74.77c-.56.41-.36,1.29-.46,1.8a2,2,0,0,1-1,1.33,2.67,2.67,0,0,1-1.53.46c-.72.11-.36.21-.93.62s-.41.92-.61,1.64-.52.77-1.13,1.49a4.11,4.11,0,0,1-1.49,1.18c-.77.46-1.48,1.74-1.69,1.79a4.39,4.39,0,0,0-1.64.77c-.51.46-.41.51-.87.77a3.75,3.75,0,0,1-2.11-.2c-.46-.16-.92-.52-1.53-.72s-.57.25-1.08.51a4.57,4.57,0,0,0-1.33.92c-.62.57-.57,1-.82,1.23a4.64,4.64,0,0,0-1.24,1.08,3.67,3.67,0,0,0-.15,1.85,3.32,3.32,0,0,1-.1,1.18,2.69,2.69,0,0,1-1.13,1c-.41.21-.21.82-.1,1.44s.36.61.87,1-.51.52-1,.62a10.37,10.37,0,0,1-1.84.2,16.83,16.83,0,0,1-2-.2c-.82-.1-.46.15-.82.46s-.46.77-1,1-1,.05-1.33.16-.67.46-1.28,1.07-1.18.31-1.8.31-.82.21-1.43.67a5.57,5.57,0,0,0-1.24,1.23,1.94,1.94,0,0,1-1.48.56,1.91,1.91,0,0,1-1.49-.51c-.41-.41-.82-.31-1.59-.67a2.27,2.27,0,0,0-1.64-.25,9.17,9.17,0,0,1-2.62.41,8.94,8.94,0,0,0-1.59-.05c-.71,0-.77.1-1.48.1s-1.16.36-1.75-.08-.89-.25-2-.69-.84-.15-1.35-.33-.72-.57-1.16-1.18-.61-.31-1.23-.62a3.81,3.81,0,0,1-1.38-1.33c-.44-.59-.64.18-1.18.43s-.85.85-1.39,1.31a8.15,8.15,0,0,0-1.31,1.41c-.25.39-.76,1.69-1,2.13a7.3,7.3,0,0,0-.61,1.39c-.21.51-.18.53-.39,1a14.31,14.31,0,0,1-1,1.87c-.3.44-.79.85-1.23,1.39a3,3,0,0,0-.41,1.84,5.11,5.11,0,0,0,0,1.36,1.89,1.89,0,0,0,.59,1c.31.36.77.36,1.31.48s1.46,0,1.57.06a9.19,9.19,0,0,1,1.28,2.58c.28,1.11.15.8.79,1.44a1.6,1.6,0,0,1,.59,1.21c0,.23.57,1.25.28,1.79s.44.44,1.06.56a4.72,4.72,0,0,1,1.1.39,10.07,10.07,0,0,0,1.77.64c.33,0,1.61-.26,2.13-.31s.89.46,1.1.59a4.71,4.71,0,0,1,1.41,1.23c.25.52.2,1.08.43,1.54a8.88,8.88,0,0,0,1.34,1.44c.41.43.33.28,1,.64s1.18,0,1.69.08.49.61.41.82a4.87,4.87,0,0,1-.87,1.25,6.26,6.26,0,0,0-.64.77c-.18.23-.29,1-.67,1.36s-.54.9-.85,1-.51,1-.56,1.18a15.43,15.43,0,0,0,.31,1.59,1.75,1.75,0,0,1-.72,1.44c-.44.23-.21.61-.13,1s.56.67,1,1.18a13.59,13.59,0,0,0,1.79,1.9,5,5,0,0,0,1.64,1.08c.72.43.49.92.64,1.61a1.87,1.87,0,0,1-.13,1.51,4.37,4.37,0,0,0-.28,1.8c0,.77-.56.87-.79,1.23a1.11,1.11,0,0,0,.36,1.26c.33.28.05.59,0,1.64s-.59.84-1,1.15a2.32,2.32,0,0,0-.9,1.64c-.1.82-.34.85-.75,2s.08,1.28.47,1.77.56.61.43,1.05a3.6,3.6,0,0,1-1.49,1.43,4.11,4.11,0,0,0-1.2,1.31,6.53,6.53,0,0,1-1,1.08,5,5,0,0,0-2.65,3.28,9.68,9.68,0,0,1-1.2,2.67c-.49,1.13-.13,1.51.1,2.51s.92,1.23,1.49,1.77.49.18.87.64a7.27,7.27,0,0,1,.92,3.13,6.87,6.87,0,0,1-.51,2.79,13.69,13.69,0,0,1-.64,1.52c-.38.79-.36.59-.72.87s-.82,3.18-.2,4.15.3,1.16.25,2a4.37,4.37,0,0,0,1.13,2.56c.67,1,1.69,1.08,2.41,1.52a5,5,0,0,1,1.54,1.51c.54.69.23.72,0,1.74a5.71,5.71,0,0,0,.07,2c0,.72.21.92,0,1.6,0,0-.39,1.39-.54,1.89a26,26,0,0,0-1,2.42c-.2.81-.5.42-1,1s-.93,1.5-1.39,2.12a6.19,6.19,0,0,1-1.31,1.34,3.17,3.17,0,0,1-1.46.7c-.77.23-.08,1-.31,2.19s.16,1.19,0,2.11a1.77,1.77,0,0,0,.27,1.43c.23.54,1,.77,1.76,1.46s.09.84,0,2,.35.92.77,1.54a7.22,7.22,0,0,0,2.58,1.5c.73.3.65.54,1.3,1.11s.27.69.27,1.19-.38.74-1.11,1-.46.27-.69.81.46.73,1.23,1.77.23.69.34,1,1.27.62,2,.46,1.47-.23,2-.38.81-.2,1,.07.23.58.54,1,.23.62.31,1.43-.23.5-.46.57-.08,1.46-.39,2.16a5,5,0,0,1-1,1.42,3.63,3.63,0,0,1-1.73,1.08c-.89.38-.65.88-1.27,1.53a2.49,2.49,0,0,0-.77,2.16,5.22,5.22,0,0,1-.11,2c-.2,1.15-.89,1.31-1.66,1.77s-.69.77-.88,1.84.38,1,.84,1.77.23,1,.54,2,.31,1.16.77,1.47,1.58-.35,2.54-.16a10.21,10.21,0,0,0,2.54.39c1.38,0,1.07-.31,1.54-.46a5.9,5.9,0,0,1,1.92-.24,4.65,4.65,0,0,0,2.38-.34c.93-.42.89-.66,1.31-1a4.38,4.38,0,0,1,.92-.69c.16,0,.89-.08,1.54-.23s.58-.62.81-1,.73-.46,1.23-.73a1.8,1.8,0,0,1,1.16-.15c.42,0,1.73-1.46,2.15-1.77s.58-.5.92-.73,1,.35.89,1.23a1.81,1.81,0,0,0,0,.92c0,.27,1.07.77,1.07.77s1.31-.07,1.85,0,1.15.31,1.85.43a8.41,8.41,0,0,0,2.8-.23,7.72,7.72,0,0,1,1.66-.39,6.28,6.28,0,0,1,2.38.35,2.1,2.1,0,0,0,1.81-.23c.65-.27.42-.77.77-1.27s.69-.35,1.11-.27.08.88-.07,1.5a13.72,13.72,0,0,1-.66,1.84c-.23.54-.53.89-.77,1.5a4.77,4.77,0,0,0,0,1.81c0,.46.2.89.93,1.54s1,.15,1.15.15a2.62,2.62,0,0,1,1.08.7c.34.34.31.77.46,1a3.33,3.33,0,0,1,0,1.23s.46.84.62,1.23a4.69,4.69,0,0,0,.65,1.11,5.11,5.11,0,0,0,.77,1,5.65,5.65,0,0,0,1.11.65,7.19,7.19,0,0,0,.89.27c.27.08.81,1.08,1.11,1.5a5.72,5.72,0,0,1,.66,1,12.73,12.73,0,0,0,1,1.46c.34.46.42.69.73,1.12a3.07,3.07,0,0,0,1.27.92,12,12,0,0,1,1.61.69c.73.42.46.54.85,1.08s.23,1,.27,1.69,0,1.12,0,1.35.5.65.57.77a7.72,7.72,0,0,0,1.85.84c.27,0,1.15.85,1.38,1.19s.54.16,1.24.5a10.27,10.27,0,0,1,1.69,1.12,19.22,19.22,0,0,1,1.34,1.69c.47.54-.15.77,0,1.58a8.75,8.75,0,0,0,.89,2c.23.5,1,.88,1.59,1.23a8.39,8.39,0,0,0,1.64.65c.38.12.54.81.35,1.31a5.4,5.4,0,0,1-.93,1.27c-.38.5-.31,1.42-.46,2a5.32,5.32,0,0,0-.23,1.5,3.24,3.24,0,0,1-.27,1.42,1.91,1.91,0,0,0,0,1.2,18.79,18.79,0,0,1,0,2.69,4.4,4.4,0,0,0,.27,2.15c.19.42.69.62,1.46,1.23a3.13,3.13,0,0,1,1.31,1.93c.07.65-.23,1.42,0,2.07s.69.66,1.07,1a5.54,5.54,0,0,0,1.74.85c.57.19.69.81,1.07,1.92s.58.73.77,1.46-.84.73-1.58.77-.5.62-.5,1.12a1,1,0,0,1-.76,1.11c-.62.2-1.58,3-1.43,3.35s1.12,1.58,1.35,2,1.65,1.69,1.84,2a3.78,3.78,0,0,0,1.89,1.07,7.39,7.39,0,0,1,1.88.66c.58.34,1.81.88,2.58,1.38s1.23,1.7,1.58,2.08a24.08,24.08,0,0,1,1.69,2.19,3.09,3.09,0,0,1,.54,1.66,22.83,22.83,0,0,1,.11,2.8c0,.7-.23.77-1,1s.23.93.5,1.66,1.43,1.07,1.93,1.19,2.34.38,2.92.5a4.25,4.25,0,0,0,2.08,0,11.43,11.43,0,0,1,3.27-.46,3.82,3.82,0,0,1,2.11.73c.66.38,1.23,1.57,1.89,2.42s.5,1.08,1,1.5,1.38.12,2.27.35a5.44,5.44,0,0,0,2.8-.23,8.48,8.48,0,0,1,2.66-.23c.61,0,1.92,1,2.84,1a8.36,8.36,0,0,0,2.47-.73c.77-.27,2.07.73,2.5.61s.88-.5,2.15-.92.85.84,1.31,1.15a5.54,5.54,0,0,0,2.57.66,5.77,5.77,0,0,1,1.81.3,11.15,11.15,0,0,0,2.5.47,17.94,17.94,0,0,0,2.93-.66c.8-.23,1-.15,1.5-.31a6.25,6.25,0,0,0,2.19-1c.61-.53,1.11-.16,2.23-.35a4.66,4.66,0,0,1,2.23.34,2.55,2.55,0,0,0,1.61-.61c.27-.27,2.35,0,3-.5a6.87,6.87,0,0,1,1.85-1,4.76,4.76,0,0,0,1.73-.73,22.07,22.07,0,0,1,1.92-1.93c.93-.76,1.54-.3,2-.38a2.85,2.85,0,0,0,1.58-1.19,6.19,6.19,0,0,1,2.08-1.62c.65-.34,1.58-.46,2-.69s.83-1.46.26-1.77,0-1.38.33-1.54a1.81,1.81,0,0,0,1-1.34c0-.62,0-1.54,0-2.23s-.42-.35-.77-.7a1,1,0,0,1,0-1.3,3.55,3.55,0,0,1,1.24-.5,14.51,14.51,0,0,1,1.65-.62c1-.35.61-.31,1.61-1.15a5.92,5.92,0,0,1,1.39-.93,10.8,10.8,0,0,0,1.35-1.27c.23-.3,1-1.07,1-1.42a2.61,2.61,0,0,1,.35-1.35c.27-.42,1.45-1.26,1.57-1.76s-.54-1.39-.66-1.7a11.27,11.27,0,0,0-.8-1.23c-.35-.54.19-1.11.57-1.23a7.51,7.51,0,0,0,2.17-.77c.59-.42,2.26,0,3,0s1.42.19,2,.19,2.27.54,3.46.54,1.35-.58,2.5-1,2.58.2,3.23,0a9,9,0,0,0,1.88-1.11,10.09,10.09,0,0,1,2.62-.62,4.54,4.54,0,0,0,2.12-1.5c.34-.54.5-.38,1.69-1s1-.92,1.27-1.27a5.12,5.12,0,0,1,1.5-.88c.54-.27.34-1.39.07-1.85s-.46-.46-.42-1a17.22,17.22,0,0,0-.27-1.92,4,4,0,0,1,.12-2.08c.27-.57,1.88-.38,2.42-.65a13.8,13.8,0,0,1,2.31-1.12,2.57,2.57,0,0,0,1.69-.84c.42-.58.31-1.5.46-2.46A2.14,2.14,0,0,0,751,647a2.82,2.82,0,0,1-.31-1.38c0-.54.5-1.2.39-1.46s.65-1.24.53-2-.23-1-.38-1.16-.35-1.8-.81-2.07.08-1.12.27-1.77.58-.46,1.31-1,.77-.93,1.19-1.31.77-.39,1.54-.23a6.13,6.13,0,0,0,1.92.42,5.47,5.47,0,0,1,2.43.54,2.44,2.44,0,0,0,2.07-.31,11.2,11.2,0,0,1,3.54.08,11.29,11.29,0,0,0,2.85.23,4.67,4.67,0,0,0,2.23-.54,22.63,22.63,0,0,1,4.34-.65,4.39,4.39,0,0,0,2.12-.89,4.25,4.25,0,0,1,1.61-1.15c.39-.08,1.16-.77,1.16-1.27a1.68,1.68,0,0,0-.54-1.15c-.31-.39-.08-1-.38-1.66s0-2-.12-2.69,1.35-1.42,1.62-2,1-.84,1.42-1.11.92-1.12,1.31-1.2a17.31,17.31,0,0,1,2.27-.53c.53,0,4,.57,4.34.5s1.81.11,2.39,0,.42-1.12.53-2-.07-.77-.23-1-.11-2.11.31-2.38a2.83,2.83,0,0,1,2.35.11c.88.43,1.46.08,2.65,0a4,4,0,0,0,2.31-.54c.65-.42.23-1.19,0-1.88s-.81-.88-1.23-1.54-.65-1-1.19-2-.93-.38-1.81-.62,0-1,.58-1.5,1.27-.38,1.57-1,1.35-.84,1.93-1.07.5-1.08.5-1.35a8.49,8.49,0,0,0-.27-1.31c-.12-.46-.16-1.47-.31-2s.51-1.18.82-1.74,1.18-.2,2.15-.67a8.28,8.28,0,0,1,2.26-.46c.56-.15,2.15-.31,2.87-.41s.72-.72.93-1.64-.62-.92-.88-1.44a5,5,0,0,1-.36-1.64,4.12,4.12,0,0,1,.93-2,7,7,0,0,1,1.9-1.59,13.62,13.62,0,0,1,1.87-.82c.74-.36.84-1.38.84-2.1s0-1.54,0-2.15a6.09,6.09,0,0,1,.21-1.7c.15-.51,1-.51,1.28-.61a3,3,0,0,0,1.13-1.9,12.56,12.56,0,0,0,.51-2.66,3.27,3.27,0,0,0-.51-2c-.21-.57-1.08-1.08-1.69-1.9s-1-.77-1.82-1.18,0-1.64,0-2.67,1.41-1,1.72-1.28,1.12-.41,1.58-.67a11.24,11.24,0,0,0,2.42-1.12c.41-.47,0-2,0-2.36s.66-.57,1.23-1.18a7.85,7.85,0,0,0,1.18-2.46,25.83,25.83,0,0,0,.05-2.88,4.24,4.24,0,0,0-.21-1.18c0-.41-.3-.87-.56-.92s-.14-2.79-.14-3.25a4,4,0,0,1,.5-1.39,2.35,2.35,0,0,0-.35-1.61c-.19-.35-1.15-.81-1.42-1.16s.23-.92.46-1,.92.46,1.81,1.08,1.65-.15,2.46-.38a8.26,8.26,0,0,1,2.77.07c.73.08,1.27.62,2.11.5a8.59,8.59,0,0,0,1.77-.46c.12,0,3.62,0,4.31.08s.62.54,1,1.34,1.54.77,1.92.89a13.9,13.9,0,0,0,2,.27,13.66,13.66,0,0,0,2.3,0c.89,0,1.43.11,2.27,0s1.43-.27,2.27-.35a8.56,8.56,0,0,0,2-.38,5,5,0,0,0,1.58-1.31,4.72,4.72,0,0,1,1.85-1.15c.69-.31,1-.12,1.27-.31a4.1,4.1,0,0,0,.84-2.15c.12-1-.34-1.16-.5-1.62s.35-.54.66-.77-.13-1.22-.39-1.78-1-.31-1.44-.51-.41-.57-.15-1.08,1.18-.67,1.74-.62.26.77.41,1.08,1.65-.26,2.47-.51,1.07.25,1.48,0,.62-2.1.72-2.57,1.18-.82,1.75-1a2.25,2.25,0,0,0,1.07-1.39,12.23,12.23,0,0,1,1.39-1.79,12.6,12.6,0,0,1,1.74-1.39c.51-.41,1.23-.71,1.69-1a2,2,0,0,0,.57-1.75c0-.71.87-1.53,1.28-1.89a5.36,5.36,0,0,0,1.23-1.54,2.62,2.62,0,0,1,1.54-1.18,9.09,9.09,0,0,0,2-1.23c.67-.41,2.36-2.21,2.82-2.46s.72-1.54.77-2.16-.92-1.74-1.08-2.46-.77-1-1.28-1.49-.41-1.94-.36-2.41,1.9-1.12,2.36-1.59a8.28,8.28,0,0,1,2.56-.92,8.85,8.85,0,0,0,2.16-.92c.41-.31.2-1.85.36-2.62a7.46,7.46,0,0,1,1.23-2.15,7.65,7.65,0,0,0,1-2.87c0-.93.26-1.7.21-2.26s-1-.41-1.75-.82-.66-.92-1-1.5-1.64-.24-2.46-.35-1.54.06-2.26-.1-.67.05-1.33.16-1.59.61-2.41,0a5.86,5.86,0,0,1-1.54-2.16,2.92,2.92,0,0,0-2.05-1.23,2.73,2.73,0,0,1-1.75-1.18,4.92,4.92,0,0,0-1.38-1.59c-.77-.61-1.33.1-2-.51s-.57-.16-2-.87-1.59.15-2.62,0-.61-1.44-.61-2.11a5.06,5.06,0,0,0-.31-1.84c-.26-.82-.72-1.49-.92-2.05s-.36-.87-.57-1.34a15.8,15.8,0,0,0-.92-2.48c-.46-.75-.77-.59-1.38-1.21s-1.44-.1-2,.21-1.24.56-1.85.87-1.49-.05-2.21,0-.1-.92.11-1.59a5.44,5.44,0,0,1,1.12-2,3.81,3.81,0,0,1,1.65-1.13,3.11,3.11,0,0,0,1.18-.87c.46-.46.56-.67,1-.82s1-2.21.56-3-.92-.36-1.33-.87-.61-.92-1-1.49-1.08-.71-1.59-1.17.41-.31.87-.62.46-1.54.2-2.21-.77-.82-1-1.33-1.08-.61-1.44-.77-1.28,0-1.89-.41,0-.87.56-1,.31-1.18.26-1.75.51-1,.92-1.69a2.39,2.39,0,0,0,.1-2.2c-.31-.57-1-1.08-1.18-1.75a17.56,17.56,0,0,0-.61-2.2c-.31-.67-.67-.41-1.7-.36s-1.07,0-1.18-.62-.66-.77-1.28-1.23-.2-.82.26-1.38,1.18-.31,1.64-.82a25.28,25.28,0,0,1,2-1.59,14.86,14.86,0,0,1,1.9-1c.77-.46.82-1,.31-1.33a3.55,3.55,0,0,1-1.29-1.34,7.66,7.66,0,0,0-1.43-1.64,9.54,9.54,0,0,1-1.23-1.38,3.27,3.27,0,0,0-2.11-1.49c-1.18-.26-1.18-.26-1.53-.72a5,5,0,0,1-.52-1.95,13.9,13.9,0,0,1,0-2.46c0-1,.62-.82,1.08-1.07a6.75,6.75,0,0,0,1.39-1c.61-.56,1-1.18,1.59-1.74s1-.62,1.69-1.18,2.51-.52,2.36-1a17.8,17.8,0,0,1,.05-2.36,4,4,0,0,0-.82-2.15c-.41-.51-1-.46-1.75-1s-.61-1-1-1.53.46-1.23.56-2.11a6,6,0,0,0-.25-2.3,5,5,0,0,1,0-2.47c.25-.87.72-1.33.72-2.1a3.36,3.36,0,0,1,.51-1.84,17.92,17.92,0,0,0,.77-2.57c.31-1-.26-1.33-.77-2.1s-.41-1.08-.87-1.23-.44-1.13-1-1.67-.62-2.08-.77-2.38a8.08,8.08,0,0,1-.85-2.54c-.23-1.39-1.69-.85-2.69-1.23s-.46-1-.46-1.93a2,2,0,0,1,.92-1.84c.54-.31,1.85-.54,2.31-.85s.54-2.23.92-3,1.62-.69,2.15-1.15,1.62-1.46,2.16-2a9.2,9.2,0,0,0,1.38-3.62c.08-.84,1.62-2.92,2.16-2.92s1.38-1.46,1.07-2.15-1.38-1.23-2.07-1.77-1.08-2.23-1.39-3.16-1.07-1.92-1.61-3.07a19.17,19.17,0,0,0-1.93-2.62c-.53-.85-1-1.31-1.38-1.92s.38-.85,1.38-1.85a5,5,0,0,0,1.54-2.31,25.76,25.76,0,0,0,.46-2.61c.16-.85,1-1.31,2.08-1.85s.54-1.46.54-2.15-.08-2.23-.15-3.08a14.68,14.68,0,0,0-.77-2.77c-.31-.92-1.16-.69-1.93-1.38a7.42,7.42,0,0,1-1.92-2.85c-.23-.84-1.46-.84-3-1.31a16.65,16.65,0,0,1-4.23-2.69,31.12,31.12,0,0,1-2.69-2.54c-1.23-1.23.61-2.46,1-2.69a4.19,4.19,0,0,0,1.54-2.92c0-1.39-.7-1.08-.93-2.16s0-3.23-.15-4.3.31-1,1.08-1.31.92-.23,2.46-.69,2.69,0,4.54,0,2.3-.62,3.69-1.54a6.53,6.53,0,0,1,3.15-1.39,18.5,18.5,0,0,0,4.46-1.92,5.58,5.58,0,0,0,2.31-2.92c.08-.46,2.39-2.23,2.92-2.85s1.23-2.15,2-3.38,1.39-1,1.47-1.85,2-4,2.5-4.81.84-.61,1.76-1,1.12-.5,1.39-1.42a12.7,12.7,0,0,0,.46-2c.12-.73,1.23-1.73,1.5-2.15a6.06,6.06,0,0,1,2.19-1.62c1-.46,1.31-.69,1.58-1.27s1-1,1-1.42-.12-1.77-.15-2.35a1.85,1.85,0,0,1,.73-1.57,2.36,2.36,0,0,0,.77-1.77,4.31,4.31,0,0,0-.93-2.66c-.69-.88-.77-.69-1.69-.92s-.46-.54-.73-1.77-.65-.88-1.12-1.34-1-.77-1.15-1.62.81-1.15,1.42-1.59a3.29,3.29,0,0,1,2.39,0c.46.15,2.08-.54,2.69-.74s.54-.42,1.19-.53,1.5-2.25,2-2.94a6.18,6.18,0,0,0,1-2.08c.18-.61,1.15-1.07,1.77-1.54s.61-1,.79-1.82a2.62,2.62,0,0,1,.92-1.46c.36-.33.57-1.95.7-2.3s-.29-.95-.95-1.42.2-1,.28-1.64-.41-.87-.28-1.43.61-.44,1-.62a5.09,5.09,0,0,0,1.2-.92c.64-.56,1.46-.39,1.62-.49a5,5,0,0,0,1.36-.95c.51-.56,1.25,0,1.82,0a3.85,3.85,0,0,0,1.33-.51c.33-.15.36-1.08.54-1.56a2.59,2.59,0,0,1,.79-1,5.76,5.76,0,0,0,.72-2.11c.18-.66.49-.77.9-1.13a3.23,3.23,0,0,0,.79-1.17,1.29,1.29,0,0,1,.67-.59c.18-.13,1-1.39,1.16-1.54a9.36,9.36,0,0,0,.73-1.08,3.43,3.43,0,0,0-.31-2.23,6.18,6.18,0,0,1-.42-2c-.12-.92.38-1,.57-1.31a10.64,10.64,0,0,0,.66-1.46c.38-1,0-.81-.12-1.73a17.5,17.5,0,0,1-.08-1.89,5.08,5.08,0,0,1,.16-1.8c.23-.77.57-.62,1.13-1S902.77,225.62,902.9,224.85ZM656.77,581a4.11,4.11,0,0,0-.08,2.38c.23.7.69,1,.39,1.93a14.76,14.76,0,0,1-.7,1.92,5.51,5.51,0,0,1-1.3,1.46,4.79,4.79,0,0,1-1.77,1.16c-1,.38-1.46.15-2.46.84s-.77,1.62-2.31,1.85-2.46.84-2.46,0-.7-1.31-2.23-1.54l-4.54-.69s-2.08-.93-2.62-.31a3.11,3.11,0,0,1-2.54.62c-.61-.16-1.38-.93-2.3-.54s-1.93.15-2.93.61-1.3,1.16-2.3,1.31-1.54.38-1.93.15a10.31,10.31,0,0,0-1.92-1.53c-1.15-.62-2.08-.47-2.85-1.31s-.54.61-1.61.77a12.94,12.94,0,0,1-2.16.15,2.91,2.91,0,0,1-2.46-1.15c-.39-.43-.47-.51-.49-.5l-.58-.66a3.14,3.14,0,0,0-2.77-1.3c-.62,0-1-.7-2.16-1.24s-2.61-1.3-3.07-.84a9.75,9.75,0,0,1-2.08,1.84,4.54,4.54,0,0,1-2.31.39c-.77-.15-.85.77-2.08.77s-1.84-.31-2.3.31a3.55,3.55,0,0,1-1.7,1.46c-.77.23-.38,1.07-2,.77s-2.15.3-2.3-1.08a27,27,0,0,0-.85-3.08c-.23-1.15.08-2.61-.62-3.15s-2-1.23-1.46-2.23.23-1.92,1.16-2.54,1.3-1.38,1.15-1.77-1.31-1.23-1.31-2.08-.15-1.92.93-2.53,1.77-.7,1.84-1.54a20.58,20.58,0,0,0,.16-2.54c0-1.23,0-1.69.38-2.16s.62-1.38,1.54-1.69a2.3,2.3,0,0,0,1.69-1.54,8.28,8.28,0,0,0,.31-2.84c-.08-.23-.15-1.68-.77-1.84s-.92.15-1.15-.93-.08-1.54.38-1.85a5.08,5.08,0,0,0,1.23-1.46c.54-.77.54-.85.31-1.69s-.77-.31-1.54-.85a13.29,13.29,0,0,1-1.77-1.54c-.38-.38-.84-1.07-.54-1.61s.23-1.62.62-2,.69-1.31,1.15-1.77a4.07,4.07,0,0,0,1.08-1.92c.08-.62.85-1.85-.23-2.47s-2-.92-2.16-1.53-.41-1.45.16-2c.87-.85.92-1.77,1.92-1.93s.77,1.08,2.08.46a4,4,0,0,0,2.23-1.92c.61-1,.92-.84,1.77-.69a2.41,2.41,0,0,0,1.84-.11c1.24-.35,1.47,0,1.77-1.2s-.3-1.61-.84-2.23-1.77-1.15-.69-2,.31-2.08,1.62-2.38,1.14-1.23,2.76-1.16,3.46-.92,4.54-.69,3.31.23,3.92.85a3.43,3.43,0,0,0,2.23,1.23c1.16.15,1.69-.08,2.93.07s2.15-.38,3.07.16,1.69-.69,2.31.38a6.93,6.93,0,0,0,3.08,2.62,4.25,4.25,0,0,0,1.77.15,11.89,11.89,0,0,0,3.15-.61,10.43,10.43,0,0,0,1.77-1.23c.46-.39.31-.85,1.77-.77s2-.62,2.84-.77a21.82,21.82,0,0,1,2.85-.39,4,4,0,0,0,1.92-.92c.54-.39.54-1.15,1.39-.23s1.46.69,1.77,1.38,1.23-.15,2.31.08,2.76-.46,2.23.46a2.64,2.64,0,0,1-1.77,1.46c-.7.16-1.7.77-1.7,1.08a3.37,3.37,0,0,1-.15,1.91,16.21,16.21,0,0,1-1.46,1.71c-.39.46-1.15,1-1.23,1.38s-1.08.54-.92,1.31-.16,2.38-.62,2.54a5.38,5.38,0,0,0-1.62.69c-.15.23-.53,1.15-1.07,2s-.69,1.15-1.31,1.38-1,.77-1.08,1.85.54,2.54-.38,3.15-.85,1.39-.77,2.39-.54,1.92.08,2.61,1.15.7,1.15,1.77.38,1.85,1.23,2,.77-.31.62,1.39a22.65,22.65,0,0,0-.16,3.84,7.43,7.43,0,0,1-.38,2.93,3.71,3.71,0,0,0,.46,2.69c.46.69.69,1.31,1.61,1.31s1.62.15,1.85,1.07a8.4,8.4,0,0,0,1.08,2.39c.38.61.84,1.54,1.69,1.54a16,16,0,0,1,2.77,0c.85.15,1.51-.39,2.18.46a3.23,3.23,0,0,1,.74,2.15c0,.54-.69,1.08-.84,1.69s.38,1.23.84,1.62a2.69,2.69,0,0,0,2.08,1c1.08-.08,1.92-.6,2.23,0a4.5,4.5,0,0,1,.85,2C657.85,580.54,657,580.54,656.77,581Zm91.48,25.08c-.1.54-.63,1.3-1,1.3s-.69-.69-1,0-.31,1-.85,1.39.31.92-.53.38-2.27-.77-1.91-1a7.8,7.8,0,0,0,1.06-1s.69-.61.31-1,.07.23-.39-.38-.33-1.86-.83-1.71-.92,0-1.22.07-.34.4-.64.55-.26.47-.73.15-.33-.42-.73-.8-.54-.32-.65-.71.25-.61-.07-.88-.48-.28-.63-.44c-.31-.35-.65-.38-.69-1s-.11-1,.35-1.5.34-.58.65-1.27.46-.07.89-.73.23-.5.23-1.65a3.28,3.28,0,0,0-.54-2.08,3.15,3.15,0,0,1-.51-1.42c-.22-.89-.44-.89,0-1.46s.47-1,.82-1.54,1.16-.62.27-1.43a3.5,3.5,0,0,1-1.31-1.73c-.31-.77-1.26-1-.88-1.38a4.71,4.71,0,0,0,1.25-1.58,6.08,6.08,0,0,1,.78-1.81c.42-.57,1-1.19,1-1.76s-.23-1.39.58-.7.77.81,1.5.93,1.69-.2,1.27.46-1.31.5-1.16,1.34,0,1.27.58,1.43.89,0,1.58.19.92.19,1.08.73.65.81.5,1.08-.93.5-1,1,.11.61.23,1.26a2.34,2.34,0,0,0,.79,1.31,3.88,3.88,0,0,1,.82,2.19c-.11.58-.47,1.24,0,1.43s.6.5.56.73.17.84,0,1.27.07,1-.36,1.31-.77.19-.73,1-.27,1.5.19,2,1.14.38,1,1,.32,1.31,0,1.77-.68.07-.76.69-.69.85-.3,1.46,1.31,1,1.15,1.39S748.34,605.54,748.25,606.08Zm24.24-243a2.63,2.63,0,0,1-.7.9c-.28.18-.69.43-.92.61s-.49.64-.77.87a4.35,4.35,0,0,1-1.15.64c-.41.16-.72-.12-1.16-.18a8.43,8.43,0,0,0-1.74.36,3.62,3.62,0,0,1-1.33,0c-.36,0-.49.46-.9.77s-.33.46-.41,1.57-.44.71-1.2,1.23-.88.05-1.77,0-.29-.31-.44-.85-.33-.61-.67-.72a2.93,2.93,0,0,1-1.05-.56c-.56-.43.54-.92.59-1.31s-.28-.72-.59-1.31.57-.94.72-1.29-.08-.63-.18-.89a2.08,2.08,0,0,1-.33-1.3c.07-.7.48-.44,1-.67s.18-.51.59-.82a3.11,3.11,0,0,1,.85-.44,16.38,16.38,0,0,0,1.2-1.64c.29-.31.9,0,1.49.08a4,4,0,0,0,1.76-.54c.55-.2.83.13,1.19.2a4.09,4.09,0,0,0,1.95.06c.69-.23,1.13.31,1.36.41a8.18,8.18,0,0,0,1.66.64c.34,0,.67.49.75,1.05a12.48,12.48,0,0,1,.18,1.79C772.46,362.33,772.56,363,772.49,363.13ZM616.74,336.26a1,1,0,0,1,0,1.25c-.2.31-.61.67-1,1.18s-.57.82-1,1.39-.87-.93-1.69-1.29-1.08.26-1.33,0,.05-.92.46-1.38.66-.31,1-.77-.25-.82-.77-.92-.41-.36-.66-.87.51-1,.77-1.27a6.2,6.2,0,0,1,1.07-1.2c.41-.25,1.13.26,1.39.77s.82,1.13.77,1.7A15.19,15.19,0,0,0,616.74,336.26Zm-7.23-24.13c.15.11.62.25.82.61a1.53,1.53,0,0,0,1.24.57c.56.05.81-.77,1.17,0s.47,1.07,1.13,1.13a15.44,15.44,0,0,0,2.16,0c.41-.06,1.28-.54,1.74,0a1.67,1.67,0,0,0,1.69.58,7.11,7.11,0,0,0,1.9-.67c.36-.2,1.18-.58,1.54-.77s.56-.61,0-.87-.87-.2-1.08-.61-.77-1-.41-1.18a2.79,2.79,0,0,0,.72-.57,1.63,1.63,0,0,0,.31-1.23c-.11-.2-.72-.15-1-.61a4.54,4.54,0,0,1-.92-1.59c0-.51-1.13-.26-1.39-.72s-.92-1.18-1.07-1.44-.5-1.64-1.07-1.07a3.78,3.78,0,0,1-1.75.82c-.52.15-.14.72-.94.87s-2-.1-2,.67-1.32,1-.66,1.33A4,4,0,0,1,613,308.9c.26.41.72.82.31,1.13s-1.52,1.23-1.74,1.07a1.65,1.65,0,0,0-1.29-.2C609.77,311.05,608.26,311.14,609.51,312.13Z" transform="translate(1 1)"/>
    <g id="waters">
      <path class="cls-4" d="M331.88,618.15a7.49,7.49,0,0,0,1.77-1.73c.47-.73,1-1.27.73-2s-.5-1.31-.84-2.11-.81-1.58.15-1.89,2.35-.23,2.77-1.15.69-1.19,1.39-1,2.07,1.23,2.88,1.15,1.27-.54,2.12-.54a2.65,2.65,0,0,1,1.92.85,4.34,4.34,0,0,0,1.5,1.27,5.79,5.79,0,0,0,2,.07c.88,0,2.07.35,2.84-.27a9.9,9.9,0,0,1,2.23-1.38c.85-.38,1.35-.65,2-.35a10.35,10.35,0,0,1,2.85,1.77,1,1,0,0,1-.42,1.5c-.81.58-.62.73-1.73,1.46s-1.81,1.5-1.66,1.81-.54.85-1.08,1.19a1.39,1.39,0,0,0-.84,1.58,7.88,7.88,0,0,1-.89,3.23c-.27.54-.69.77.47,1.46s2.38,1,2.88,1.85,1.5,1.38,1,1.92-2.23,1-2.46.43-.27-.5-1.16-.73a2.38,2.38,0,0,0-1.8.34,2,2,0,0,1-2.24.19c-1.3-.61-1.42-1.23-1.46-1.69s.08-.81-1.07-1.11-1.58-1.54-2.27-1-.62,1.23-1.43,1a4.83,4.83,0,0,1-1.8-1.16,1.62,1.62,0,0,0-2,.16c-.54.38-.39.77-1.31,1.23s-2,.88-2.62.46-2.26-.69-1.23-1.12,2-.92,1.27-1.8a8.89,8.89,0,0,0-2-1.62C331.85,620,330.63,619.24,331.88,618.15Z" transform="translate(1 1)"/>
      <path class="cls-4" d="M591.54,535.85c.87-.85.92-1.77,1.92-1.93s.77,1.08,2.08.46a4,4,0,0,0,2.23-1.92c.61-1,.92-.84,1.77-.69a2.41,2.41,0,0,0,1.84-.11c1.24-.35,1.47,0,1.77-1.2s-.3-1.61-.84-2.23-1.77-1.15-.69-2,.31-2.08,1.62-2.38,1.14-1.23,2.76-1.16,3.46-.92,4.54-.69,3.31.23,3.92.85a3.43,3.43,0,0,0,2.23,1.23c1.16.15,1.69-.08,2.93.07s2.15-.38,3.07.16,1.69-.69,2.31.38a6.93,6.93,0,0,0,3.08,2.62,4.25,4.25,0,0,0,1.77.15,11.89,11.89,0,0,0,3.15-.61,10.43,10.43,0,0,0,1.77-1.23c.46-.39.31-.85,1.77-.77s2-.62,2.84-.77a21.82,21.82,0,0,1,2.85-.39,4,4,0,0,0,1.92-.92c.54-.39.54-1.15,1.39-.23s1.46.69,1.77,1.38,1.23-.15,2.31.08,2.76-.46,2.23.46a2.64,2.64,0,0,1-1.77,1.46c-.7.16-1.7.77-1.7,1.08a3.37,3.37,0,0,1-.15,1.91,16.21,16.21,0,0,1-1.46,1.71c-.39.46-1.15,1-1.23,1.38s-1.08.54-.92,1.31-.16,2.38-.62,2.54a5.38,5.38,0,0,0-1.62.69c-.15.23-.53,1.15-1.07,2s-.69,1.15-1.31,1.38-1,.77-1.08,1.85.54,2.54-.38,3.15-.85,1.39-.77,2.39-.54,1.92.08,2.61,1.15.7,1.15,1.77.38,1.85,1.23,2,.77-.31.62,1.39a22.65,22.65,0,0,0-.16,3.84,7.43,7.43,0,0,1-.38,2.93,3.71,3.71,0,0,0,.46,2.69c.46.69.69,1.31,1.61,1.31s1.62.15,1.85,1.07a8.4,8.4,0,0,0,1.08,2.39c.38.61.84,1.54,1.69,1.54a16,16,0,0,1,2.77,0c.85.15,1.51-.39,2.18.46a3.23,3.23,0,0,1,.74,2.15c0,.54-.69,1.08-.84,1.69s.38,1.23.84,1.62a2.69,2.69,0,0,0,2.08,1c1.08-.08,1.92-.6,2.23,0a4.5,4.5,0,0,1,.85,2c0,.77-.85.77-1.08,1.23a4.11,4.11,0,0,0-.08,2.38c.23.7.69,1,.39,1.93a14.76,14.76,0,0,1-.7,1.92,5.51,5.51,0,0,1-1.3,1.46,4.79,4.79,0,0,1-1.77,1.16c-1,.38-1.46.15-2.46.84s-.77,1.62-2.31,1.85-2.46.84-2.46,0-.7-1.31-2.23-1.54l-4.54-.69s-2.08-.93-2.62-.31a3.11,3.11,0,0,1-2.54.62c-.61-.16-1.38-.93-2.3-.54s-1.93.15-2.93.61-1.3,1.16-2.3,1.31-1.54.38-1.93.15a10.31,10.31,0,0,0-1.92-1.53c-1.15-.62-2.08-.47-2.85-1.31s-.54.61-1.61.77a12.94,12.94,0,0,1-2.16.15,2.91,2.91,0,0,1-2.46-1.15c-1.07-1.16.16.23-1.07-1.16a3.14,3.14,0,0,0-2.77-1.3c-.62,0-1-.7-2.16-1.24s-2.61-1.3-3.07-.84a9.75,9.75,0,0,1-2.08,1.84,4.54,4.54,0,0,1-2.31.39c-.77-.15-.85.77-2.08.77s-1.84-.31-2.3.31a3.55,3.55,0,0,1-1.7,1.46c-.77.23-.38,1.07-2,.77s-2.15.3-2.3-1.08a27,27,0,0,0-.85-3.08c-.23-1.15.08-2.61-.62-3.15s-2-1.23-1.46-2.23.23-1.92,1.16-2.54,1.3-1.38,1.15-1.77-1.31-1.23-1.31-2.08-.15-1.92.93-2.53,1.77-.7,1.84-1.54a20.58,20.58,0,0,0,.16-2.54c0-1.23,0-1.69.38-2.16s.62-1.38,1.54-1.69a2.3,2.3,0,0,0,1.69-1.54,8.28,8.28,0,0,0,.31-2.84c-.08-.23-.15-1.68-.77-1.84s-.92.15-1.15-.93-.08-1.54.38-1.85a5.08,5.08,0,0,0,1.23-1.46c.54-.77.54-.85.31-1.69s-.77-.31-1.54-.85a13.29,13.29,0,0,1-1.77-1.54c-.38-.38-.84-1.07-.54-1.61s.23-1.62.62-2,.69-1.31,1.15-1.77a4.07,4.07,0,0,0,1.08-1.92c.08-.62.85-1.85-.23-2.47s-2-.92-2.16-1.53S591,536.4,591.54,535.85Z" transform="translate(1 1)"/>
      <path class="cls-4" d="M738.42,602c-.31-.35-.65-.38-.69-1s-.11-1,.35-1.5.34-.58.65-1.27.46-.07.89-.73.23-.5.23-1.65a3.28,3.28,0,0,0-.54-2.08,3.15,3.15,0,0,1-.51-1.42c-.22-.89-.44-.89,0-1.46s.47-1,.82-1.54,1.16-.62.27-1.43a3.5,3.5,0,0,1-1.31-1.73c-.31-.77-1.26-1-.88-1.38a4.71,4.71,0,0,0,1.25-1.58,6.08,6.08,0,0,1,.78-1.81c.42-.57,1-1.19,1-1.76s-.23-1.39.58-.7.77.81,1.5.93,1.69-.2,1.27.46-1.31.5-1.16,1.34,0,1.27.58,1.43.89,0,1.58.19.92.19,1.08.73.65.81.5,1.08-.93.5-1,1,.11.61.23,1.26a2.34,2.34,0,0,0,.79,1.31,3.88,3.88,0,0,1,.82,2.19c-.11.58-.47,1.24,0,1.43s.6.5.56.73.17.84,0,1.27.07,1-.36,1.31-.77.19-.73,1-.27,1.5.19,2,1.14.38,1,1,.32,1.31,0,1.77-.68.07-.76.69-.69.85-.3,1.46,1.31,1,1.15,1.39.11.69,0,1.23-.63,1.3-1,1.3-.69-.69-1,0-.31,1-.85,1.39.31.92-.53.38-2.27-.77-1.91-1a7.8,7.8,0,0,0,1.06-1s.69-.61.31-1,.07.23-.39-.38-.33-1.86-.83-1.71-.92,0-1.22.07-.34.4-.64.55-.26.47-.73.15-.33-.42-.73-.8-.54-.32-.65-.71.25-.61-.07-.88S738.57,602.16,738.42,602Z" transform="translate(1 1)"/>
      <path class="cls-4" d="M758.28,367.77a2.93,2.93,0,0,0,1.05.56c.34.11.52.18.67.72s-.46.8.44.85,1,.51,1.77,0,1.12-.13,1.2-1.23,0-1.26.41-1.57.54-.79.9-.77a3.62,3.62,0,0,0,1.33,0,8.43,8.43,0,0,1,1.74-.36c.44.06.75.34,1.16.18a4.35,4.35,0,0,0,1.15-.64c.28-.23.54-.69.77-.87s.64-.43.92-.61a2.63,2.63,0,0,0,.7-.9c.07-.18,0-.8,0-1.34a12.48,12.48,0,0,0-.18-1.79c-.08-.56-.41-1.05-.75-1.05a8.18,8.18,0,0,1-1.66-.64c-.23-.1-.67-.64-1.36-.41a4.09,4.09,0,0,1-1.95-.06c-.36-.07-.64-.4-1.19-.2a4,4,0,0,1-1.76.54c-.59-.08-1.2-.39-1.49-.08a16.38,16.38,0,0,1-1.2,1.64,3.11,3.11,0,0,0-.85.44c-.41.31-.05.59-.59.82s-1,0-1,.67a2.08,2.08,0,0,0,.33,1.3c.1.26.33.54.18.89s-1,.7-.72,1.29.64.93.59,1.31S757.72,367.34,758.28,367.77Z" transform="translate(1 1)"/>
    </g>
  </g>
</svg>
