<svg xmlns="http://www.w3.org/2000/svg" viewBox="0 0 1000.75 1000">
  <defs>
    <style>
      .cls-1 {
        fill: #21252b;
      }

      .cls-2 {
        fill: #333842;
        stroke: #abb2bf;
        stroke-miterlimit: 10;
        stroke-width: 1.51px;
      }

      .cls-3 {
        fill: #abb2bf;
      }
    </style>
  </defs>
  <title>soloWestGenesaris1.1</title>
  <g id="bg">
    <rect class="cls-1" width="1000" height="1000"/>
  </g>
  <g id="west">
    <path id="stonehaven" class="cls-2" d="M873.41,171.09A60.55,60.55,0,0,0,875.05,188c.76,3.14,1.92,6.12,4.78,8.44,3.56,2.89,2.65,7.73,3.63,11.72.26,1.05-.8,2.27-1.79,2.76-5.92,2.92-11.49,7.52-18.84,4.26a3.91,3.91,0,0,0-3.34,0,3.86,3.86,0,0,1-3.9-.36c-.58-.34-1.4-.84-1.88-.66-3.27,1.24-6.68.19-10.12,1a158.36,158.36,0,0,1-16.06,2.76c-2.51.32-4.54-1.42-6.67-2.45a15.65,15.65,0,0,1-7.21-21.88,7.16,7.16,0,0,0,1-2.54c.44-4.3,1.69-7.8,6.73-8.55,1.47-.21,1.46-1.81,1.72-3.05,1.45-6.74,4.85-8.23,10.81-4.81,3.23,1.85,8.72.87,12.55-2.29.88-.74,1.69-1.81,2.83-1.84,6.62-.12,11.43-4.68,17.19-6.88C871.05,161.89,874,164.48,873.41,171.09Z"/>
    <path id="antigone" class="cls-2" d="M170.53,174.28c-7.3-.11-10.87-3.75-10.68-11a4.59,4.59,0,0,0-1.53-3.62c-3.87-3.86-3.45-7.27,1.63-9.8a43,43,0,0,0,8.05-5c.82-.67,1.91-1.57.74-2.47-3.15-2.44-2.66-5.74-2-8.78,1-4.63-1.57-8.68-1.48-13.17.17-8.31,7-13.45,14.73-10.69a2.67,2.67,0,0,0,2.3.14c5.16-2.91,8.84.51,12.16,3.36,2.58,2.21,5.15,5,5.35,8.88a2.57,2.57,0,0,0,1.58,2.09c3.91,2.17,5,6.65,2.15,10.12-3.58,4.37-8.76,5.47-14.05,6a3.59,3.59,0,0,1-2.67-1.33c-2.41-2.26-4.65-1.72-6.07,1.13-1,1.92-2.42,3.42-4.87,3-2.17-.4-2.23.47-1.3,2a16.58,16.58,0,0,1,2.31,6c.25,1.59,1.31,2.24,2.83,3a27.15,27.15,0,0,0,9.25,2.36c4,.43,4.95,4.24,2.24,7.39-2.49,2.93-5.87,3.41-9.31,3.51-2,0-3,.55-3.56,2.69C177.36,173.68,175.79,174.36,170.53,174.28Z"/>
    <path id="body" class="cls-2" d="M176.61,361.11c-2.58,0-4.93,3.16-4.9,6.78,0,2.2.28,4.56,3,4.95,2.09.31,5-4.57,5.11-8.09A3.39,3.39,0,0,0,176.61,361.11Zm12.27,8.9c-3.3,0-6.27,2.26-6.22,4.66.05,2.13,4.82,5.5,7.9,5.58,2.2.06,4.45-2.32,4.5-4.74C195.11,372.5,192.28,370,188.88,370Zm165.86,59.43c-.85-3.75-3.54-6.34-6-9-1.37-1.52-3.65-1.39-4.3.5-1,2.95-3.26,2.78-5.42,3.12-5,.79-10.07,9.52-8,14.14a4.82,4.82,0,0,1,0,4.46c-1.52,3.48-.12,6.57,3.31,8.2,3.8,1.8,7.94,2.06,11,2.74,4.19.52,5.44-1.62,6.5-4,2.63-6,.89-12.69,3.08-18.76A2.8,2.8,0,0,0,354.74,429.44Zm633.1,351.22q6.07-.46,12.16-.83V141.43a92.87,92.87,0,0,0-4.3-10.52c-1.77-3.78-3.49-3.88-6.33-.82-2.1,2.25-2.87,5.18-4.34,7.74-1.06,1.87-2.17,2.79-3.61.28-1.11-2-2.94-2.34-5-2.16-4.2.35-7.47,2.67-10.72,5-1.57,1.14-3,2.71-5.07,2.64-6.44-.22-12.25,2.64-16.8,6.09s-8.56,6.59-13.77,8.56c-1.48.56-2.74,1.53-4.45,1.33-2.93-.35-4.17,1.19-4.41,3.94a29.48,29.48,0,0,1-2.77,9.14c-1,2.2-3.06,4-3,6.46,0,4.49-2.43,7.22-5.45,10.11-5.25,5-3,14.23,3.54,17.16a26.87,26.87,0,0,0,6.61,1.52c5.15.92,9.12,4.52,14.2,5.59,2.2.47,4.49-.95,6.59.84,4.28,3.65,9.07,6.8,12.73,11.08,2,2.31,4.49,5.21,3.64,8.54-1,3.73-.21,7.14.89,10.41,1.38,4.1,1.07,8,.61,12.13-.48,4.31-2.32,9.11,1.77,13a1.68,1.68,0,0,1-.22,2.49c-2.91,2.44-5.86,4.91-10.1,4-5.09-1.07-10-3-15.38-2.82-2.12.08-3.78.27-5.21,1.76a24.55,24.55,0,0,0-3.54,5.4c-1.82,3.29-2.69,7.12-4.68,10.16A51.58,51.58,0,0,0,915,305.73c-.61,2.29-.68,4.49-3.63,5a2.74,2.74,0,0,0-2.06,2.54c-.33,6.12-2.87,11.74-3.94,17.68-.71,3.92-2.45,5.15-6.5,4.73-3.49-.36-6.84-.49-9.59,2.33a3.79,3.79,0,0,1-3.57.71c-5.49-1.06-10.86,1.85-12.22,6.94-1.06,4-4.67,4.8-7.48,6.44-1.86,1.08-2.64-1.65-4-2.5-2.33-1.46-4.55-3.56-7.5-2-4.39,2.31-9.14,3.53-13.81,5a4.1,4.1,0,0,0-3.1,2.93c-.62,3.43-2.46,6.34-3.52,9.5-1.67,5-5.08,6.63-9.52,7.58-5.82,1.24-11.8,2-17.38,3.95a35,35,0,0,1-12.78,1.64c-5.51-.14-8.15-3.95-6.18-9.09a74.86,74.86,0,0,1,4-8c1.55-2.93,3.35-5.76,3.05-9.3s1.37-5.91,4.16-7.71c1.16-.76,2.65-1.5,2.47-3-.31-2.68.87-4.61,2.43-6.49s1.87-3.57.18-5.54a3.16,3.16,0,0,1,.49-4.88c3.84-2.29,5.22-6.21,7.37-9.65a10.85,10.85,0,0,1,6.69-5,8,8,0,0,0,6.23-6.5,11.81,11.81,0,0,1,7.83-8.87,9.17,9.17,0,0,0,5.73-5.08,6,6,0,0,1,4-3.48,13.74,13.74,0,0,0,8.22-7.34c1-2,1.09-4.16-.78-5.63s-3.73-4.51-7.06-2.36c-1.18.78-2.4,1.37-3.82.46-5-3.17-10.79-1.28-16.1-2.58-.84-.2-2,.5-2.88.9-5.15,2.21-10.21,4.79-16,4.6-5.61-.17-11.09,1.3-16.73,1.13-2.69-.09-5.25-.78-6.16-2.91-1.82-4.23-5.47-8-4.24-13.25.41-1.75-.78-3.12-2.13-4a53.91,53.91,0,0,0-6-3.31,4,4,0,0,0-4.55.38c-2.65,2.38-4.57,2-6.78-.73s-5.31-2.55-8.25-1.65c-2.74.84-3.88,3-3.65,5.89.08,1.08-.16,2.29-1.43,2.39-2.85.23-4.73,2.08-6.85,3.61-.71.52-1.77,1.64-2.68.56-.64-.76.17-1.83.69-2.47,3.21-4,2.68-9.35,5.19-13.6.61-1,.43-2.76.09-4-.74-2.72-1.93-5.25-5.28-5.54a6,6,0,0,0-6.66,4.25c-.67,1.82-1.56,3.73-1.54,5.59.08,5.62-3.45,9-7,12.41-1.3,1.24-2.83,1.65-4.38.65-2.73-1.74-5.14-3.79-6.21-7.06-1.41-4.33-4-6.39-8.5-6.55-2.34-.09-4-.78-4.66-3.16-.81-2.94-2.88-3.9-5.75-3.69-2,.13-3.92.18-5.6-1.1-2-1.58-4-1.1-6.06.06-1.67.94-3.13,2.29-5.19,2.51-5.13.55-5.85,1.29-6.51,6.39-.73,5.59-2.09,6.3-7.37,5-3.86-.93-7.43.49-10.36,3.16s-.58,4.74.67,7a2.67,2.67,0,0,1-.54,3.16c-.79,1-1.86,1.58-3,.9-1.9-1.13-3.43-.51-5.08.53a5.34,5.34,0,0,1-3.51,1.19c-4.83-.59-9,1.26-12.75,3.9-6,4.25-8.93,4.17-13.68-1.6-3.05-3.71-7.27-5.17-11.5-6.58-3-1-5.9-2-7.37-5-1.88-3.85-5-5.68-9.13-5.24a10.13,10.13,0,0,1-3.06-.14,10.4,10.4,0,0,0-7.32.95,10.45,10.45,0,0,1-7.3,1,11,11,0,0,0-9.11,2.06,5.54,5.54,0,0,1-5.51,1c-4-1.64-7.18,0-10.06,2.41a91.2,91.2,0,0,0-8.24,7.72,11.39,11.39,0,0,0-2.4,12.15c2.83,8,.26,13.06-7.78,16.29a42.45,42.45,0,0,1-10.24,2.6c-5.75.76-11.65,1.3-17.3-.9a7,7,0,0,1-4.6-6.66c-.07-2.69,1.26-5.1,4-5.76a8.24,8.24,0,0,0,6.53-5.8c1.15-3.37,4.73-4.13,7.26-6,1.71-1.24,2.87.76,4.28,1.29,2.81,1.06,5.18-.3,5.21-3.42a10.35,10.35,0,0,1,2.34-6.93,5.3,5.3,0,0,0,1.28-3.84c-.29-3,1.31-4.55,3.56-6.07,4.57-3.09,6.29-7.61,5.88-13-.17-2.28-.35-4.56-.42-6.85-.15-5.12-.24-5.24-5.2-5.27-4,0-7.72-.08-11.57-2.74-6.44-4.44-7.9-3.69-12.67,2.32-2.1,2.64-4.45,4.28-8,2.49a6.17,6.17,0,0,0-2.69-.42c-4.9,0-9.8,0-14.54,1.57a7.93,7.93,0,0,1-6.35-.37,15,15,0,0,0-7-1.43c-5.46-.12-10.56,1.81-15.84,2.7a6.88,6.88,0,0,0-5.15,4.08c-.76,1.47-1.84,3.35-4,2.06-2.54-1.54-4.07-.32-5.53,1.51-1.78,2.23-3.57,2.32-6.28,1.17q-10.38-4.4-20.33-9.63c-1.65-.87-4.08-1.18-4.63-3.23-1.6-5.88-4-11.62-2.9-18a13.15,13.15,0,0,0-1.59-9.63,15.1,15.1,0,0,1-2.47-10.43c.78-6.76-.47-12.9-4.86-18.32-1.78-2.19-1-4.05,1.58-5.15a11.3,11.3,0,0,0,2.12-1.12c1.54-1.07,3.06-2.3,2.55-4.44s-2.39-3-4.47-3c-6.12.14-12-.59-17.4-3.77a3.75,3.75,0,0,0-4.25.38c-2.09,1.81-4.83,1.92-7.19,3-1.31.61-3.17.73-4.21-.49-2.46-2.86-5.8-5.48-3.63-10.13a3.38,3.38,0,0,0-1-4.36c-1.44-1.06-2.73-.16-4.12.49-2.38,1.11-3.94,3.6-6.76,3.89a8.85,8.85,0,0,0-6.9,4.58c-3.36,6.19-7.71,9.87-15.24,9.32-3.66-.27-4.72,1.63-4.18,5.3a26.29,26.29,0,0,1,.25,3.76c0,3.84-.61,4.33-4.51,3.78-1.8-.26-3.64-.93-5.3.33a14.88,14.88,0,0,1-6.66,2.56,7.12,7.12,0,0,0-4.48,2.85c-2.31,2.85-5,5.39-3.68,9.62.15.46-.19,1.12-.4,1.63-1.95,4.65,0,11.1,4.45,13.55a30,30,0,0,1,8.26,7.13,14.66,14.66,0,0,1,3.9,9.29c.12,3.21-.68,5.74-3.2,7.87-.85.72-1.19,2.21-1.46,3.41a14.53,14.53,0,0,1-3,6.45c-1.83,2.15-1.55,4.21.44,6,1.76,1.63,3.8,3,5.39,4.77,3.15,3.52,7.34,6.89,5.61,12.41s0,9.53,4.62,12.65c1.6,1.08,3.12,2.25,3.57,4.4a71.88,71.88,0,0,0,2,7.62c1.2,3.69,2.33,7.51,6.1,9.56,5.49,3,10.84,6.26,17.55,5.78A22.28,22.28,0,0,1,356.5,305c2.5,1.11,3,2.66,1.68,4.87a12.13,12.13,0,0,0,.32,13.51,11,11,0,0,1,1.36,4.22,12.93,12.93,0,0,0,1.93,5.79c3.84,5.41,7.26,11.12,11.63,16.13a5.68,5.68,0,0,1,1.56,5.34c-.73,3.13.59,5.4,3.37,6.75S382.88,365,385,367c4,3.76,7.3,8.78,12.31,10.76,6.34,2.51,11.61,6.86,18,9.16,1.29.46,2.74,1,2.9,2.6.43,4.66,2.48,9,2.06,13.86a21,21,0,0,0,1.09,9.13,9,9,0,0,1-.33,7.36c-1.65,3.09-.82,5.54,1.61,7.63,7.26,6.26,8.25,14.89,8.6,23.56.15,3.69.52,6.89,2.9,9.89a17.8,17.8,0,0,0,6.39,5.55,16.11,16.11,0,0,1,7,6.35c6.37,10.14,12.3,20.51,19.53,30.17,6.21,8.28,14,15.07,20,23.41a6.27,6.27,0,0,0,1.55,1.34,17.39,17.39,0,0,1,6.73,8,6.72,6.72,0,0,0,4.78,4.08,57,57,0,0,0,7.34,1.72c2.36.31,3.45,1.35,4.33,3.6,2,5,5.24,8.57,11.26,8.34,2.83-.11,4.8.8,4,4.26-.27,1.13.7,1.86,1.16,2.76,1.66,3.17.56,6.25-2.76,7.08a27,27,0,0,0-9.7,4.11c-1.43,1-3.45,2.1-5,.37-2.3-2.56-5.3-4.39-7.26-7.27-.44-.65-.75-1.57-1.66-1.6-4.21-.14-8.39-1.31-12.32,1.93-3,2.52-8.29.52-10.11-3s-1.35-7-1.88-10.58c-.29-2-.69-4-2.65-4.36-2.57-.48-3.94-2.12-5.32-3.92s-3.19-2-5.08-.73a22.94,22.94,0,0,0-2.94,2.35c-2.36,2.3-4.86,2.29-7.44.53a24.24,24.24,0,0,1-6.19-5.89,8.14,8.14,0,0,0-6.21-3.74,31.82,31.82,0,0,1-9.48-2.89c-2.5-1.07-4.57-2.69-4.32-5.92a4,4,0,0,0-2.17-3.66c-3-2-4.8-4.82-6.47-7.86-1.2-2.19-1.46-4.05,1-5.55,1.84-1.09,2.07-2.63.78-4.34a8.18,8.18,0,0,1-1.35-3.84,2.84,2.84,0,0,0-2.39-2.58,28.81,28.81,0,0,0-5-1c-3.73-.07-6.15-1.76-8-4.91-1.32-2.2-2.44-5.36-5.2-5.6-3.51-.31-5.32-2.31-7.49-4.54-3.1-3.18-3.68-4.67-1.56-8.51a4,4,0,0,0-.31-5c-1.48-1.88-2.84-3.87-4.15-5.88a7.19,7.19,0,0,0-3.32-2.85c-2.74-1.15-5.43-2.41-8.18-3.53-5.32-2.16-8.46-1.25-11.54,3.64a20.28,20.28,0,0,1-7.4,6.94c-3.25,1.86-5.92,4.39-5.67,8.68.09,1.66-.9,2.72-2.07,3.74-1.51,1.32-1.8,3-.5,4.58s2.87,1.09,4.38.24c.39-.23.73-.56,1.1-.82,1-.69,2.05-1.16,3.14-.28,1.34,1.08.3,2.06-.26,3-.83,1.37-1.76,2.66-1.44,4.44.48,2.7.93,5.4,1.27,8.12a39.34,39.34,0,0,1-.22,12.39c-1.54-3.53-3.89-6.5-3.9-10.53,0-3.43-2.18-4.82-4.63-3.34-4.48,2.7-8.4,1.34-12.11-1.26-2.34-1.63-4.81-2.87-7.58-2.86-3.51,0-5.45-1.5-6.66-4.68a20,20,0,0,1-1.36-4.91,10,10,0,0,0-3-6.73c-2.46-2.22-4.86-4.5-7.3-6.76s-3.62-5-2.4-8.58c1.82-5.37-1.05-8.61-6.62-7.71-3,.48-4.47-1-4.71-3.58-.48-5.16-3-9.74-4-14.78-.84-4.18-5.1-5.44-8.92-3.25-1.28.73-2,.43-3-.42-2.77-2.36-5.9-3.87-9.69-3.33-1.76.26-3.15-.12-4-1.86-1.36-2.85-3.91-4.1-6.79-4.71a4.76,4.76,0,0,1-3.57-2.3c-4.28-7.62-4.95-7.71-11.34-1.59a5.11,5.11,0,0,1-5.43,1.06c-1.85-.59-1.6-2.38-1.49-3.81a9.91,9.91,0,0,0-2.35-7.31,4,4,0,0,1-.61-4.77c1.15-2.11,1.36-4.11-.38-6a5.82,5.82,0,0,0-6.56-1.77c-2.09.73-3.49,0-4.82-1.49-5.55-6.41-13-9.9-20.62-13-4.27-1.77-8.9,2.33-7.43,6.67a43.58,43.58,0,0,0,5.62,10.75c1.62,2.33,3.43,4.58,4.82,7.06s2.41,4.92.38,7.67c-1.44,2-.65,3.81,1.21,5a14.75,14.75,0,0,1,5.59,6.7c1.12,2.5,2.79,4.49,6,4.27a2.2,2.2,0,0,1,2.26,1.3c1.39,4.08,3.88,7.85,4.32,12.13.52,5,3,7,7.87,5.18a7.29,7.29,0,0,0,4.71-4.22c1-2.76,2.63-2.46,4.37-.67a15.4,15.4,0,0,1,4.37,8.34,72.08,72.08,0,0,0,2.66,11.66c.85,2.41,1.57,5.34,0,7.24s-3.08,5.19-6.84,3.88c-.45-.16-1.3.38-1.78.8-1.64,1.47-3.27,8.8-2.09,10.65a22.37,22.37,0,0,1,3.31,15.07,4.5,4.5,0,0,0,3.21,5.11c2.88.9,5.37,3.35,8,3.67,4.72.57,9.28,1.9,14,2.33,1.44.14,2.94-.26,4.4.19a6.56,6.56,0,0,0,8.05-3c1.87-3.15,3.48-2.47,5.16-.29,3.2,4.16,7.38,7.09,11.62,10,3.22,2.23,6.53,4.19,8.23,8.35,2.64,6.41.87,13.08,2.08,19.57.56,3,1.13,5.17,3.67,6.65a12,12,0,0,1,5.15,4.86c.57,1.14,1,2.29-.09,3.12-2.55,2-2.26,4.71-2.48,7.47-.32,4-.79,8.18-3.37,11.51-2.34,3-2.36,4.49.88,6.68a19,19,0,0,1,5.55,5.53,4,4,0,0,1-.55,5.35c-1.75,1.76-3.1.25-4.45-.77-1-.75-2-1.56-3-2.25a2.71,2.71,0,0,0-3.47.29c-2.46,2-3.2,10.11-.7,12,3.2,2.4,4.65,6.17,5.81,9.28a38.7,38.7,0,0,0,7.46,12.1,11.67,11.67,0,0,1,3.19,7.7,9.23,9.23,0,0,0,8,8.63c4,.45,5.76,2,6.57,6.23a16.94,16.94,0,0,0,5.18,9.09c1.51,1.48,3.85,2.93,5.51,1.37,3.18-3,7.5-2.53,10.95-4.47,1.12-.63,2.6-1.41,3.75,0s0,2.55-.56,3.77c-1.91,4.13-3.76,8.22-6.72,11.83-2.49,3-2.15,7.17.17,8.65a81.37,81.37,0,0,0,9,5,5.07,5.07,0,0,0,5.52-.6c1.05-.82,2.43-1.48,3.51-.84,3.67,2.16,7.63,2,11.63,2,1.34,0,2.29.94,3.18,1.85,1.83,1.87,3.79,3.23,6.67,2.62,2-.42,2.85.82,3.2,2.68a10.18,10.18,0,0,0,10.79,8.66,5,5,0,0,1,5,2.78,34.88,34.88,0,0,1,2.26,3.85c1,2.48,3,2.77,5.1,2.16,3.27-1,6.61-2,9.15-4.47a22.48,22.48,0,0,1,6-4c5.25-2.64,9.83-6.26,14.3-10,2.35-2,5.18-2.83,7.7-4.37a1.25,1.25,0,0,1,1.83.23,1,1,0,0,1-.49,1.46c-5.1,2-6.37,6.19-6.75,11a4.77,4.77,0,0,1-1.19,2.45c-3.84,4.68-5.6,10.37-7.9,15.83a44,44,0,0,1-3.69,7.32c-3.54,5.34-2,10.42.44,15.5a4.1,4.1,0,0,0,2.95,2.15,11,11,0,0,1,7.18,5.4,9.43,9.43,0,0,0,6.34,4.87,5.15,5.15,0,0,1,2.37,1.28,43.22,43.22,0,0,0,9.81,6.22c3.26,1.55,6.26,3.56,7.09,7.4a25.86,25.86,0,0,0,3.25,8.6c3,4.66,4.51,10,7,14.85a6.06,6.06,0,0,1,.48,3.69c-.75,4.88.6,6.39,5.43,5.31a8,8,0,0,1,6.09,1.06c4,2.16,8,.74,10.07-3.27,2.75-5.34,5.65-10.41,12.13-12.18,2.38-.65,3.5-2.92,3.25-5.48s1-4.13,2.67-5.91c3.68-3.83,8.92-6,11.42-11.14.74-1.51,2.59-1.9,4.25-1.07a55.21,55.21,0,0,0,11,3.8c5.75,1.53,9.68.29,12.78-4.64,3.74-6,5.94-6.55,11.52-2.44a8.24,8.24,0,0,0,8,1.24c1.38-.43,2.87-1.61,4.26-.85,3,1.64,5.51.75,8.08-.76,5.32-3.13,10.82-3.39,16.81-1.94,3.2.78,4.23,3.21,6.09,5.09a9.94,9.94,0,0,0,3.29,1.79c2.84,1.29,6.07,2.12,7,5.87.21.85,1.25,1.64,2.08,2.19,5.1,3.44,9.57,3.33,13.94-1.15,5.87-6,13-8,20.87-6.8a41,41,0,0,0,20.58-1.48c3.75-1.33,5.62-.54,7.63,3,.34.6.64,1.22,1,1.82,3,5.8,6.65,7.63,13.12,6.9,3.51-.4,7.09,0,9.53,2.74s5.57,5.08,8.27,7.7c3.12,3,6.68,3.18,10.13.54,1.21-.92,2.48-2.08,4-1.61,5.57,1.7,11.41.1,17,1.49,3.37.84,6.06.19,8.26-2.55,1.79-2.23,3.89-3.7,7-3.5a6.45,6.45,0,0,0,5.55-2.94,27.06,27.06,0,0,0,4.29-7.77c1.77-5.44,6-9.62,8-15,.49-1.32,2.15-2.65,3.27-1.72,3.26,2.68,6.53,2,10,1a3.64,3.64,0,0,1,2.28.53c3.75,1.94,8.62,2,10.87,6.51.17.33.74.53,1.17.67,3.73,1.27,5.48,5.13,8.9,6.82a1.37,1.37,0,0,1,.6,1.14c-1.06,3.66,1.82,5.4,3.69,7.54a6.52,6.52,0,0,0,9,.89,6.72,6.72,0,0,1,4.67-1.7,6.59,6.59,0,0,0,4.16-1.42,34.16,34.16,0,0,1,6.45-3.17c2.22-1,4-.65,5.44,1.3.61.79,1.2,1.75,2.42,1.72,5.59-.13,9.1,3.46,12.62,7a3,3,0,0,1,.63,3.49,16.31,16.31,0,0,0-1,6.06c-.18,3.74,2.93,7.11,6.6,6.66,2.1-.25,3.49.17,4.71,1.85,3,4.09,6.87,6.22,12.1,5.47a5.81,5.81,0,0,1,4.48,1.32c4.16,3.21,8,3.23,11.47-.68,2.88-3.27,5.88-3.58,9.44-2,4,1.71,6.78.15,9.2-3,2.75-3.53,6.15-3.55,8.68.11,1.66,2.41,3.89,2.85,6.52,3.62,5.08,1.49,11.74-.8,15,5.66a3.15,3.15,0,0,0,2,1.28c2.35.54,3.17,2.18,3.86,4.27,1.5,4.55,4.45,6.71,9.2,6.77a13.7,13.7,0,0,1,8,2.52,8.82,8.82,0,0,0,10.78-.63,6.55,6.55,0,0,1,4.47-1.6V796.65a7.49,7.49,0,0,0-1.8.47c-2.63,1-5.44.47-6.64-2-1.74-3.62-4.25-6.71-6-10.27C984.22,782.21,985.09,780.88,987.84,780.66Zm-371-180.2c-.09.07-.21.18-.29.16-5.53-.91-10.4,3.59-16.3,1.43-7.15-2.61-14.8-3.83-21.53-7.71-1.14-.66-2.4-1.14-2.46-2.53-.19-4.22-2.26-8.21-1.33-12.83-.18-1.76-.32-3.81-.6-5.84-.75-5.5,1.51-8.35,7-8.77.23,0,.5,0,.67-.07,6.57-4.27,13.44-1.42,19.77.07,5.51,1.28,11.34,3.39,15.33,8.16a8.25,8.25,0,0,1,2,4.29c.3,2.93.68,5.68,3.62,7.3a1.79,1.79,0,0,1,.65,1.49C622.77,591.22,621.62,596.65,616.85,600.46ZM807.27,453c-.42,2.49-2.66,2.38-4.61,2.61-2.15.25-4.28.69-6.33,1-3.17-.24-6.1-1.27-9.26-1.17a15.49,15.49,0,0,0-11.28,4.92c-1.43,1.49-2.91,2.92-4.37,4.38a4.16,4.16,0,0,1-3.28,1.6c-6-.51-11.44,1.09-16.74,3.85-2.17,1.13-4.81,1.36-7.25,1.95a32.61,32.61,0,0,0-6.95,2.86c-4.54,2.29-9.34,2.93-14.2.92a18.65,18.65,0,0,0-5.35-1.08,3.37,3.37,0,0,1-3.19-2.22c-.43-1.31.58-2.09,1.34-2.94a21.5,21.5,0,0,1,11.89-7,8.66,8.66,0,0,0,4.68-2.68c2.88-3.11,6.54-5.39,9.17-8.76.91-1.17,2.14-1.13,3.43-.88,1.47.28,3.14.68,4.36-.23,5.55-4.15,13.17-3.67,18.49-8.39,1.59-1.42,3.76-1.89,5.54.07,3.84,4.2,8.93,4.68,14.14,4.87,5.46.19,11-.51,16.21,2C805.67,449.66,807.7,450.49,807.27,453Z"/>
    <g id="waters">
      <path id="lake-vipuris" class="cls-3" d="M623.46,585.61c-.69,5.61-1.84,11-6.61,14.85-.09.07-.21.18-.29.16-5.53-.91-10.4,3.59-16.3,1.43-7.15-2.61-14.8-3.83-21.53-7.71-1.14-.66-2.4-1.14-2.46-2.53-.19-4.22-2.26-8.21-1.33-12.83-.18-1.76-.32-3.81-.6-5.84-.75-5.5,1.51-8.35,7-8.77.23,0,.5,0,.67-.07,6.57-4.27,13.44-1.42,19.77.07,5.51,1.28,11.34,3.39,15.33,8.16a8.25,8.25,0,0,1,2,4.29c.3,2.93.68,5.68,3.62,7.3A1.79,1.79,0,0,1,623.46,585.61Z"/>
      <path id="great-lakes" class="cls-3" d="M807.27,453c-.42,2.49-2.66,2.38-4.61,2.61-2.15.25-4.28.69-6.33,1-3.17-.24-6.1-1.27-9.26-1.17a15.49,15.49,0,0,0-11.28,4.92c-1.43,1.49-2.91,2.92-4.37,4.38a4.16,4.16,0,0,1-3.28,1.6c-6-.51-11.44,1.09-16.74,3.85-2.17,1.13-4.81,1.36-7.25,1.95a32.61,32.61,0,0,0-6.95,2.86c-4.54,2.29-9.34,2.93-14.2.92a18.65,18.65,0,0,0-5.35-1.08,3.37,3.37,0,0,1-3.19-2.22c-.43-1.31.58-2.09,1.34-2.94a21.5,21.5,0,0,1,11.89-7,8.66,8.66,0,0,0,4.68-2.68c2.88-3.11,6.54-5.39,9.17-8.76.91-1.17,2.14-1.13,3.43-.88,1.47.28,3.14.68,4.36-.23,5.55-4.15,13.17-3.67,18.49-8.39,1.59-1.42,3.76-1.89,5.54.07,3.84,4.2,8.93,4.68,14.14,4.87,5.46.19,11-.51,16.21,2C805.67,449.66,807.7,450.49,807.27,453Z"/>
    </g>
  </g>
</svg>



            