<svg xmlns="http://www.w3.org/2000/svg" viewBox="0 0 1002 1002">
  <defs>
    <style>
      .cls-1 {
        fill: #21252b;
      }

      .cls-2 {
        fill: none;
        stroke: #333842;
        stroke-width: 2px;
      }

      .cls-2, .cls-3 {
        stroke-miterlimit: 10;
      }

      .cls-3 {
        fill: #333842;
        stroke: #abb2bf;
      }
    </style>
  </defs>
  <title>soloKadia1.1</title>
  <g id="bg">
    <rect class="cls-1" x="1" y="1" width="1000" height="1000"/>
  </g>
  <g id="grid">
    <g id="grid-2" data-name="grid">
      <rect class="cls-2" x="1" y="1" width="1000" height="1000"/>
      <line class="cls-2" x1="1" y1="876" x2="1001" y2="876"/>
      <line class="cls-2" x1="1" y1="751" x2="1001" y2="751"/>
      <line class="cls-2" x1="1" y1="626" x2="1001" y2="626"/>
      <line class="cls-2" x1="1" y1="501" x2="1001" y2="501"/>
      <line class="cls-2" x1="1" y1="376" x2="1001" y2="376"/>
      <line class="cls-2" x1="1" y1="251" x2="1001" y2="251"/>
      <line class="cls-2" x1="1" y1="126" x2="1001" y2="126"/>
      <line class="cls-2" x1="876" y1="1" x2="876" y2="1001"/>
      <line class="cls-2" x1="751" y1="1" x2="751" y2="1001"/>
      <line class="cls-2" x1="626" y1="1" x2="626" y2="1001"/>
      <line class="cls-2" x1="501" y1="1" x2="501" y2="1001"/>
      <line class="cls-2" x1="376" y1="1" x2="376" y2="1001"/>
      <line class="cls-2" x1="251" y1="1" x2="251" y2="1001"/>
      <line class="cls-2" x1="126" y1="1" x2="126" y2="1001"/>
    </g>
  </g>
  <g id="Kadia">
    <path class="cls-3" d="M366.7,721.9c-6.8-.18-3.26,6.1-7.29,7.45-6.13,2.06-4.54-1.53-11.14-1.91-15.41-.88-10.28,1.61-13.9,11.92-4.75,13.52-7.85,10.93-19.86,8.65a49.6,49.6,0,0,0-5.87-3.27c-5.6-1.6-6.73,2.55-13.22-1.36-6.85-4.14-9.77-10.26-6.13-17.51,3.82-7.61,16.43-5,18.87-8.92,1.87-3.05-2.17-4.81-1.5-6.72a47.05,47.05,0,0,1,3.86-8.56c.5-1,4.84-1.66,6-2.89-2.25,2.48,3.38-15.36,3.44-12-.11-6.34-5.83-12.09-10.83-18.2-7.65-9.34-8.23-6.3-19.9-7.76-6.25-.78-12.95-5-20.08-2.69-6.65,2.15-8.1,4.6-15.14,5.52a9.64,9.64,0,0,0-10.92.24,24.39,24.39,0,0,0-4,8.56c-6.94,5.43-9.82,4.61-19.06,5.36-6.26.51-11.82.67-17.23,3.75-2.32,1.32-8,11.26-12.27,9.12s-1.54-6.51-3.43-9.39c-1.1-1.67-4.94-2.49-5.55-3.54-4.48-7.7-6.48-15.61-7.77-24.11-2.34-15.47-1.71-7,9.09-13.45,4-2.37,9.26-12.76,9.3-17.16,0-3.19-3-10.26-5.16-12.67-.37-.41-7.09-5.06-6.64-4-4.48-11,4.17-10,10-17.1,7.56-9.22,1.65-5.73-.93-11.32-.42-.92,2.35-4.78,1.75-5.67-2.32-3.42-5.06-1.41-7.09-5.8-2.79-6-.41-7.82-1.21-14l.36-6.56c-.17-2.71-1.65-4-4.46-3.89-.27-.82-3.69,1.35-4.35-1.29-.88-3.49,4.63-8.72,7.14-10.77,5.27-4.31,14-8.44,20.53-10.73,5.29-1.83,10.4-1.28,15.23-4.8,8.31-6.07,2.93-2.71,5.69-9.7,2.1-5.31-2.69-4.38,2.53-10.67,1.83-2.2,6.26-4,8.82-5.52,10.22-6.17,18.77-10.15,26.12-20,4.75-6.34,7.86-14.26,14.92-18.74,4.91-3.12,21.46-5.18,24.57-8.73,9.61-10.94-21-28.28-27.25-34.12-4.59-4.28-12.92-16.27-14.06-22.45-1.37-7.47,4.13-14.09-4.65-19.51-6-3.68-26.9-5.08-33.82-4.63-5.64.37-10,7.93-19.57,2.91-7.75-4.08-7.75-11.93-12.71-18.12-7.15-8.95-15.77-7.54-6.95-16.14.36-.35,8.28-4.51,9.06-4.86a12.81,12.81,0,0,1,5.76-5.58,47.21,47.21,0,0,1,9.06,3.91c4.32-1.84,5.59-3,7.76-7.57,3.61-7.66-.58-3.58-.18-9.08.29-4,18-12.5,20.63-15.36,3-3.23,4.89-7.42,8-10.95,6.83-7.76,6.52-1.64,5.86-12.37-.25-4.15-4.84-18.33,4.38-17.5,2.87.25-.41,5,1.83,5.93,7.55,3.05,9.77,3.72,16.7-.4,3.6-2.14,7-7.19,9.15-10s-1.56-4.51,3.07-7.72c5.31-3.68,8.39,1,13,1.05,6.77,0,12.7-2.91,17.51-6.39,4.56-3.31-.78-6.62,8.07-5.6,7,.81,9.64,9.59,9.77,13.92.25,8.67-7.26,13-12.26,18.33-5.16,5.46-6.86,5.84-5.13,11.78,1.17,4,8.94,12,13,12.56,3.09.42,12.36-4.11,14.29-6.29,6.92-7.88,1.3-5.46-.21-12.32-5.8-26.41,17.07-4.61,22.72-15,3.23-5.92-9.08-11.32-4.59-15.84,2.45-2.47,11.6,5.9,13.2,7.09,4.4,3.28,3.21,6.57,9.81,7.53,2,.29,1.89-1.4,3.1-1.32-4.11-.25,10.54-1.59,8.48-.86,4.85-1.73,3,1.78,7.11-1.42,1.79-1.37,3.17-8.78,5.72-11.28,7.18-7,12.89-4.43,20.94-5.47,4.93-.64,5.13-1.51,9.85-1.9s15.66,2.35,18.92-2.46c2.76-4.06-1.94-15.51-3.57-19.86-.56-1.48-5.39-4.36-5.81-5.26.54,1.17,1.32-8.06,1-8.26-5.18-3.09-17.46,3.87-6.33-3.59,6.06-4.07,10.7-1.75,17.36-2.84,2.93-.48,3.4-3.78,6.17-4.35,4.74-1,9.52.6,14-.09,3.16-.48,4.06-4.56,7.29-3.65,4.5,1.25,3.38,4.23,5.72,5.7,7.16,4.47,2.81,5.53,12.21,1.31,15.28-6.85,27.16-15.08,44.76-15.69,9.78-.34,12.5,4,21.43,5.71,8.06,1.56,7.74-2.41,14.37-3.27,3.63-.46,5,.14,8.16.46,2.23.24,2.38,3.61,5.05,4.11,2.19.4.33-4.65,1.84-5.23-1,.39,6.9,1.09,6.25,1.13,2.62-.14,7,.65,9.15.5-.27,0,1.48,4.14,3.46,4.36,3.13.35,1.44-5.79,3-6.3,2.45-.83,3.29,5.21,6.26,4.8,2-.28.92-3.79,3-4,.16,0,6.44-1.11,6.57-1.17-.3.15,7.8-3.94,5.64-4,3,.12,1.7,5.92,4.44,4.91,5.53-2,13.78-17.71,23-17,6.3.51,3.35,7.83,9.12,7.4,8.54-.63,2.55-10.59,5.51-12.69,2.14-1.52,6.05,6.45,7.93,6.49,1.34,0,8.13-8.35,9.35-7.17,2.41,2.35-6.13,8.65,1.28,12.57,8.69,4.6,3.35-9.3,5.81-11.4,2.68-2.31,13.1,6.41,17.2,5,2.27-.78,5.58-7.22,8.35-8.37-1.61.67,16.81,6.49,23.31,5.83,9.27-1,16.57-9.77,27.25-7.76,3.23.61,5.92,2.5,9.33,3.12,5.75,1.06,9.11-1.56,14.92,3.84,1.53,1.42,4.17,1.06,5.69,2.85,1.18,1.38-2.19,5.31-.62,6.6,3.41,2.82,6.7,1.57,10.39,3.91,4.42,2.81,7.4,7.5,11.72,10.66,9.71,7.1,7.89,7.09,13.41,17.62,4.46,8.52,15.77,11.76,11.75,21.35-2.09,4.95-9.68,5.72-9.93,11.15-.23,5,10.26,12.16,12.05,16.6,1.47,3.68,5.61,7.8-.86,10.09-4.61,1.63-7-5.21-10.68-5-5.17.28-13.78,17.63-9.78,23.17.25.35,7.29.92,9.11,2,9.32,5.46,6,9.61,6.62,17.33.14,1.65-3.06,1.42-3.24,3.49s3.46,5.52,3.72,9.27c.84,12-14.51,19.31-23.4,26.45A140.79,140.79,0,0,0,824.34,336c-1,.95-3.2,1-3.86,1.74-2.1,2.47-2.83,4.14-5.05,7-2.89,3.68-11,13.19-10.84,18.8.13,4.31,5.5,5.64,7.41,10.28,4.2,10.16-5.74,22.31,8.81,19.15,7-1.52,6.28-6.36,13.5-3.19,2.8,1.23,14.32,12.4,15.16,15.14,3.31,10.7-11,16.46-14.7,24.2-5.11,10.64,3.93,24.53-6.11,34.41-3.48,3.43-8.41,3.66-11.54,1.29-4.65-3.51-.79-11.95-1.53-12.35,1.39.76-11.88-.6-10-1.5-3.44,1.63-3.66,5.07-5,7.95.37-.8-2.84,13-2.81,13.54,1.68,30.61,33,4.42,39.5,19.36,2.24,5.15-4.42,7-3.66,11.19.4,2.21,3.91.9,4.65,2.54,2.89,6.35,9.27,10.43,10.54,14.27.92,2.82,2,18.74-1.29,20.58,4.17-2.33-31.06-6.53-19.21,4.91.68.66,17.91-2.6,12.55,2.78-5,5-17.4-1.13-23.14.29-3.48.86-5.78,4.88-9.69,5.73-3.1.67-7.91-2.17-10.55-1-9.41,4-.56,4.68,2.19,9.12,8.41,13.57,22.27,24.55,19.55,40.82-3.09,18.46-14,33.17-20.5,50.77-1.9,5.15-3.81,15.67-3.26,20.06.3,2.48-2.44,3-.34,7,2.64,5,11.22,4.45,14.19,8.25,10.73,13.75-8.65,27.78-20.27,24-2.11-.68-.07-5.58-2.65-5.64-6.49-.16-2.82,3-7.37,5.1-6.44,2.94-6.57,4.84-12.28,8.82-3.36,2.33-26.3,6.19-26.33,11.47-.06,11-.18,1.72-7.57,3.13-6.2,1.18-14,8.18-20.76,10-4.48,1.22-9.26-.47-13.61,1.54-1.52.7-3.62,6.2-5.86,7.44-3.68,2.05-9.07.5-12.36,3-2.58,2-3,6.85-5,9.19-5,5.76-13,9.25-20,13.15-.58.32-8.46,2.06-8.53,2.14-1.95,2.44.8,7.07-1,9.62-4.4,6.26-20.8,26.3-26.56,11.44-3.7-9.54,14.42-32.55,19.44-40.7,4.14-6.74,11.55-11.29,13.87-18.92,1.9-6.29,2.15-18.86,1.16-25.57s-4.7-7.89-5.89-13.27c-.82-3.67,1.16-6.55.13-10.5-2.41-9.22-3.4.29-2.74.32,1.31.07-.66,3.82-3.15,3.31-1.32-.27-4.36-10.28-4.36-10.72,0-1.36,8.47-17.9,3.57-18.65-3.22-.5-8,9.59-12.89,9.16-6.4-.57-11.22-11.86-12-16.41-3.13-17.47,15.85-24,25.57-34.28,6.05-6.44,4.45-5.61,5-13.5.12-1.66-.52-12.06-.6-12.56-.22-1.33-.51-4.31-.64-5.75-.65-7.56-7.47-14.54,1.14-21.87,7.39-6.29,5.45,1.41,9.78.43,3.77-.85-1.9-7.93-1.86-7.53.1,1.09-2.08-10.82-.92-8.31-1-2.18,4-2.62-.52-4.8-1.1-.54-8.87,1.35-9.48,3-5.5,14.46,18.57,3.37-1.21,12.88-6.32,3-7.16,2.16-11.52,6.69-3,3.15-2.39,9.48-8.14,8.26,2.24-4.5,8.57-13,9.53-17.44,1-4.58-2.16-5.34-2.19-8.33,0-3.77,8.49-1.18,7.43-6.82-.73-3.89-12.43-3.07-14.22-3.18-5.08-.3-14-2-18.58.53-2.34,1.29-2.73,8-4.29,8.44-4.67,1.18-2.82-4.42-6-3.93-5.34.8-9.28,4.08-12.09,7.65-8.4,10.68-1.26,7.51,3.69,12.54,7.3,7.42,10.13,24.92,3.5,33.66-3.58,4.72-10.55,5.09-14.76,9-6,5.49-4.24,15.14-8.85,20.4-4,4.61-10,5.47-15,10.23-4.35,4.2-5.57,7-10.66,10.64-8.64,6.16-9.63,9.15-18.69,5.6-1.43-.56-1.13-4.84-3.13-5.83-2.47-1.23-6,0-7.76-.78-5.28-2.31-7.47-.25-5.34-9,2.09-8.6,9.79-12.51,11.52-21.49.77-4,2.19-20.64-.49-24-7.44-9.2-18.14,9.11-19.39,16.19-1.61,9.15,4.66,13.8-.75,24-17.82,33.53-4.63-3.41-17.78-4-12.88-.63-9.3,15.27-11.13,21.68-3.49,12.21-13.21,8.86-20.7,14.35-10.84,7.94-16.57,21.28-30.53,26a36.69,36.69,0,0,1-20.07.54c2.94.85-6,.14-6.15,0-1.67-1.6.47-6.15.35-6.2-3.47-1.55.15-4.61-4.37-1.18-3.58,2.71-1.43,11.11-8.82,14.32-7.08,3.08-7.29-2.2-9.34,3.23C366.11,715.61,374.41,718.1,366.7,721.9ZM174.56,807.7c-.2.26,0-13.31,0-13.22-1.8-1.91-3.66-3.76-5.6-5.54a10.69,10.69,0,0,1,5-5.52q4.72-1.41,4.35-6.07a30.78,30.78,0,0,1-3.28-7.37c-.45-4.15,9.19-5.7.12-10.43-8.73-4.55-6.45,8.27-8.35,11.82-3,5.51-11.08,10-9.57,17.12C155.51,795.54,168.6,815.3,174.56,807.7Zm547.56-46.57c3.88-13.31-12.27-8.8-15.69-2-2.75,5.48,4,9.55-4.73,11.83-4.2,1.09,2.6-9.06-6.31-4.44-7.63,4,8.1,22.32,13.55,15.39C701,773.49,719.9,768.73,722.12,761.13Zm-353.44-31c6,2,9.05-5.48,14.43-6.68,3.87-.87,25.61,8.74,27.18,6.88.16-.18-4.52-13.58-3.79-13.1-3.18-2.09-5.46,3.63-8.18,3.41s-5.88-2.91-8.31-2.82c-6.3.22-17.66,6.29-23.37,4.12C363.69,724.26,363.27,728.32,368.68,730.12ZM633.83,593.36c-4.71,2.21-9.1,29.34-3.32,29.45C634.23,622.57,640.77,590.11,633.83,593.36Zm-15,226.39c-2.08-13.57-12.93-2.1-14.25,3.4C603.72,832.74,619.82,825.87,618.88,819.75Zm56.47-28.58c1.94,10.83,10.09,4.76,8.11-3.73C682.77,775.72,673.49,780.83,675.35,791.17ZM174.92,553.77c-4.77-.94-16,6.66-7.4,8.26C172.45,562.42,183.91,555.53,174.92,553.77ZM179.25,742c-2.92-1-14.14,13-4.36,13C179.06,755,183,743.33,179.25,742ZM414,713.31c5.28-2.38-.61-4.13-1.3-6.14-.55-1.57,3-4.3-.38-4.82-4-.6-5.15.84-5.17,5.09C407.14,711,410,715.1,414,713.31ZM635.23,815.22c1.12-3.37-11.79-6.25-13.64-4.85-5,3.78,6.26,7,8.46,6.75A5.1,5.1,0,0,0,635.23,815.22Zm-458.39-.33c-7.47,1.68,5.06,21.32,6.39,11.36C183.08,824.51,178.82,814.45,176.84,814.89ZM471.39,651.53c.38,8.92,6.61,3.33,7.55-2.11C477.71,640.44,471.12,645.42,471.39,651.53Zm-192-230.38c-.5-.25,7,10.18,6.59,2.6C286.27,414.37,277.39,420.14,279.37,421.15Z" transform="translate(1 1)"/>
  </g>
</svg>
