<svg xmlns="http://www.w3.org/2000/svg" viewBox="0 0 1000 1000">
  <defs>
    <style>
      .cls-1 {
        fill: #21252b;
      }

      .cls-2 {
        fill: #333842;
        stroke: #abb2bf;
        stroke-miterlimit: 10;
        stroke-width: 0.92px;
      }

      .cls-3 {
        fill: #c678dd;
      }
    </style>
  </defs>
  <title>soloRenovatio1.1</title>
  <g id="bg">
    <rect class="cls-1" width="1000" height="1000"/>
  </g>
  <g id="Renovatio">
    <path id="avylon" class="cls-2" d="M486.37,340.8c-.21-3-2.74-3.91-5-3.93-1.12,0-4.37-.12-3.65,2.28.58,1.9,2.08,4.47,5.67,3.74C484,342.2,486.56,343.37,486.37,340.8Zm0,0c-.21-3-2.74-3.91-5-3.93-1.12,0-4.37-.12-3.65,2.28.58,1.9,2.08,4.47,5.67,3.74C484,342.2,486.56,343.37,486.37,340.8Zm0,0c-.21-3-2.74-3.91-5-3.93-1.12,0-4.37-.12-3.65,2.28.58,1.9,2.08,4.47,5.67,3.74C484,342.2,486.56,343.37,486.37,340.8Zm0,0c-.21-3-2.74-3.91-5-3.93-1.12,0-4.37-.12-3.65,2.28.58,1.9,2.08,4.47,5.67,3.74C484,342.2,486.56,343.37,486.37,340.8Zm0,0c-.21-3-2.74-3.91-5-3.93-1.12,0-4.37-.12-3.65,2.28.58,1.9,2.08,4.47,5.67,3.74C484,342.2,486.56,343.37,486.37,340.8Zm0,0c-.21-3-2.74-3.91-5-3.93-1.12,0-4.37-.12-3.65,2.28.58,1.9,2.08,4.47,5.67,3.74C484,342.2,486.56,343.37,486.37,340.8Zm0,0c-.21-3-2.74-3.91-5-3.93-1.12,0-4.37-.12-3.65,2.28.58,1.9,2.08,4.47,5.67,3.74C484,342.2,486.56,343.37,486.37,340.8Zm0,0c-.21-3-2.74-3.91-5-3.93-1.12,0-4.37-.12-3.65,2.28.58,1.9,2.08,4.47,5.67,3.74C484,342.2,486.56,343.37,486.37,340.8Zm0,0c-.21-3-2.74-3.91-5-3.93-1.12,0-4.37-.12-3.65,2.28.58,1.9,2.08,4.47,5.67,3.74C484,342.2,486.56,343.37,486.37,340.8Zm0,0c-.21-3-2.74-3.91-5-3.93-1.12,0-4.37-.12-3.65,2.28.58,1.9,2.08,4.47,5.67,3.74C484,342.2,486.56,343.37,486.37,340.8Zm0,0c-.21-3-2.74-3.91-5-3.93-1.12,0-4.37-.12-3.65,2.28.58,1.9,2.08,4.47,5.67,3.74C484,342.2,486.56,343.37,486.37,340.8Zm0,0c-.21-3-2.74-3.91-5-3.93-1.12,0-4.37-.12-3.65,2.28.58,1.9,2.08,4.47,5.67,3.74C484,342.2,486.56,343.37,486.37,340.8Zm0,0c-.21-3-2.74-3.91-5-3.93-1.12,0-4.37-.12-3.65,2.28.58,1.9,2.08,4.47,5.67,3.74C484,342.2,486.56,343.37,486.37,340.8Zm0,0c-.21-3-2.74-3.91-5-3.93-1.12,0-4.37-.12-3.65,2.28.58,1.9,2.08,4.47,5.67,3.74C484,342.2,486.56,343.37,486.37,340.8Zm0,0c-.21-3-2.74-3.91-5-3.93-1.12,0-4.37-.12-3.65,2.28.58,1.9,2.08,4.47,5.67,3.74C484,342.2,486.56,343.37,486.37,340.8Zm0,0c-.21-3-2.74-3.91-5-3.93-1.12,0-4.37-.12-3.65,2.28.58,1.9,2.08,4.47,5.67,3.74C484,342.2,486.56,343.37,486.37,340.8Zm0,0c-.21-3-2.74-3.91-5-3.93-1.12,0-4.37-.12-3.65,2.28.58,1.9,2.08,4.47,5.67,3.74C484,342.2,486.56,343.37,486.37,340.8Zm0,0c-.21-3-2.74-3.91-5-3.93-1.12,0-4.37-.12-3.65,2.28.58,1.9,2.08,4.47,5.67,3.74C484,342.2,486.56,343.37,486.37,340.8Zm0,0c-.21-3-2.74-3.91-5-3.93-1.12,0-4.37-.12-3.65,2.28.58,1.9,2.08,4.47,5.67,3.74C484,342.2,486.56,343.37,486.37,340.8ZM589.48,525.06a27.55,27.55,0,0,0,2.89,2.91ZM486.37,340.8c-.21-3-2.74-3.91-5-3.93-1.12,0-4.37-.12-3.65,2.28.58,1.9,2.08,4.47,5.67,3.74C484,342.2,486.56,343.37,486.37,340.8Zm0,0c-.21-3-2.74-3.91-5-3.93-1.12,0-4.37-.12-3.65,2.28.58,1.9,2.08,4.47,5.67,3.74C484,342.2,486.56,343.37,486.37,340.8Zm0,0c-.21-3-2.74-3.91-5-3.93-1.12,0-4.37-.12-3.65,2.28.58,1.9,2.08,4.47,5.67,3.74C484,342.2,486.56,343.37,486.37,340.8Zm0,0c-.21-3-2.74-3.91-5-3.93-1.12,0-4.37-.12-3.65,2.28.58,1.9,2.08,4.47,5.67,3.74C484,342.2,486.56,343.37,486.37,340.8Zm0,0c-.21-3-2.74-3.91-5-3.93-1.12,0-4.37-.12-3.65,2.28.58,1.9,2.08,4.47,5.67,3.74C484,342.2,486.56,343.37,486.37,340.8Zm0,0c-.21-3-2.74-3.91-5-3.93-1.12,0-4.37-.12-3.65,2.28.58,1.9,2.08,4.47,5.67,3.74C484,342.2,486.56,343.37,486.37,340.8Zm0,0c-.21-3-2.74-3.91-5-3.93-1.12,0-4.37-.12-3.65,2.28.58,1.9,2.08,4.47,5.67,3.74C484,342.2,486.56,343.37,486.37,340.8Zm0,0c-.21-3-2.74-3.91-5-3.93-1.12,0-4.37-.12-3.65,2.28.58,1.9,2.08,4.47,5.67,3.74C484,342.2,486.56,343.37,486.37,340.8Zm0,0c-.21-3-2.74-3.91-5-3.93-1.12,0-4.37-.12-3.65,2.28.58,1.9,2.08,4.47,5.67,3.74C484,342.2,486.56,343.37,486.37,340.8Zm0,0c-.21-3-2.74-3.91-5-3.93-1.12,0-4.37-.12-3.65,2.28.58,1.9,2.08,4.47,5.67,3.74C484,342.2,486.56,343.37,486.37,340.8Zm0,0c-.21-3-2.74-3.91-5-3.93-1.12,0-4.37-.12-3.65,2.28.58,1.9,2.08,4.47,5.67,3.74C484,342.2,486.56,343.37,486.37,340.8Zm0,0c-.21-3-2.74-3.91-5-3.93-1.12,0-4.37-.12-3.65,2.28.58,1.9,2.08,4.47,5.67,3.74C484,342.2,486.56,343.37,486.37,340.8Zm0,0c-.21-3-2.74-3.91-5-3.93-1.12,0-4.37-.12-3.65,2.28.58,1.9,2.08,4.47,5.67,3.74C484,342.2,486.56,343.37,486.37,340.8Zm0,0c-.21-3-2.74-3.91-5-3.93-1.12,0-4.37-.12-3.65,2.28.58,1.9,2.08,4.47,5.67,3.74C484,342.2,486.56,343.37,486.37,340.8Zm0,0c-.21-3-2.74-3.91-5-3.93-1.12,0-4.37-.12-3.65,2.28.58,1.9,2.08,4.47,5.67,3.74C484,342.2,486.56,343.37,486.37,340.8Zm0,0c-.21-3-2.74-3.91-5-3.93-1.12,0-4.37-.12-3.65,2.28.58,1.9,2.08,4.47,5.67,3.74C484,342.2,486.56,343.37,486.37,340.8Zm0,0c-.21-3-2.74-3.91-5-3.93-1.12,0-4.37-.12-3.65,2.28.58,1.9,2.08,4.47,5.67,3.74C484,342.2,486.56,343.37,486.37,340.8Zm0,0c-.21-3-2.74-3.91-5-3.93-1.12,0-4.37-.12-3.65,2.28.58,1.9,2.08,4.47,5.67,3.74C484,342.2,486.56,343.37,486.37,340.8Zm0,0c-.21-3-2.74-3.91-5-3.93-1.12,0-4.37-.12-3.65,2.28.58,1.9,2.08,4.47,5.67,3.74C484,342.2,486.56,343.37,486.37,340.8ZM427.18,735.38c-1.56-1.53-3.22-.11-4.57,1.2-1.92,1.86-.62,3.72.07,5.45,1.09,2.71,3.76,1.35,5.71,1.87l1.1-.88C431.72,739.59,429.18,737.34,427.18,735.38Zm-29.41-139c-1.73-1.66-5-.12-6.23,1.8-2.73,4.22,4.15,3.27,4.17,6.57C395.6,601.46,400.72,599.26,397.77,596.41Zm88.6-255.61c-.21-3-2.74-3.91-5-3.93-1.12,0-4.37-.12-3.65,2.28.58,1.9,2.08,4.47,5.67,3.74C484,342.2,486.56,343.37,486.37,340.8Zm-8.92-65.27c-1.28-6-13.51-6.84-17.63-1.35-3.5,4.66-6.81,8.25-13.24,9.35-8,1.36-9.91,7.11-6.19,13.49,2.33,4,3.49,7.92,9.25,6.61.7-.17,1.64,1.19,2.52,1.26,3,.26,8.62-.58,8.47-1-2-5.14,4.28-10.36-.73-15,1.88-.95,2.51.65,3.56.85,3.77.75,7.43,1.88,11.15-.9C479.6,285.15,478.34,279.72,477.45,275.53Zm-274.27,252c-3.31-3.3-6.71-6,.21-9.33,2-1,1.31-4.35.33-6.58-.41-.94-1.91-1.62-2.4-.6-3.38,6.92-6.09,3.15-9.07-.3a3.88,3.88,0,0,0-2.73-.81c-5,0-12.79,6.21-14.12,11.16-.83,3.12.45,5.24,3.53,5.43,1.83.12,3.66.59,5.75,0,3.19-.83,6.34-.06,4.44,4.67-1.08,2.68,1.24,3.57,2.64,3.5a31.93,31.93,0,0,1,8.11,1c2-.12,4.07.28,4.59-1.52A6.63,6.63,0,0,0,203.18,527.57Zm30-155.77c-3.18-2-6.82-3.34-8.3-7.65-.68-2-3.61-3.13-6.21-2.14-2.35.89-4.06,2.32-3.46,5.34.48,2.47-1.06,4.5-1.81,6.72-2.32,6.78-6.6,13.08-5.12,20.82.27,1.36.22,3.2-1.55,3.39-7.9.87-7.36,6.94-7.94,11.72.18,4.56-.65,9.33,4.46,10.3,2,.39,4.52-.19,6.86.39,1.92.47,2.65.08,2.81-2.71.18-3.42,1.93-7.72,7.29-5.13,2.77,1.34,4.67-.19,6.21-2,1.33-1.51,2.32-3,4.6-3.3s3.12-1.94,3.93-4.36c1.9-5.69,1.27-11.72,3.87-17.47C241.8,379.11,239.6,375.9,233.17,371.8Zm-19,109.9c-1.67-2.82-3.54-3.58-6.33-1.92-6.57,3.93-12.73,8.15-12,17.37A25.84,25.84,0,0,0,201.69,508c1.14,1.17,2.73,3.75,5.31,2.47s4.29-2.73,4.18-6.1c-.05-1.93-.37-4.2,1.36-6.15C219.48,490.45,219.32,490.44,214.16,481.7Zm19.76,116.65c-.28-7-.81-14.52-6.94-19.73-1.45-1.23-3-2.49-4.51-.42-2.92,4.11-7.76,7.71-4.11,13.9a5.08,5.08,0,0,1,.54,4c-1.69,3.85.9,3.86,3.3,4,1.55.09,3.13-.11,5.49-.23C229.14,598.57,234.12,603.34,233.92,598.35Zm11.72-322.2c-4.32,2.18-8.12-2.3-11.65-.77a15.74,15.74,0,0,1-3.59,0,5.39,5.39,0,0,0-6.54,2.66c-1.36,2.29,1.37,3.44,2.42,4.86,4.45,6,6.32,12.79,7.74,19.92.38,1.89.78,5.25,4.16,4.54S242,304,241,301.23c-1.46-4.22-1-8.2,2.49-10.81,4.2-3.11,2.2-8.16,4.59-11.79C249.06,277.21,246.29,275.82,245.64,276.15Zm35.54-2.71c-8.31-5.81-15.66-10.23-25.7-4.82-3.4,1.84-5.44,3.59-2.4,7.14,2.31,2.7,2.11,4-.92,6.5A15.71,15.71,0,0,0,247,292c-.69,4.39,3.93,7.57,2.77,9.54-3.06,5.19.73,9.13.57,13.82a21.18,21.18,0,0,1,9.53-.66c2.77.53,6.41.55,7.32-3.16.84-3.47,2.62-7.29-1.06-10.5-1.68-1.48-5.7-1.51-4.19-5.16s4.73-1.82,7.36-1.75c1.19,0,2.39,0,3.58,0,5.4,0,10.46-.89,12.72-6.7S287.31,277.73,281.18,273.44ZM437,163.21c-3-.77-5.63-1.85-7.68-4.14-3-3.36-6.88-4.47-11.23-4.44-5.34,0-10.66.35-15.73-2.19-3.69-1.85-7.71-1.34-9.56,2.53-2.17,4.55-4.43,9.58-4.52,14.44-.12,6.08-2.12,11.53-2.6,17.22-2.86-1.13-5.19-2.19-7.62-3-1.35-.44-2.73-.47-2.69-2.43s-1-3.81-2.87-4c-2.11-.22-2.38,2.28-3.18,3.7-3.09,5.51-4.77,11.84-11.15,15.19-2.29,1.2-3.42,4.49-2.17,7.44,1.16,2.71,3.64,3.35,6.44,3.34,1.55,0,3.1.65,4.66.75a33.07,33.07,0,0,0,14.24-1.87C388,203.32,393,197,400.89,197.5c5.57.36,11-.18,14.9-5.25,1.1-1.43,3.24-1.26,5-1.15a7.87,7.87,0,0,0,5-1.14c7.52-4.5,15.13-4.73,23.34,1.72-.4-5.45-1.22-9.39.87-13.78C452.23,173.31,444.62,165.15,437,163.21ZM482.8,203c-.59-3.16-2.28-5.44-6.07-5.3s-8-.68-11.12,2.81c-.87,1-2.71,2.45-4,.37-1.92-3.1-2.82-.57-4.5.28-6.8,3.38-13.08,9.7-21.7,4.84-1.41-.79-2.28-.16-3.14.66-4.18,4.05-9.47,5.66-15,6.46a8.33,8.33,0,0,0-5.86,3.7c-4.17,6.12-6.72,13.39-14.14,17-2.08,1-1.93,4.89-.37,6.5,2.18,2.23,2.92-1.44,4.47-2.1,1.31-.55,1.08-2.82,3-2.45,1.21.25,5.09,9.41,4.19,10.32-4.74,4.76.7,5.19,2.84,5.64,3.44.75,6.85,1.21,10,2.89,3,1.57,5.53.75,7.85-1.84a19.31,19.31,0,0,0,5-9.19c1.07-5,3.7-9.46,6.31-14,4.51-7.92,9.53-2.44,14.37-2.45,1.19,0,2.37-.13,3.69-.21,8.51,2.17,10.37-5.32,13-10.25,1.81-3.47,2.95-5.92,7.1-6.72C482,209.26,483.41,206.3,482.8,203ZM257.74,648.4c-6.94-4-11.51-10.6-17.78-15.85,6.07-1.85,7.66-4.56,6.14-9.58-2.49-8.2-5.31-10.11-11.78-7.7-.45-1.78,1.89-4,.29-3.94-3,.09-5.42-4.29-8.66-1-3,3.07-.28,6.57,1,7.87,4,4,6.59,7.7,3.49,13.34-.23.42.26,1.61.75,2,6.26,5.09,10.48,12.78,19,15,1.32.34,2.8.93,2.28,2.83-.68,2.44.82,2.67,2.57,2.61,2.18-.08,4.71-.34,5.56-2.36C261.22,650.29,259.14,649.23,257.74,648.4Zm77,14.74c-1.42-5.35-2.86-10.6-10.07-11.11-1.42-.1-6.76-2-3.22-4.78,4-3.15,1.43-5.28.32-7.3-4.14-7.5-1.18-16.67-6-23.93-.09-.12,0-.39.06-.58.22-4.15-5.09-9.89-8.61-8.43-4.31,1.79-6.76-.21-10.06-2a22.39,22.39,0,0,0-8.88-3.17c-9.1-.71-7.82-9.12-10.36-14.56-1.79-3.84,1.84-5.41,4.2-7.5,3.18-2.84,7.37-5.61,5.42-10.79-1.17-3.08-.51-5.14,1.23-7.63,1.57-2.23,3.36-6.09.27-7.36-7.63-3.15-6.52-10.61-6.37-15.32.33-9.91-7.29-12.23-12.42-17.12a2.06,2.06,0,0,0-2.73-.3c-.84.6-1.38,1.42-.66,2.52,2.5,3.84.05,4.3-3.06,5.44-4.91,1.77-8.76,5.79-8.41,11,.68,10.48.88,21.12,4.38,31.26a11.83,11.83,0,0,0,3.91,5.64c3.17,2.62,6.74,5.24,7.12,9.94.32,4.13-1,9.56,1.11,12.12,3.69,4.41-.75,6.66-.68,9.86,0,1.58.51,3.14.5,4.71,0,2.15.45,4.37-.82,6.4-2.68,4.28-1.12,7,3.26,8.73a17.38,17.38,0,0,1,10.88,11.74c.84,2.84,2.53,5.11,5.4,5.9,10.81,3,18,10.81,25.38,18.48,4.11,4.27,7.85,7.82,15.15,4.77C335.27,668,335.56,666.4,334.7,663.14Zm57-413.46c-2.12-3.32-5.8-1.7-8.75-1.57s-5.68,1.77-7.92,3.79c-5.77,5.2-12.21,7.59-20,5.71-2.3-.55-5.34-.58-6.45,1.88-2.54,5.62-7.74,9.57-9.7,15.37-3.78,11.14-11.77,18.44-21.3,24.38-7.8,4.86-16.29,8.88-18.78,19a3.28,3.28,0,0,1-3.6,2.58c-4.67-.5-6,2.9-6.36,6.23-.46,4.34-2.2,8.53-1.63,11.92-.34,8.71.94,16,5.21,22.46a40.56,40.56,0,0,0,4.35,4.76c2.32-3,8.26-3,8.3-6.91.05-6,4-4.57,6.66-4.4,4.82.33,10,2.54,11.25-5,.11-.65,1.23-1.08,1.5-1.77,2.41-6.14,9.72-11.06,4.74-19.07a2.41,2.41,0,0,1,.66-3.24c1.28-1,1.49.68,2.23,1,2.63,1.09,5.74,2,7.38-1,2.12-3.88,5.37-4.83,9.25-5.37,5.85-.81,9.29-6,9.93-12,.46-4.32-2.62-8.55,0-12.7,2.18-3.4,3.92-6.88,3.62-11.1a6.18,6.18,0,0,1,2.15-4.73c6.86-7.19,14.95-12.83,23.2-18.23C390.68,259.72,393.52,252.46,391.74,249.68Zm94.63,91.12c-.21-3-2.74-3.91-5-3.93-1.12,0-4.37-.12-3.65,2.28.58,1.9,2.08,4.47,5.67,3.74C484,342.2,486.56,343.37,486.37,340.8Zm0,0c-.21-3-2.74-3.91-5-3.93-1.12,0-4.37-.12-3.65,2.28.58,1.9,2.08,4.47,5.67,3.74C484,342.2,486.56,343.37,486.37,340.8Zm72.46,98.63c1.85-1.5,3.72-2.63,3.72-4.69s-2.27-4.89-2.92-7.52a26.72,26.72,0,0,0-2.92-7.33c-1.49-2.63-2.05-3.38-2.61-6.76s0-4.8,0-7.85-2.45-5.12-3.2-5.87-4.13-3.76-2.25-5.83,3.38-2.25,3.38-5.45-4.89-5.82-3.94-9.39.74-3,2.62-6.77,3.95-6.58,3-10.52-3-9-3-12.4.19-4.89,2.26-6.4,3.19-1.68,4.13-4.69,1.7-4.7.75-7.89-2.44-7.71-3.94-10-5.08-3.95-3.38-6,1.87-4.13,2.25-5.63.94-3.2-1.31-5.45-3.77-4.14-5.08-5.64-3.57-2.07-2.44-3.95.37-9.77-3.38-12.4-4.52-1.21-7-5.68-3.19-7.48-3.94-8.6-3-2.44-3.95-5.26a20.35,20.35,0,0,1-1-5.33,7.81,7.81,0,0,1-3.63,1.63c-2.7.49-6.32.49-6.08,4.13.23,3.41-1.81,8.21,3.93,9.76a3.82,3.82,0,0,1,2.55,4.81c-1.61,6.76-8.62,7.19-13.16,10.34-2.32,1.6-4.44-2.55-6.14-4.43-6.8-7.56-9.53-7.15-12.92,2.34-.26.72-.61,1.66-1.2,2-4.37,2.34-2.93,6-1.11,8.51,2.08,2.93,1.12,4.46-.94,6.38-2.19-5.81-2.2-5.85-8.52-5-9.25,1.25-14.69,9.34-22.72,12.82-.69.31-1.07,1.66-1.33,2.59-.78,2.77.31,5.42.62,8.14.49,4.19-1.23,7.43-5.67,6.84-7.7-1-15.07,2.07-22.69,1.08-1.3-.17-3.11-.05-4,.72-3.32,2.93-6.76,2-10,.45-2.89-1.36-6-1.56-8,.29-6.24,5.87-9.07,6.76-16.25,2.82-3.94-2.17-7.31-5.48-11.4-7.2-3.31-1.4-7.06-1.11-9.73-4.65-1.2-1.58-5.65-2.05-5.75,1.87-.13,5-.79,10.15-.33,15.12.35,3.74-.38,8.86,5.95,9.87,2.08.33,1.35,3.32.23,5.13-.63,1-1.56,2.93-.48,3,4.56.27,3.08,4.3,4.51,6.45.73,1.09,2.16,2.76-.33,2.95-1.82.13-3.93,3.39-5.63,0-2.79-5.57-4.82-2.5-7.89.05-4.9,4.06-9.59,9.74-17.52,5.8-.65,6.11,1.23,11.29,2.46,16.34,1.13,4.63-.31,8-2.87,10.9-7.71,8.75-12.25,19.61-19.48,28.59-3.18,3.94-2,9.81-5.52,12.78-7.06,6-12.31,13.93-20.85,18.27-3.7,1.88-7.34,5-7.62,9.27-.32,4.89-1.47,7.64-7.76,6.6,2,2.4,4.87,4.22,2.61,6.91-2.58,3-6.22,3.18-10,3.11,1-3.7,2-6.76,5.56-8.23a2,2,0,0,0,.34-3.45c-2.86-1.37-1.53-3.05-1.09-5,.22-1,1.41-2.47,0-3.21-6-3.26-12.76-4.61-19.34-6.28-.45-.11-1.11.38-1.59.71-3.6,2.45-7.49,4.5-10.47,7.81-3.55,4-3.43,6.65.83,9.84,1.59,1.18,3.25,2.58,5.08,3,7.25,1.86,7.72,9.58,12.22,13.75a1.91,1.91,0,0,1,.46,1.66c-3.21,7.23,3,8.51,7,9.8,6.31,2,6.87-5,10.13-7.89s-.44-4-2.07-6.15c5.1,1.77,8,.72,8.56-4.19.3-2.87,1.05-3.61,3.64-1.67,2.76,2.07,5.14,1.14,3.85-2.26-.85-2.19.17-2.61,1.12-2.89,1.4-.41,3.28-.65,4.46,0,1.6.83.65,2.54-.22,3.56-2.22,2.59-.66,3.67,1.19,5.72,3.65,4.06,8.17,7.16,11.14,12.14,2.23,3.72,4.15,9.19,10.41,9.42,1.84.07,2,2.48,2.15,4.39.36,4.25-3.8,8.19-3.17,10.82,1.63,6.74-2.46,11.7-3.24,17.54-.54,4.11.39,6.61,2.94,10,5,6.59,13.63,7.84,18.82,14,1.39,1.66,4.52,3,7.06,1.37,3.41-2.23,7.61-1.67,11.1-3.81,2.93-1.79,6.22-2.19,8.62,1.71,1.14,1.88,3.18,2.09,5,.26,4.51-4.45,6.67-2.6,9.6,2.39,2.51,4.27,3.92,11.1,12.23,9.64,2.39-.41,7.06,1.73,8.5,5.42,2.37,6.07,8.1,8.28,12.77,11.68,1,.7,2.57,2.07,3.77.92,2.93-2.79,4.88,1,7.56.88,3.92-.22,4.55,2.7,3.63,6.16-.32,1.22.9,2.09,1.85,2.86,6,4.89,9.19,11.19,10.53,18.86.52,3-2.2,4.24-1.6,7.17a7.86,7.86,0,0,1-8.25,9.46c-4.8-.32-9.72-1.34-14.3-2-6.54-.92-15.59-6.55-15.73-13.44-.17-8.38-10.78-9.87-8.77-18,.05-.24-.86-1-1.32-1-4.05,0-5-3.09-6.25-6-.53-1.3-1.43-3-2.89-1.11-2.52,3.2-4.35.74-6.61-.26s-4.28-2.95-7-.72-3.66,4.68-3,7.85c.72,3.53,4,2.32,6.19,3.28,3.46,1.52,9.71-1,10.25,3.92.77,7.27,5.09,15-1.29,22.21-4,4.49-2.36,12.67,2.88,13.86s4.32,4.7,4,7.53c-.54,4.46.61,8.45,1.61,12.63a7.4,7.4,0,0,0,2.15,4c2.28-1.09,12.6-6,14.77-6.66,2.44-.76,5.82-3.58,7.33-4.7s6.93-1.51,8.44-2.63,6.6-6.39,8.76-6.76,5.73-.75,7.23,0,10.14.81,12-.44a23.65,23.65,0,0,0,6.57-7.64c1.31-2.83,1.88-6.21,4.32-9.6s4.32-4.13,5.45-7.32,1.32-8.08,1.7-10,2.06-5.83,2.62-8.26-1.31-6.69,0-10,1.72-4.46,3.87-6.91,4.59-7.13,6.09-9.76,3.2-13.53,9.4-16.73,8.26-3.38,9.21-7.33,2.44-3.38,0-7.51-6.77-10.15-4-11.65,4.89-4.7,8.08-5.65,7.52-3.38,8.65-4.88a48,48,0,0,1,7-7c2.63-2.06,8.46-5.26,6.58-7.51s-7.15-2.45-5.45-6,2-6.39,5.82-6.76c1.91-.2,3.18-2.46,3.92-2.54h0a6.19,6.19,0,0,0,.41-2.34c0-1.88,1.5-5.28,0-6.4s-3.57-2.62-1.7-4.5,1.34-1.32,2.36-5.64,2.9-4.51,3.85-7.51,1.87-4.89,4.88-6,2.82-3.94,5.45-2.25,4.51.82,6.95-.53,5.45-3.42,6.39-2.48a7.77,7.77,0,0,0,1.32-4.51c0-2.82,1.69-3.19,1.32-5.82s-3.2-2-3.77-5.79S557,440.94,558.83,439.43Zm-173.92-28c-4.94.53-4.58-4.65-5.61-7.58-.91-2.56,5.64-11,7.63-10.37,5.45,1.79,5.55,6.68,5.65,12.22C394.8,412.52,388.32,411.05,384.91,411.43ZM495.2,430.07c-.72,1.63-1.63,3.76-3.77,1.56-3.25-3.33-6.87-1.78-8.95.42-2.66,2.78-5.64,6.25-4,11a51.12,51.12,0,0,1,2.25,7.36c.68,3.82.3,7.11-3.14,10.13-4.31,3.77-7.37,8.52-2.95,14.5,1.29,1.73.73,3.94.21,5.8-.65,2.32-2,3.77-3.84.69-1.36-2.29-4-3.78-5.87-3.39-7.85,1.58-11.38-4.74-16.52-8.13-1.86-1.22-1.39-3.07-1.92-4.69-.67-2.07-3.32-3.71-4.43-3.53-9.48,1.58-7.85-6.39-9.6-11.08-.74-2-.49-2.83-3.19-2.57a5.19,5.19,0,0,1-5.25-3.9c-.66-2.89.65-4.87,3.17-6.31,5.85-3.34,7.45-8.75,4.62-14.56-.66-1.35-2.72-3.08-.26-4.59,1.74-1.07,4.39-1.76,5.44,0,2.42,4.09,6.12,3.05,9.67,3.65,9.67,1.64,19-.51,28.44-1.87,3.28-.48,4.63-4.25,6.22-6.82,1.9-3,4.4-5.44,7.5-4.3s1.83,5.23,2.14,8c.2,1.8-.95,3.74-1.51,5.66C495.92,423.61,497.28,425.39,495.2,430.07Zm16.06-67.88c1.49,4.39-2.13,5.17-4.09,7.39-2.91,3.28-2.51,7.54-1.56,11.39.61,2.47,1.52,4.84,2,7.4,1.27,7.09,1.4,7.08-5.29,5.85-1.94-.36-3.85-1.15-5.79-1.19-5.46-.11-7.8-2.1-5.45-7.69,1.45-3.43-3-4.31-3.29-7.12-.13-1.29-1.73-3.34-1.38-3.65,6.25-5.72,4.54-14.84,9.2-21.17,1.24-1.69,4.38-2.11,3-5.57-2-4.91-5.21-6.38-10.5-3.83a27.92,27.92,0,0,0-5.27,3.75,2.44,2.44,0,0,0-.83,2c.33,1,1.14,1.58,2.23.5,1.48-1.47,2.35-.57,3.19.84a2.85,2.85,0,0,1-.26,3.8c-1.12,1.21-2.27,2.13-4.14,1.2a24.74,24.74,0,0,0-6.51-2.68c-2.67-.47-5.87-.8-5.81,3.64,0,2.71-1.79,2.11-3.24,1.54a9.64,9.64,0,0,0-7.25.17,36.58,36.58,0,0,0-1.91-5.46c-2.18-4.07-1.16-7.31,3.26-7.37,3.08,0,3.19-1.42,4.13-3.44,1.25-2.72,2.48-5.67,6.67-5.65,2.31,0,4.7-1.09,4.68-4.76,0-3.19,2.73-5.61,4.55-8.18,1-1.38,3.38-2.14,4.17-.87,4.22,6.83,12.62,7,18.19,11.91s5.72,10.46,5,16.74c-.52,4.38-1.81,9.25,6.45,8.21C513.45,361.17,510.52,360,511.26,362.19Zm-29.91-25.32c-1.12,0-4.37-.12-3.65,2.28.58,1.9,2.08,4.47,5.67,3.74.66-.69,3.19.48,3-2.09C486.16,337.83,483.63,336.89,481.35,336.87Zm5,3.93c-.21-3-2.74-3.91-5-3.93-1.12,0-4.37-.12-3.65,2.28.58,1.9,2.08,4.47,5.67,3.74C484,342.2,486.56,343.37,486.37,340.8Z"/>
    <path id="tree-of-life" class="cls-2" d="M571.76,491.29c-.38,3-4.51,3.21-5.07,6.4s-.76,7-1.51,7-2.07-2.42-5.82,0-6,4.48-9.4,2.61-1.83-1.46-7.3-2.61-4.72-4.54-9.24-2.66c0,0-1.89,2.06-4-2h0a6.19,6.19,0,0,0,.41-2.34c0-1.88,1.5-5.28,0-6.4s-3.57-2.62-1.7-4.5,1.34-1.32,2.36-5.64,2.9-4.51,3.85-7.51,1.87-4.89,4.88-6,2.82-3.94,5.45-2.25,4.51.82,6.95-.53,5.45-3.42,6.39-2.48a15.56,15.56,0,0,1,3,4.7c.75,1.88,3,3.95,4.51,5.26s4.75,2.82,4.91,4.7-.72,3,0,6.27S572.14,488.28,571.76,491.29Z"/>
    <path id="nu-martyr" class="cls-2" d="M842.25,426.32c-4.67-5.62-8.25-11.83-11.72-18.2-1.22-2.26-3.85-4.15-7-1.68-5.65,4.47-6.11,12.67-12.17,16.9-.46.32.11,2.25.33,3.39,1.13,6.12-1.62,9.16-7.79,9.08-3.7,0-8.13-1.33-9.8,4a1.76,1.76,0,0,1-2.41,1.16c-4.84-2.27-6.82,1.29-8.67,4.45-3.13,5.31-9.43,8.62-8.92,16.49.13,2.14-1.81,4.81.54,7.37-4.68-3.3-12.77-2.28-18.21,2.53-.93.84-4,.31-2.64,2.84.79,1.45,2.51,2.55,5,.69-1.31,3.3-2.77,3.75-5,2.36a3.63,3.63,0,0,0-5.75,2.07c-1.33,5.2-6.67,7.76-7.76,13-.25,1.13-1.72,2-2.19,1.5-3.91-3.82-7.77-3.28-11.83-.37-.2.13-1-.57-1.5-.87-3.39-1.85-4.85.32-4.43,3,.88,5.55-2,7.54-6.44,9.58-2.16,1-4.44,1-6.53,2.1-6.1,3.14-8.23,2.3-11.49-4.09-.55-1.1-1-2.56-2.18-2.5a3.25,3.25,0,0,0-3.16,3.06c.28,4.6-2.91,5.14-6.07,5.52-3.44.41-5.32,2.05-4.31,5.45.88,2.91-.32,3.9-2.68,4.84-2.71,1.08-5.06,2.72-8.13,3.35-5.59,1.16-8.85,9.75-4.87,11.11,6.91,2.37,4.17,7.15,5,11.4,1.15,5.8-1.6,11.74.07,17,3.09,9.79,7.39,19.17,9.3,29.4.53,2.79.13,5.2-1.1,6.77,0,0,8.56,1.13,10.06,4.52a13.28,13.28,0,0,0,2.14,3.35,11.66,11.66,0,0,0,5.46,3.52l.29.08c3.38.89,6.76,4,7.75,5.09a2,2,0,0,1,.15.18,2.18,2.18,0,0,0,.93.53h0c1.57.54,4.42.91,5.43,2.09a4.39,4.39,0,0,1,.79,1.91c.4,1.75.59,3.65,2.35,2.59.29-.17.57-.36.85-.53,2.09-1.36,3.66-2.72,4.66-1.72a35.42,35.42,0,0,1,4,4.13c1.21,1.64,3.09,5,3.2,5.24h0A56.88,56.88,0,0,0,730,616.51a15.48,15.48,0,0,1,3.86-7.63c5.56-6.54,10.8-13.36,16-20.18,2.29-3,8.42-4.88,11.57-3,1.68,1,3.34,2,4.79.37,1.67-1.86,4.83-5,3.29-6.37-4.54-4-1.68-8.46-2-12.69a25.09,25.09,0,0,0-8.38-17c-2.69-2.54-8.45-5.37-4.54-11.51,1-1.63-1.22-1.51-2.65-1.52-4.43,0-5.6-2.51-3.86-6.29,1.18-2.58,3.29-4.71,6.18-5,4.79-.54,9-1.2,8.2-7.66-.06-.49,1.38-1.25,2.2-1.75,7.67-4.55,12.85-17.21,8.43-25-3.17-5.54.23-6.36,3-8.25s5.64-3.21,3.49-7.38a2,2,0,0,1,2-2.85c2.63.43,3.35-1.22,4.58-2.81,2.12-2.75,4.4-3.46,7.44-.66,8.47,7.82,18.14,6.79,28,3.13,2-.74,5.62-1.74,5.63-2.63,0-6.84,6.56-6.52,9.86-9.6,2-1.86,5.39-3.36,4.28-6.5-2.2-6.24,0-11.7,2-17.24C844.78,432.82,844.61,429.16,842.25,426.32ZM747.78,548.1a.7.7,0,0,1,1.21-.47c1.18,1.24,2,2.52-1.45,4.33-1.68.89-1.87,3.74-.68,6.4,1.62,3.62,2.75,7.87-3.26,9.26-2.16.5-2.85,2.41-3.64,4.31-1.36,3.33-3.07,6.21-7.32,6.85-2.63.38-3.26,3.16-3.3,5.51a16.59,16.59,0,0,0,.79,6.46c2.11,5.31-1.12,8.6-4.88,9.94-4.18,1.49-7.56,3.88-11.28,6-5.12,2.91-12.88-2.26-12.05-8,.9-6.24.59-13.18,7-17.31a3.77,3.77,0,0,0,1.21-2.57c.23-2.91.85-4.27,4.45-3.37,3,.74,5.93.27,5.49-4.69a16.88,16.88,0,0,1,7.52-15.59c3.75-2.35,9.52-3.21,14.65-2.64C745.74,552.85,747.76,551.16,747.78,548.1Zm40.47-117.41c-5-1.77-5.49-7.6-9.59-10.25-1-.62-1.42-3.86,2.15-3.57,5,.4,4.67-2.17,2.72-5.39a10.48,10.48,0,0,0-10.37-5.2c-2.4.16-4.92-.29-4.86-2.91.12-5.42-1.33-8.11-7.26-6.29a3.37,3.37,0,0,1-2.6-1.11c-2.34-2.51-5-4.86-6.93-7.7-.1.07-1.83,1.4-3.3,2.31s-4.13,3-7,3.57-3,2.07-4.89,4.7-3.57,2.25-8.08,3.75-4.5,4.14-5.07,6.21-2.44,3.75-4,5.63-2.81,2.25-5.07,2.07-3.39-1.88-5.64-4.7-4.7.75-6.7,1.32-5.51,1.88-8.52,1.88-7.32,3.75-7.89,4.5-1.31,4.51-2.63,7.53-3.38,2.81-5.83,5.45-5.82,1.87-8.83,2.89-4.7,1.61-7.68.29-4.35,2.07-7.17,4.33-1.5,2.63-3.19,5.07-6,5.83-8.53,7.14-4.25.94-6.69,1.69-4.33,3.39-5.64,5.26-4.13,0-7.14-1.31-3.57-.19-6.2,1.31-4.32,3-6,3.2a100.08,100.08,0,0,1-10.71,0c-2.82-.18-2.45,1.32-3.76,4.32s-4.89.38-7,1.31-3.77,3.2-6.2,4.7-2.64,1.51-4.52,5.27-7.3,5.33-7.3,5.33c.72,3.31,1.67,5,1.29,8s-4.51,3.21-5.07,6.4-.76,7-1.51,7c0,0,4.44,2,4.67,2.79s3.06,3.11,3.43,4.7a6.4,6.4,0,0,0,2.8,4,24.33,24.33,0,0,1,4.6,2.81c.66.66,1.79,3.2,3.29,3.29a8.9,8.9,0,0,1,3.48,1.5l1.61.92c-1.52-5.32-1.41-10.35,3.68-13.72,4.43-2.94,2.13-7.71,3.57-11.48,1.14-2.93.87-5.32,5.25-3.42,2.31,1,5.42-.73,8.07-.94,9.76-.75,19.73.8,29.11-3.48,1.63-.75,3.44-.14,2.66,2.3-1.23,3.86-1.6,8.29-5.77,10.51-6.16,3.27-9.51,9.54-14.82,13.83-3.38,2.73-6.16,4-10,3.29-2.44-.44-4.1-1.4-3.66,2.65.33,3-1.57,4.14-4.62,2.11a14.43,14.43,0,0,0-13.37-1.54l0,0,.06.08a.38.38,0,0,1,.09.09l.1.11,2.89,2.91,0,0a4.74,4.74,0,0,0,1.89,1.11c1.69.28,5.92,1.12,7.19,2.53s1.53,2.26,4.21,3.81,5.09,2.26,5.65,5.22a12.54,12.54,0,0,0,4.24,6.62c1.26,1,6.19,8.66,7.18,11a6.8,6.8,0,0,0,.83,1.4,10.92,10.92,0,0,0,1.65,1.68,25.32,25.32,0,0,0,2.73,1.88c1.82,1.13,4.92,3.65,5.21,6.18v0a10.94,10.94,0,0,0,3.57,7.48c2.63,2.44,5.16,1.59,6.67,4.13s8.59,7.92,10.08,9a16.92,16.92,0,0,1,2.38-11.72c2.63-4.56,4-9.26-2.66-12.44,1.91-1.83,5.07-2.57,4.49-4.87-.35-1.37-2.9-2.76-4.66-3.08-8-1.49-11.51-4.84-12.68-12.67a7,7,0,0,0-1.26-2.68c-4-6.25-3.34-10.17,3.4-13.48,4-2,7.2-4.86,10.25-7.69,3.31-3.06,4.33-2.06,6,1.08.52,1,.15,4,2.83,2.21,2.06-1.39,2-2.61,0-4.66-3.89-4.06-2.91-6.08,2.78-7.07,2.82-.49,6.4-1.25,6.22-4.41-.39-6.71,2.25-11,6.92-15.78,5.82-6,2-14,.93-21.06-.62-4.31,2.07-6,4.76-7.92,3-2.13,4.16,1,5.77,2.36,1.28,1.1,3.57,3.59,3.75,2.89,1.18-4.32,5.46-3.82,7.86-6,.81-.73,1-2.38,2.49-1.95,1.66.47,1.76,2.12,1.56,3.48-.57,4,2.1,6.69,3.68,9.82,2.05,4.06,6.33,3,9.53,3.38,2.72.31,3-3.09,3.22-5.49.21-2.16,1.06-3.27,3.49-4,2.74-.83,7.44-3.62,7.21-4.49-1.54-5.85,2.21-8.65,5.32-12.21,3.64-4.15,6.81-5.06,10.72-1,2.59,2.71,4.47,2.38,7.22,1.14,4.11-1.85,7.92-.9,10.59,2.54,1.69,2.19,4.17,2.25,5,1,1.9-2.94,5-3.33,7.46-5.07,1.37-1,3.27-2.13,2.83-5.08-2.62,1.47-4.9,2.73-8.87,1.67,8.58-.49,10.91-8.07,16.73-11C790.9,434.68,791.18,431.73,788.25,430.69Zm109.64,43.75c-2-3.7-7.71-4.07-10.87-1.14-1.35,1.24-2.69,3.1-4.35,2.72-5.62-1.27-7.74,2.16-9.77,6.27-1.32,2.65-2.58,5.53-4.6,7.6-8.06,8.26-5,19.47,1,26.68a45.45,45.45,0,0,0,11.5,9.84c2.76,1.72,5,4.83,8,2.45s4.5-6.08,2.25-10.17c-2.68-4.86-.81-8.32,2.9-12,5.22-5.21,9.71-11.17,14.52-16.81v-3.58C905.11,482.15,900.48,479.34,897.89,474.44ZM803.32,630.16c-1.35-4.26,1.29-8.61-.75-12.31,1-2.44,1.29-4.36-.84-5.74s-3.83.17-5.54,1c-4.14,2-6.9,5.6-10,8.78a5,5,0,0,0-.87,6.09c1.56,2.56.91,4-.61,6.27-3.52,5.24-1.26,14.33,3.9,17.94,4.08,2.87,7.65-.17,11.29-1,2.14-.5,2.26-3.16,1.26-5.08-2-3.84-1.62-7.08,1.51-10.21C804.15,634.37,803.89,632,803.32,630.16Z"/>
    <path id="oo_xora" data-name="oo&apos;xora" class="cls-2" d="M334.49,745.54c-7.14,1.31-5.05,9.3-9.66,13.08-7.08,5.8-5.78,14.67-.53,22.14,2.56,3.65,3.77,8.57,6.33,12.64.9,1.44-1.32,3.41-3,3.76-4.17.85-8.82.42-11.71-2.36-3.07-2.93-5.94-6.12-9.23-8.87-2-1.64-1.87-4.22-1.18-6.11,1.43-4-.92-6.17-3-8.74-7.18-9-9.58-19.39-6.32-30.19a49.81,49.81,0,0,1,8.06-15.6c2.7-3.53,5.26-5.81,9.83-4.89,5-1,8.47,1.15,10.76,5.41,1.08,2,2.39,3.89,4.34,4.79,6.31,2.93,4.82,8.76,5.49,13.81C334.71,744.78,334.62,745.51,334.49,745.54Zm89.58,48.29c-4-10.3-9.16-19.48-22.55-19.43a10,10,0,0,1-9.2-5.66c-2.3-4.78-6.13-4.9-10.57-3.44a34,34,0,0,0-10.67,5.61c-1.14.92-4.35-1.26-4.75,2.37-.32,3,1.33,4.7,3.56,6.34,5.13,3.8,10.9,7.12,14.93,11.88a43.93,43.93,0,0,0,10.12,9.21,2.07,2.07,0,0,1,.72,2.69c-2.23,2.47.36,3.22,1.73,3.42,3.56.53,7.32.53,9.78-2.73a13,13,0,0,1,12.25-4.82C425.07,800,425.18,796.7,424.07,793.83Zm95-41.33c-3-3.69-4.79-8.1-7.09-12.21-3.72-6.63-11.15-8.41-16.41-3.6-3.7,3.39-8.51,3.85-12.65,6-2,1-5.41.53-4.26-3.27,2.2-7.29-5.1-6.6-8-8.93s-4.91,2.06-6.43,5.14c-1.84-4-3.57-7.52-8.19-6.65-3.72.72-7.32,8.2-5.78,11.94a3.31,3.31,0,0,1-.74,4.17c-3.4,3.72-6.53,2.73-9.67-.23s-6.34-4.62-10.41-1.84l-1.1.88c3.45,5.34,7.09,10.47,12.19,14.42,3.14,2.45,6.67,5.76,10.37,4.11,2.78-1.24,5.17-5.07,2.91-10,1.38.94,1.89,1.23,2.33,1.59s.77.64.74.89c-1.4,8.34,5.66,10.8,10.32,14.92,2.37,2.08,4.4,5.13,7.15,6,9.46,3.2,19.16,5.68,28.8,8.34a4.25,4.25,0,0,0,4.31-1.4c2.22-2.3,11-20.52,11.5-24.14C519.28,756.65,520.84,754.66,519.08,752.5Zm100.44,32.94c2.88-.75,5.25-2.14,5-6.11-.24-3.25,1.48-5.52,5.32-5.73,5.57-.32,10.27-2.12,12.46-8a13.25,13.25,0,0,1,4.63-6.71c1.69-1.2,1.9-4.58-.58-4.45-4.15.21-7.56-2.6-11.42-1.81-4.91-.47-9.42,1.41-13.2,3.33-9.38,4.78-17.31,12.2-28.7,13.09-4.49.35-5.27,5.67-6.32,9.6a1.55,1.55,0,0,0,1.64,2c4.31-.34,8.91-.05,12.87-1.48,5.58-2,7.22-2.06,10.59,3.33A6.53,6.53,0,0,0,619.52,785.44Zm74.91-52.22a2.74,2.74,0,0,0,3.93,2.32c9.21-3.87,17.38-9.12,24.36-17.6-8.9-2.18-14.64-6.13-16-14.52-.33-2-.83-3.47-3.2-3.31-2.1.14-2.93,1.43-3.61,3.33-1.11,3.14-.31,6.9-2.77,9.54C691.41,719.09,695.07,726.45,694.43,733.22Zm119.73-25c-5.51-.87-.38-3.47-1-5.08l-1-.88c-2.41.78-3.71,2.74-5.13,4.64-.9,1.19-2.23,3.11-3.81,1.41-3.9-4.26-6.33-.49-9.4.83,1.12,2.58,3.52,1.43,4.8,2.61.52.48,1.15,1.32,1.07,1.9a3.07,3.07,0,0,1-1.5,1.49c-5.81-4.12-8-.1-12.33,3.46-5,4-11.29,6.78-16.77,10.84-8.44,6.23-18,10.9-27.12,16.28-1.31.77-2.87,1.22-4,.61-6.56-3.56-8,.29-9.2,5.67-.64,2.79-1.09,6.87-4.4,7.58-9,2-17.72,4.14-23.66,12a3.48,3.48,0,0,1-1.9,1.36c-10.7,1.7-17.4,11.37-27.71,13.86a3.87,3.87,0,0,0-1.53.9c-9.19,7.9-12.4,8.16-22.69,1.41-1.49-1-2.61-1.38-4.31-.7-3.25,1.32-6.35,2.76-10.26,1.68a4.25,4.25,0,0,0-5.12,3.83c-.47,4.11-2.38,5.94-6.71,6.72-5.27,1-8.82,4.34-10.14,10.19-1.08,4.79,3.2,5.58,4.95,7.93,4,5.43,6.88,11.94,15.71,12.83,5.87.59,12.65,1.09,17.8,5.33a15.64,15.64,0,0,0,11.88,3.82c2.69-.25,4.14,1.68,5,4.21a39,39,0,0,0,3.74,8c.72,1.12,2.23,3.41,3.57,2.53,3.67-2.4,8.71-3.91,9.48-9,.41-2.74,1.53-2.46,3.5-3,3.69-1,7.13-2.9,10.69-4.43-2.29-5.24,3.14-8.06,3.81-12.3.48-3.09,2.54-3.69,4.66-3.21,7.49,1.68,13.51-1.41,19.93-4.61,5.46-2.7,6.25-5.93,4-10.84-1.42-3.05-1.29-5.8,1.5-8,6-4.73,6.15-6.19.33-10.94-3.61-3-3.8-6.46-.69-9.16,3.6-3.15,4.27-10.38,11.59-8.8.73.16,2.39-1.19,2.62-2.1,1.26-4.92,3.92-3.17,7.24-2.34,3.86,1,8.68,4.15,11.87,1,4.67-4.68,11.89-8.46,11.14-16.54-.58-6.26,3.52-6.45,7.09-5.86,6.32,1.06,8.92-1.88,9.73-7.32a7.28,7.28,0,0,1,4.91-6.15c1.79-.68,3.59-1.52,4.11-3.17,1.76-5.58,6.58-5.61,11-6.53,1.51-.32,3.28.4,4.47-1C816.8,720.24,815.31,708.43,814.16,708.26Zm-229.57,130c1.41-4.82-3.26-4.95-5.32-5.81-3.47-1.43-7.35-3.45-11.27.77-6.1,6.57-10.34,6.94-15,1.52-2.38-2.8-3.38-2.43-6-.64-3.08,2.11-6.76,3.32-10-.43-3-3.42-6.44-3.29-9.92-.55-.9.72-2,2.15-2.7,2-1.79-.43-3.45-1.68-3.74,1.42-.22,2.34.13,4.46,2.83,5.18,1.61.43,3,.38,2,3-1.61,4.21,2.86,11.72,7.25,13.32,8.23,3,16,3,24.7.32,6.23-2,13.37-5.21,20.44-.77,2.24,1.4,4-1,4-2.89s.18-3.41,2.09-4.26c2.87-1.28,2.09-4.46,1.35-5.62A6.89,6.89,0,0,1,584.59,838.27Zm68.8-233.68c.57.17-2.54,4.75-5.68,5.12a86.23,86.23,0,0,1-9,.15c-9.8.14-13.61,4-13.42,13.72,0,2.15,0,4.31,0,7.53-8.72-4.49-17.4-6.51-21.7-16.05-3.53-7.85-7-7.59-13.15-1.2-3.44,3.56-6.21,6.73-6.35,12.45-.08,2.79-2.49,8.35-9,6.91-3.74-.83-8.44,1.84-10.06-4.05-.42-1.5-1.18-2.91-1.65-4.28-1.47-4.26-3.14-6.39-7.38-2.9-1.37,1.14-2.64.77-3.57-.56A2.17,2.17,0,0,1,553.5,618c6.64-1.89,11-8,18-9.34a10,10,0,0,0,6.85-5.1c1.86-3.21,2.74-6-1.19-7.88-1.87-.88-.56-3.74-3.12-3.83-2.15,2.56.38,4.83.79,7.63-8.59-2.61-15.18-2.13-22.83,4.22-7.17,6-13.9,13.92-24.11,16-2.54.52-4.23,3.2-5,5.54s-1.12,3.59-4.27,3.08c-2.74-.44-1.87,2.13-1.5,3.89.91,4.31,4.71,7.68,4.22,12.4-.75,7.36,6,11.26,7.87,17.56s2,6.84-4.39,6.3c-3.22-.28-6.29-.37-9.12,3.33,3.1-.33,6.28,7.42,7.79-1.57.4-2.38,8.95-.2,10.48,2.94,2,4.07,1.17,8-1,11.82a2.69,2.69,0,0,1-3.64,1.1c-5.23-2.18-10.34-4.47-16.09-5.24-2.72-.36-2.78-3-1.45-5.17.33-.54,2.7,1.54,1.7-1.28-.5-1.43-1.08-1.56-2.58-1.46-3.71.26-7.08,1.25-9.77,3.81-6.23,5.89-13.29,11-10.3,21.82,1.46,5.29-5.3,7.55-8.12,11.34-3.22,4.31-5.38,4.38-7.77-.87-1.49-3.23-3.75-.13-4.56.89-1.89,2.36-4.05,3.45-6.73,2.48-3-1.09.17-4-1.18-5.7-2.07-2.64-3.69-6.46-6.39-7.52-2.27-.88-3.49,3.18-3.86,5.67-.54,3.66-2.52,3.3-5.47,3.25-7.77-.14-12.58-4.09-15.85-10.61-.43-.86-1.31-2.19-1-2.62,4.34-6.22-1-6.74-4.52-9.89-8.49-7.5-17.9-10-28.67-9.31-2.4.15-4.27-.22-5.63-1.4,2.28-1.09,12.6-6,14.77-6.66,2.44-.76,5.82-3.58,7.33-4.7s6.93-1.51,8.44-2.63,6.6-6.39,8.76-6.76,5.73-.75,7.23,0,10.14.81,12-.44a23.65,23.65,0,0,0,6.57-7.64c1.31-2.83,1.88-6.21,4.32-9.6s4.32-4.13,5.45-7.32,1.32-8.08,1.7-10,2.06-5.83,2.62-8.26-1.31-6.69,0-10,1.72-4.46,3.87-6.91,4.59-7.13,6.09-9.76,3.2-13.53,9.4-16.73,8.26-3.38,9.21-7.33,2.44-3.38,0-7.51-6.77-10.15-4-11.65,4.89-4.7,8.08-5.65,7.52-3.38,8.65-4.88a48,48,0,0,1,7-7c2.63-2.06,8.46-5.26,6.58-7.51s-7.15-2.45-5.45-6,2-6.39,5.82-6.76c1.91-.2,3.18-2.46,3.92-2.54,2.08,4,4,2,4,2,4.52-1.88,3.77,1.5,9.24,2.66s3.92.72,7.3,2.61,5.64-.2,9.4-2.61,5.07,0,5.82,0c0,0,4.44,2,4.67,2.79s3.06,3.11,3.43,4.7a6.4,6.4,0,0,0,2.8,4,24.33,24.33,0,0,1,4.6,2.81c.66.66,1.79,3.2,3.29,3.29a8.9,8.9,0,0,1,3.48,1.5l1.61.92c-4.55,3.89-10.37,4.61-15.82,6.11-3.24.88-3.43,1.92-3.39,5.26.09,7.78,7.66,12.11,8.06,19.67.07,1.39,3.52,3.85,6.45,1.8s.94-4-.32-5.52c-2.85-3.48-1.58-5.13,2.19-6.05,1.33-.33,2.68-.63,4-1,3-.83,5.79-2.64,6.13-5.7.36-3.37-2.07-6.29-5.1-7.31-4.75-1.59-4.27-3.94-2.08-7.15l0,0,.06.08a.38.38,0,0,1,.09.09l.1.11a27.55,27.55,0,0,0,2.89,2.91l0,0a4.74,4.74,0,0,0,1.89,1.11c1.69.28,5.92,1.12,7.19,2.53s1.53,2.26,4.21,3.81,5.09,2.26,5.65,5.22a12.54,12.54,0,0,0,4.24,6.62c1.26,1,6.19,8.66,7.18,11a6.8,6.8,0,0,0,.83,1.4,10.92,10.92,0,0,0,1.65,1.68,25.32,25.32,0,0,0,2.73,1.88c1.82,1.13,4.92,3.65,5.21,6.18v0a10.94,10.94,0,0,0,3.57,7.48c2.63,2.44,5.16,1.59,6.67,4.13s8.59,7.92,10.08,9c.09.53.22,1.07.37,1.62.71,2.66-1.14,5.07-1,7.58C653,600.83,647.92,603,653.39,604.59ZM576.08,585c-.56-1.51-1.26-2.61-3-2.55s-2.73.67-2.57,2.49c.11,1.23.7,2.8,2,2.36S575.74,586.89,576.08,585Zm149.85,45h0c-.11-.21-2-3.6-3.2-5.24a35.42,35.42,0,0,0-4-4.13c-1-1-2.57.36-4.66,1.72-.28.17-.56.36-.85.53-1.76,1.06-2-.84-2.35-2.59a4.39,4.39,0,0,0-.79-1.91c-1-1.18-3.86-1.55-5.43-2.09h0a2.18,2.18,0,0,1-.93-.53,2,2,0,0,0-.15-.18c-1-1.13-4.37-4.2-7.75-5.09l-.29-.08a11.66,11.66,0,0,1-5.46-3.52,13.28,13.28,0,0,1-2.14-3.35c-1.5-3.39-10.06-4.52-10.06-4.52-1.17,1.49-3.09,2.21-5.69,1.75-7.39-1.31-11.6,3.3-16.46,7.61-3.88,3.46-2,5.86-.28,9,.37.65-.13,1.94-.5,2.81-1.75,4.06-2.27,8.37-2.92,12.67-.53,3.51-2,6.19-6.24,6.68-8.83,1-15.7,5.2-19.15,13.75-1.28,3.18-2.86,3.7-6.34,3.21-7.8-1.11-13-5.6-17-11.64-2.7-4-5.63-3-8.86-1.57-3.58,1.62-4.72,5.74-8.49,7.75-3.38,1.8-4.76,3.88-6.86,1.34-2.73-3.32-6.11-2.87-9.26-2.38A94.66,94.66,0,0,1,559.15,651c-2.18.11-3.68,1.27-5.5,2.7-6.69,5.27-8,13-10,20.27-1.15,4.25-.88,10.52,2.79,13,6.91,4.69,8.17,8.3,2.47,15.15-2,2.42-4.83,4.18-6.06,7.28-1.36,3.45.63,8,3.29,7.08,8.06-2.68,16.92-2.4,24.5-6.58a6.45,6.45,0,0,1,5.66-.66c4.09,1.72,9-2.74,12.65,1.83.22.27,1.8-.45,2.7-.83,1.47-.62,2.92-1.48,4.56-1,11.68,3.41,20.66-6,31.54-6.75,1.93-.13,4-2.23,6.51-1.42,1.14.37,2.38-.28,2.4-1.12.1-4,2.73-4.86,5.84-6.66,5.73-3.33,11-6.82,18-7.06,4.19-.14,8.93-.15,12.41-2.07,4.74-2.62,8.94-5.82,14.64-6.59,3.6-.49,7.25-1.85,9.2-5.78,3.2-6.47,10.67-8.91,14.34-15.41,2.67-4.72,10.18-6.61,8-14.3-.24-.85.78-2.22,1.48-3.14A46.43,46.43,0,0,0,725.93,630Z"/>
    <path id="la-guardia" class="cls-2" d="M749.46,383.67c-2.83-12-7.41-23.36-12.44-34.59a29.7,29.7,0,0,0-5.73-8.88c-2.23-2.3-4-4.19-6.5-.23-.88,1.39-2.63,2.47-4.09-.27-1-1.92-3.88-3.6-5.32-1.95-3.46,4-7.25,3-11.37,2.32a6.71,6.71,0,0,0-6.48,2.08c-2.95,3.18-5.64.41-6.64-1.79-1.77-3.88,3.67-11.13,8.13-11.58.72-1.43-5-7.18,2.66-4.08,1.35.55,2.53.07,2.83-1.24.43-1.86-1.17-2.09-2.5-2.59-5-1.9-10.43-3.34-11-10.16a4.83,4.83,0,0,0-3.35-3.95c-6.18-2.07-8.37-8.78-13.89-11.61-.85-.44-1.38-2-1.56-3.1-1.62-9.6-9-16.17-13-24.56-.9-1.88-6-5.32-7.61-2.53-2.48,4.37-7.47,5.53-9.78,9.88-.81,1.51-4.52,5.7-7.45,1.53-1.93-2.75-4.66-4.28-7-6.33-2.77-2.41-4-4.81-2.64-8.28.73-1.86.71-3.67-1.12-4.74-2-1.15-5-1.57-6.21-.1-3,3.54-7.27,6.06-8.52,11A17.23,17.23,0,0,1,600,278.88a13,13,0,0,0-6.7,6.33c-1.22-6.74-10.16-12.64-16.22-10.27-3,1.18-6,2.18-8.19-.32-1.85-2.12-1.09-5.13-.09-7.88,1.81-5-.62-8.83-5.73-10.69-6.29-2.28-12.74-4-18.5-7.83-7.27-4.8-12.59-3.27-17,4.35a12.45,12.45,0,0,1-2.88,3.58,20.35,20.35,0,0,0,1,5.33c.94,2.82,3.19,4.13,3.95,5.26s1.5,4.13,3.94,8.6,3.2,3.05,7,5.68,4.5,10.53,3.38,12.4,1.12,2.45,2.44,3.95,2.82,3.38,5.08,5.64,1.68,3.94,1.31,5.45-.56,3.57-2.25,5.63,1.87,3.77,3.38,6,3,6.76,3.94,10S558,335,557.1,338s-2.07,3.19-4.13,4.69-2.26,3-2.26,6.4,2.07,8.45,3,12.4-1.12,6.76-3,10.52-1.69,3.2-2.62,6.77,3.94,6.2,3.94,9.39-1.5,3.39-3.38,5.45,1.5,5.08,2.25,5.83,3.2,2.82,3.2,5.87-.57,4.46,0,7.85,1.12,4.13,2.61,6.76a26.72,26.72,0,0,1,2.92,7.33c.65,2.63,2.92,5.45,2.92,7.52s-1.87,3.19-3.72,4.69-2.48,3-1.92,6.81,3.39,3.16,3.77,5.79-1.32,3-1.32,5.82a7.77,7.77,0,0,1-1.32,4.51,15.56,15.56,0,0,1,3,4.7c.75,1.88,3,3.95,4.51,5.26s4.75,2.82,4.91,4.7-.72,3,0,6.27c0,0,5.42-1.57,7.3-5.33s2.07-3.76,4.52-5.27,4.13-3.75,6.2-4.7,5.63,1.7,7-1.31.94-4.5,3.76-4.32a100.08,100.08,0,0,0,10.71,0c1.69-.18,3.38-1.69,6-3.2s3.19-2.63,6.2-1.31,5.82,3.19,7.14,1.31,3.2-4.5,5.64-5.26,4.17-.37,6.69-1.69,6.84-4.69,8.53-7.14.38-2.82,3.19-5.07,4.21-5.64,7.17-4.33,4.68.73,7.68-.29,6.39-.26,8.83-2.89,4.51-2.45,5.83-5.45,2.07-6.77,2.63-7.53,4.9-4.5,7.89-4.5,6.51-1.32,8.52-1.88,4.45-4.14,6.7-1.32,3.38,4.51,5.64,4.7,3.57-.19,5.07-2.07,3.39-3.56,4-5.63.57-4.7,5.07-6.21,6.21-1.12,8.08-3.75,2.07-4.14,4.89-4.7,5.45-2.63,7-3.57,3.2-2.24,3.3-2.31A13.85,13.85,0,0,1,749.46,383.67Zm-66-16.29c-2.18.37-4,.86-4.53,3.05-1.13,4.86-4,4.57-7.63,3.05-6.07-2.57-12-4.79-19-3.87-5.63.74-8-2.86-6.46-8.23,1.19-4.24-1.26-6.79-3.74-9.31-1-1-2.48-1.78-2.14-3.27,1.54-6.78-1-10.67-7.82-11.95a1.83,1.83,0,0,1-1.16-2.41,1.19,1.19,0,0,1,2-.18c2,2.34,5.05,1.45,7.53,2.49,6,2.47,9.53-3.27,12.27-6.46,3.6-4.21,6.51-.68,9.54-1,2.53-.26,3.07,2.91,3.24,5.38.23,3.5,1.85,5.13,5.62,6.31,6,1.86,11.49,5.33,17.22,8.05a2.77,2.77,0,0,1,1.81,3c-1.51,3-.3,6.15,0,9.48C690.54,365.42,686.69,366.83,683.42,367.38Zm148.84-80.76c-.11,2.74-3.67,4.49-8.75,3.51a52.84,52.84,0,0,0-9.83-1.94,71.67,71.67,0,0,1-12.91-2.59c-10.11-2.78-12.52-8.5-10.11-18.84,1-4.31.71-8.88,4.52-12.75,2.5-2.54-1.18-6.59-2.15-9.92s-1.42-6,1.39-8.67c4.38-4.25,6.14-4,8.44,1.74,1.49,3.71,8.52,7.18,12.13,6,4.69-1.56,8.61,2.4,6,8.11-3.64,8.08,2.52,10.95,5.85,15.48.75,1,3,1.76,2.59,2.93C827.18,276,832.49,281,832.26,286.62ZM792,328.34a10.2,10.2,0,0,1,.75,2.7c0,9.31-2,11.49-10.61,12.09-1.79.13-3.73-.33-5.35.2-5.79,1.91-7.85-.3-7.31-6,.07-.72,0-2.1-.22-2.13-4.91-.75-4.53-6.43-6.76-8-4.67-3.27-5.35-8.55-6.34-12.22-1.41-5.22-3.85-10.8-3.24-16.48.83-7.48,5.52-9.49,11.7-5.38,2.64,1.75,5.19,3.64,7.67,5.6a6,6,0,0,0,4.28,1.64c5.77-.32,9,2,8.84,7.83C785.1,316,788.64,322,792,328.34ZM690.6,242.05c-6.62-.19-12.23,3.79-16.36,9-4.47,5.68-11.86,6.8-17.43,2.19-2.89-2.39-5-5.09-9.92-2.55-2.73,1.43-5.43-3.31-4.9-5.79,1.22-5.69-2-8.77-5.58-11.28-5.36-3.78-3.56-8.92-3.17-13.5.37-4.34,4.39-5.66,8.25-6.36,4.41-.79,8.88-2.3,13,1a3.47,3.47,0,0,0,3.39.36c6.16-1.79,4.95,1.76,3.44,6.27,1.76-.67,3.12-.77,3.47-1.41,3.78-7,9.64-4.3,14.87-3,6,1.47,8.58,6.31,10.53,11.74,1,2.76,3.14,5.13,4,7.91C694.88,239.17,696.38,242.22,690.6,242.05ZM652.24,144.5c-2.78,3.43-5.19,6.47-9.06,8.66-3.61,2.06-3.67,6.45-4.48,10-1,4.33-3,5.92-7.43,6.85-7.4,1.56-13,.87-19.13-4.65-3.61-3.27-8.61-5.34-11.77-9.6-1-1.4-2.44-1.21-3.46.22-3,4.15-7.14,3.24-11.51,3.59-6.48.52-13.55.92-18.69,6-2.33,2.31-5.15,3.65-7.93,5.18-2.14,1.16-3.85,1.37-5.74-.71-.79-.88-1.78-3.39-3.71-1.76s-2,3.62-1,6c3.46,8.12,7.46,15.61,16.18,19.4,5.11,2.22,6.51,5.48,3.83,11.24-2.49,5.33-4.6,10.14-10.51,12.43-3,1.13-5.49,1-7.73-.93a81.38,81.38,0,0,0-15.55-10.77c-3.46-1.76-5.35-5.14-7.24-8.42a3.23,3.23,0,0,1,.06-3.86c4.05-5.64,4.46-12.25,5.09-18.84.35-3.74-1.91-5.66-4.78-5.21-6.13,1-10.17-2.22-14.71-5.28-2.51-1.69-5.15-3.59-8.52-4-2.51-.3-4.06-2.24-2.24-4.69,1-1.36.38-2.15,0-3.14-.57-1.46-3.14-2.75-.71-4.43a6.68,6.68,0,0,1,6.45-1.24c5.75,1.7,11.73,2.12,17.72-.55,3-1.35,7-2.05,9.79,1.27a3.53,3.53,0,0,0,4.8,1c3.32-2.09,6.36-4.59,10.34-5.44.79-.18,1.6-.7,1.34-1.63-2.26-8.15,5.92-9.46,9.2-14,.64-.88,2.34-1.44,1.64-2.65-4.54-7.85,3.62-10.87,5.94-16.09h4.78c.72,2.39,1.38,4.79.31,7.74,3.27-4.17,7.7-2.57,11.43-3.48,1.5-.36,2.92-1.42,4.36.22,1.62,1.83.09,3.43-.4,5-.38,1.22-1.55,2.21-2.39,3.28-1.4,1.8-1.81,3.39,1.17,3.56,2.67.14,4.35,2.74,7.77,1.8s4.32,3.86,5.19,5.92c1.76,4.16,4.15,4.62,7.29,3,6-3.15,11.45,1.82,17.27.65,1-.21,1.1,1.83,1.65,2.61,1.43,2,3.11,4.78,6.26,1.32,1.65-1.82,4.12-2.45,6.93-2.63,5-.34,7-4.43,4.59-8.81-1.32-2.36-.74-3.69.89-5.11,2.77-2.43,5.31-6,9.43-5.16,2.06.41,1.46,3.83,2.29,5.56C661.85,132.54,657.46,138,652.24,144.5ZM640,270.23c-.5-4.76-3-6.51-7.63-7.19-.13,3.67-.82,7,1.87,9.68.93.92.91,3.69,3.2,2.18C639,273.92,640.29,272.93,640,270.23Z"/>
    <g id="waters">
      <path id="ysmir-sea" class="cls-3" d="M641.4,493.89c-1.23,3.86-1.6,8.29-5.77,10.51-6.16,3.27-9.51,9.54-14.82,13.83-3.38,2.73-6.16,4-10,3.29-2.44-.44-4.1-1.4-3.66,2.65.33,3-1.57,4.14-4.62,2.11a14.43,14.43,0,0,0-13.37-1.54c-2.19,3.21-2.67,5.56,2.08,7.15,3,1,5.46,3.94,5.1,7.31-.34,3.06-3.09,4.87-6.13,5.7-1.33.37-2.68.67-4,1-3.77.92-5,2.57-2.19,6.05,1.26,1.54,3.16,3.53.32,5.52s-6.38-.41-6.45-1.8c-.4-7.56-8-11.89-8.06-19.67,0-3.34.15-4.38,3.39-5.26,5.45-1.5,11.27-2.22,15.82-6.11-1.52-5.32-1.41-10.35,3.68-13.72,4.43-2.94,2.13-7.71,3.57-11.48,1.14-2.93.87-5.32,5.25-3.42,2.31,1,5.42-.73,8.07-.94,9.76-.75,19.73.8,29.11-3.48C640.37,490.84,642.18,491.45,641.4,493.89Z"/>
      <path id="cialo-great-lake" class="cls-3" d="M683.42,367.38c-2.18.37-4,.86-4.53,3.05-1.13,4.86-4,4.57-7.63,3.05-6.07-2.57-12-4.79-19-3.87-5.63.74-8-2.86-6.46-8.23,1.19-4.24-1.26-6.79-3.74-9.31-1-1-2.48-1.78-2.14-3.27,1.54-6.78-1-10.67-7.82-11.95a1.83,1.83,0,0,1-1.16-2.41,1.19,1.19,0,0,1,2-.18c2,2.34,5.05,1.45,7.53,2.49,6,2.47,9.53-3.27,12.27-6.46,3.6-4.21,6.51-.68,9.54-1,2.53-.26,3.07,2.91,3.24,5.38.23,3.5,1.85,5.13,5.62,6.31,6,1.86,11.49,5.33,17.22,8.05a2.77,2.77,0,0,1,1.81,3c-1.51,3-.3,6.15,0,9.48C690.54,365.42,686.69,366.83,683.42,367.38Z"/>
      <path id="unknown1" class="cls-3" d="M515.33,359.86c-8.26,1-7-3.83-6.45-8.21.75-6.28.68-11.71-5-16.74s-14-5.08-18.19-11.91c-.79-1.27-3.18-.51-4.17.87-1.82,2.57-4.56,5-4.55,8.18,0,3.67-2.37,4.77-4.68,4.76-4.19,0-5.42,2.93-6.67,5.65-.94,2-1,3.39-4.13,3.44-4.42.06-5.44,3.3-3.26,7.37a36.58,36.58,0,0,1,1.91,5.46,9.64,9.64,0,0,1,7.25-.17c1.45.57,3.28,1.17,3.24-1.54-.06-4.44,3.14-4.11,5.81-3.64a24.74,24.74,0,0,1,6.51,2.68c1.87.93,3,0,4.14-1.2a2.85,2.85,0,0,0,.26-3.8c-.84-1.41-1.71-2.31-3.19-.84-1.09,1.08-1.9.48-2.23-.5a2.44,2.44,0,0,1,.83-2,27.92,27.92,0,0,1,5.27-3.75c5.29-2.55,8.49-1.08,10.5,3.83,1.41,3.46-1.73,3.88-3,5.57-4.66,6.33-2.95,15.45-9.2,21.17-.35.31,1.25,2.36,1.38,3.65.3,2.81,4.74,3.69,3.29,7.12-2.35,5.59,0,7.58,5.45,7.69,1.94,0,3.85.83,5.79,1.19,6.69,1.23,6.56,1.24,5.29-5.85-.46-2.56-1.37-4.93-2-7.4-.95-3.85-1.35-8.11,1.56-11.39,2-2.22,5.58-3,4.09-7.39C510.52,360,513.45,361.17,515.33,359.86Zm-32-17c-3.59.73-5.09-1.84-5.67-3.74-.72-2.4,2.53-2.29,3.65-2.28,2.28,0,4.81,1,5,3.93C486.56,343.37,484,342.2,483.37,342.89Z"/>
      <path id="ysis-sea" class="cls-3" d="M495.2,430.07c-.72,1.63-1.63,3.76-3.77,1.56-3.25-3.33-6.87-1.78-8.95.42-2.66,2.78-5.64,6.25-4,11a51.12,51.12,0,0,1,2.25,7.36c.68,3.82.3,7.11-3.14,10.13-4.31,3.77-7.37,8.52-2.95,14.5,1.29,1.73.73,3.94.21,5.8-.65,2.32-2,3.77-3.84.69-1.36-2.29-4-3.78-5.87-3.39-7.85,1.58-11.38-4.74-16.52-8.13-1.86-1.22-1.39-3.07-1.92-4.69-.67-2.07-3.32-3.71-4.43-3.53-9.48,1.58-7.85-6.39-9.6-11.08-.74-2-.49-2.83-3.19-2.57a5.19,5.19,0,0,1-5.25-3.9c-.66-2.89.65-4.87,3.17-6.31,5.85-3.34,7.45-8.75,4.62-14.56-.66-1.35-2.72-3.08-.26-4.59,1.74-1.07,4.39-1.76,5.44,0,2.42,4.09,6.12,3.05,9.67,3.65,9.67,1.64,19-.51,28.44-1.87,3.28-.48,4.63-4.25,6.22-6.82,1.9-3,4.4-5.44,7.5-4.3s1.83,5.23,2.14,8c.2,1.8-.95,3.74-1.51,5.66C495.92,423.61,497.28,425.39,495.2,430.07Z"/>
      <path id="unknown2" class="cls-3" d="M384.91,411.43c-4.94.53-4.58-4.65-5.61-7.58-.91-2.56,5.64-11,7.63-10.37,5.45,1.79,5.55,6.68,5.65,12.22C394.8,412.52,388.32,411.05,384.91,411.43Z"/>
      <path id="unknown3" class="cls-3" d="M746.86,558.36c1.62,3.62,2.75,7.87-3.26,9.26-2.16.5-2.85,2.41-3.64,4.31-1.36,3.33-3.07,6.21-7.32,6.85-2.63.38-3.26,3.16-3.3,5.51a16.59,16.59,0,0,0,.79,6.46c2.11,5.31-1.12,8.6-4.88,9.94-4.18,1.49-7.56,3.88-11.28,6-5.12,2.91-12.88-2.26-12.05-8,.9-6.24.59-13.18,7-17.31a3.77,3.77,0,0,0,1.21-2.57c.23-2.91.85-4.27,4.45-3.37,3,.74,5.93.27,5.49-4.69a16.88,16.88,0,0,1,7.52-15.59c3.75-2.35,9.52-3.21,14.65-2.64,3.48.37,5.5-1.32,5.52-4.38a.7.7,0,0,1,1.21-.47c1.18,1.24,2,2.52-1.45,4.33C745.86,552.85,745.67,555.7,746.86,558.36Z"/>
    </g>
    <path id="athentha" class="cls-2" d="M190,203.59H140.37V89.71H190l13.17,56.94ZM126.28,99.86H92.45v33.83l16.91,5.46,16.92-5.46Zm-2.07,50.35-37.16,19.3L70.84,203.59h53.37Z"/>
  </g>
</svg>
