<svg xmlns="http://www.w3.org/2000/svg" viewBox="0 0 1000 1000">
  <defs>
    <style>
      .cls-1 {
        fill: #21252b;
      }

      .map-bounds {
        fill: #abb2bf;
      }

      .cls-3 {
        fill: #333842;
        stroke: #abb2bf;
        stroke-miterlimit: 10;
      }
    </style>
  </defs>
  <title>soloTerrenusBounds1.2</title>
  <g id="bg">
    <rect class="cls-1" width="1000" height="1000"/>
  </g>
  <g id="bounds">
    <path id="body" class="map-bounds" d="M922.48,305.85a12,12,0,0,0,.12-3.16c0-1.4.19-4.34.3-5.24v0c1-8.4-5.8-13.24-12.22-17.12a43.35,43.35,0,0,0-8.3-3.63,15.38,15.38,0,0,0-.4-3c-1.49-6.28-5.75-9.87-8.57-12.25-.49-.41-1.19-1-1.57-1.37A19.17,19.17,0,0,1,891,249a16.14,16.14,0,0,0,3.24-11.26,15.16,15.16,0,0,0-4.29-9.61c1.07-3.62,2.17-8.79.26-14.48-1.83-5.43-5.77-8.89-8.37-11.19l-.94-.82c-.23-1.38-.5-3.21-.62-4.07-.47-3.23-.91-6.27-4-9.29a17.34,17.34,0,0,0-8.52-4.47c-.56-1-1.24-2.23-2.2-3.62a25.71,25.71,0,0,0-5.42-5.47l-.57-.45-.06-.14a19.57,19.57,0,0,0-4.28-6.16,29,29,0,0,0-7-4.47c-.61-.3-1.5-.74-1.86-1l0,0a12.15,12.15,0,0,1-2.11-2.21A12.42,12.42,0,0,0,840,153a16.29,16.29,0,0,0-13.53-4l-.16,0-2.52-.14a35.15,35.15,0,0,1-6.1-.63,41.62,41.62,0,0,1-5.85-3c-1.16-.66-2.36-1.35-3.53-2-.14-.09-.53-.39-.82-.61a23.72,23.72,0,0,0-7.84-4.28,20,20,0,0,0-6.49-.76l-.83-.27a16.45,16.45,0,0,0-1.61-2.26c-4.79-5.79-9.65-8-16.1-7.34a15.16,15.16,0,0,0-4.15-1.64c-1.43-.33-2.78-.57-4.09-.8-1.15-.21-2.23-.4-3.15-.62a62,62,0,0,0-10.18-1.31,48.37,48.37,0,0,1-6.79-.77A22,22,0,0,0,744,118a17.14,17.14,0,0,0-4.87-4.8c-.23-.16-.47-.3-.71-.44a16.41,16.41,0,0,0-8.74-3.7,21.6,21.6,0,0,0-4.71-.39,24,24,0,0,0-8.85,2.46l-.82.36a25.55,25.55,0,0,1-4.77-2.14c-1.36-.71-2.9-1.51-4.58-2.26a36.64,36.64,0,0,0-13.15-3.44c-4-3.52-8.86-4-12.3-3.9a12.34,12.34,0,0,0-9.17-.72,16,16,0,0,0-2.5-.64A28.64,28.64,0,0,0,662,98c-3-1.47-8.57-2.9-14.82,2.26-.89.72-1.8,1.57-2.76,2.46l-.2,0a25.36,25.36,0,0,0-7.5,2.85c-.39.2-1,.49-1.29.65l-1.43-.35c-10.15-2.39-23.49,3.07-27.34,4.8-1.74.78-3.22,1.54-4.4,2.15-.59.3-1.26.64-1.77.88l-.59-.23c-2.19-1-2.19-1-3.9-3-6.6-7.71-13.44-9.32-22.85-5.38a41,41,0,0,0-4.81,2.54l-.56.33-.68-.49c-.91-.65-1.74-1.24-2.42-1.68-1-.66-1.91-1.3-2.76-1.9-5.35-3.76-12-8.44-24.53-6.62-4.8.7-10.55,4-12.57,5.56a21,21,0,0,0-4.44,4.59l-.39-.24a22.12,22.12,0,0,0-7.34-2.57l-.49-.1a20.39,20.39,0,0,1-1.61-2.23l-.62-.92a12.9,12.9,0,0,0-1.29-5.1,22,22,0,0,0-6-7.54c-4.57-3.48-10.61-4.16-15.93-4.77-1-.11-2.11-.24-2.64-.33-10.27-1.84-18.1,1.43-23.27,9.71-1,1.61-1.84,3.27-2.65,4.87-.41.82-1,1.93-1.52,2.9a19.12,19.12,0,0,0-3.86-.62c-1.15-.06-2.13-.08-3.06-.09a15.69,15.69,0,0,1-2.77-.17l-.78-.14c-10.34-1.85-17.38,1.67-21,10.45a20.76,20.76,0,0,0-1.26,7.79V119l-.21.38c-.33.63-.78,1.49-1.28,2.62a52.51,52.51,0,0,0-4.37,18.63c0,.62-.12,1.22-.19,1.8-.45,3.75-1.2,10,2.93,16.74a44.09,44.09,0,0,0,3.29,4.54l.4.51a25.89,25.89,0,0,0-5.46,10.22c-1.4-.35-2.88-.78-4.39-1.21-2.36-.69-4.77-1.39-7.31-1.92a13.92,13.92,0,0,0-10.86-2c-5.88,1.4-8.76,5.93-10.79,9.64a12.59,12.59,0,0,0-6.67,1.25l-.84-.11c-3.65-.5-13.31-1.81-20.13,5.06a42.7,42.7,0,0,0-5.61-5.93c4.61-3,6.57-9.11,8.14-14.54a12.84,12.84,0,0,0,4.11-7c1.35-6-1.88-10.61-2.94-12.12a15.63,15.63,0,0,0-12.07-6.79c-.33-.13-.61-.24-.86-.36,1.43-3.35,1.27-7,1.13-10.34-.08-1.79-.18-3.35-.37-4.74a13.76,13.76,0,0,0-5.39-14.68,15.38,15.38,0,0,0-18.7-.11l-.22.17a20.63,20.63,0,0,0-4.7,2.3c-.6.39-1.13.75-1.62,1.09-.49-.19-1.09-.44-1.58-.65a31.63,31.63,0,0,0-9.56-2.81l-.56-.05a13.9,13.9,0,0,0-10.5-5.29c-7.34-.27-11.77,5.06-13.91,7.63l-.12.15-.83.63a16.64,16.64,0,0,0-4.32,4.59c-2.35-2.59-5.95-4.88-11.74-5.74-13.59-2-18.39,7.7-20.19,11.37l-.06.11c-.18.36-.33.71-.46,1a12.49,12.49,0,0,0-2.29,16.13.31.31,0,0,1,0,.1,16.25,16.25,0,0,0-.8,7.38,13.86,13.86,0,0,0,1.38,4.53,29,29,0,0,0-1.5,3.43c-3.94,10.74,2.4,18.23,6.34,22-.46.15-.9.32-1.32.5-5.54-5-11.68-6.09-18.29-3.27a41.89,41.89,0,0,0-6.73,4c-.58.39-1.37.92-1.67,1.1a48.08,48.08,0,0,0-9.3,7.18c-1.09,1.06-2.09,2.1-3.06,3.1-1.46,1.52-2.86,3-4.2,4.1l-.48.15a24.39,24.39,0,0,0-6.53,2.74c-7.65,4.73-13.66,15.15-7.55,30.2a46.61,46.61,0,0,0,2.07,4.38,5.77,5.77,0,0,1,.89,2.13,11,11,0,0,0,.32,1.37,13.72,13.72,0,0,0,.22,5.2,18.82,18.82,0,0,0,5.68,9.79,13.85,13.85,0,0,0,3.13,5.55,15.13,15.13,0,0,0,6.07,3.94,15.43,15.43,0,0,0,12.88,5.93,44.6,44.6,0,0,0,5,5.37c-5.54,1.69-9,6.21-11.2,9-.27.34-.5.66-.68.87a56,56,0,0,0-4.34,5.67c-.27.39-.58.85-.87,1.25-2.83-.33-5.69-2.44-10.2-5.9l-1-.8c-1.5-1.14-3-2.09-4.22-2.93a26.47,26.47,0,0,1-3.53-2.55c-.28-.37-.82-1.24-1.19-1.83a28,28,0,0,0-6.35-7.74,23,23,0,0,0-6.86-3.49,13.77,13.77,0,0,0-2.63-1.47,12.92,12.92,0,0,0-3.29-.91,13.68,13.68,0,0,0-5.11-1.39,13.22,13.22,0,0,0-2.44,0,23,23,0,0,0-7-4.42,20.35,20.35,0,0,0-5.15-1.29A14,14,0,0,0,139,248.88a40.09,40.09,0,0,0-5.81-6.92c-5.32-4.94-15.11-8.73-24-5.38a17.46,17.46,0,0,0-6.69,4.65h0c-3.18-1.36-12.86-5.51-20.56,2.52a17.26,17.26,0,0,0-3.54,5.42,15.37,15.37,0,0,0-3.22,2c-4.55,3.7-5.59,8.89-6.09,11.39l-.11.53c-2,7.93-.5,13.13,2.66,18.9l-.09.32c-1.18,4.31-2.07,9.47,2.39,16.18a12.81,12.81,0,0,0,4.52,4.13,18.11,18.11,0,0,0,3.08,5.52,19.64,19.64,0,0,0,5.66,4.5c.2.82.43,1.53.61,2.07v0a36.9,36.9,0,0,0,4.05,10.75l.43.84c1,2,2.09,3.9,3.1,5.7a70.2,70.2,0,0,1,3.81,7.37,67.46,67.46,0,0,0,3.17,6.26c.34.62.72,1.29,1.06,1.94-2.16,2.87-6.37,8.83-6.15,16.22-.63.15-1.13.3-1.48.42-2.29.85-8.36,3.12-11.13,9.87a14.79,14.79,0,0,0-1.2,5.84,16.48,16.48,0,0,0-1.54,12.55,12.4,12.4,0,0,0,.86,2.24,11.8,11.8,0,0,0,.68,5.1c-.92,7,4.12,11.55,5.93,13.18a12.15,12.15,0,0,0,1,.78,15.37,15.37,0,0,0,1.74,7.42c2.21,4.26,5.76,6.32,8.11,7.68l1.13.67c.73.44,1.81,1.23,2.85,2a41.57,41.57,0,0,0,8.65,5.24,18.67,18.67,0,0,0,2,.91c0,.5,0,1,0,1.54,0,.37,0,.91,0,1.55,0,6.39,0,11.9,4.08,16.24a16.59,16.59,0,0,0,7.16,4.42,26.43,26.43,0,0,0-3.69,12.86,20.89,20.89,0,0,0,1.51,7.5,19,19,0,0,0-.79,10.05c-1,1.34-2.75,3.31-3.92,4.6-1,1-1.87,2.06-2.71,3-.32.38-.53.6-.64.71l-.64.32c-.27-.09-.55-.16-.83-.23a14.13,14.13,0,0,0-10.5,1.24c-.32.12-.63.24-.92.37a15.21,15.21,0,0,0-3.7.13c-.25,0-.45,0-.62.07A16.91,16.91,0,0,0,89.1,506c-8.14,6.32-11.71,22.89-11.86,23.6-.08.41-.18.82-.27,1.23-1,4.78-3,13.68,3.85,20.21A15.46,15.46,0,0,0,87,554.65a14.78,14.78,0,0,0,6.12,5,12.33,12.33,0,0,0,7.64.87l.28.15c.21.11.39.22.55.32a20.6,20.6,0,0,0,3.75,1.89A23.22,23.22,0,0,0,106.7,565l.24.34c.11.36.27,1,.41,1.58a21.46,21.46,0,0,0-1,8.18c.43,4.59,3,7.75,5.52,10.8l.52.63a12.44,12.44,0,0,0,2.54,6.89,14.5,14.5,0,0,0,4.11,3.73,14.1,14.1,0,0,0-.83,1.24A47.07,47.07,0,0,1,115,602.9a53.73,53.73,0,0,0-6.52,10c-2.37,4.9-3.63,10.84-4.37,14.89-1.81,9.8,1,14.32,4.92,19.22l.27.34c.85,1.06,1.86,2.18,2.93,3.36l0,0c-3.63,3.59-8.75,9-9.69,18.29a24.38,24.38,0,0,0,5.19,17.51,75,75,0,0,0,5.78,5.64,12.48,12.48,0,0,0,5.37,2.67c.45.59,1,1.41,1.45,2,2,2.83,4.4,6.34,8.5,8.84,3.38,2,10.4,4.8,19.47.08a24.21,24.21,0,0,0,10-10.23c.32-.55.75-1.3,1-1.55,2.11-1.75,6.92-4.47,8.71-4.91a107.63,107.63,0,0,1,13.35-.49h2.81A68.13,68.13,0,0,1,196.57,690a14.92,14.92,0,0,0,8.48,1.33c.07,0,8.45-1.42,12.38-5.37l.38-.39a15.9,15.9,0,0,0,2.52.56,14.25,14.25,0,0,0,4.37-.12,17.58,17.58,0,0,0,.18,8,17.16,17.16,0,0,0,5.84,8.89,20.12,20.12,0,0,0,5.37,4.78,13.15,13.15,0,0,0,7.86,2.08c10.38-.57,15.12-12.1,15.78-17.59a14.42,14.42,0,0,0-4.48-12.62,14.65,14.65,0,0,0-10.16-7.26,19,19,0,0,0,7.59-7.7c2.42-4.77,1.54-9.51,1-12.34-.08-.41-.2-1-.22-1.24,0-.52,0-1-.07-1.54a27.09,27.09,0,0,0-2.27-10.94l-.17-.34c.78-.79,1.56-1.54,2.2-2.1a23.42,23.42,0,0,0,8.81-1.54,28.71,28.71,0,0,0,10.27-7.63c.3-.32.66-.71,1-1,.6.23,1.48.63,2.18,1a35.88,35.88,0,0,0,8.53,3,54.24,54.24,0,0,0,5.77.74c2.27.21,2.59.27,3.39.67,6.52,3.24,17.43,8.66,29,5.67a18.26,18.26,0,0,0,5.86-2.88l.85-.22a28.88,28.88,0,0,0,8-3.1c2.71-1.6,5.56-3,8.58-4.52l3.66-1.83,2.31-1.2c3.38-1.77,5-2.57,7.24-2.9.59-.09,1.41-.15,2.26-.21,4.42-.33,11.81-.87,17.55-7.39a22.94,22.94,0,0,0,4.24-8c.13-.36.3-.86.44-1.2.35-.4.76-.82,1.21-1.3s.79-.81,1.23-1.29a12.79,12.79,0,0,0,1.07,5.65,13.45,13.45,0,0,0,.43,1.69q-.08.75-.09,1.59c-2,4-4,9.46-3.5,14.68-.17.4-.26.67-.36,1a22.33,22.33,0,0,0-1.16,8.76,16.1,16.1,0,0,1,0,1.71c0,.52-.08,1.07-.12,1.61a35.48,35.48,0,0,0-.11,6.7,17,17,0,0,0,.5,2.57,12.64,12.64,0,0,0-.05,2,13.41,13.41,0,0,0,.22,4.82,13,13,0,0,0,2.32,4.86,12.68,12.68,0,0,0-2.13,3A12.49,12.49,0,0,0,383.88,675a68.84,68.84,0,0,1,2.24,6.68s0,.1.05.15c-.26,3.14.53,6.83,3.35,10.93a12.74,12.74,0,0,0,1,2.73,13.63,13.63,0,0,0,2,8,13,13,0,0,0,2.49,3,12.51,12.51,0,0,0,.29,10.84,14,14,0,0,0,2,2.88,18.9,18.9,0,0,0,4.69,4,12.55,12.55,0,0,0,5,1.74,13.19,13.19,0,0,0,2.8,0A12.6,12.6,0,0,0,417,736.49,14.74,14.74,0,0,0,430.53,740a13.68,13.68,0,0,0,3.65-1.42c.66,5.15,2.59,8.35,4.92,10.33a13.12,13.12,0,0,0,2,1.73c4,2.85,8.43,3.54,11.35,4l.94.15c3.64.61,6.53,2.18,11.24,5.26.7.46,1.37.86,2,1.24l.28.17a16.87,16.87,0,0,0,20.83,8.79,12.54,12.54,0,0,0,4.12,5.94,13.18,13.18,0,0,0-.18,1.82c0,.29,0,.62,0,1a12.71,12.71,0,0,0,.66,5.69,12.55,12.55,0,0,0,1.51,2.91,20.51,20.51,0,0,0,.4,6.7c.13.42.28.84.45,1.25a25.09,25.09,0,0,0,1.9,8.12c.17.4.31.82.46,1.23a24.22,24.22,0,0,0,5.38,9.32c.16,1,.32,2,.38,2.52a12.81,12.81,0,0,0,3.51,8.46,19.06,19.06,0,0,0,.74,2.52,17.8,17.8,0,0,0,0,3.61l0,.12s0,0,0,.08v0a12.41,12.41,0,0,0,1.69,8.35l.22.41a12.55,12.55,0,0,0,1.95,9.75c.2.37.39.73.59,1.07a12.75,12.75,0,0,0-.11,1.63,12.46,12.46,0,0,0,3.66,8.84c.32.31.64.61,1,.88,0,.13.07.27.1.39a14,14,0,0,0,5.22,11.84,12.75,12.75,0,0,0,7.82,2.66,13.38,13.38,0,0,0,8.31-2.93c.58-.38,2.16-1.16,3.22-1.69l1.41-.7a16.77,16.77,0,0,0,7.56.64A12.5,12.5,0,0,0,560.34,859a12.43,12.43,0,0,0,4.34-3.83l1.61-1.06a12.57,12.57,0,0,0,7.62-1.29,17.56,17.56,0,0,0,2.72-.62,20.41,20.41,0,0,0,8.43-4.5c.25-.22.56-.48,1-.8.88-.71,1.69-1.44,2.44-2.16a13.25,13.25,0,0,0,3.94-2,12.42,12.42,0,0,0,3.31-3.62l1.35-.71a41.26,41.26,0,0,0,8-5.06,17.69,17.69,0,0,0,4-5.41c.1-.19.23-.41.37-.66a13,13,0,0,0,2.13-1.52c.7.28,1.35.52,2,.72l.14.13a225.76,225.76,0,0,0,12.88,9.31,16.68,16.68,0,0,0,12.28-2.69l1.05-.21A42.33,42.33,0,0,0,644.3,832l.77-.23a20.4,20.4,0,0,0,8.29-4.17,15.08,15.08,0,0,0,4.74-8.45,12.4,12.4,0,0,0,2.29-6.1.07.07,0,0,0,0,0,22.32,22.32,0,0,0,.09-2.53,12.52,12.52,0,0,0,3.85-.52,32.91,32.91,0,0,0,8.29-3.12c.23-.11.46-.22.69-.35l0,0c2.54-1.42,4.73-2.86,6.85-4.25,1.65-1.07,3.21-2.09,4.73-3a85.52,85.52,0,0,0,8.68-5.87c3.87-2.88,6.19-4.53,8.81-5.06l.12,0a16.16,16.16,0,0,1,3.08,1c6.55,2.55,12.56,4.74,19.82,5.8a31.93,31.93,0,0,0,9.43-.43h.25c3.39-.14,7.6-.3,12.55-3.89a23.87,23.87,0,0,0,3.11-2.7c.88-.25,1.91-.54,2.86-.85a15.9,15.9,0,0,0,7.73-4.88,16.87,16.87,0,0,0,5.92,2.77c7.49,2.53,14.39-2.69,19.11-6.26l.1-.07c.19-.13.36-.23.51-.32a18.42,18.42,0,0,0,5.82-5.15,14.66,14.66,0,0,0,3.93-5.45,12.33,12.33,0,0,0,.73-2.48,12.59,12.59,0,0,0,6.57.81c.49.33,1,.67,1.59,1,2.31,1.36,5.45,3.33,7.47,4.68,1.71,1.14,7.13,4.24,11.57,4.81,2.1.27,4.94.23,10.13-2.08.7-.32,1.69-.76,2.77-1.38.36-.1.72-.22,1.08-.35l.09,0a60.8,60.8,0,0,0,9.85-13.62,25.21,25.21,0,0,0,4.06-5.43,22,22,0,0,0,1.95-5.78c0-.11.05-.23.08-.36s.31-.39.46-.6a11.74,11.74,0,0,0,1.59-1.83l.17-.24a15,15,0,0,0,2-4.72c.11-.36.23-.79.34-1.14l.09-.21c.27-.59.7-1.54,1-2s.89-.91,1.31-1.32c2.76-2.71,6.53-6.42,7.52-12.11.84-4.9-.74-9.19-1.79-12,0-.13-.1-.29-.16-.44a23.91,23.91,0,0,0,0-4.48,22.23,22.23,0,0,0-6.19-13c-.24-.27-.5-.56-.76-.87a41.31,41.31,0,0,0-6.78-6.31l-.38-.29a60.36,60.36,0,0,1,2.91-11.4,13.1,13.1,0,0,0,3-8.82,16.78,16.78,0,0,0-4.14-10.71,33.48,33.48,0,0,0-15.33-20.28c-1.07-.7-2.09-1.25-2.95-1.71l-.76-.41a12.14,12.14,0,0,0-1.44-.84l-.78-1.45a21.08,21.08,0,0,1-2.21-5c-2.48-10.59-9.13-13.45-13.53-14.32a15.68,15.68,0,0,0,.09-5.8,15.24,15.24,0,0,0-1.37-4.2,25.87,25.87,0,0,0,7.71-9.16c.31-.66.53-1.08.68-1.35a13.56,13.56,0,0,0,1.67-8.08l.62-.28a44.66,44.66,0,0,0,7.94-4.32,33.71,33.71,0,0,0,4.44-4c.54-.55,1.36-1.39,1.62-1.59,1.67-1.1,3.35-2.21,4.88-3.41a16,16,0,0,0,3.58,2.14,15.31,15.31,0,0,0,3.43,1c2.53,3.93,6.79,9.23,14.36,9.1,5.35-.1,9.1-3.1,14.56-9,4.2-4.51,6.41-7.58,7.4-10.55a15,15,0,0,0,3.55-5.75,14,14,0,0,0,.13-9.09c1.74-3.21,2.55-7.84.51-14.39a11.83,11.83,0,0,0-.4-1.32,12.54,12.54,0,0,0-1.59-16.9c-1-1.15-3.4-4-4.23-5l0,0,0,0-.07-.09-.84-1.19c-.42-.58-.66-.91-.82-1.17l.83-1.1a12.45,12.45,0,0,0,2.37-5.3c0-.26.1-.52.13-.78a13.07,13.07,0,0,0,4.47-2.72,12.45,12.45,0,0,0,4.29-7.05,16,16,0,0,0,7.4-10.8,12.84,12.84,0,0,0,.23-1.6c.88-.71,1.61-1.41,2.18-2,4.87-4.65,6.56-12.17,7-14.37a27.2,27.2,0,0,0-.58-9.4,15.24,15.24,0,0,0-.45-4c-2.2-8.83-10.8-12.69-19.11-16.42l-1.38-.62a13.43,13.43,0,0,0-8.93-15.77,15.67,15.67,0,0,0-1-11.57,14.74,14.74,0,0,0-1.63-2.63c5.44-4.45,7.51-9.84,6.18-16.06.88-.93,2.36-2.2,3.34-3a58.21,58.21,0,0,0,4.75-4.38,14.92,14.92,0,0,0,5.68-10.06,31.54,31.54,0,0,0,.43-3.16,45,45,0,0,0,5.65-6.45,36.82,36.82,0,0,0,2.4-3.65c4.1-7.27,1.37-13.52-2.21-16.68-.34-.29-.63-.59-.91-.87a27.57,27.57,0,0,0-3.42-3l.74-.68c1.66-1.56,3.37-3,5.17-4.57,1.56-1.35,3.19-2.74,4.8-4.21.18-.16.42-.35.67-.55C917.87,320.69,925.16,314.78,922.48,305.85ZM241.62,696.41l.72-.17C242.55,697.12,242.15,696.93,241.62,696.41Z"/>
    <path id="unknown" class="map-bounds" d="M836.91,847a14,14,0,0,0-6-11.83c4.53-4,6.57-9.65,5.36-15A13.65,13.65,0,0,0,821,809.57c-7.23,1-14.93,8-14.43,16.68a14.17,14.17,0,0,0,3.94,9.08c-3.85,2.23-8.27,5-10.1,7.9a12.51,12.51,0,0,0-8.65-11.05l-.13,0c-1-.41-2.53-1-4.07-1.52-9.35-3-14.24,1.77-16.09,4.3a12.59,12.59,0,0,0-3.28,5.14h0a.14.14,0,0,1,0,.06,16.42,16.42,0,0,0-.38,8.41A12.51,12.51,0,0,0,785,861.35h0a19.1,19.1,0,0,0,7.18-3.17l.5-.37a18.25,18.25,0,0,0,6.42-7.25c.33,5.12,2.45,11.06,5.65,14.46a17,17,0,0,0,10,5.07,12.49,12.49,0,0,0,13,.45,12.36,12.36,0,0,0,3.15-2.51C843.08,859.08,838.64,849.76,836.91,847Zm-3.21,9.5a11.54,11.54,0,0,1,.37,2.27A13.6,13.6,0,0,0,833.7,856.52Z"/>
    <path id="san-yara" class="map-bounds" d="M560.62,911.63c0,9.13-6.33,12.51-8.37,13.36a13.53,13.53,0,0,1-5.16,1c-3.63,0-8.39-1.47-13.15-7.21a20.59,20.59,0,0,1-1.48-2l-.25-.24c-3,3.35-7.08,5.08-9.51,6.12-.41.17-.8.33-1.12.48a12.5,12.5,0,0,1-16.91-4.88,12.88,12.88,0,0,1-1.14-2.8,14.69,14.69,0,0,1-4.18-8.35c-.05-.41-.09-.68-.12-.85a12.68,12.68,0,0,1,5.66-13c4.48-4.85,11.35-8.67,18.54-6.07a13.33,13.33,0,0,1,6.24,4.64,1.46,1.46,0,0,1,.16-.19c.55-.69,1.83-2.27,5.88-4.57,2.9-1.65,7.36-3.68,12.56-2.33a13.14,13.14,0,0,1,7.19,4.82,12.51,12.51,0,0,1,3.18,14.36,13.2,13.2,0,0,1,1.88,5.68C560.59,910.3,560.62,911,560.62,911.63Z"/>
    <path id="ursa-madeum" class="map-bounds" d="M445.64,827.79c0,.34,0,.67-.08,1a12.61,12.61,0,0,1-.17,4,13.84,13.84,0,0,0,0,1.89c0,1.12,0,2.52,0,4.25-.21,4.64-1.29,7.78-3.05,10.35a12.87,12.87,0,0,1-4.61,6.75,13.5,13.5,0,0,1-4.23,2.19,12.51,12.51,0,0,1-4.79,2.69,12.87,12.87,0,0,1-3.75.56,12.62,12.62,0,0,1-7.65-2.58,19.77,19.77,0,0,1-6.89-3.54c-.58-.09-1.45-.19-2.14-.26a37.14,37.14,0,0,1-7-1.29c-.36-.11-.75-.19-1.14-.29-3-.73-8.56-2.08-12.78-7.27a18.48,18.48,0,0,1-4.11-11.22,12.61,12.61,0,0,1-.7-7.86,13.36,13.36,0,0,1,2-4.44,18,18,0,0,1-10,5.59,22.2,22.2,0,0,1-2.55.32,15.22,15.22,0,0,1,.92,6.06.86.86,0,0,1,0,.16,15.74,15.74,0,0,1-.5,7.42l0,.11-.09.34c-2.53,9.5-15,16.17-23.52,14.94-5.32-.76-15.6-6.68-15.3-16.9a13.62,13.62,0,0,1,1.91-6.35c.87-3.53,3.14-6.32,5.36-8.65,2.74-2.88,6.58-6.2,11.92-6.34a13,13,0,0,1,3.72.44,16.62,16.62,0,0,1-.25-12.13,16.14,16.14,0,0,1,3.49-10.26A12.6,12.6,0,0,1,382.07,795c.18.17.43.38.63.54.56.49,1.21,1,1.89,1.69l.15.15a17.35,17.35,0,0,1,4.2,17.77,20,20,0,0,1-2.58,5.31,33.54,33.54,0,0,1,7.64-6,18.63,18.63,0,0,1,2.05-.82,14.15,14.15,0,0,1,6.29-2.49,48.72,48.72,0,0,1,3.81-3.22c.3-.24.58-.45.79-.63,6.59-5.76,13.95-8.1,21.87-6.93h.07a20.54,20.54,0,0,1,14.51,8.52,33.22,33.22,0,0,0,2.52,7.45,12.28,12.28,0,0,1,.48,2.95,33.9,33.9,0,0,1-.53,6.84C445.76,826.77,445.65,827.49,445.64,827.79Z"/>
    <path id="biazo" class="map-bounds" d="M182.75,168.32a16,16,0,0,0-12-2.74l-.86.17a13.46,13.46,0,0,0-2.49-.3,17.9,17.9,0,0,0-11.9,4.68h0a18.12,18.12,0,0,0-1.95-3.43c-3.37-4.68-8.29-7-12.25-8.85-.93-.44-2.33-1.1-2.72-1.35-13-9.48-24.89-2.92-30-.11-8,4.42-10.65,11.58-12.24,15.86-.31.84-.76,2-1.07,2.66a17.23,17.23,0,0,0-7,6c-.21.11-.41.23-.61.36a13.34,13.34,0,0,0-6.1,9.71A13.77,13.77,0,0,0,81,202a21.06,21.06,0,0,0,.12,3.14,66.19,66.19,0,0,0,1.25,7l.06.22a23.27,23.27,0,0,0-1.62,9.94,11.56,11.56,0,0,0-1.47.59c-6.63,3.07-10.69,8.23-11.15,14.15a15.05,15.05,0,0,0,7,13.67,16.82,16.82,0,0,0,9.37,3A14.45,14.45,0,0,0,95,249.33a15.64,15.64,0,0,0,4.1-8.12c.28.11.57.22.87.32a13.63,13.63,0,0,0,11.23,1.52,12.38,12.38,0,0,0,4.28,4.11l.75.74a13.65,13.65,0,0,0,1.54,1.4c5.28,4.09,12.56,4.49,19.47,1.06a23,23,0,0,0,8-6.39l.51-.1a38.69,38.69,0,0,0,8-2.14c4.52-2,12.43-8.6,14.08-14a17.61,17.61,0,0,0-1.09-14,12.58,12.58,0,0,0,10-11.08l0-.1a13.48,13.48,0,0,0,.26-7c1.81-1,10.58-6.15,11.4-14.87A13.49,13.49,0,0,0,182.75,168.32Zm-31.6,42.23a.55.55,0,0,1,.08-.15C151.27,210.54,151.25,210.59,151.15,210.55Zm12.39-9.41c-.07-.07-.11-.29-.08-.74,0,.18.19.37.38.56a1.89,1.89,0,0,1,.42.49A2.55,2.55,0,0,1,163.54,201.14Zm5.16-20.59a.06.06,0,0,1-.11,0h.14Z"/>
    <path id="lake-ashville" class="map-bounds" d="M799.29,695.17a5.19,5.19,0,0,1-1.55,2.07,34.35,34.35,0,0,0-2,4.23,4.31,4.31,0,0,1-.43.89,5.25,5.25,0,0,1-5.17,5.1c-2.19,0-4.28-1.51-6.83-3.51a6.94,6.94,0,0,1-3.89-.52l0,0a5,5,0,0,1-2.9-3.61,16.11,16.11,0,0,1-1.77-3.27,7.63,7.63,0,0,0-1.83-3,13.62,13.62,0,0,0-2.62-.28c-2.52-.12-5.65-.28-8.12-2.53-2.67-2.44-4.21-7.43.26-13.44s12.49-10,19-6.14a10.34,10.34,0,0,1,3.66,4.47l.19.38a8.6,8.6,0,0,1,5.17,2.15,10.12,10.12,0,0,1,2.46,3.52,5.08,5.08,0,0,1,3.14,2.39l.08.14C800,691.58,800.11,693.13,799.29,695.17Z"/>
    <path id="great-sine" class="map-bounds" d="M710.72,625.51a6.26,6.26,0,0,1-3.46,4.36,19.17,19.17,0,0,0-1.79,1.1c-2.11,1.38-4.92,3.22-8.46,3.22a9.94,9.94,0,0,1-1.32-.08,9.53,9.53,0,0,1-2.88-1c-.67-.31-2.37-1.1-3.56-1.54a5,5,0,0,1-1.81.18,5,5,0,0,1-4.4-3.62,3.7,3.7,0,0,1-.48-.42,5,5,0,0,1,0-7l.14-.14c.37-.36.86-.91,1.38-1.49,3.06-3.4,9.42-10.49,17.51-6.91a5.22,5.22,0,0,1,2.41,2.18,11.31,11.31,0,0,1,4,4l.27.32C709.36,619.89,711.39,622.3,710.72,625.51Z"/>
    <path id="ponkapoag-lake" class="map-bounds" d="M637.78,531.19a5.1,5.1,0,0,1,1.44,5.48A5,5,0,0,1,634.9,540a12.85,12.85,0,0,0-1.08,3.87,17.18,17.18,0,0,0,.16,2.83c.28,2.72.59,5.8-.74,8.58a7.32,7.32,0,0,1-1.48,2c.14.26.26.52.38.8,1.58,3.73.68,8.42-.57,11.31a3.61,3.61,0,0,0-.25.93,7.47,7.47,0,0,1-1.78,3.93,18,18,0,0,1-3.65,2.9,18,18,0,0,0-1.94,1.39c-.56.51-1.12,1.16-1.72,1.83-1.84,2.09-4.7,5.34-9.26,5.34a11,11,0,0,1-3-.44,12.22,12.22,0,0,1-3.7-1.65,2.58,2.58,0,0,0-.68-.35l-.35-.15c-2.9-.28-7.81-4-9.37-6.16-2.71-3.78-3.06-6.3-1.39-10l.28-.65a9.75,9.75,0,0,1-3.27-7.8,8.33,8.33,0,0,1,.46-2.08,5.52,5.52,0,0,1-.72-.53,6.49,6.49,0,0,1-2.51-4.84,3,3,0,0,0-.29-1.13,9.38,9.38,0,0,0-1.72-2.45,18.37,18.37,0,0,1-3.79-6.13c-2.21-6.55.79-11.32,2.77-14.48a16.5,16.5,0,0,0,1.86-3.51,6.31,6.31,0,0,1-2.14-2.63,17.18,17.18,0,0,1-.87-4.5l0-.27c-.08-.37-.24-1-.42-1.72-1.08-4.26-1.29-5.29-1.12-6.54.63-4.55,3.75-7.79,6.26-10.4l.33-.35a5.92,5.92,0,0,1,.11-2.91c.28-1,1.34-4.29,3-5.84a10,10,0,0,1,7.08-2.36c1.56-1.87,3.87-4.48,7.61-4.49h0c2.59,0,5,1.31,7.13,3.88s2.54,6,2.9,9a17.52,17.52,0,0,0,.67,3.71c1.18,2,3,2.71,6.07,3.86a32,32,0,0,1,5.31,2.39c1.5.9,11,8.6,11,13.27a5.48,5.48,0,0,1-1.78,4.12l-.3.26a5,5,0,0,1,.1,2.21,4.92,4.92,0,0,1-2.08,3.3A15,15,0,0,0,637.78,531.19Z"/>
    <path id="sidereal-lake" class="map-bounds" d="M607.39,382.17a17.94,17.94,0,0,1-2.65,2.81c-1.59,1.38-3.74,2.73-6,2.73a5.45,5.45,0,0,1-1.84-.32,5.67,5.67,0,0,1-3.58-6.43c0-.1,0-.21.05-.32a5,5,0,0,1-1.54-1.62,20.11,20.11,0,0,1-2-5.75,23.11,23.11,0,0,0-.71-2.56,6.28,6.28,0,0,1-2.74-1.3,5.82,5.82,0,0,1-1.83-2.67,10.09,10.09,0,0,1-3.32-1.78,6.35,6.35,0,0,1-1.31-1.41,5,5,0,0,1-3-.65h0a6.42,6.42,0,0,1-3.31-4.48,5.81,5.81,0,0,1-2.73-1.75l0,0a5,5,0,0,1-.13-6.53.66.66,0,0,1,0-.14,5.61,5.61,0,0,1-2,1,26,26,0,0,1-3.48.61c-.43.06-.86.11-1.28.18h0a5,5,0,0,1-4.83-2,28.27,28.27,0,0,1-7.71.37,6.12,6.12,0,0,1-2.4-.63,6.83,6.83,0,0,1-2.49.78l-.44.06a13.39,13.39,0,0,1-1.78.21,6.3,6.3,0,0,1-3.06-.79c-3.73,2.38-6.86,2.31-9.31-.2a6.83,6.83,0,0,1-2-6.51c1.1-4.39,6.23-6,8.42-6.68l.22-.07a11.49,11.49,0,0,1,5.33-.73,8,8,0,0,0,1.12,0c.49,0,1.47,0,2.52,0,.77,0,2,0,2.6,0a7.89,7.89,0,0,0,1.26-.83,13.28,13.28,0,0,1,4.56-2.39,10.75,10.75,0,0,1,6.51.24c.29.09.49.15.64.18,2.67-2.29,5.63-1.72,8-.94a8.1,8.1,0,0,1,3.69,2.43l.63-.12c6.6-1.32,10.7.71,12.2,6a7.59,7.59,0,0,1-1.7,7l.13.17,0,.05a22.73,22.73,0,0,1,4.9,1.28l.49.17c.58.1,1.07.16,1.48.21,3.27.41,5.08,1.15,7.84,4.7a14.5,14.5,0,0,1,2.64,5.56c.1.35.21.73.34,1.15A12.59,12.59,0,0,0,605,363a22.25,22.25,0,0,1,1.78,3.56C609.34,373.46,609.54,378.58,607.39,382.17Z"/>
    <path id="coconino-marsh" class="map-bounds" d="M494.94,373.71c0-.11-.08-.22-.11-.33a7.8,7.8,0,0,0-5.17-5.35,5.82,5.82,0,0,0-2.25-.24,7.15,7.15,0,0,0-1.71-2.31,13.2,13.2,0,0,0-5-2.6,8,8,0,0,1-.79-.27,13.84,13.84,0,0,0-4-.64,6.9,6.9,0,0,0-5.56-.35,13,13,0,0,0-4.41,2.82l-1-.67c-.5-.31-1.19-.76-1.57-1a10.51,10.51,0,0,0-1.54-3l-1-1.22-1.82-2.1-.21-.25a5,5,0,0,0-4.81-1.58,12.6,12.6,0,0,0-5,3.11,7,7,0,0,0-3.19-.42,23.69,23.69,0,0,0-.31-2.8c-.76-4-3.74-4.65-4.63-4.76l-.62,0a8.16,8.16,0,0,0-.84-1.54c-2.45-3.37-5.1-5.62-10.13-5.66h-.14a11.33,11.33,0,0,0-9.62,4.69,7.36,7.36,0,0,1-1.77,1.69c-.2,0-.64,0-1,0a10.23,10.23,0,0,0-4.76.87,10.34,10.34,0,0,0-2.63,1.85c-.82-.12-1.7-.2-2.63-.29l-.81-.08q-4.56-4.11-8.32-1.63H395.2a5,5,0,0,0-4.61-2.05,27.84,27.84,0,0,0-9.86,3.88c-3.26,2.29-4.11,4.19-4.48,6.7a6.15,6.15,0,0,1-.15.81,7.06,7.06,0,0,0-3.27,6.82l-.5.44a24.73,24.73,0,0,0-2.34,2.24c-3.17,3.47-4.4,6.58-3.78,9.5a6,6,0,0,0,2.65,3.85,8.11,8.11,0,0,0-.21,3.2,19,19,0,0,0,1.16,3.08,30,30,0,0,0-2.32,2.27,13,13,0,0,0-1.38,1.81,5.57,5.57,0,0,0-1.31.32c-.23.1-.69.24-1.23.43-4.32,1.46-6.49,2.19-7.66,4.37a7.77,7.77,0,0,0,1.13,9.07,12,12,0,0,0,1.54,1.42c0,.15,0,.31-.05.49-.13.35-.43,1.08-.64,1.59-1.37,3.34-2.2,5.36-1.35,7.65a8.08,8.08,0,0,0,4.58,5.08c3.16,1.23,5.95-.19,7.79-1.14l.86-.43a22.6,22.6,0,0,1,1.41,1.89,22,22,0,0,0,2.39,3,16.82,16.82,0,0,0,6.34,3.51,17,17,0,0,1,2.33,1,13,13,0,0,1,2.76,5.28,5,5,0,0,0-.18,3.31,9.62,9.62,0,0,0,1,1.77l0,0c.12.14.23.27.35.39,1.59,2.18,4.44,5.09,7.57,4.85a5.21,5.21,0,0,0,4-2.41,28.57,28.57,0,0,0,1.8,3.8c2.68,4.65,5.73,6,10.2,6a33.32,33.32,0,0,0,3.45-.2c5.76-.6,8.57-2.73,12.32-7a19.56,19.56,0,0,0,4.19-7.81,27.08,27.08,0,0,1,1.2-3.24,30.85,30.85,0,0,1,2.55-4.25c.66-1,1.34-2,2-3.09a5,5,0,0,0,7-1.89c.65-.13,1.45-.24,2-.32,2.61-.37,5.57-.78,6.9-3.78,1.56-3.49,0-6.89-4.61-10.1a5.66,5.66,0,0,0-.07-1.48c.08-.08.16-.15.23-.23,1,.32,2.35.82,3.2,1.13,1.53.57,2.51.93,3.3,1.13a28,28,0,0,0,4.72.59c.72.06,1.72.13,2.55.23a5,5,0,0,0,7.2,2.35c.49-.2,1.53-.58,2.4-.9,7-2.58,9.6-3.72,11.07-5.42l.68-.77a7,7,0,0,0,2.08-4.13c.05-.29.12-.7.27-1.34a17.29,17.29,0,0,0,.29-3,8.2,8.2,0,0,0,2.23-3.95,28.05,28.05,0,0,0,.71-3.69,4.37,4.37,0,0,1,.71-2.36,7.19,7.19,0,0,1,1.3-1,12.17,12.17,0,0,0,3.76-3.52l0,0a5,5,0,0,0,.76-2.71c.05-.62.21-1.79.37-2.71A5,5,0,0,0,494.94,373.71Zm-44.79-8.58a.75.75,0,0,1,.09-.55A1.15,1.15,0,0,1,450.15,365.13Zm-79.42,29.13a1.14,1.14,0,0,1,.15.23l-.15-.22-.17-.24A2,2,0,0,1,370.73,394.26Z"/>
  </g>
  <g id="waters">
    <path class="map-water-lake-ashville" d="M794.6,693.35c-1,.34-3.13,5.2-3.57,6.38.15-.41-.72.37-.75,2.53,0,1-4.6-2.82-5.2-3.25-1.58-1.15-2,.57-3.72-.18,1.79.79-1.23-2.46-.87-2-1.36-1.78-1.89-5.39-4.85-7.43-2.77-1.9-7.92-.31-10.15-2.34-4.23-3.87,6.81-15.46,13.27-11.6,1.47.89,2.08,4,3.65,5.1,1,.65,3.25.07,4.51,1.25,2.19,2.07,1.81,4.65-.53,3,.38,2.71,4.86,1.17,5.25,1.84S795.14,693.18,794.6,693.35Z"/>
    <path class="map-water-great-sine" d="M705,625.4c-2.61,1.31-5.42,4.17-8.69,3.75-.56-.07-8.34-4.26-8.48-2.41,0-.35-1.16-3.2-1.75-2.59,2.81-2.73,7.64-10,13.42-7.45.43.2-1.1.45-.58.75,2,1,3.36,1.13,4.88,3.56C704.46,622,707.2,624.31,705,625.4Z"/>
    <path class="map-water-ponkapoag-lake" d="M634,518.13c-.16.79-2.6,1.28-2.8,2.44-.39,2.23,5,2.51.85,3.17-2.16.35.46,9.86,2.48,11.21a0,0,0,0,1,0,.09c-3.94-.38-5.19,5.6-5.57,8.12-.41,2.79,1.08,7.43-.14,10-.61,1.27-5.06,3.69-3.65,4s-1.28.55,1.07,1.44,2.21,5.66.83,8.85c-.78,1.81-.42,2.68-1.16,3.5-1.27,1.41-3.55,2.4-5.24,3.94-3.07,2.8-4.83,6.86-9.23,5.61-2.36-.68-2.09-1.14-3.94-1.85-1.12-.44.66-1-.37-1.49-2-1-.84.65-1.19,1s-4.64-2.28-5.91-4.06c-2.37-3.31-1.41-3.55-.35-6.3.57-1.5,5.38-7.26.67-7.73-.93-.09.5,3.44-1.86,2.71-.94-.29-2-2.45-1.92-3.77.21-2.48,4-5,1.47-6.94-1.14-.87-3.2.33-3.44.12-1.35-1.17-.27-1-1.39-4-1.22-3.22-4.25-4.85-5.45-8.41-2.66-7.88,5.78-11.25,5-18.44-.09-.85-2.41-1.88-2.66-2.49a26.12,26.12,0,0,1-.59-3.71c-.24-1.18-1.6-6.12-1.51-6.73.59-4.34,5.38-7.53,7.74-10.85.38-.52-1.56-.85-1.2-2.09a13.54,13.54,0,0,1,1.6-3.54c2.11-1.92,5.27-.42,6.34-1.43,2.2-2.35,4.4-6.73,8.3-2,2.21,2.66,1.32,9,3.12,12,3.17,5.31,8.83,5.42,13.1,8,2.92,1.75,8.56,8,8.56,9S634.26,517.73,634,518.13Z"/>
    <path class="map-water-sidereal-lake" d="M603.1,379.61c-.21.35-5.29,5.17-4.84,2.06.12-.85,2.58-4.65,2.58-4.57-.06-6.13-4.66-.53-4.73-.64-1.66-2.83-1.43-7.14-3.67-9.84-.92-1.12-2.19-.45-2.93-1.06s-.36-2.29-.72-2.52c-1.64-1.06-2.91-.72-4.48-2-1.22-1,.25-2.35-1.42-3.23-1.33-.7-4.17.38-3.54.75-1.73-1-.34-1.77-1.51-2.67,1,.74-1.16-2.67-1-2.06a22.44,22.44,0,0,1-2.38-.55c1.57,1.74,1.11-4.12,1.08-4.31a12.72,12.72,0,0,0-2.57-4.87c1,.8-5.27-.36-5-.41-.74.13.12,2.22-.67,2.43-1.27.34-2.83.45-4.25.68.26,0,2.47-4.2,2-4.59-1.9-1.52-4.62,1.94-5.78,2.3a21,21,0,0,1-7.69.61c-1-.06-1.22-1.44-2.5-1.33-.47,0-2.65,1.49-3.12,1.49-.11,0-1.62.25-1.82.25-.84,0-2.09-1.48-2.74-1.48-1.9,0-4.42,3.62-6,2-2.86-2.93,3.58-4.66,4.69-5,2.75-.92,2.75-.34,5.08-.44,1.15-.05,5.34.07,5.9-.07,2.57-.66,3.77-2.7,6.13-3.34,3-.79,3.8.79,6.63.65,3.23-.17,1.35-2.67,5.62-1.24,2.26.75,1.3,2.12,4.26,2.72,2.29.46,7.61-2.82,9,2.22.62,2.24-2.4,3.24-2.26,5.45.19,3,2.7,3.68,3.15,6.62-.44-2.82,5.77,0,6.69.15,3.72.67,4-.07,6.48,3.09,1.39,1.8,1.49,3.06,2.15,5.15.78,2.43,2.32,4.14,3.11,6.27C603.21,371.29,604.86,376.67,603.1,379.61Z"/>
    <path class="map-water-coconino-marsh" d="M490.82,376.54c-1.07-1.39-1.85,6.37-1.75,6.22-1.09,1.74-3.7,2.4-5,4.46-1.73,2.67-1.14,4.06-2,7.49-.58,2.17-1.78,1.9-2.41,2.86.23-.34-.09,4-.15,4.25-.71,3.06,0,1.82-1.93,4.09-1.37,1.57-12.19,5-12.29,5.32,1.06-3.85-7.15-2.86-10.65-3.74-1.69-.42-7.31-2.88-8.69-2.67-1.89.29-5.94,5.55-6.29,5.5,3.11.42,2.53,1.93-.08,1.36-.28-.06-.72,2.61-.26,3.14,1.59,1.82,2.76-.13,3.76.54s4.49,2.76,3.71,4.5c-.55,1.24-9,.48-8.69,3.74-.64-7.07-4-4.61-5.91-.19-1.54,3.49-4,5.94-5.75,9.72-1.86,4-1.63,6.49-4.59,9.82-3.19,3.61-4.9,4.88-9.1,5.31-5.49.57-6.86,0-8.8-3.33-1.67-2.89-1.93-5.23-3.89-8-.22-.3-3.26-3.5-3.52-3.62-2.28-1-2.84,7.24-2.86,7.39-.21,1.55-4-3.17-4-3.16,2.59,3.08.22-3.25.36-2.54a17.86,17.86,0,0,0-4.34-8.31c-1.94-1.8-6.47-2.29-8.54-4.35-1.76-1.76-3.36-5.5-5.92-6.42-3.65-1.31-7.84,5.47-9.95-.2-.28-.76,2-5.4,2.19-6.44a22.72,22.72,0,0,0,.12-4.56c0,.31-5-1.88-3.23-5.11.32-.6,5.3-2.11,6.34-2.52a1.41,1.41,0,0,0,1.9,0c1.12-.84,1.63-2.34,2.61-3.39,2.16-2.33,3.76-3.18,5.49-5.33-.82,1-3-3.7-3-4.1-.25-1.79,1.34-2.89.69-5-.46-1.53-2.88-1-3.19-2.42-.35-1.63,1.48-3.88,2.58-5.09,1.75-1.91,2.87-2.33,4.11-4.17.42-.63-.28-2.57.18-3.57s2-1.38,2.51-2.57c1.42-3.32-.2-3.64,3.12-6a23.34,23.34,0,0,1,7.55-3A1.47,1.47,0,0,1,391,354c.4.82,6.17.54,7,.6,2.92.22,1.42-2.44,4.5.35.27.24-.82,1-.86,1s10.2.6,9.19,1.39c.81-.64,1.58-2.26,3.26-3.08s3.87.18,5.92-1c3.93-2.24,3.65-5.82,9.1-5.77,2.74,0,4.14.87,6.12,3.6.85,1.17,2.48,8.94,4.77,3.78.74-1.68,1.12,8.72.24,7.85,1.87,1.85,5.31-1.45,7.18-.17.81.55-.65,2.45,1.61,3.17a3.06,3.06,0,0,0,.82-1.7.86.86,0,0,1,.24,1.12c-.19-.61.92-1.65,1.52-1.61-2-.11,2.17-3.81,3.31-4.06,0,0,2.77,3.21,2.84,3.3.8,1.06.84,2.22,1.38,2.9,1.3,1.63,4.73,3,6.27,4.84a46.62,46.62,0,0,1,2.82,4.24,1.21,1.21,0,0,1-.83.9c-.13.88,2.59-.33,2.05-.7,2,1.39,5.35-4.63,3.51-6.9,0,0-3.18,3-4.09,2.32-1.54-1.24,1.81-3.6,3-4,1.54-.52,1.72.41,3.15.69a17,17,0,0,1,2.84.18c1.21.51,3.17.85,4.41,2s.76,3.25,2.41,4.26,2.37-1,3.43-.64C490.14,373.41,489.85,375.26,490.82,376.54Z"/>
  </g>
</svg>
